<svg xmlns="http://www.w3.org/2000/svg" width="350" height="210" fill="none" viewBox="0 0 350 210"><g clip-path="url(#a)"><path fill="#5474f6" d="M0 0h349.333v209.6H0z"/><path fill="#fff" d="m109.5 51.748-55.255-.69v29.975H109.5V51.059"/><path fill="#1f1f1f" d="M54.243 81.548h55.255a.52.52 0 0 0 .522-.521V51.053a.522.522 0 0 0-1.043 0v.162l-54.728-.684a.56.56 0 0 0-.373.15.52.52 0 0 0-.155.372v29.974c0 .288.234.521.522.521m54.734-1.042H54.765V51.58l54.212.676z"/><path fill="#1f1f1f" d="m447.498 197.589 56.307-.055-.015-15.66c-.02-20.044-8.418-39.402-23.042-53.111s-34.486-20.844-54.489-19.565l-157.477 10.036-141.435 5.661c-4.547.186-8.86-1.452-12.145-4.602a16.45 16.45 0 0 1-5.107-11.941l-.053-27.375-56.306.108.052 27.375c.039 19.998 8.009 38.633 22.443 52.473 13.706 13.144 31.492 20.283 50.361 20.284q1.5 0 3.007-.06l141.767-5.675q.333-.014.664-.035l157.81-10.057c6.23-.388 10.444 2.619 12.399 4.453 1.956 1.833 5.238 5.841 5.244 12.086z"/><path fill="#1f1f1f" d="m151.499 373.542 45.344-102.182a38.46 38.46 0 0 1 29.006-22.418l51.771-8.504c9.85-1.619 19.398 3.693 23.219 12.915l28.217 68.109c8.202 19.798 23.633 35.193 43.449 43.349 19.817 8.156 41.613 8.085 61.375-.203l93.878-39.368-27.824-66.35-93.878 39.368c-2.544 1.069-4.758.6-6.166.021s-3.309-1.806-4.365-4.356l-28.217-68.109c-8.026-19.369-22.534-35.647-40.855-45.839-18.322-10.191-39.807-13.932-60.493-10.534l-51.772 8.503c-36.88 6.059-67.948 30.071-83.108 64.232L85.737 344.358l65.763 29.183zM121.124 11.86h17.442v56.432h-17.442z"/><path fill="#1f1f1f" d="M121.122 68.815h17.443a.52.52 0 0 0 .521-.521V11.86a.52.52 0 0 0-.521-.521h-17.443a.52.52 0 0 0-.521.521v56.433a.52.52 0 0 0 .521.521m16.921-1.043h-16.4v-55.39h16.4z"/><path fill="#1f1f1f" d="M43.262 29.914h90.386V50.23H43.262z"/><path fill="#1f1f1f" d="M43.265 50.757h90.386a.52.52 0 0 0 .521-.521V29.92a.52.52 0 0 0-.521-.522H43.264a.52.52 0 0 0-.52.522v20.316c0 .288.232.52.52.52m89.865-1.043H43.786V30.441h89.344z"/><path fill="#fff" d="M138.567 29.164v21.83H469.16L484.097 38l10.161-8.837z"/><path fill="#1f1f1f" d="M138.569 51.508h330.592a.52.52 0 0 0 .342-.128l25.099-21.829a.52.52 0 0 0-.342-.914H138.569a.52.52 0 0 0-.521.521v21.83a.52.52 0 0 0 .521.52m330.397-1.043H139.09V29.68h353.776z"/><mask id="b" width="348" height="15" x="138" y="36" maskUnits="userSpaceOnUse" style="mask-type:luminance"><path fill="#fff" d="M138.479 36.973v14.022h330.676l15.931-13.933z"/></mask><g mask="url(#b)"><mask id="c" width="6" height="8" x="134" y="44" maskUnits="userSpaceOnUse" style="mask-type:luminance"><path fill="#fff" d="M134.558 44.086h4.692v7.038h-4.692z"/></mask><g fill="#1f1f1f" mask="url(#c)"><path d="M139.252 44.89a.802.802 0 1 1 0-1.604.802.802 0 0 1 0 1.604m0 7.035a.802.802 0 1 1 0-1.604.802.802 0 0 1 0 1.604"/></g><mask id="d" width="6" height="8" x="134" y="37" maskUnits="userSpaceOnUse" style="mask-type:luminance"><path fill="#fff" d="M134.558 37.043h4.692v7.038h-4.692z"/></mask><g fill="#1f1f1f" mask="url(#d)"><path d="M139.252 37.847a.802.802 0 1 1 0-1.604.802.802 0 0 1 0 1.604m0 7.039a.802.802 0 1 1 0-1.604.802.802 0 0 1 0 1.604"/></g><mask id="e" width="6" height="8" x="134" y="30" maskUnits="userSpaceOnUse" style="mask-type:luminance"><path fill="#fff" d="M134.558 30.008h4.692v7.038h-4.692z"/></mask><g mask="url(#e)"><path fill="#1f1f1f" d="M139.252 37.847a.802.802 0 1 1 0-1.604.802.802 0 0 1 0 1.604"/></g><mask id="f" width="5" height="8" x="139" y="44" maskUnits="userSpaceOnUse" style="mask-type:luminance"><path fill="#fff" d="M139.245 44.086h4.693v7.038h-4.693z"/></mask><g fill="#1f1f1f" mask="url(#f)"><path d="M139.248 44.89a.802.802 0 1 1 0-1.604.802.802 0 0 1 0 1.604m4.692 0a.803.803 0 1 1 0-1.606.803.803 0 0 1 0 1.606m-2.344 3.523a.802.802 0 1 1 0-1.604.802.802 0 0 1 0 1.604m-2.351 3.512a.802.802 0 1 1-.001-1.605.802.802 0 0 1 .001 1.605m4.695 0a.803.803 0 1 1 0-1.606.803.803 0 0 1 0 1.606"/></g><mask id="g" width="5" height="8" x="139" y="37" maskUnits="userSpaceOnUse" style="mask-type:luminance"><path fill="#fff" d="M139.249 37.043h4.692v7.038h-4.692z"/></mask><g fill="#1f1f1f" mask="url(#g)"><path d="M139.248 37.847a.802.802 0 1 1 0-1.604.802.802 0 0 1 0 1.604m4.692 0a.803.803 0 1 1 0-1.606.803.803 0 0 1 0 1.606m-2.344 3.52a.802.802 0 1 1 0-1.605.802.802 0 0 1 0 1.605m-2.351 3.519a.802.802 0 1 1-.001-1.605.802.802 0 0 1 .001 1.605m4.695 0a.803.803 0 1 1 0-1.606.803.803 0 0 1 0 1.606"/></g><mask id="h" width="5" height="8" x="139" y="30" maskUnits="userSpaceOnUse" style="mask-type:luminance"><path fill="#fff" d="M139.249 30.008h4.692v7.038h-4.692z"/></mask><g fill="#1f1f1f" mask="url(#h)"><path d="M139.245 37.84a.802.802 0 1 1-.001-1.606.802.802 0 0 1 .001 1.605m4.695.001a.803.803 0 1 1 0-1.607.803.803 0 0 1 0 1.606"/></g><mask id="i" width="6" height="8" x="143" y="44" maskUnits="userSpaceOnUse" style="mask-type:luminance"><path fill="#fff" d="M143.941 44.086h4.692v7.038h-4.692z"/></mask><g fill="#1f1f1f" mask="url(#i)"><path d="M143.944 44.89a.803.803 0 1 1 0-1.606.803.803 0 0 1 0 1.606m4.691 0a.802.802 0 1 1 0-1.604.802.802 0 0 1 0 1.604m-2.344 3.523a.802.802 0 1 1 0-1.604.802.802 0 0 1 0 1.604m-2.347 3.512a.803.803 0 1 1 0-1.606.803.803 0 0 1 0 1.606m4.691 0a.802.802 0 1 1 0-1.604.802.802 0 0 1 0 1.604"/></g><mask id="j" width="6" height="8" x="143" y="37" maskUnits="userSpaceOnUse" style="mask-type:luminance"><path fill="#fff" d="M143.941 37.043h4.692v7.038h-4.692z"/></mask><g fill="#1f1f1f" mask="url(#j)"><path d="M143.944 37.847a.803.803 0 1 1 0-1.606.803.803 0 0 1 0 1.606m4.691 0a.802.802 0 1 1 0-1.604.802.802 0 0 1 0 1.604m-2.344 3.52a.802.802 0 1 1 0-1.605.802.802 0 0 1 0 1.605m-2.347 3.519a.803.803 0 1 1 0-1.606.803.803 0 0 1 0 1.606m4.691 0a.802.802 0 1 1 0-1.604.802.802 0 0 1 0 1.604"/></g><mask id="k" width="6" height="8" x="143" y="30" maskUnits="userSpaceOnUse" style="mask-type:luminance"><path fill="#fff" d="M143.941 30.008h4.692v7.038h-4.692z"/></mask><g fill="#1f1f1f" mask="url(#k)"><path d="M143.944 37.84a.803.803 0 1 1 0-1.607.803.803 0 0 1 0 1.606m4.691.001a.802.802 0 1 1 0-1.605.802.802 0 0 1 0 1.604"/></g><mask id="l" width="6" height="8" x="148" y="44" maskUnits="userSpaceOnUse" style="mask-type:luminance"><path fill="#fff" d="M148.636 44.086h4.692v7.038h-4.692z"/></mask><g fill="#1f1f1f" mask="url(#l)"><path d="M148.635 44.89a.802.802 0 1 1 0-1.604.802.802 0 0 1 0 1.604m4.692 0a.802.802 0 1 1-.001-1.605.802.802 0 0 1 .001 1.605m-2.348 3.523a.802.802 0 1 1 0-1.604.802.802 0 0 1 0 1.604m-2.344 3.512a.802.802 0 1 1 0-1.604.802.802 0 0 1 0 1.604m4.692 0a.802.802 0 1 1-.001-1.605.802.802 0 0 1 .001 1.605"/></g><mask id="m" width="6" height="8" x="148" y="37" maskUnits="userSpaceOnUse" style="mask-type:luminance"><path fill="#fff" d="M148.636 37.043h4.692v7.038h-4.692z"/></mask><g fill="#1f1f1f" mask="url(#m)"><path d="M148.635 37.847a.802.802 0 1 1 0-1.604.802.802 0 0 1 0 1.604m4.692 0a.802.802 0 1 1-.001-1.605.802.802 0 0 1 .001 1.605m-2.348 3.52a.802.802 0 1 1 0-1.605.802.802 0 0 1 0 1.605m-2.344 3.519a.802.802 0 1 1 0-1.604.802.802 0 0 1 0 1.604m4.692 0a.802.802 0 1 1-.001-1.605.802.802 0 0 1 .001 1.605"/></g><mask id="n" width="6" height="8" x="148" y="30" maskUnits="userSpaceOnUse" style="mask-type:luminance"><path fill="#fff" d="M148.636 30.008h4.692v7.038h-4.692z"/></mask><g fill="#1f1f1f" mask="url(#n)"><path d="M148.635 37.84a.802.802 0 1 1 0-1.605.802.802 0 0 1 0 1.604m4.692.001a.802.802 0 1 1-.001-1.606.802.802 0 0 1 .001 1.605"/></g><mask id="o" width="6" height="8" x="153" y="44" maskUnits="userSpaceOnUse" style="mask-type:luminance"><path fill="#fff" d="M153.323 44.086h4.693v7.038h-4.693z"/></mask><g fill="#1f1f1f" mask="url(#o)"><path d="M153.327 44.89a.802.802 0 1 1-.001-1.605.802.802 0 0 1 .001 1.605m4.691 0a.802.802 0 1 1 0-1.604.802.802 0 0 1 0 1.604m-2.344 3.523a.802.802 0 1 1 0-1.604.802.802 0 0 1 0 1.604m-2.351 3.512a.803.803 0 1 1 0-1.606.803.803 0 0 1 0 1.606m4.695 0a.802.802 0 1 1 0-1.604.802.802 0 0 1 0 1.604"/></g><mask id="p" width="6" height="8" x="153" y="37" maskUnits="userSpaceOnUse" style="mask-type:luminance"><path fill="#fff" d="M153.323 37.043h4.693v7.038h-4.693z"/></mask><g fill="#1f1f1f" mask="url(#p)"><path d="M153.327 37.847a.802.802 0 1 1-.001-1.605.802.802 0 0 1 .001 1.605m4.691 0a.802.802 0 1 1 0-1.604.802.802 0 0 1 0 1.604m-2.344 3.52a.802.802 0 1 1 0-1.605.802.802 0 0 1 0 1.605m-2.351 3.519a.803.803 0 1 1 0-1.606.803.803 0 0 1 0 1.606m4.695 0a.802.802 0 1 1 0-1.604.802.802 0 0 1 0 1.604"/></g><mask id="q" width="6" height="8" x="153" y="30" maskUnits="userSpaceOnUse" style="mask-type:luminance"><path fill="#fff" d="M153.323 30.008h4.693v7.038h-4.693z"/></mask><g fill="#1f1f1f" mask="url(#q)"><path d="M153.323 37.84a.803.803 0 1 1 0-1.607.803.803 0 0 1 0 1.606m4.695.001a.802.802 0 1 1 0-1.605.802.802 0 0 1 0 1.604"/></g><mask id="r" width="5" height="8" x="158" y="44" maskUnits="userSpaceOnUse" style="mask-type:luminance"><path fill="#fff" d="M158.019 44.086h4.692v7.038h-4.692z"/></mask><g fill="#1f1f1f" mask="url(#r)"><path d="M158.022 44.89a.802.802 0 1 1 0-1.604.802.802 0 0 1 0 1.604m4.691 0a.802.802 0 1 1 0-1.604.802.802 0 0 1 0 1.604m-2.343 3.523a.802.802 0 1 1-.001-1.604.802.802 0 0 1 .001 1.604m-2.344 3.512a.803.803 0 1 1 0-1.606.803.803 0 0 1 0 1.606m4.687 0a.802.802 0 1 1 0-1.604.802.802 0 0 1 0 1.604"/></g><mask id="s" width="5" height="8" x="158" y="37" maskUnits="userSpaceOnUse" style="mask-type:luminance"><path fill="#fff" d="M158.019 37.043h4.692v7.038h-4.692z"/></mask><g fill="#1f1f1f" mask="url(#s)"><path d="M158.022 37.847a.802.802 0 1 1 0-1.604.802.802 0 0 1 0 1.604m4.691 0a.802.802 0 1 1 0-1.604.802.802 0 0 1 0 1.604m-2.343 3.52a.802.802 0 1 1-.001-1.605.802.802 0 0 1 .001 1.605m-2.344 3.519a.803.803 0 1 1 0-1.606.803.803 0 0 1 0 1.606m4.687 0a.802.802 0 1 1 0-1.604.802.802 0 0 1 0 1.604"/></g><mask id="t" width="5" height="8" x="158" y="30" maskUnits="userSpaceOnUse" style="mask-type:luminance"><path fill="#fff" d="M158.019 30.008h4.692v7.038h-4.692z"/></mask><g fill="#1f1f1f" mask="url(#t)"><path d="M158.026 37.847a.803.803 0 1 1 0-1.606.803.803 0 0 1 0 1.606m4.687 0a.802.802 0 1 1 0-1.604.802.802 0 0 1 0 1.604"/></g><mask id="u" width="6" height="8" x="162" y="44" maskUnits="userSpaceOnUse" style="mask-type:luminance"><path fill="#fff" d="M162.706 44.086h4.692v7.038h-4.692z"/></mask><g fill="#1f1f1f" mask="url(#u)"><path d="M162.709 44.89a.802.802 0 1 1 0-1.604.802.802 0 0 1 0 1.604m4.692 0a.803.803 0 1 1 0-1.606.803.803 0 0 1 0 1.606m-2.344 3.523a.802.802 0 1 1 0-1.604.802.802 0 0 1 0 1.604m-2.348 3.512a.802.802 0 1 1 0-1.604.802.802 0 0 1 0 1.604m4.692 0a.803.803 0 1 1 0-1.606.803.803 0 0 1 0 1.606"/></g><mask id="v" width="6" height="8" x="162" y="37" maskUnits="userSpaceOnUse" style="mask-type:luminance"><path fill="#fff" d="M162.706 37.043h4.692v7.038h-4.692z"/></mask><g fill="#1f1f1f" mask="url(#v)"><path d="M162.709 37.847a.802.802 0 1 1 0-1.604.802.802 0 0 1 0 1.604m4.692 0a.803.803 0 1 1 0-1.606.803.803 0 0 1 0 1.606m-2.344 3.52a.802.802 0 1 1 0-1.605.802.802 0 0 1 0 1.605m-2.348 3.519a.802.802 0 1 1 0-1.604.802.802 0 0 1 0 1.604m4.692 0a.803.803 0 1 1 0-1.606.803.803 0 0 1 0 1.606"/></g><mask id="w" width="6" height="8" x="162" y="30" maskUnits="userSpaceOnUse" style="mask-type:luminance"><path fill="#fff" d="M162.706 30.008h4.692v7.038h-4.692z"/></mask><g fill="#1f1f1f" mask="url(#w)"><path d="M162.709 37.84a.802.802 0 1 1 0-1.605.802.802 0 0 1 0 1.604m4.692.001a.803.803 0 1 1 0-1.607.803.803 0 0 1 0 1.606"/></g><mask id="x" width="6" height="8" x="167" y="44" maskUnits="userSpaceOnUse" style="mask-type:luminance"><path fill="#fff" d="M167.402 44.086h4.692v7.038h-4.692z"/></mask><g fill="#1f1f1f" mask="url(#x)"><path d="M167.405 44.89a.803.803 0 1 1 0-1.606.803.803 0 0 1 0 1.606m4.691 0a.802.802 0 1 1 0-1.604.802.802 0 0 1 0 1.604m-2.348 3.523a.802.802 0 1 1 0-1.604.802.802 0 0 1 0 1.604m-2.347 3.512a.803.803 0 1 1 0-1.606.803.803 0 0 1 0 1.606m4.695 0a.802.802 0 1 1 0-1.604.802.802 0 0 1 0 1.604"/></g><mask id="y" width="6" height="8" x="167" y="37" maskUnits="userSpaceOnUse" style="mask-type:luminance"><path fill="#fff" d="M167.402 37.043h4.692v7.038h-4.692z"/></mask><g fill="#1f1f1f" mask="url(#y)"><path d="M167.405 37.847a.803.803 0 1 1 0-1.606.803.803 0 0 1 0 1.606m4.691 0a.802.802 0 1 1 0-1.604.802.802 0 0 1 0 1.604m-2.348 3.52a.802.802 0 1 1 0-1.605.802.802 0 0 1 0 1.605m-2.347 3.519a.803.803 0 1 1 0-1.606.803.803 0 0 1 0 1.606m4.695 0a.802.802 0 1 1 0-1.604.802.802 0 0 1 0 1.604"/></g><mask id="z" width="6" height="8" x="167" y="30" maskUnits="userSpaceOnUse" style="mask-type:luminance"><path fill="#fff" d="M167.402 30.008h4.692v7.038h-4.692z"/></mask><g fill="#1f1f1f" mask="url(#z)"><path d="M167.401 37.84a.803.803 0 1 1 0-1.607.803.803 0 0 1 0 1.606m4.695.001a.802.802 0 1 1 0-1.605.802.802 0 0 1 0 1.604"/></g><mask id="A" width="5" height="8" x="172" y="44" maskUnits="userSpaceOnUse" style="mask-type:luminance"><path fill="#fff" d="M172.097 44.086h4.692v7.038h-4.692z"/></mask><g fill="#1f1f1f" mask="url(#A)"><path d="M172.1 44.89a.802.802 0 1 1 0-1.604.802.802 0 0 1 0 1.604m4.691 0a.802.802 0 1 1 0-1.604.802.802 0 0 1 0 1.604m-2.347 3.523a.803.803 0 1 1 0-1.606.803.803 0 0 1 0 1.606m-2.348 3.512a.802.802 0 1 1 0-1.604.802.802 0 0 1 0 1.604m4.695 0a.802.802 0 1 1 0-1.604.802.802 0 0 1 0 1.604"/></g><mask id="B" width="5" height="8" x="172" y="37" maskUnits="userSpaceOnUse" style="mask-type:luminance"><path fill="#fff" d="M172.097 37.043h4.692v7.038h-4.692z"/></mask><g fill="#1f1f1f" mask="url(#B)"><path d="M172.1 37.847a.802.802 0 1 1 0-1.604.802.802 0 0 1 0 1.604m4.691 0a.802.802 0 1 1 0-1.604.802.802 0 0 1 0 1.604m-2.347 3.52a.803.803 0 1 1 0-1.607.803.803 0 0 1 0 1.607m-2.348 3.519a.802.802 0 1 1 0-1.604.802.802 0 0 1 0 1.604m4.695 0a.802.802 0 1 1 0-1.604.802.802 0 0 1 0 1.604"/></g><mask id="C" width="5" height="8" x="172" y="30" maskUnits="userSpaceOnUse" style="mask-type:luminance"><path fill="#fff" d="M172.097 30.008h4.692v7.038h-4.692z"/></mask><g fill="#1f1f1f" mask="url(#C)"><path d="M172.096 37.84a.802.802 0 1 1 0-1.605.802.802 0 0 1 0 1.604m4.695.001a.802.802 0 1 1 0-1.605.802.802 0 0 1 0 1.604"/></g><mask id="D" width="6" height="8" x="176" y="44" maskUnits="userSpaceOnUse" style="mask-type:luminance"><path fill="#fff" d="M176.784 44.086h4.693v7.038h-4.693z"/></mask><g fill="#1f1f1f" mask="url(#D)"><path d="M176.784 44.89a.802.802 0 1 1-.001-1.605.802.802 0 0 1 .001 1.605m4.691 0a.802.802 0 1 1 0-1.604.802.802 0 0 1 0 1.604m-2.348 3.523a.802.802 0 1 1 0-1.604.802.802 0 0 1 0 1.604m-2.343 3.512a.802.802 0 1 1-.001-1.605.802.802 0 0 1 .001 1.605m4.691 0a.802.802 0 1 1 0-1.604.802.802 0 0 1 0 1.604"/></g><mask id="E" width="6" height="8" x="176" y="37" maskUnits="userSpaceOnUse" style="mask-type:luminance"><path fill="#fff" d="M176.784 37.043h4.693v7.038h-4.693z"/></mask><g fill="#1f1f1f" mask="url(#E)"><path d="M176.784 37.847a.802.802 0 1 1-.001-1.605.802.802 0 0 1 .001 1.605m4.691 0a.802.802 0 1 1 0-1.604.802.802 0 0 1 0 1.604m-2.348 3.52a.802.802 0 1 1 0-1.605.802.802 0 0 1 0 1.605m-2.343 3.519a.802.802 0 1 1-.001-1.605.802.802 0 0 1 .001 1.605m4.691 0a.802.802 0 1 1 0-1.604.802.802 0 0 1 0 1.604"/></g><mask id="F" width="6" height="8" x="176" y="30" maskUnits="userSpaceOnUse" style="mask-type:luminance"><path fill="#fff" d="M176.784 30.008h4.693v7.038h-4.693z"/></mask><g fill="#1f1f1f" mask="url(#F)"><path d="M176.784 37.84a.802.802 0 1 1-.001-1.606.802.802 0 0 1 .001 1.605m4.691.001a.802.802 0 1 1 0-1.605.802.802 0 0 1 0 1.604"/></g><mask id="G" width="6" height="8" x="181" y="44" maskUnits="userSpaceOnUse" style="mask-type:luminance"><path fill="#fff" d="M181.48 44.086h4.692v7.038h-4.692z"/></mask><g fill="#1f1f1f" mask="url(#G)"><path d="M181.483 44.89a.803.803 0 1 1 0-1.606.803.803 0 0 1 0 1.606m4.691 0a.802.802 0 1 1 0-1.604.802.802 0 0 1 0 1.604m-2.347 3.523a.802.802 0 1 1-.001-1.604.802.802 0 0 1 .001 1.604m-2.348 3.512a.802.802 0 1 1 0-1.604.802.802 0 0 1 0 1.604m4.695 0a.802.802 0 1 1 0-1.604.802.802 0 0 1 0 1.604"/></g><mask id="H" width="6" height="8" x="181" y="37" maskUnits="userSpaceOnUse" style="mask-type:luminance"><path fill="#fff" d="M181.48 37.043h4.692v7.038h-4.692z"/></mask><g fill="#1f1f1f" mask="url(#H)"><path d="M181.483 37.847a.803.803 0 1 1 0-1.606.803.803 0 0 1 0 1.606m4.691 0a.802.802 0 1 1 0-1.604.802.802 0 0 1 0 1.604m-2.347 3.52a.802.802 0 1 1-.001-1.605.802.802 0 0 1 .001 1.605m-2.348 3.519a.802.802 0 1 1 0-1.604.802.802 0 0 1 0 1.604m4.695 0a.802.802 0 1 1 0-1.604.802.802 0 0 1 0 1.604"/></g><mask id="I" width="6" height="8" x="181" y="30" maskUnits="userSpaceOnUse" style="mask-type:luminance"><path fill="#fff" d="M181.48 30.008h4.692v7.038h-4.692z"/></mask><g fill="#1f1f1f" mask="url(#I)"><path d="M181.479 37.847a.802.802 0 1 1 0-1.604.802.802 0 0 1 0 1.604m4.695 0a.802.802 0 1 1 0-1.604.802.802 0 0 1 0 1.604"/></g><mask id="J" width="5" height="8" x="186" y="44" maskUnits="userSpaceOnUse" style="mask-type:luminance"><path fill="#fff" d="M186.167 44.086h4.692v7.038h-4.692z"/></mask><g fill="#1f1f1f" mask="url(#J)"><path d="M186.17 44.89a.802.802 0 1 1 0-1.604.802.802 0 0 1 0 1.604m4.692 0a.803.803 0 1 1 0-1.606.803.803 0 0 1 0 1.606m-2.348 3.523a.802.802 0 1 1 0-1.604.802.802 0 0 1 0 1.604m-2.348 3.512a.802.802 0 1 1 0-1.604.802.802 0 0 1 0 1.604m4.696 0a.803.803 0 1 1 0-1.606.803.803 0 0 1 0 1.606"/></g><mask id="K" width="5" height="8" x="186" y="37" maskUnits="userSpaceOnUse" style="mask-type:luminance"><path fill="#fff" d="M186.167 37.043h4.692v7.038h-4.692z"/></mask><g fill="#1f1f1f" mask="url(#K)"><path d="M186.17 37.847a.802.802 0 1 1 0-1.604.802.802 0 0 1 0 1.604m4.692 0a.803.803 0 1 1 0-1.606.803.803 0 0 1 0 1.606m-2.348 3.52a.802.802 0 1 1 0-1.605.802.802 0 0 1 0 1.605m-2.348 3.519a.802.802 0 1 1 0-1.604.802.802 0 0 1 0 1.604m4.696 0a.803.803 0 1 1 0-1.606.803.803 0 0 1 0 1.606"/></g><mask id="L" width="5" height="8" x="186" y="30" maskUnits="userSpaceOnUse" style="mask-type:luminance"><path fill="#fff" d="M186.167 30.008h4.692v7.038h-4.692z"/></mask><g fill="#1f1f1f" mask="url(#L)"><path d="M186.166 37.84a.802.802 0 1 1 0-1.605.802.802 0 0 1 0 1.604m4.696.001a.803.803 0 1 1 0-1.607.803.803 0 0 1 0 1.606"/></g><mask id="M" width="6" height="8" x="190" y="44" maskUnits="userSpaceOnUse" style="mask-type:luminance"><path fill="#fff" d="M190.862 44.086h4.693v7.038h-4.693z"/></mask><g fill="#1f1f1f" mask="url(#M)"><path d="M190.866 44.89a.802.802 0 1 1-.001-1.605.802.802 0 0 1 .001 1.605m4.691 0a.802.802 0 1 1 0-1.604.802.802 0 0 1 0 1.604m-2.344 3.523a.802.802 0 1 1 0-1.604.802.802 0 0 1 0 1.604m-2.347 3.512a.802.802 0 1 1-.001-1.605.802.802 0 0 1 .001 1.605m4.691 0a.802.802 0 1 1 0-1.604.802.802 0 0 1 0 1.604"/></g><mask id="N" width="6" height="8" x="190" y="37" maskUnits="userSpaceOnUse" style="mask-type:luminance"><path fill="#fff" d="M190.862 37.043h4.693v7.038h-4.693z"/></mask><g fill="#1f1f1f" mask="url(#N)"><path d="M190.866 37.847a.802.802 0 1 1-.001-1.605.802.802 0 0 1 .001 1.605m4.691 0a.802.802 0 1 1 0-1.604.802.802 0 0 1 0 1.604m-2.344 3.52a.802.802 0 1 1 0-1.605.802.802 0 0 1 0 1.605m-2.347 3.519a.802.802 0 1 1-.001-1.605.802.802 0 0 1 .001 1.605m4.691 0a.802.802 0 1 1 0-1.604.802.802 0 0 1 0 1.604"/></g><mask id="O" width="6" height="8" x="190" y="30" maskUnits="userSpaceOnUse" style="mask-type:luminance"><path fill="#fff" d="M190.862 30.008h4.693v7.038h-4.693z"/></mask><g fill="#1f1f1f" mask="url(#O)"><path d="M190.866 37.84a.802.802 0 1 1-.001-1.606.802.802 0 0 1 .001 1.605m4.691.001a.802.802 0 1 1 0-1.605.802.802 0 0 1 0 1.604"/></g><mask id="P" width="6" height="8" x="195" y="44" maskUnits="userSpaceOnUse" style="mask-type:luminance"><path fill="#fff" d="M195.558 44.086h4.692v7.038h-4.692z"/></mask><g fill="#1f1f1f" mask="url(#P)"><path d="M195.561 44.89a.802.802 0 1 1 0-1.604.802.802 0 0 1 0 1.604m4.691 0a.802.802 0 1 1 0-1.604.802.802 0 0 1 0 1.604m-2.343 3.523a.802.802 0 1 1-.001-1.604.802.802 0 0 1 .001 1.604m-2.344 3.512a.803.803 0 1 1 0-1.606.803.803 0 0 1 0 1.606m4.687 0a.802.802 0 1 1 0-1.604.802.802 0 0 1 0 1.604"/></g><mask id="Q" width="6" height="8" x="195" y="37" maskUnits="userSpaceOnUse" style="mask-type:luminance"><path fill="#fff" d="M195.558 37.043h4.692v7.038h-4.692z"/></mask><g fill="#1f1f1f" mask="url(#Q)"><path d="M195.557 37.847a.802.802 0 1 1 0-1.604.802.802 0 0 1 0 1.604m4.691 0a.802.802 0 1 1 0-1.604.802.802 0 0 1 0 1.604m-2.347 3.52a.803.803 0 1 1 0-1.607.803.803 0 0 1 0 1.607m-2.344 3.519a.802.802 0 1 1 0-1.604.802.802 0 0 1 0 1.604m4.691 0a.802.802 0 1 1 0-1.604.802.802 0 0 1 0 1.604"/></g><mask id="R" width="6" height="8" x="195" y="30" maskUnits="userSpaceOnUse" style="mask-type:luminance"><path fill="#fff" d="M195.558 30.008h4.692v7.038h-4.692z"/></mask><g fill="#1f1f1f" mask="url(#R)"><path d="M195.565 37.84a.803.803 0 1 1 0-1.607.803.803 0 0 1 0 1.606m4.687.001a.802.802 0 1 1 0-1.605.802.802 0 0 1 0 1.604"/></g><mask id="S" width="5" height="8" x="200" y="44" maskUnits="userSpaceOnUse" style="mask-type:luminance"><path fill="#fff" d="M200.245 44.086h4.693v7.038h-4.693z"/></mask><g fill="#1f1f1f" mask="url(#S)"><path d="M200.248 44.89a.802.802 0 1 1 0-1.604.802.802 0 0 1 0 1.604m4.692 0a.803.803 0 1 1 0-1.606.803.803 0 0 1 0 1.606m-2.348 3.523a.802.802 0 1 1 0-1.604.802.802 0 0 1 0 1.604m-2.347 3.512a.802.802 0 1 1-.001-1.605.802.802 0 0 1 .001 1.605m4.695 0a.803.803 0 1 1 0-1.606.803.803 0 0 1 0 1.606"/></g><mask id="T" width="5" height="8" x="200" y="37" maskUnits="userSpaceOnUse" style="mask-type:luminance"><path fill="#fff" d="M200.245 37.043h4.693v7.038h-4.693z"/></mask><g fill="#1f1f1f" mask="url(#T)"><path d="M200.248 37.847a.802.802 0 1 1 0-1.604.802.802 0 0 1 0 1.604m4.692 0a.803.803 0 1 1 0-1.606.803.803 0 0 1 0 1.606m-2.348 3.52a.802.802 0 1 1 0-1.605.802.802 0 0 1 0 1.605m-2.347 3.519a.802.802 0 1 1-.001-1.605.802.802 0 0 1 .001 1.605m4.695 0a.803.803 0 1 1 0-1.606.803.803 0 0 1 0 1.606"/></g><mask id="U" width="5" height="8" x="200" y="30" maskUnits="userSpaceOnUse" style="mask-type:luminance"><path fill="#fff" d="M200.249 30.008h4.692v7.038h-4.692z"/></mask><g fill="#1f1f1f" mask="url(#U)"><path d="M200.245 37.84a.802.802 0 1 1-.001-1.606.802.802 0 0 1 .001 1.605m4.695.001a.803.803 0 1 1 0-1.607.803.803 0 0 1 0 1.606"/></g><mask id="V" width="6" height="8" x="204" y="44" maskUnits="userSpaceOnUse" style="mask-type:luminance"><path fill="#fff" d="M204.941 44.086h4.692v7.038h-4.692z"/></mask><g fill="#1f1f1f" mask="url(#V)"><path d="M204.94 44.89a.803.803 0 1 1 0-1.606.803.803 0 0 1 0 1.606m4.691 0a.802.802 0 1 1 0-1.604.802.802 0 0 1 0 1.604m-2.347 3.523a.802.802 0 1 1-.001-1.604.802.802 0 0 1 .001 1.604m-2.344 3.512a.803.803 0 1 1 0-1.606.803.803 0 0 1 0 1.606m4.691 0a.802.802 0 1 1 0-1.604.802.802 0 0 1 0 1.604"/></g><mask id="W" width="6" height="8" x="204" y="37" maskUnits="userSpaceOnUse" style="mask-type:luminance"><path fill="#fff" d="M204.941 37.043h4.692v7.038h-4.692z"/></mask><g fill="#1f1f1f" mask="url(#W)"><path d="M204.94 37.847a.803.803 0 1 1 0-1.606.803.803 0 0 1 0 1.606m4.691 0a.802.802 0 1 1 0-1.604.802.802 0 0 1 0 1.604m-2.347 3.52a.802.802 0 1 1-.001-1.605.802.802 0 0 1 .001 1.605m-2.344 3.519a.803.803 0 1 1 0-1.606.803.803 0 0 1 0 1.606m4.691 0a.802.802 0 1 1 0-1.604.802.802 0 0 1 0 1.604"/></g><mask id="X" width="6" height="8" x="204" y="30" maskUnits="userSpaceOnUse" style="mask-type:luminance"><path fill="#fff" d="M204.941 30.008h4.692v7.038h-4.692z"/></mask><g fill="#1f1f1f" mask="url(#X)"><path d="M204.94 37.847a.803.803 0 1 1 0-1.606.803.803 0 0 1 0 1.606m4.691 0a.802.802 0 1 1 0-1.604.802.802 0 0 1 0 1.604"/></g><mask id="Y" width="6" height="8" x="209" y="44" maskUnits="userSpaceOnUse" style="mask-type:luminance"><path fill="#fff" d="M209.628 44.086h4.692v7.038h-4.692z"/></mask><g fill="#1f1f1f" mask="url(#Y)"><path d="M209.631 44.89a.802.802 0 1 1 0-1.604.802.802 0 0 1 0 1.604m4.692 0a.803.803 0 1 1 0-1.606.803.803 0 0 1 0 1.606m-2.344 3.523a.802.802 0 1 1 0-1.604.802.802 0 0 1 0 1.604m-2.348 3.512a.802.802 0 1 1 0-1.604.802.802 0 0 1 0 1.604m4.692 0a.803.803 0 1 1 0-1.606.803.803 0 0 1 0 1.606"/></g><mask id="Z" width="6" height="8" x="209" y="37" maskUnits="userSpaceOnUse" style="mask-type:luminance"><path fill="#fff" d="M209.628 37.043h4.692v7.038h-4.692z"/></mask><g fill="#1f1f1f" mask="url(#Z)"><path d="M209.631 37.847a.802.802 0 1 1 0-1.604.802.802 0 0 1 0 1.604m4.692 0a.803.803 0 1 1 0-1.606.803.803 0 0 1 0 1.606m-2.344 3.52a.802.802 0 1 1 0-1.605.802.802 0 0 1 0 1.605m-2.348 3.519a.802.802 0 1 1 0-1.604.802.802 0 0 1 0 1.604m4.692 0a.803.803 0 1 1 0-1.606.803.803 0 0 1 0 1.606"/></g><mask id="aa" width="6" height="8" x="209" y="30" maskUnits="userSpaceOnUse" style="mask-type:luminance"><path fill="#fff" d="M209.632 30.008h4.692v7.038h-4.692z"/></mask><g fill="#1f1f1f" mask="url(#aa)"><path d="M209.631 37.84a.802.802 0 1 1 0-1.605.802.802 0 0 1 0 1.604m4.692.001a.803.803 0 1 1 0-1.607.803.803 0 0 1 0 1.606"/></g><mask id="ab" width="6" height="8" x="214" y="44" maskUnits="userSpaceOnUse" style="mask-type:luminance"><path fill="#fff" d="M214.323 44.086h4.693v7.038h-4.693z"/></mask><g fill="#1f1f1f" mask="url(#ab)"><path d="M214.327 44.89a.802.802 0 1 1-.001-1.605.802.802 0 0 1 .001 1.605m4.691 0a.802.802 0 1 1 0-1.604.802.802 0 0 1 0 1.604m-2.348 3.523a.802.802 0 1 1 0-1.604.802.802 0 0 1 0 1.604m-2.347 3.512a.803.803 0 1 1 0-1.606.803.803 0 0 1 0 1.606m4.695 0a.802.802 0 1 1 0-1.604.802.802 0 0 1 0 1.604"/></g><mask id="ac" width="6" height="8" x="214" y="37" maskUnits="userSpaceOnUse" style="mask-type:luminance"><path fill="#fff" d="M214.323 37.043h4.693v7.038h-4.693z"/></mask><g fill="#1f1f1f" mask="url(#ac)"><path d="M214.327 37.847a.802.802 0 1 1-.001-1.605.802.802 0 0 1 .001 1.605m4.691 0a.802.802 0 1 1 0-1.604.802.802 0 0 1 0 1.604m-2.348 3.52a.802.802 0 1 1 0-1.605.802.802 0 0 1 0 1.605m-2.347 3.519a.803.803 0 1 1 0-1.606.803.803 0 0 1 0 1.606m4.695 0a.802.802 0 1 1 0-1.604.802.802 0 0 1 0 1.604"/></g><mask id="ad" width="6" height="8" x="214" y="30" maskUnits="userSpaceOnUse" style="mask-type:luminance"><path fill="#fff" d="M214.323 30.008h4.693v7.038h-4.693z"/></mask><g fill="#1f1f1f" mask="url(#ad)"><path d="M214.323 37.84a.803.803 0 1 1 0-1.607.803.803 0 0 1 0 1.606m4.695.001a.802.802 0 1 1 0-1.605.802.802 0 0 1 0 1.604"/></g><mask id="ae" width="5" height="8" x="219" y="44" maskUnits="userSpaceOnUse" style="mask-type:luminance"><path fill="#fff" d="M219.015 44.086h4.692v7.038h-4.692z"/></mask><g fill="#1f1f1f" mask="url(#ae)"><path d="M219.014 44.89a.802.802 0 1 1 0-1.604.802.802 0 0 1 0 1.604m4.691 0a.802.802 0 1 1 0-1.604.802.802 0 0 1 0 1.604m-2.347 3.523a.803.803 0 1 1 0-1.606.803.803 0 0 1 0 1.606m-2.348 3.512a.802.802 0 1 1 0-1.604.802.802 0 0 1 0 1.604m4.695 0a.802.802 0 1 1 0-1.604.802.802 0 0 1 0 1.604"/></g><mask id="af" width="5" height="8" x="219" y="37" maskUnits="userSpaceOnUse" style="mask-type:luminance"><path fill="#fff" d="M219.019 37.043h4.692v7.038h-4.692z"/></mask><g fill="#1f1f1f" mask="url(#af)"><path d="M219.022 37.847a.802.802 0 1 1 0-1.604.802.802 0 0 1 0 1.604m4.691 0a.802.802 0 1 1 0-1.604.802.802 0 0 1 0 1.604m-2.347 3.52a.802.802 0 1 1-.001-1.605.802.802 0 0 1 .001 1.605m-2.348 3.519a.802.802 0 1 1 0-1.604.802.802 0 0 1 0 1.604m4.695 0a.802.802 0 1 1 0-1.604.802.802 0 0 1 0 1.604"/></g><mask id="ag" width="5" height="8" x="219" y="30" maskUnits="userSpaceOnUse" style="mask-type:luminance"><path fill="#fff" d="M219.015 30.008h4.692v7.038h-4.692z"/></mask><g fill="#1f1f1f" mask="url(#ag)"><path d="M219.01 37.84a.802.802 0 1 1 0-1.605.802.802 0 0 1 0 1.604m4.695.001a.802.802 0 1 1 0-1.605.802.802 0 0 1 0 1.604"/></g><mask id="ah" width="6" height="8" x="223" y="44" maskUnits="userSpaceOnUse" style="mask-type:luminance"><path fill="#fff" d="M223.71 44.086h4.692v7.038h-4.692z"/></mask><g fill="#1f1f1f" mask="url(#ah)"><path d="M223.709 44.89a.802.802 0 1 1 0-1.604.802.802 0 0 1 0 1.604m4.692 0a.803.803 0 1 1 0-1.606.803.803 0 0 1 0 1.606m-2.344 3.523a.802.802 0 1 1 0-1.604.802.802 0 0 1 0 1.604m-2.352 3.512a.802.802 0 1 1 0-1.604.802.802 0 0 1 0 1.604m4.696 0a.803.803 0 1 1 0-1.606.803.803 0 0 1 0 1.606"/></g><mask id="ai" width="6" height="8" x="223" y="37" maskUnits="userSpaceOnUse" style="mask-type:luminance"><path fill="#fff" d="M223.71 37.043h4.692v7.038h-4.692z"/></mask><g fill="#1f1f1f" mask="url(#ai)"><path d="M223.709 37.847a.802.802 0 1 1 0-1.604.802.802 0 0 1 0 1.604m4.692 0a.803.803 0 1 1 0-1.606.803.803 0 0 1 0 1.606m-2.344 3.52a.802.802 0 1 1 0-1.605.802.802 0 0 1 0 1.605m-2.352 3.519a.802.802 0 1 1 0-1.604.802.802 0 0 1 0 1.604m4.696 0a.803.803 0 1 1 0-1.606.803.803 0 0 1 0 1.606"/></g><mask id="aj" width="6" height="8" x="223" y="30" maskUnits="userSpaceOnUse" style="mask-type:luminance"><path fill="#fff" d="M223.71 30.008h4.692v7.038h-4.692z"/></mask><g fill="#1f1f1f" mask="url(#aj)"><path d="M223.705 37.84a.802.802 0 1 1 0-1.605.802.802 0 0 1 0 1.604m4.696.001a.803.803 0 1 1 0-1.607.803.803 0 0 1 0 1.606"/></g><mask id="ak" width="6" height="8" x="228" y="44" maskUnits="userSpaceOnUse" style="mask-type:luminance"><path fill="#fff" d="M228.402 44.086h4.692v7.038h-4.692z"/></mask><g fill="#1f1f1f" mask="url(#ak)"><path d="M228.405 44.89a.803.803 0 1 1 0-1.606.803.803 0 0 1 0 1.606m4.691 0a.802.802 0 1 1 0-1.604.802.802 0 0 1 0 1.604m-2.348 3.523a.802.802 0 1 1 0-1.604.802.802 0 0 1 0 1.604m-2.347 3.512a.803.803 0 1 1 0-1.606.803.803 0 0 1 0 1.606m4.695 0a.802.802 0 1 1 0-1.604.802.802 0 0 1 0 1.604"/></g><mask id="al" width="6" height="8" x="228" y="37" maskUnits="userSpaceOnUse" style="mask-type:luminance"><path fill="#fff" d="M228.402 37.043h4.692v7.038h-4.692z"/></mask><g fill="#1f1f1f" mask="url(#al)"><path d="M228.405 37.847a.803.803 0 1 1 0-1.606.803.803 0 0 1 0 1.606m4.691 0a.802.802 0 1 1 0-1.604.802.802 0 0 1 0 1.604m-2.348 3.52a.802.802 0 1 1 0-1.605.802.802 0 0 1 0 1.605m-2.347 3.519a.803.803 0 1 1 0-1.606.803.803 0 0 1 0 1.606m4.695 0a.802.802 0 1 1 0-1.604.802.802 0 0 1 0 1.604"/></g><mask id="am" width="6" height="8" x="228" y="30" maskUnits="userSpaceOnUse" style="mask-type:luminance"><path fill="#fff" d="M228.398 30.008h4.692v7.038h-4.692z"/></mask><g fill="#1f1f1f" mask="url(#am)"><path d="M228.393 37.847a.802.802 0 1 1 0-1.604.802.802 0 0 1 0 1.604m4.695 0a.802.802 0 1 1 0-1.604.802.802 0 0 1 0 1.604"/></g><mask id="an" width="5" height="8" x="233" y="44" maskUnits="userSpaceOnUse" style="mask-type:luminance"><path fill="#fff" d="M233.093 44.086h4.692v7.038h-4.692z"/></mask><g fill="#1f1f1f" mask="url(#an)"><path d="M233.092 44.89a.802.802 0 1 1 0-1.604.802.802 0 0 1 0 1.604m4.691 0a.802.802 0 1 1 0-1.604.802.802 0 0 1 0 1.604m-2.347 3.523a.803.803 0 1 1 0-1.606.803.803 0 0 1 0 1.606m-2.348 3.512a.802.802 0 1 1 0-1.604.802.802 0 0 1 0 1.604m4.695 0a.802.802 0 1 1 0-1.604.802.802 0 0 1 0 1.604"/></g><mask id="ao" width="5" height="8" x="233" y="37" maskUnits="userSpaceOnUse" style="mask-type:luminance"><path fill="#fff" d="M233.093 37.043h4.692v7.038h-4.692z"/></mask><g fill="#1f1f1f" mask="url(#ao)"><path d="M233.088 37.847a.802.802 0 1 1 0-1.604.802.802 0 0 1 0 1.604m4.696 0a.802.802 0 1 1-.001-1.605.802.802 0 0 1 .001 1.605m-2.348 3.52a.802.802 0 1 1 0-1.605.802.802 0 0 1 0 1.605m-2.348 3.519a.802.802 0 1 1 0-1.604.802.802 0 0 1 0 1.604m4.696 0a.802.802 0 1 1-.001-1.605.802.802 0 0 1 .001 1.605"/></g><mask id="ap" width="5" height="8" x="233" y="30" maskUnits="userSpaceOnUse" style="mask-type:luminance"><path fill="#fff" d="M233.093 30.008h4.692v7.038h-4.692z"/></mask><g fill="#1f1f1f" mask="url(#ap)"><path d="M233.088 37.84a.802.802 0 1 1 0-1.605.802.802 0 0 1 0 1.604m4.696.001a.802.802 0 1 1-.001-1.606.802.802 0 0 1 .001 1.605"/></g><mask id="aq" width="6" height="8" x="237" y="44" maskUnits="userSpaceOnUse" style="mask-type:luminance"><path fill="#fff" d="M237.784 44.086h4.693v7.038h-4.693z"/></mask><g fill="#1f1f1f" mask="url(#aq)"><path d="M237.788 44.89a.802.802 0 1 1-.001-1.605.802.802 0 0 1 .001 1.605m4.691 0a.802.802 0 1 1 0-1.604.802.802 0 0 1 0 1.604m-2.344 3.523a.802.802 0 1 1 0-1.604.802.802 0 0 1 0 1.604m-2.347 3.512a.802.802 0 1 1-.001-1.605.802.802 0 0 1 .001 1.605m4.691 0a.802.802 0 1 1 0-1.604.802.802 0 0 1 0 1.604"/></g><mask id="ar" width="6" height="8" x="237" y="37" maskUnits="userSpaceOnUse" style="mask-type:luminance"><path fill="#fff" d="M237.784 37.043h4.693v7.038h-4.693z"/></mask><g fill="#1f1f1f" mask="url(#ar)"><path d="M237.788 37.847a.802.802 0 1 1-.001-1.605.802.802 0 0 1 .001 1.605m4.691 0a.802.802 0 1 1 0-1.604.802.802 0 0 1 0 1.604m-2.344 3.52a.802.802 0 1 1 0-1.605.802.802 0 0 1 0 1.605m-2.347 3.519a.802.802 0 1 1-.001-1.605.802.802 0 0 1 .001 1.605m4.691 0a.802.802 0 1 1 0-1.604.802.802 0 0 1 0 1.604"/></g><mask id="as" width="6" height="8" x="237" y="30" maskUnits="userSpaceOnUse" style="mask-type:luminance"><path fill="#fff" d="M237.784 30.008h4.693v7.038h-4.693z"/></mask><g fill="#1f1f1f" mask="url(#as)"><path d="M237.788 37.84a.802.802 0 1 1-.001-1.606.802.802 0 0 1 .001 1.605m4.691.001a.802.802 0 1 1 0-1.605.802.802 0 0 1 0 1.604"/></g><mask id="at" width="6" height="8" x="242" y="44" maskUnits="userSpaceOnUse" style="mask-type:luminance"><path fill="#fff" d="M242.48 44.086h4.692v7.038h-4.692z"/></mask><g fill="#1f1f1f" mask="url(#at)"><path d="M242.479 44.89a.802.802 0 1 1 0-1.604.802.802 0 0 1 0 1.604m4.691 0a.802.802 0 1 1 0-1.604.802.802 0 0 1 0 1.604m-2.347 3.523a.803.803 0 1 1 0-1.606.803.803 0 0 1 0 1.606m-2.344 3.512a.802.802 0 1 1 0-1.604.802.802 0 0 1 0 1.604m4.691 0a.802.802 0 1 1 0-1.604.802.802 0 0 1 0 1.604"/></g><mask id="au" width="6" height="8" x="242" y="37" maskUnits="userSpaceOnUse" style="mask-type:luminance"><path fill="#fff" d="M242.48 37.043h4.692v7.038h-4.692z"/></mask><g fill="#1f1f1f" mask="url(#au)"><path d="M242.479 37.847a.802.802 0 1 1 0-1.604.802.802 0 0 1 0 1.604m4.691 0a.802.802 0 1 1 0-1.604.802.802 0 0 1 0 1.604m-2.347 3.52a.803.803 0 1 1 0-1.607.803.803 0 0 1 0 1.607m-2.344 3.519a.802.802 0 1 1 0-1.604.802.802 0 0 1 0 1.604m4.691 0a.802.802 0 1 1 0-1.604.802.802 0 0 1 0 1.604"/></g><mask id="av" width="6" height="8" x="242" y="30" maskUnits="userSpaceOnUse" style="mask-type:luminance"><path fill="#fff" d="M242.48 30.008h4.692v7.038h-4.692z"/></mask><g fill="#1f1f1f" mask="url(#av)"><path d="M242.479 37.84a.802.802 0 1 1 0-1.605.802.802 0 0 1 0 1.604m4.691.001a.802.802 0 1 1 0-1.605.802.802 0 0 1 0 1.604"/></g><mask id="aw" width="5" height="8" x="247" y="44" maskUnits="userSpaceOnUse" style="mask-type:luminance"><path fill="#fff" d="M247.167 44.086h4.692v7.038h-4.692z"/></mask><g fill="#1f1f1f" mask="url(#aw)"><path d="M247.17 44.89a.802.802 0 1 1 0-1.604.802.802 0 0 1 0 1.604m4.692 0a.803.803 0 1 1 0-1.606.803.803 0 0 1 0 1.606m-2.348 3.523a.802.802 0 1 1 0-1.604.802.802 0 0 1 0 1.604m-2.348 3.512a.802.802 0 1 1 0-1.604.802.802 0 0 1 0 1.604m4.696 0a.803.803 0 1 1 0-1.606.803.803 0 0 1 0 1.606"/></g><mask id="ax" width="5" height="8" x="247" y="37" maskUnits="userSpaceOnUse" style="mask-type:luminance"><path fill="#fff" d="M247.167 37.043h4.692v7.038h-4.692z"/></mask><g fill="#1f1f1f" mask="url(#ax)"><path d="M247.17 37.847a.802.802 0 1 1 0-1.604.802.802 0 0 1 0 1.604m4.692 0a.803.803 0 1 1 0-1.606.803.803 0 0 1 0 1.606m-2.348 3.52a.802.802 0 1 1 0-1.605.802.802 0 0 1 0 1.605m-2.348 3.519a.802.802 0 1 1 0-1.604.802.802 0 0 1 0 1.604m4.696 0a.803.803 0 1 1 0-1.606.803.803 0 0 1 0 1.606"/></g><mask id="ay" width="5" height="8" x="247" y="30" maskUnits="userSpaceOnUse" style="mask-type:luminance"><path fill="#fff" d="M247.167 30.008h4.692v7.038h-4.692z"/></mask><g fill="#1f1f1f" mask="url(#ay)"><path d="M247.166 37.84a.802.802 0 1 1 0-1.605.802.802 0 0 1 0 1.604m4.696.001a.803.803 0 1 1 0-1.607.803.803 0 0 1 0 1.606"/></g><mask id="az" width="6" height="8" x="251" y="44" maskUnits="userSpaceOnUse" style="mask-type:luminance"><path fill="#fff" d="M251.862 44.086h4.693v7.038h-4.693z"/></mask><g fill="#1f1f1f" mask="url(#az)"><path d="M251.862 44.89a.803.803 0 1 1 0-1.606.803.803 0 0 1 0 1.606m4.691 0a.802.802 0 1 1 0-1.604.802.802 0 0 1 0 1.604m-2.348 3.523a.802.802 0 1 1 0-1.604.802.802 0 0 1 0 1.604m-2.343 3.512a.803.803 0 1 1 0-1.606.803.803 0 0 1 0 1.606m4.691 0a.802.802 0 1 1 0-1.604.802.802 0 0 1 0 1.604"/></g><mask id="aA" width="6" height="8" x="251" y="37" maskUnits="userSpaceOnUse" style="mask-type:luminance"><path fill="#fff" d="M251.862 37.043h4.693v7.038h-4.693z"/></mask><g fill="#1f1f1f" mask="url(#aA)"><path d="M251.862 37.847a.803.803 0 1 1 0-1.606.803.803 0 0 1 0 1.606m4.691 0a.802.802 0 1 1 0-1.604.802.802 0 0 1 0 1.604m-2.348 3.52a.802.802 0 1 1 0-1.605.802.802 0 0 1 0 1.605m-2.343 3.519a.803.803 0 1 1 0-1.606.803.803 0 0 1 0 1.606m4.691 0a.802.802 0 1 1 0-1.604.802.802 0 0 1 0 1.604"/></g><mask id="aB" width="6" height="8" x="251" y="30" maskUnits="userSpaceOnUse" style="mask-type:luminance"><path fill="#fff" d="M251.862 30.008h4.693v7.038h-4.693z"/></mask><g fill="#1f1f1f" mask="url(#aB)"><path d="M251.862 37.847a.803.803 0 1 1 0-1.606.803.803 0 0 1 0 1.606m4.691 0a.802.802 0 1 1 0-1.604.802.802 0 0 1 0 1.604"/></g><mask id="aC" width="6" height="8" x="256" y="44" maskUnits="userSpaceOnUse" style="mask-type:luminance"><path fill="#fff" d="M256.554 44.086h4.692v7.038h-4.692z"/></mask><g fill="#1f1f1f" mask="url(#aC)"><path d="M256.553 44.89a.802.802 0 1 1 0-1.604.802.802 0 0 1 0 1.604m4.692 0a.802.802 0 1 1-.001-1.605.802.802 0 0 1 .001 1.605m-2.344 3.523a.803.803 0 1 1 0-1.606.803.803 0 0 1 0 1.606m-2.352 3.512a.802.802 0 1 1 0-1.604.802.802 0 0 1 0 1.604m4.696 0a.802.802 0 1 1-.001-1.605.802.802 0 0 1 .001 1.605"/></g><mask id="aD" width="6" height="8" x="256" y="37" maskUnits="userSpaceOnUse" style="mask-type:luminance"><path fill="#fff" d="M256.554 37.043h4.692v7.038h-4.692z"/></mask><g fill="#1f1f1f" mask="url(#aD)"><path d="M256.553 37.847a.802.802 0 1 1 0-1.604.802.802 0 0 1 0 1.604m4.692 0a.802.802 0 1 1-.001-1.605.802.802 0 0 1 .001 1.605m-2.344 3.52a.803.803 0 1 1 0-1.607.803.803 0 0 1 0 1.607m-2.352 3.519a.802.802 0 1 1 0-1.604.802.802 0 0 1 0 1.604m4.696 0a.802.802 0 1 1-.001-1.605.802.802 0 0 1 .001 1.605"/></g><mask id="aE" width="6" height="8" x="256" y="30" maskUnits="userSpaceOnUse" style="mask-type:luminance"><path fill="#fff" d="M256.554 30.008h4.692v7.038h-4.692z"/></mask><g fill="#1f1f1f" mask="url(#aE)"><path d="M256.549 37.84a.802.802 0 1 1 0-1.605.802.802 0 0 1 0 1.604m4.696.001a.802.802 0 1 1-.001-1.606.802.802 0 0 1 .001 1.605"/></g><mask id="aF" width="5" height="8" x="261" y="44" maskUnits="userSpaceOnUse" style="mask-type:luminance"><path fill="#fff" d="M261.245 44.086h4.693v7.038h-4.693z"/></mask><g fill="#1f1f1f" mask="url(#aF)"><path d="M261.248 44.89a.802.802 0 1 1 0-1.604.802.802 0 0 1 0 1.604m4.692 0a.803.803 0 1 1 0-1.606.803.803 0 0 1 0 1.606m-2.348 3.523a.802.802 0 1 1 0-1.604.802.802 0 0 1 0 1.604m-2.347 3.512a.802.802 0 1 1-.001-1.605.802.802 0 0 1 .001 1.605m4.695 0a.803.803 0 1 1 0-1.606.803.803 0 0 1 0 1.606"/></g><mask id="aG" width="5" height="8" x="261" y="37" maskUnits="userSpaceOnUse" style="mask-type:luminance"><path fill="#fff" d="M261.245 37.043h4.693v7.038h-4.693z"/></mask><g fill="#1f1f1f" mask="url(#aG)"><path d="M261.248 37.847a.802.802 0 1 1 0-1.604.802.802 0 0 1 0 1.604m4.692 0a.803.803 0 1 1 0-1.606.803.803 0 0 1 0 1.606m-2.348 3.52a.802.802 0 1 1 0-1.605.802.802 0 0 1 0 1.605m-2.347 3.519a.802.802 0 1 1-.001-1.605.802.802 0 0 1 .001 1.605m4.695 0a.803.803 0 1 1 0-1.606.803.803 0 0 1 0 1.606"/></g><mask id="aH" width="5" height="8" x="261" y="30" maskUnits="userSpaceOnUse" style="mask-type:luminance"><path fill="#fff" d="M261.245 30.008h4.693v7.038h-4.693z"/></mask><g fill="#1f1f1f" mask="url(#aH)"><path d="M261.245 37.84a.802.802 0 1 1-.001-1.606.802.802 0 0 1 .001 1.605m4.695.001a.803.803 0 1 1 0-1.607.803.803 0 0 1 0 1.606"/></g><mask id="aI" width="6" height="8" x="265" y="44" maskUnits="userSpaceOnUse" style="mask-type:luminance"><path fill="#fff" d="M265.941 44.086h4.692v7.038h-4.692z"/></mask><g fill="#1f1f1f" mask="url(#aI)"><path d="M265.944 44.89a.803.803 0 1 1 0-1.606.803.803 0 0 1 0 1.606m4.691 0a.802.802 0 1 1 0-1.604.802.802 0 0 1 0 1.604m-2.347 3.523a.802.802 0 1 1-.001-1.604.802.802 0 0 1 .001 1.604m-2.348 3.512a.803.803 0 1 1 0-1.606.803.803 0 0 1 0 1.606m4.695 0a.802.802 0 1 1 0-1.604.802.802 0 0 1 0 1.604"/></g><mask id="aJ" width="6" height="8" x="265" y="37" maskUnits="userSpaceOnUse" style="mask-type:luminance"><path fill="#fff" d="M265.941 37.043h4.692v7.038h-4.692z"/></mask><g fill="#1f1f1f" mask="url(#aJ)"><path d="M265.94 37.847a.803.803 0 1 1 0-1.606.803.803 0 0 1 0 1.606m4.695 0a.802.802 0 1 1 0-1.604.802.802 0 0 1 0 1.604m-2.347 3.52a.802.802 0 1 1-.001-1.605.802.802 0 0 1 .001 1.605m-2.348 3.519a.803.803 0 1 1 0-1.606.803.803 0 0 1 0 1.606m4.695 0a.802.802 0 1 1 0-1.604.802.802 0 0 1 0 1.604"/></g><mask id="aK" width="6" height="8" x="265" y="30" maskUnits="userSpaceOnUse" style="mask-type:luminance"><path fill="#fff" d="M265.941 30.008h4.692v7.038h-4.692z"/></mask><g fill="#1f1f1f" mask="url(#aK)"><path d="M265.94 37.84a.803.803 0 1 1 0-1.607.803.803 0 0 1 0 1.606m4.695.001a.802.802 0 1 1 0-1.605.802.802 0 0 1 0 1.604"/></g><mask id="aL" width="6" height="8" x="270" y="44" maskUnits="userSpaceOnUse" style="mask-type:luminance"><path fill="#fff" d="M270.632 44.086h4.692v7.038h-4.692z"/></mask><g fill="#1f1f1f" mask="url(#aL)"><path d="M270.631 44.89a.802.802 0 1 1 0-1.604.802.802 0 0 1 0 1.604m4.692 0a.803.803 0 1 1 0-1.606.803.803 0 0 1 0 1.606m-2.344 3.523a.802.802 0 1 1 0-1.604.802.802 0 0 1 0 1.604m-2.352 3.512a.802.802 0 1 1 0-1.604.802.802 0 0 1 0 1.604m4.696 0a.803.803 0 1 1 0-1.606.803.803 0 0 1 0 1.606"/></g><mask id="aM" width="6" height="8" x="270" y="37" maskUnits="userSpaceOnUse" style="mask-type:luminance"><path fill="#fff" d="M270.632 37.043h4.692v7.038h-4.692z"/></mask><g fill="#1f1f1f" mask="url(#aM)"><path d="M270.631 37.847a.802.802 0 1 1 0-1.604.802.802 0 0 1 0 1.604m4.692 0a.803.803 0 1 1 0-1.606.803.803 0 0 1 0 1.606m-2.344 3.52a.802.802 0 1 1 0-1.605.802.802 0 0 1 0 1.605m-2.352 3.519a.802.802 0 1 1 0-1.604.802.802 0 0 1 0 1.604m4.696 0a.803.803 0 1 1 0-1.606.803.803 0 0 1 0 1.606"/></g><mask id="aN" width="6" height="8" x="270" y="30" maskUnits="userSpaceOnUse" style="mask-type:luminance"><path fill="#fff" d="M270.632 30.008h4.692v7.038h-4.692z"/></mask><g fill="#1f1f1f" mask="url(#aN)"><path d="M270.627 37.84a.802.802 0 1 1 0-1.605.802.802 0 0 1 0 1.604m4.696.001a.803.803 0 1 1 0-1.607.803.803 0 0 1 0 1.606"/></g><mask id="aO" width="6" height="8" x="275" y="44" maskUnits="userSpaceOnUse" style="mask-type:luminance"><path fill="#fff" d="M275.323 44.086h4.693v7.038h-4.693z"/></mask><g fill="#1f1f1f" mask="url(#aO)"><path d="M275.327 44.89a.802.802 0 1 1-.001-1.605.802.802 0 0 1 .001 1.605m4.691 0a.802.802 0 1 1 0-1.604.802.802 0 0 1 0 1.604m-2.344 3.523a.802.802 0 1 1 0-1.604.802.802 0 0 1 0 1.604m-2.351 3.512a.803.803 0 1 1 0-1.606.803.803 0 0 1 0 1.606m4.695 0a.802.802 0 1 1 0-1.604.802.802 0 0 1 0 1.604"/></g><mask id="aP" width="6" height="8" x="275" y="37" maskUnits="userSpaceOnUse" style="mask-type:luminance"><path fill="#fff" d="M275.323 37.043h4.693v7.038h-4.693z"/></mask><g fill="#1f1f1f" mask="url(#aP)"><path d="M275.327 37.847a.802.802 0 1 1-.001-1.605.802.802 0 0 1 .001 1.605m4.691 0a.802.802 0 1 1 0-1.604.802.802 0 0 1 0 1.604m-2.344 3.52a.802.802 0 1 1 0-1.605.802.802 0 0 1 0 1.605m-2.351 3.519a.803.803 0 1 1 0-1.606.803.803 0 0 1 0 1.606m4.695 0a.802.802 0 1 1 0-1.604.802.802 0 0 1 0 1.604"/></g><mask id="aQ" width="6" height="8" x="275" y="30" maskUnits="userSpaceOnUse" style="mask-type:luminance"><path fill="#fff" d="M275.323 30.008h4.693v7.038h-4.693z"/></mask><g fill="#1f1f1f" mask="url(#aQ)"><path d="M275.323 37.847a.803.803 0 1 1 0-1.606.803.803 0 0 1 0 1.606m4.695 0a.802.802 0 1 1 0-1.604.802.802 0 0 1 0 1.604"/></g><mask id="aR" width="5" height="8" x="280" y="44" maskUnits="userSpaceOnUse" style="mask-type:luminance"><path fill="#fff" d="M280.015 44.086h4.692v7.038h-4.692z"/></mask><g fill="#1f1f1f" mask="url(#aR)"><path d="M280.014 44.89a.802.802 0 1 1 0-1.604.802.802 0 0 1 0 1.604m4.691 0a.802.802 0 1 1 0-1.604.802.802 0 0 1 0 1.604m-2.343 3.523a.803.803 0 1 1 0-1.606.803.803 0 0 1 0 1.606m-2.352 3.512a.802.802 0 1 1 0-1.604.802.802 0 0 1 0 1.604m4.695 0a.802.802 0 1 1 0-1.604.802.802 0 0 1 0 1.604"/></g><mask id="aS" width="5" height="8" x="280" y="37" maskUnits="userSpaceOnUse" style="mask-type:luminance"><path fill="#fff" d="M280.015 37.043h4.692v7.038h-4.692z"/></mask><g fill="#1f1f1f" mask="url(#aS)"><path d="M280.01 37.847a.802.802 0 1 1 0-1.604.802.802 0 0 1 0 1.604m4.695 0a.802.802 0 1 1 0-1.604.802.802 0 0 1 0 1.604m-2.343 3.52a.803.803 0 1 1 0-1.607.803.803 0 0 1 0 1.607m-2.352 3.519a.802.802 0 1 1 0-1.604.802.802 0 0 1 0 1.604m4.695 0a.802.802 0 1 1 0-1.604.802.802 0 0 1 0 1.604"/></g><mask id="aT" width="5" height="8" x="280" y="30" maskUnits="userSpaceOnUse" style="mask-type:luminance"><path fill="#fff" d="M280.015 30.008h4.692v7.038h-4.692z"/></mask><g fill="#1f1f1f" mask="url(#aT)"><path d="M280.01 37.84a.802.802 0 1 1 0-1.605.802.802 0 0 1 0 1.604m4.695.001a.802.802 0 1 1 0-1.605.802.802 0 0 1 0 1.604"/></g><mask id="aU" width="6" height="8" x="284" y="44" maskUnits="userSpaceOnUse" style="mask-type:luminance"><path fill="#fff" d="M284.706 44.086h4.692v7.038h-4.692z"/></mask><g fill="#1f1f1f" mask="url(#aU)"><path d="M284.709 44.89a.802.802 0 1 1 0-1.604.802.802 0 0 1 0 1.604m4.692 0a.803.803 0 1 1 0-1.606.803.803 0 0 1 0 1.606m-2.344 3.523a.802.802 0 1 1 0-1.604.802.802 0 0 1 0 1.604m-2.352 3.512a.802.802 0 1 1 0-1.604.802.802 0 0 1 0 1.604m4.696 0a.803.803 0 1 1 0-1.606.803.803 0 0 1 0 1.606"/></g><mask id="aV" width="6" height="8" x="284" y="37" maskUnits="userSpaceOnUse" style="mask-type:luminance"><path fill="#fff" d="M284.706 37.043h4.692v7.038h-4.692z"/></mask><g fill="#1f1f1f" mask="url(#aV)"><path d="M284.709 37.847a.802.802 0 1 1 0-1.604.802.802 0 0 1 0 1.604m4.692 0a.803.803 0 1 1 0-1.606.803.803 0 0 1 0 1.606m-2.344 3.52a.802.802 0 1 1 0-1.605.802.802 0 0 1 0 1.605m-2.352 3.519a.802.802 0 1 1 0-1.604.802.802 0 0 1 0 1.604m4.696 0a.803.803 0 1 1 0-1.606.803.803 0 0 1 0 1.606"/></g><mask id="aW" width="6" height="8" x="284" y="30" maskUnits="userSpaceOnUse" style="mask-type:luminance"><path fill="#fff" d="M284.706 30.008h4.692v7.038h-4.692z"/></mask><g fill="#1f1f1f" mask="url(#aW)"><path d="M284.705 37.84a.802.802 0 1 1 0-1.605.802.802 0 0 1 0 1.604m4.696.001a.803.803 0 1 1 0-1.607.803.803 0 0 1 0 1.606"/></g><mask id="aX" width="6" height="8" x="289" y="44" maskUnits="userSpaceOnUse" style="mask-type:luminance"><path fill="#fff" d="M289.402 44.086h4.692v7.038h-4.692z"/></mask><g fill="#1f1f1f" mask="url(#aX)"><path d="M289.401 44.89a.803.803 0 1 1 0-1.606.803.803 0 0 1 0 1.606m4.691 0a.802.802 0 1 1 0-1.604.802.802 0 0 1 0 1.604m-2.347 3.523a.802.802 0 1 1-.001-1.604.802.802 0 0 1 .001 1.604m-2.344 3.512a.803.803 0 1 1 0-1.606.803.803 0 0 1 0 1.606m4.691 0a.802.802 0 1 1 0-1.604.802.802 0 0 1 0 1.604"/></g><mask id="aY" width="6" height="8" x="289" y="37" maskUnits="userSpaceOnUse" style="mask-type:luminance"><path fill="#fff" d="M289.402 37.043h4.692v7.038h-4.692z"/></mask><g fill="#1f1f1f" mask="url(#aY)"><path d="M289.401 37.847a.803.803 0 1 1 0-1.606.803.803 0 0 1 0 1.606m4.691 0a.802.802 0 1 1 0-1.604.802.802 0 0 1 0 1.604m-2.347 3.52a.802.802 0 1 1-.001-1.605.802.802 0 0 1 .001 1.605m-2.344 3.519a.803.803 0 1 1 0-1.606.803.803 0 0 1 0 1.606m4.691 0a.802.802 0 1 1 0-1.604.802.802 0 0 1 0 1.604"/></g><mask id="aZ" width="6" height="8" x="289" y="30" maskUnits="userSpaceOnUse" style="mask-type:luminance"><path fill="#fff" d="M289.402 30.008h4.692v7.038h-4.692z"/></mask><g fill="#1f1f1f" mask="url(#aZ)"><path d="M289.401 37.84a.803.803 0 1 1 0-1.607.803.803 0 0 1 0 1.606m4.691.001a.802.802 0 1 1 0-1.605.802.802 0 0 1 0 1.604"/></g><mask id="ba" width="5" height="8" x="294" y="44" maskUnits="userSpaceOnUse" style="mask-type:luminance"><path fill="#fff" d="M294.089 44.086h4.692v7.038h-4.692z"/></mask><g fill="#1f1f1f" mask="url(#ba)"><path d="M294.092 44.89a.802.802 0 1 1 0-1.604.802.802 0 0 1 0 1.604m4.692 0a.802.802 0 1 1-.001-1.605.802.802 0 0 1 .001 1.605m-2.348 3.523a.802.802 0 1 1 0-1.604.802.802 0 0 1 0 1.604m-2.348 3.512a.802.802 0 1 1 0-1.604.802.802 0 0 1 0 1.604m4.696 0a.802.802 0 1 1-.001-1.605.802.802 0 0 1 .001 1.605"/></g><mask id="bb" width="5" height="8" x="294" y="37" maskUnits="userSpaceOnUse" style="mask-type:luminance"><path fill="#fff" d="M294.089 37.043h4.692v7.038h-4.692z"/></mask><g fill="#1f1f1f" mask="url(#bb)"><path d="M294.088 37.847a.802.802 0 1 1 0-1.604.802.802 0 0 1 0 1.604m4.696 0a.802.802 0 1 1-.001-1.605.802.802 0 0 1 .001 1.605m-2.348 3.52a.802.802 0 1 1 0-1.605.802.802 0 0 1 0 1.605m-2.348 3.519a.802.802 0 1 1 0-1.604.802.802 0 0 1 0 1.604m4.696 0a.802.802 0 1 1-.001-1.605.802.802 0 0 1 .001 1.605"/></g><mask id="bc" width="5" height="8" x="294" y="30" maskUnits="userSpaceOnUse" style="mask-type:luminance"><path fill="#fff" d="M294.089 30.008h4.692v7.038h-4.692z"/></mask><g fill="#1f1f1f" mask="url(#bc)"><path d="M294.088 37.84a.802.802 0 1 1 0-1.605.802.802 0 0 1 0 1.604m4.696.001a.802.802 0 1 1-.001-1.606.802.802 0 0 1 .001 1.605"/></g><mask id="bd" width="6" height="8" x="298" y="44" maskUnits="userSpaceOnUse" style="mask-type:luminance"><path fill="#fff" d="M298.784 44.086h4.693v7.038h-4.693z"/></mask><g fill="#1f1f1f" mask="url(#bd)"><path d="M298.784 44.89a.802.802 0 1 1-.001-1.605.802.802 0 0 1 .001 1.605m4.691 0a.802.802 0 1 1 0-1.604.802.802 0 0 1 0 1.604m-2.348 3.523a.802.802 0 1 1 0-1.604.802.802 0 0 1 0 1.604m-2.343 3.512a.802.802 0 1 1-.001-1.605.802.802 0 0 1 .001 1.605m4.691 0a.802.802 0 1 1 0-1.604.802.802 0 0 1 0 1.604"/></g><mask id="be" width="6" height="8" x="298" y="37" maskUnits="userSpaceOnUse" style="mask-type:luminance"><path fill="#fff" d="M298.784 37.043h4.693v7.038h-4.693z"/></mask><g fill="#1f1f1f" mask="url(#be)"><path d="M298.788 37.847a.802.802 0 1 1-.001-1.605.802.802 0 0 1 .001 1.605m4.691 0a.802.802 0 1 1 0-1.604.802.802 0 0 1 0 1.604m-2.344 3.52a.802.802 0 1 1 0-1.605.802.802 0 0 1 0 1.605m-2.347 3.519a.802.802 0 1 1-.001-1.605.802.802 0 0 1 .001 1.605m4.691 0a.802.802 0 1 1 0-1.604.802.802 0 0 1 0 1.604"/></g><mask id="bf" width="6" height="8" x="298" y="30" maskUnits="userSpaceOnUse" style="mask-type:luminance"><path fill="#fff" d="M298.784 30.008h4.693v7.038h-4.693z"/></mask><g fill="#1f1f1f" mask="url(#bf)"><path d="M298.788 37.847a.802.802 0 1 1-.001-1.605.802.802 0 0 1 .001 1.605m4.691 0a.802.802 0 1 1 0-1.604.802.802 0 0 1 0 1.604"/></g><mask id="bg" width="6" height="8" x="303" y="44" maskUnits="userSpaceOnUse" style="mask-type:luminance"><path fill="#fff" d="M303.476 44.086h4.692v7.038h-4.692z"/></mask><g fill="#1f1f1f" mask="url(#bg)"><path d="M303.475 44.89a.802.802 0 1 1 0-1.604.802.802 0 0 1 0 1.604m4.691 0a.802.802 0 1 1 0-1.604.802.802 0 0 1 0 1.604m-2.343 3.523a.803.803 0 1 1 0-1.606.803.803 0 0 1 0 1.606m-2.344 3.512a.802.802 0 1 1 0-1.604.802.802 0 0 1 0 1.604m4.687 0a.802.802 0 1 1 0-1.604.802.802 0 0 1 0 1.604"/></g><mask id="bh" width="6" height="8" x="303" y="37" maskUnits="userSpaceOnUse" style="mask-type:luminance"><path fill="#fff" d="M303.476 37.043h4.692v7.038h-4.692z"/></mask><g fill="#1f1f1f" mask="url(#bh)"><path d="M303.475 37.847a.802.802 0 1 1 0-1.604.802.802 0 0 1 0 1.604m4.691 0a.802.802 0 1 1 0-1.604.802.802 0 0 1 0 1.604m-2.343 3.52a.803.803 0 1 1 0-1.607.803.803 0 0 1 0 1.607m-2.344 3.519a.802.802 0 1 1 0-1.604.802.802 0 0 1 0 1.604m4.687 0a.802.802 0 1 1 0-1.604.802.802 0 0 1 0 1.604"/></g><mask id="bi" width="6" height="8" x="303" y="30" maskUnits="userSpaceOnUse" style="mask-type:luminance"><path fill="#fff" d="M303.476 30.008h4.692v7.038h-4.692z"/></mask><g fill="#1f1f1f" mask="url(#bi)"><path d="M303.479 37.84a.802.802 0 1 1 0-1.605.802.802 0 0 1 0 1.604m4.687.001a.802.802 0 1 1 0-1.605.802.802 0 0 1 0 1.604"/></g><mask id="bj" width="5" height="8" x="308" y="44" maskUnits="userSpaceOnUse" style="mask-type:luminance"><path fill="#fff" d="M308.167 44.086h4.692v7.038h-4.692z"/></mask><g fill="#1f1f1f" mask="url(#bj)"><path d="M308.17 44.89a.802.802 0 1 1 0-1.604.802.802 0 0 1 0 1.604m4.692 0a.803.803 0 1 1 0-1.606.803.803 0 0 1 0 1.606m-2.348 3.523a.802.802 0 1 1 0-1.604.802.802 0 0 1 0 1.604m-2.348 3.512a.802.802 0 1 1 0-1.604.802.802 0 0 1 0 1.604m4.696 0a.803.803 0 1 1 0-1.606.803.803 0 0 1 0 1.606"/></g><mask id="bk" width="5" height="8" x="308" y="37" maskUnits="userSpaceOnUse" style="mask-type:luminance"><path fill="#fff" d="M308.167 37.043h4.692v7.038h-4.692z"/></mask><g fill="#1f1f1f" mask="url(#bk)"><path d="M308.166 37.847a.802.802 0 1 1 0-1.604.802.802 0 0 1 0 1.604m4.696 0a.803.803 0 1 1 0-1.606.803.803 0 0 1 0 1.606m-2.348 3.52a.802.802 0 1 1 0-1.605.802.802 0 0 1 0 1.605m-2.348 3.519a.802.802 0 1 1 0-1.604.802.802 0 0 1 0 1.604m4.696 0a.803.803 0 1 1 0-1.606.803.803 0 0 1 0 1.606"/></g><mask id="bl" width="5" height="8" x="308" y="30" maskUnits="userSpaceOnUse" style="mask-type:luminance"><path fill="#fff" d="M308.167 30.008h4.692v7.038h-4.692z"/></mask><g fill="#1f1f1f" mask="url(#bl)"><path d="M308.166 37.84a.802.802 0 1 1 0-1.605.802.802 0 0 1 0 1.604m4.696.001a.803.803 0 1 1 0-1.607.803.803 0 0 1 0 1.606"/></g><mask id="bm" width="6" height="8" x="312" y="44" maskUnits="userSpaceOnUse" style="mask-type:luminance"><path fill="#fff" d="M312.859 44.086h4.692v7.038h-4.692z"/></mask><g fill="#1f1f1f" mask="url(#bm)"><path d="M312.858 44.89a.803.803 0 1 1 0-1.606.803.803 0 0 1 0 1.606m4.691 0a.802.802 0 1 1 0-1.604.802.802 0 0 1 0 1.604m-2.347 3.523a.802.802 0 1 1-.001-1.604.802.802 0 0 1 .001 1.604m-2.348 3.512a.802.802 0 1 1 0-1.604.802.802 0 0 1 0 1.604m4.695 0a.802.802 0 1 1 0-1.604.802.802 0 0 1 0 1.604"/></g><mask id="bn" width="6" height="8" x="312" y="37" maskUnits="userSpaceOnUse" style="mask-type:luminance"><path fill="#fff" d="M312.859 37.043h4.692v7.038h-4.692z"/></mask><g fill="#1f1f1f" mask="url(#bn)"><path d="M312.858 37.847a.803.803 0 1 1 0-1.606.803.803 0 0 1 0 1.606m4.691 0a.802.802 0 1 1 0-1.604.802.802 0 0 1 0 1.604m-2.347 3.52a.802.802 0 1 1-.001-1.605.802.802 0 0 1 .001 1.605m-2.348 3.519a.802.802 0 1 1 0-1.604.802.802 0 0 1 0 1.604m4.695 0a.802.802 0 1 1 0-1.604.802.802 0 0 1 0 1.604"/></g><mask id="bo" width="6" height="8" x="312" y="30" maskUnits="userSpaceOnUse" style="mask-type:luminance"><path fill="#fff" d="M312.859 30.008h4.692v7.038h-4.692z"/></mask><g fill="#1f1f1f" mask="url(#bo)"><path d="M312.854 37.84a.802.802 0 1 1 0-1.605.802.802 0 0 1 0 1.604m4.695.001a.802.802 0 1 1 0-1.605.802.802 0 0 1 0 1.604"/></g><mask id="bp" width="6" height="8" x="317" y="44" maskUnits="userSpaceOnUse" style="mask-type:luminance"><path fill="#fff" d="M317.55 44.086h4.692v7.038h-4.692z"/></mask><g fill="#1f1f1f" mask="url(#bp)"><path d="M317.549 44.89a.802.802 0 1 1 0-1.604.802.802 0 0 1 0 1.604m4.692 0a.802.802 0 1 1-.001-1.605.802.802 0 0 1 .001 1.605m-2.348 3.523a.802.802 0 1 1 0-1.604.802.802 0 0 1 0 1.604m-2.344 3.512a.802.802 0 1 1 0-1.604.802.802 0 0 1 0 1.604m4.692 0a.802.802 0 1 1-.001-1.605.802.802 0 0 1 .001 1.605"/></g><mask id="bq" width="6" height="8" x="317" y="37" maskUnits="userSpaceOnUse" style="mask-type:luminance"><path fill="#fff" d="M317.55 37.043h4.692v7.038h-4.692z"/></mask><g fill="#1f1f1f" mask="url(#bq)"><path d="M317.549 37.847a.802.802 0 1 1 0-1.604.802.802 0 0 1 0 1.604m4.692 0a.802.802 0 1 1-.001-1.605.802.802 0 0 1 .001 1.605m-2.348 3.52a.802.802 0 1 1 0-1.605.802.802 0 0 1 0 1.605m-2.344 3.519a.802.802 0 1 1 0-1.604.802.802 0 0 1 0 1.604m4.692 0a.802.802 0 1 1-.001-1.605.802.802 0 0 1 .001 1.605"/></g><mask id="br" width="6" height="8" x="317" y="30" maskUnits="userSpaceOnUse" style="mask-type:luminance"><path fill="#fff" d="M317.55 30.008h4.692v7.038h-4.692z"/></mask><g fill="#1f1f1f" mask="url(#br)"><path d="M317.549 37.84a.802.802 0 1 1 0-1.605.802.802 0 0 1 0 1.604m4.692.001a.802.802 0 1 1-.001-1.606.802.802 0 0 1 .001 1.605"/></g><mask id="bs" width="5" height="8" x="322" y="44" maskUnits="userSpaceOnUse" style="mask-type:luminance"><path fill="#fff" d="M322.245 44.086h4.693v7.038h-4.693z"/></mask><g fill="#1f1f1f" mask="url(#bs)"><path d="M322.248 44.89a.802.802 0 1 1 0-1.604.802.802 0 0 1 0 1.604m4.692 0a.803.803 0 1 1 0-1.606.803.803 0 0 1 0 1.606m-2.348 3.523a.802.802 0 1 1 0-1.604.802.802 0 0 1 0 1.604m-2.347 3.512a.802.802 0 1 1-.001-1.605.802.802 0 0 1 .001 1.605m4.695 0a.803.803 0 1 1 0-1.606.803.803 0 0 1 0 1.606"/></g><mask id="bt" width="5" height="8" x="322" y="37" maskUnits="userSpaceOnUse" style="mask-type:luminance"><path fill="#fff" d="M322.245 37.043h4.693v7.038h-4.693z"/></mask><g fill="#1f1f1f" mask="url(#bt)"><path d="M322.245 37.847a.802.802 0 1 1-.001-1.605.802.802 0 0 1 .001 1.605m4.695 0a.803.803 0 1 1 0-1.606.803.803 0 0 1 0 1.606m-2.348 3.52a.802.802 0 1 1 0-1.605.802.802 0 0 1 0 1.605m-2.347 3.519a.802.802 0 1 1-.001-1.605.802.802 0 0 1 .001 1.605m4.695 0a.803.803 0 1 1 0-1.606.803.803 0 0 1 0 1.606"/></g><mask id="bu" width="5" height="8" x="322" y="30" maskUnits="userSpaceOnUse" style="mask-type:luminance"><path fill="#fff" d="M322.245 30.008h4.693v7.038h-4.693z"/></mask><g fill="#1f1f1f" mask="url(#bu)"><path d="M322.245 37.847a.802.802 0 1 1-.001-1.605.802.802 0 0 1 .001 1.605m4.695 0a.803.803 0 1 1 0-1.606.803.803 0 0 1 0 1.606"/></g><mask id="bv" width="6" height="8" x="326" y="44" maskUnits="userSpaceOnUse" style="mask-type:luminance"><path fill="#fff" d="M326.937 44.086h4.692v7.038h-4.692z"/></mask><g fill="#1f1f1f" mask="url(#bv)"><path d="M326.936 44.89a.802.802 0 1 1 0-1.604.802.802 0 0 1 0 1.604m4.691 0a.802.802 0 1 1 0-1.604.802.802 0 0 1 0 1.604m-2.347 3.523a.803.803 0 1 1 0-1.606.803.803 0 0 1 0 1.606m-2.348 3.512a.802.802 0 1 1 0-1.604.802.802 0 0 1 0 1.604m4.695 0a.802.802 0 1 1 0-1.604.802.802 0 0 1 0 1.604"/></g><mask id="bw" width="6" height="8" x="326" y="37" maskUnits="userSpaceOnUse" style="mask-type:luminance"><path fill="#fff" d="M326.937 37.043h4.692v7.038h-4.692z"/></mask><g fill="#1f1f1f" mask="url(#bw)"><path d="M326.936 37.847a.802.802 0 1 1 0-1.604.802.802 0 0 1 0 1.604m4.691 0a.802.802 0 1 1 0-1.604.802.802 0 0 1 0 1.604m-2.347 3.52a.803.803 0 1 1 0-1.607.803.803 0 0 1 0 1.607m-2.348 3.519a.802.802 0 1 1 0-1.604.802.802 0 0 1 0 1.604m4.695 0a.802.802 0 1 1 0-1.604.802.802 0 0 1 0 1.604"/></g><mask id="bx" width="6" height="8" x="326" y="30" maskUnits="userSpaceOnUse" style="mask-type:luminance"><path fill="#fff" d="M326.937 30.008h4.692v7.038h-4.692z"/></mask><g fill="#1f1f1f" mask="url(#bx)"><path d="M326.932 37.84a.802.802 0 1 1 0-1.605.802.802 0 0 1 0 1.604m4.695.001a.802.802 0 1 1 0-1.605.802.802 0 0 1 0 1.604"/></g><mask id="by" width="6" height="8" x="331" y="44" maskUnits="userSpaceOnUse" style="mask-type:luminance"><path fill="#fff" d="M331.628 44.086h4.692v7.038h-4.692z"/></mask><g fill="#1f1f1f" mask="url(#by)"><path d="M331.631 44.89a.802.802 0 1 1 0-1.604.802.802 0 0 1 0 1.604m4.692 0a.802.802 0 1 1-.001-1.605.802.802 0 0 1 .001 1.605m-2.344 3.523a.802.802 0 1 1 0-1.604.802.802 0 0 1 0 1.604m-2.352 3.512a.802.802 0 1 1 0-1.604.802.802 0 0 1 0 1.604m4.696 0a.802.802 0 1 1-.001-1.605.802.802 0 0 1 .001 1.605"/></g><mask id="bz" width="6" height="8" x="331" y="37" maskUnits="userSpaceOnUse" style="mask-type:luminance"><path fill="#fff" d="M331.628 37.043h4.692v7.038h-4.692z"/></mask><g fill="#1f1f1f" mask="url(#bz)"><path d="M331.631 37.847a.802.802 0 1 1 0-1.604.802.802 0 0 1 0 1.604m4.692 0a.802.802 0 1 1-.001-1.605.802.802 0 0 1 .001 1.605m-2.344 3.52a.802.802 0 1 1 0-1.605.802.802 0 0 1 0 1.605m-2.352 3.519a.802.802 0 1 1 0-1.604.802.802 0 0 1 0 1.604m4.696 0a.802.802 0 1 1-.001-1.605.802.802 0 0 1 .001 1.605"/></g><mask id="bA" width="6" height="8" x="331" y="30" maskUnits="userSpaceOnUse" style="mask-type:luminance"><path fill="#fff" d="M331.628 30.008h4.692v7.038h-4.692z"/></mask><g fill="#1f1f1f" mask="url(#bA)"><path d="M331.627 37.84a.802.802 0 1 1 0-1.605.802.802 0 0 1 0 1.604m4.696.001a.802.802 0 1 1-.001-1.606.802.802 0 0 1 .001 1.605"/></g><mask id="bB" width="6" height="8" x="336" y="44" maskUnits="userSpaceOnUse" style="mask-type:luminance"><path fill="#fff" d="M336.323 44.086h4.692v7.038h-4.692z"/></mask><g fill="#1f1f1f" mask="url(#bB)"><path d="M336.326 44.89a.802.802 0 1 1 0-1.604.802.802 0 0 1 0 1.604m4.692 0a.803.803 0 1 1 0-1.606.803.803 0 0 1 0 1.606m-2.344 3.523a.802.802 0 1 1 0-1.604.802.802 0 0 1 0 1.604m-2.348 3.512a.802.802 0 1 1 0-1.604.802.802 0 0 1 0 1.604m4.692 0a.803.803 0 1 1 0-1.606.803.803 0 0 1 0 1.606"/></g><mask id="bC" width="6" height="8" x="336" y="37" maskUnits="userSpaceOnUse" style="mask-type:luminance"><path fill="#fff" d="M336.323 37.043h4.693v7.038h-4.693z"/></mask><g fill="#1f1f1f" mask="url(#bC)"><path d="M336.323 37.847a.802.802 0 1 1-.001-1.605.802.802 0 0 1 .001 1.605m4.691 0a.802.802 0 1 1 0-1.604.802.802 0 0 1 0 1.604m-2.348 3.52a.802.802 0 1 1 0-1.605.802.802 0 0 1 0 1.605m-2.343 3.519a.802.802 0 1 1-.001-1.605.802.802 0 0 1 .001 1.605m4.691 0a.802.802 0 1 1 0-1.604.802.802 0 0 1 0 1.604"/></g><mask id="bD" width="6" height="8" x="336" y="30" maskUnits="userSpaceOnUse" style="mask-type:luminance"><path fill="#fff" d="M336.323 30.008h4.693v7.038h-4.693z"/></mask><g fill="#1f1f1f" mask="url(#bD)"><path d="M336.327 37.84a.802.802 0 1 1-.001-1.606.802.802 0 0 1 .001 1.605m4.691.001a.802.802 0 1 1 0-1.605.802.802 0 0 1 0 1.604"/></g><mask id="bE" width="5" height="8" x="341" y="44" maskUnits="userSpaceOnUse" style="mask-type:luminance"><path fill="#fff" d="M341.011 44.086h4.692v7.038h-4.692z"/></mask><g fill="#1f1f1f" mask="url(#bE)"><path d="M341.014 44.89a.802.802 0 1 1 0-1.604.802.802 0 0 1 0 1.604m4.691 0a.802.802 0 1 1 0-1.604.802.802 0 0 1 0 1.604m-2.347 3.523a.803.803 0 1 1 0-1.606.803.803 0 0 1 0 1.606m-2.348 3.512a.802.802 0 1 1 0-1.604.802.802 0 0 1 0 1.604m4.695 0a.802.802 0 1 1 0-1.604.802.802 0 0 1 0 1.604"/></g><mask id="bF" width="5" height="8" x="341" y="37" maskUnits="userSpaceOnUse" style="mask-type:luminance"><path fill="#fff" d="M341.011 37.043h4.692v7.038h-4.692z"/></mask><g fill="#1f1f1f" mask="url(#bF)"><path d="M341.014 37.847a.802.802 0 1 1 0-1.604.802.802 0 0 1 0 1.604m4.691 0a.802.802 0 1 1 0-1.604.802.802 0 0 1 0 1.604m-2.347 3.52a.803.803 0 1 1 0-1.607.803.803 0 0 1 0 1.607m-2.348 3.519a.802.802 0 1 1 0-1.604.802.802 0 0 1 0 1.604m4.695 0a.802.802 0 1 1 0-1.604.802.802 0 0 1 0 1.604"/></g><mask id="bG" width="5" height="8" x="341" y="30" maskUnits="userSpaceOnUse" style="mask-type:luminance"><path fill="#fff" d="M341.015 30.008h4.692v7.038h-4.692z"/></mask><g fill="#1f1f1f" mask="url(#bG)"><path d="M341.01 37.84a.802.802 0 1 1 0-1.605.802.802 0 0 1 0 1.604m4.695.001a.802.802 0 1 1 0-1.605.802.802 0 0 1 0 1.604"/></g><mask id="bH" width="6" height="8" x="345" y="44" maskUnits="userSpaceOnUse" style="mask-type:luminance"><path fill="#fff" d="M345.706 44.086h4.692v7.038h-4.692z"/></mask><g fill="#1f1f1f" mask="url(#bH)"><path d="M345.705 44.89a.802.802 0 1 1 0-1.604.802.802 0 0 1 0 1.604m2.344 3.523a.802.802 0 1 1 0-1.604.802.802 0 0 1 0 1.604m-2.344 3.512a.802.802 0 1 1 0-1.604.802.802 0 0 1 0 1.604"/></g><mask id="bI" width="6" height="8" x="345" y="37" maskUnits="userSpaceOnUse" style="mask-type:luminance"><path fill="#fff" d="M345.706 37.043h4.692v7.038h-4.692z"/></mask><g fill="#1f1f1f" mask="url(#bI)"><path d="M345.705 37.847a.802.802 0 1 1 0-1.604.802.802 0 0 1 0 1.604m2.344 3.52a.802.802 0 1 1 0-1.605.802.802 0 0 1 0 1.605m-2.344 3.519a.802.802 0 1 1 0-1.604.802.802 0 0 1 0 1.604"/></g><mask id="bJ" width="6" height="8" x="345" y="30" maskUnits="userSpaceOnUse" style="mask-type:luminance"><path fill="#fff" d="M345.706 30.008h4.692v7.038h-4.692z"/></mask><g mask="url(#bJ)"><path fill="#1f1f1f" d="M345.705 37.847a.802.802 0 1 1 0-1.604.802.802 0 0 1 0 1.604"/></g></g><path fill="#fff" d="M87.822 30.761V47.08a8.394 8.394 0 1 0 16.787 0V30.761a8.394 8.394 0 1 0-16.787 0"/><path fill="#1f1f1f" d="M96.21 55.99c4.916 0 8.915-4 8.915-8.916V30.755c0-4.916-3.999-8.915-8.915-8.915s-8.915 4-8.915 8.915v16.319c0 4.916 4 8.916 8.915 8.916m0-33.107c4.341 0 7.872 3.531 7.872 7.873v16.319c0 4.34-3.531 7.873-7.872 7.873s-7.872-3.532-7.872-7.873v-16.32c0-4.34 3.531-7.872 7.872-7.872"/><path fill="#fff" d="M71.033 30.761v18.343a8.394 8.394 0 1 0 16.787 0V30.761a8.394 8.394 0 1 0-16.787 0"/><path fill="#1f1f1f" d="M79.429 58.014c4.915 0 8.915-4 8.915-8.916V30.756c0-4.916-4-8.915-8.915-8.915-4.916 0-8.916 4-8.916 8.915V49.1c0 4.916 4 8.915 8.915 8.915m0-35.13c4.34 0 7.872 3.53 7.872 7.872V49.1c0 4.34-3.531 7.873-7.873 7.873-4.34 0-7.872-3.532-7.872-7.873V30.756c0-4.341 3.531-7.873 7.873-7.873"/><path fill="#fff" d="M54.248 30.753v16.32a8.394 8.394 0 1 0 16.787 0v-16.32a8.394 8.394 0 1 0-16.787 0"/><path fill="#1f1f1f" d="M62.64 55.99c4.915 0 8.915-4 8.915-8.916V30.757c0-4.917-4-8.916-8.916-8.916-4.915 0-8.915 4-8.915 8.916v16.319c0 4.915 4 8.915 8.916 8.915m0-33.107c4.34 0 7.872 3.532 7.872 7.873v16.32c0 4.34-3.531 7.872-7.873 7.872-4.34 0-7.872-3.532-7.872-7.873v-16.32c0-4.34 3.531-7.873 7.872-7.873"/><path fill="#fff" d="M94.087 59.82h10.543a4.87 4.87 0 0 0 4.87-4.87v-3.202a8.07 8.07 0 0 0-8.072-8.072H88.166a8.072 8.072 0 1 0 0 16.144z"/><path fill="#1f1f1f" d="M88.164 60.339h5.921a.521.521 0 1 0 0-1.043h-5.92c-4.164 0-7.552-3.387-7.552-7.55s3.388-7.55 7.551-7.55h13.262c4.164 0 7.551 3.386 7.551 7.55v5.636a.52.52 0 1 0 1.043 0v-5.637c0-4.738-3.856-8.593-8.594-8.593H88.164c-4.738 0-8.593 3.855-8.593 8.593s3.855 8.594 8.593 8.594"/><path fill="#fff" d="M86.988 59.734S68.946 58.106 68.946 71.49Z"/><path fill="#1f1f1f" d="M68.945 72.009a.52.52 0 0 0 .521-.522c0-3.116 1.03-5.636 3.058-7.491 4.957-4.534 14.322-3.752 14.415-3.744a.522.522 0 0 0 .094-1.039c-.403-.034-9.911-.832-15.21 4.01-2.256 2.061-3.4 4.842-3.4 8.264 0 .289.234.522.522.522"/><mask id="bK" width="33" height="23" x="54" y="51" maskUnits="userSpaceOnUse" style="mask-type:luminance"><path fill="#fff" d="M54.297 51.059V69.18a7.58 7.58 0 0 0 6.7 3.862l1.524-.019a7.58 7.58 0 0 0 5.698-2.685l.98-1.157c1.892-10.511 16.782-9.53 17.793-9.453a8.06 8.06 0 0 1-4.848-2.664 8.39 8.39 0 0 1-10.771-5.792l-1.398-.021a8.2 8.2 0 0 1-1.35 1.762 8.36 8.36 0 0 1-5.933 2.456 8.4 8.4 0 0 1-7.388-4.4z"/></mask><g mask="url(#bK)"><mask id="bL" width="5" height="8" x="50" y="71" maskUnits="userSpaceOnUse" style="mask-type:luminance"><path fill="#fff" d="M50.01 71.086h4.693v7.038h-4.692z"/></mask><g mask="url(#bL)"><path fill="#1f1f1f" d="M54.705 71.886a.802.802 0 1 1 0-1.605.802.802 0 0 1 0 1.605"/></g><mask id="bM" width="5" height="8" x="50" y="64" maskUnits="userSpaceOnUse" style="mask-type:luminance"><path fill="#fff" d="M50.01 64.055h4.693v7.038h-4.692z"/></mask><g fill="#1f1f1f" mask="url(#bM)"><path d="M54.705 64.855a.802.802 0 1 1 0-1.605.802.802 0 0 1 0 1.605m0 7.039a.802.802 0 1 1 0-1.605.802.802 0 0 1 0 1.605"/></g><mask id="bN" width="5" height="8" x="50" y="57" maskUnits="userSpaceOnUse" style="mask-type:luminance"><path fill="#fff" d="M50.01 57.008h4.693v7.038h-4.692z"/></mask><g fill="#1f1f1f" mask="url(#bN)"><path d="M54.705 57.804a.802.802 0 1 1 0-1.605.802.802 0 0 1 0 1.605m0 7.039a.802.802 0 1 1 0-1.605.802.802 0 0 1 0 1.605"/></g><mask id="bO" width="5" height="9" x="50" y="49" maskUnits="userSpaceOnUse" style="mask-type:luminance"><path fill="#fff" d="M50.01 49.973h4.693v7.038h-4.692z"/></mask><g mask="url(#bO)"><path fill="#1f1f1f" d="M54.705 57.812a.802.802 0 1 1 0-1.605.802.802 0 0 1 0 1.605"/></g><mask id="bP" width="6" height="8" x="54" y="71" maskUnits="userSpaceOnUse" style="mask-type:luminance"><path fill="#fff" d="M54.698 71.086h4.693v7.038h-4.693z"/></mask><g fill="#1f1f1f" mask="url(#bP)"><path d="M54.702 71.886a.802.802 0 1 1 0-1.605.802.802 0 0 1 0 1.605m4.691 0a.802.802 0 1 1 0-1.605.802.802 0 0 1 0 1.605"/></g><mask id="bQ" width="6" height="8" x="54" y="64" maskUnits="userSpaceOnUse" style="mask-type:luminance"><path fill="#fff" d="M54.698 64.055h4.693v7.038h-4.693z"/></mask><g fill="#1f1f1f" mask="url(#bQ)"><path d="M54.702 64.855a.802.802 0 1 1 0-1.605.802.802 0 0 1 0 1.605m4.691 0a.802.802 0 1 1 0-1.605.802.802 0 0 1 0 1.605m-2.348 3.523a.802.802 0 1 1 0-1.605.802.802 0 0 1 0 1.605m-2.347 3.516a.802.802 0 1 1 0-1.605.802.802 0 0 1 0 1.605m4.695 0a.802.802 0 1 1 0-1.605.802.802 0 0 1 0 1.605"/></g><mask id="bR" width="6" height="8" x="54" y="57" maskUnits="userSpaceOnUse" style="mask-type:luminance"><path fill="#fff" d="M54.698 57.008h4.693v7.038h-4.693z"/></mask><g fill="#1f1f1f" mask="url(#bR)"><path d="M54.702 57.804a.802.802 0 1 1 0-1.605.802.802 0 0 1 0 1.605m4.691 0a.802.802 0 1 1 0-1.605.802.802 0 0 1 0 1.605m-2.343 3.52a.802.802 0 1 1 0-1.605.802.802 0 0 1 0 1.605m-2.352 3.519a.802.802 0 1 1 0-1.605.802.802 0 0 1 0 1.605m4.695 0a.802.802 0 1 1 0-1.605.802.802 0 0 1 0 1.605"/></g><mask id="bS" width="6" height="9" x="54" y="49" maskUnits="userSpaceOnUse" style="mask-type:luminance"><path fill="#fff" d="M54.698 49.973h4.693v7.038h-4.693z"/></mask><g fill="#1f1f1f" mask="url(#bS)"><path d="M57.045 54.3a.802.802 0 1 1 0-1.605.802.802 0 0 1 0 1.605m-2.347 3.512a.802.802 0 1 1 0-1.605.802.802 0 0 1 0 1.605m4.695 0a.802.802 0 1 1 0-1.605.802.802 0 0 1 0 1.605"/></g><mask id="bT" width="6" height="8" x="59" y="71" maskUnits="userSpaceOnUse" style="mask-type:luminance"><path fill="#fff" d="M59.394 71.086h4.692v7.038h-4.692z"/></mask><g fill="#1f1f1f" mask="url(#bT)"><path d="M59.397 71.886a.802.802 0 1 1 0-1.605.802.802 0 0 1 0 1.605m4.691 0a.802.802 0 1 1 0-1.605.802.802 0 0 1 0 1.605"/></g><mask id="bU" width="6" height="8" x="59" y="64" maskUnits="userSpaceOnUse" style="mask-type:luminance"><path fill="#fff" d="M59.394 64.055h4.692v7.038h-4.692z"/></mask><g fill="#1f1f1f" mask="url(#bU)"><path d="M59.397 64.855a.802.802 0 1 1 0-1.605.802.802 0 0 1 0 1.605m4.691 0a.802.802 0 1 1 0-1.605.802.802 0 0 1 0 1.605m-2.348 3.523a.802.802 0 1 1 0-1.605.802.802 0 0 1 0 1.605m-2.347 3.516a.802.802 0 1 1 0-1.605.802.802 0 0 1 0 1.605m4.695 0a.802.802 0 1 1 0-1.605.802.802 0 0 1 0 1.605"/></g><mask id="bV" width="6" height="8" x="59" y="57" maskUnits="userSpaceOnUse" style="mask-type:luminance"><path fill="#fff" d="M59.394 57.008h4.692v7.038h-4.692z"/></mask><g fill="#1f1f1f" mask="url(#bV)"><path d="M59.397 57.804a.802.802 0 1 1 0-1.605.802.802 0 0 1 0 1.605m4.691 0a.802.802 0 1 1 0-1.605.802.802 0 0 1 0 1.605m-2.348 3.52a.802.802 0 1 1 0-1.605.802.802 0 0 1 0 1.605m-2.347 3.519a.802.802 0 1 1 0-1.605.802.802 0 0 1 0 1.605m4.695 0a.802.802 0 1 1 0-1.605.802.802 0 0 1 0 1.605"/></g><mask id="bW" width="6" height="9" x="59" y="49" maskUnits="userSpaceOnUse" style="mask-type:luminance"><path fill="#fff" d="M59.394 49.973h4.692v7.038h-4.692z"/></mask><g fill="#1f1f1f" mask="url(#bW)"><path d="M61.74 54.3a.802.802 0 1 1 0-1.605.802.802 0 0 1 0 1.605m-2.347 3.512a.802.802 0 1 1 0-1.605.802.802 0 0 1 0 1.605m4.695 0a.802.802 0 1 1 0-1.605.802.802 0 0 1 0 1.605"/></g><mask id="bX" width="5" height="8" x="64" y="71" maskUnits="userSpaceOnUse" style="mask-type:luminance"><path fill="#fff" d="M64.089 71.086h4.692v7.038H64.09z"/></mask><g fill="#1f1f1f" mask="url(#bX)"><path d="M64.092 71.886a.802.802 0 1 1 0-1.605.802.802 0 0 1 0 1.605m4.692 0a.802.802 0 1 1 0-1.605.802.802 0 0 1 0 1.605"/></g><mask id="bY" width="5" height="8" x="64" y="64" maskUnits="userSpaceOnUse" style="mask-type:luminance"><path fill="#fff" d="M64.089 64.055h4.692v7.038H64.09z"/></mask><g fill="#1f1f1f" mask="url(#bY)"><path d="M64.092 64.855a.802.802 0 1 1 0-1.605.802.802 0 0 1 0 1.605m4.692 0a.802.802 0 1 1 0-1.605.802.802 0 0 1 0 1.605m-2.348 3.523a.802.802 0 1 1 0-1.605.802.802 0 0 1 0 1.605m-2.348 3.516a.802.802 0 1 1 0-1.605.802.802 0 0 1 0 1.605m4.696 0a.802.802 0 1 1 0-1.605.802.802 0 0 1 0 1.605"/></g><mask id="bZ" width="5" height="8" x="64" y="57" maskUnits="userSpaceOnUse" style="mask-type:luminance"><path fill="#fff" d="M64.089 57.008h4.692v7.038H64.09z"/></mask><g fill="#1f1f1f" mask="url(#bZ)"><path d="M64.092 57.804a.802.802 0 1 1 0-1.605.802.802 0 0 1 0 1.605m4.692 0a.802.802 0 1 1 0-1.605.802.802 0 0 1 0 1.605m-2.348 3.52a.802.802 0 1 1 0-1.605.802.802 0 0 1 0 1.605m-2.348 3.519a.802.802 0 1 1 0-1.605.802.802 0 0 1 0 1.605m4.696 0a.802.802 0 1 1 0-1.605.802.802 0 0 1 0 1.605"/></g><mask id="ca" width="5" height="9" x="64" y="49" maskUnits="userSpaceOnUse" style="mask-type:luminance"><path fill="#fff" d="M64.089 49.973h4.692v7.038H64.09z"/></mask><g fill="#1f1f1f" mask="url(#ca)"><path d="M66.436 54.3a.802.802 0 1 1 0-1.605.802.802 0 0 1 0 1.605m-2.348 3.512a.802.802 0 1 1 0-1.605.802.802 0 0 1 0 1.605m4.696 0a.802.802 0 1 1 0-1.605.802.802 0 0 1 0 1.605"/></g><mask id="cb" width="6" height="8" x="68" y="71" maskUnits="userSpaceOnUse" style="mask-type:luminance"><path fill="#fff" d="M68.78 71.086h4.693v7.038H68.78z"/></mask><g fill="#1f1f1f" mask="url(#cb)"><path d="M68.78 71.886a.802.802 0 1 1 0-1.605.802.802 0 0 1 0 1.605m4.691 0a.802.802 0 1 1 0-1.605.802.802 0 0 1 0 1.605"/></g><mask id="cc" width="6" height="8" x="68" y="64" maskUnits="userSpaceOnUse" style="mask-type:luminance"><path fill="#fff" d="M68.78 64.055h4.693v7.038H68.78z"/></mask><g fill="#1f1f1f" mask="url(#cc)"><path d="M68.78 64.855a.802.802 0 1 1 0-1.605.802.802 0 0 1 0 1.605m4.691 0a.802.802 0 1 1 0-1.605.802.802 0 0 1 0 1.605m-2.344 3.523a.802.802 0 1 1 0-1.605.802.802 0 0 1 0 1.605m-2.351 3.516a.802.802 0 1 1 0-1.605.802.802 0 0 1 0 1.605m4.695 0a.802.802 0 1 1 0-1.605.802.802 0 0 1 0 1.605"/></g><mask id="cd" width="6" height="8" x="68" y="57" maskUnits="userSpaceOnUse" style="mask-type:luminance"><path fill="#fff" d="M68.78 57.008h4.693v7.038H68.78z"/></mask><g fill="#1f1f1f" mask="url(#cd)"><path d="M68.78 57.804a.802.802 0 1 1 0-1.605.802.802 0 0 1 0 1.605m4.691 0a.802.802 0 1 1 0-1.605.802.802 0 0 1 0 1.605m-2.344 3.52a.802.802 0 1 1 0-1.605.802.802 0 0 1 0 1.605m-2.351 3.519a.802.802 0 1 1 0-1.605.802.802 0 0 1 0 1.605m4.695 0a.802.802 0 1 1 0-1.605.802.802 0 0 1 0 1.605"/></g><mask id="ce" width="6" height="9" x="68" y="49" maskUnits="userSpaceOnUse" style="mask-type:luminance"><path fill="#fff" d="M68.78 49.973h4.693v7.038H68.78z"/></mask><g fill="#1f1f1f" mask="url(#ce)"><path d="M71.127 54.3a.802.802 0 1 1 0-1.605.802.802 0 0 1 0 1.605m-2.351 3.512a.802.802 0 1 1 0-1.605.802.802 0 0 1 0 1.605m4.695 0a.802.802 0 1 1 0-1.605.802.802 0 0 1 0 1.605"/></g><mask id="cf" width="6" height="8" x="73" y="71" maskUnits="userSpaceOnUse" style="mask-type:luminance"><path fill="#fff" d="M73.472 71.086h4.692v7.038h-4.692z"/></mask><g fill="#1f1f1f" mask="url(#cf)"><path d="M73.475 71.886a.802.802 0 1 1 0-1.605.802.802 0 0 1 0 1.605m4.691 0a.802.802 0 1 1 0-1.605.802.802 0 0 1 0 1.605"/></g><mask id="cg" width="6" height="8" x="73" y="64" maskUnits="userSpaceOnUse" style="mask-type:luminance"><path fill="#fff" d="M73.472 64.055h4.692v7.038h-4.692z"/></mask><g fill="#1f1f1f" mask="url(#cg)"><path d="M73.475 64.855a.802.802 0 1 1 0-1.605.802.802 0 0 1 0 1.605m4.691 0a.802.802 0 1 1 0-1.605.802.802 0 0 1 0 1.605m-2.343 3.523a.802.802 0 1 1 0-1.605.802.802 0 0 1 0 1.605m-2.352 3.516a.802.802 0 1 1 0-1.605.802.802 0 0 1 0 1.605m4.695 0a.802.802 0 1 1 0-1.605.802.802 0 0 1 0 1.605"/></g><mask id="ch" width="6" height="8" x="73" y="57" maskUnits="userSpaceOnUse" style="mask-type:luminance"><path fill="#fff" d="M73.472 57.008h4.692v7.038h-4.692z"/></mask><g fill="#1f1f1f" mask="url(#ch)"><path d="M73.475 57.804a.802.802 0 1 1 0-1.605.802.802 0 0 1 0 1.605m4.691 0a.802.802 0 1 1 0-1.605.802.802 0 0 1 0 1.605m-2.343 3.52a.802.802 0 1 1 0-1.605.802.802 0 0 1 0 1.605m-2.352 3.519a.802.802 0 1 1 0-1.605.802.802 0 0 1 0 1.605m4.695 0a.802.802 0 1 1 0-1.605.802.802 0 0 1 0 1.605"/></g><mask id="ci" width="6" height="9" x="73" y="49" maskUnits="userSpaceOnUse" style="mask-type:luminance"><path fill="#fff" d="M73.472 49.973h4.692v7.038h-4.692z"/></mask><g fill="#1f1f1f" mask="url(#ci)"><path d="M75.823 54.3a.802.802 0 1 1 0-1.605.802.802 0 0 1 0 1.605m-2.352 3.512a.802.802 0 1 1 0-1.605.802.802 0 0 1 0 1.605m4.695 0a.802.802 0 1 1 0-1.605.802.802 0 0 1 0 1.605"/></g><mask id="cj" width="5" height="8" x="78" y="71" maskUnits="userSpaceOnUse" style="mask-type:luminance"><path fill="#fff" d="M78.167 71.086h4.692v7.038h-4.692z"/></mask><g fill="#1f1f1f" mask="url(#cj)"><path d="M78.17 71.886a.802.802 0 1 1 0-1.605.802.802 0 0 1 0 1.605m4.692 0a.802.802 0 1 1 0-1.605.802.802 0 0 1 0 1.605"/></g><mask id="ck" width="5" height="8" x="78" y="64" maskUnits="userSpaceOnUse" style="mask-type:luminance"><path fill="#fff" d="M78.167 64.055h4.692v7.038h-4.692z"/></mask><g fill="#1f1f1f" mask="url(#ck)"><path d="M78.17 64.855a.802.802 0 1 1 0-1.605.802.802 0 0 1 0 1.605m4.692 0a.802.802 0 1 1 0-1.605.802.802 0 0 1 0 1.605m-2.348 3.523a.802.802 0 1 1 0-1.605.802.802 0 0 1 0 1.605m-2.348 3.516a.802.802 0 1 1 0-1.605.802.802 0 0 1 0 1.605m4.696 0a.802.802 0 1 1 0-1.605.802.802 0 0 1 0 1.605"/></g><mask id="cl" width="5" height="8" x="78" y="57" maskUnits="userSpaceOnUse" style="mask-type:luminance"><path fill="#fff" d="M78.167 57.008h4.692v7.038h-4.692z"/></mask><g fill="#1f1f1f" mask="url(#cl)"><path d="M78.17 57.804a.802.802 0 1 1 0-1.605.802.802 0 0 1 0 1.605m4.692 0a.802.802 0 1 1 0-1.605.802.802 0 0 1 0 1.605m-2.348 3.52a.802.802 0 1 1 0-1.605.802.802 0 0 1 0 1.605m-2.348 3.519a.802.802 0 1 1 0-1.605.802.802 0 0 1 0 1.605m4.696 0a.802.802 0 1 1 0-1.605.802.802 0 0 1 0 1.605"/></g><mask id="cm" width="5" height="9" x="78" y="49" maskUnits="userSpaceOnUse" style="mask-type:luminance"><path fill="#fff" d="M78.163 49.973h4.693v7.038h-4.693z"/></mask><g fill="#1f1f1f" mask="url(#cm)"><path d="M80.506 54.3a.802.802 0 1 1 0-1.605.802.802 0 0 1 0 1.605m-2.347 3.512a.802.802 0 1 1 0-1.605.802.802 0 0 1 0 1.605m4.695 0a.802.802 0 1 1 0-1.605.802.802 0 0 1 0 1.605"/></g><mask id="cn" width="6" height="8" x="82" y="71" maskUnits="userSpaceOnUse" style="mask-type:luminance"><path fill="#fff" d="M82.855 71.086h4.692v7.038h-4.692z"/></mask><g fill="#1f1f1f" mask="url(#cn)"><path d="M82.858 71.886a.802.802 0 1 1 0-1.605.802.802 0 0 1 0 1.605m4.692 0a.802.802 0 1 1 0-1.605.802.802 0 0 1 0 1.605"/></g><mask id="co" width="6" height="8" x="82" y="64" maskUnits="userSpaceOnUse" style="mask-type:luminance"><path fill="#fff" d="M82.855 64.055h4.692v7.038h-4.692z"/></mask><g fill="#1f1f1f" mask="url(#co)"><path d="M82.858 64.855a.802.802 0 1 1 0-1.605.802.802 0 0 1 0 1.605m4.692 0a.802.802 0 1 1 0-1.605.802.802 0 0 1 0 1.605m-2.345 3.523a.802.802 0 1 1 0-1.605.802.802 0 0 1 0 1.605m-2.351 3.516a.802.802 0 1 1 0-1.605.802.802 0 0 1 0 1.605m4.696 0a.802.802 0 1 1 0-1.605.802.802 0 0 1 0 1.605"/></g><mask id="cp" width="6" height="8" x="82" y="57" maskUnits="userSpaceOnUse" style="mask-type:luminance"><path fill="#fff" d="M82.855 57.008h4.692v7.038h-4.692z"/></mask><g fill="#1f1f1f" mask="url(#cp)"><path d="M82.858 57.804a.802.802 0 1 1 0-1.605.802.802 0 0 1 0 1.605m4.692 0a.802.802 0 1 1 0-1.605.802.802 0 0 1 0 1.605m-2.345 3.52a.802.802 0 1 1 0-1.605.802.802 0 0 1 0 1.605m-2.351 3.519a.802.802 0 1 1 0-1.605.802.802 0 0 1 0 1.605m4.696 0a.802.802 0 1 1 0-1.605.802.802 0 0 1 0 1.605"/></g><mask id="cq" width="6" height="9" x="82" y="49" maskUnits="userSpaceOnUse" style="mask-type:luminance"><path fill="#fff" d="M82.855 49.973h4.692v7.038h-4.692z"/></mask><g fill="#1f1f1f" mask="url(#cq)"><path d="M85.205 54.3a.802.802 0 1 1 0-1.605.802.802 0 0 1 0 1.605m-2.351 3.512a.802.802 0 1 1 0-1.605.802.802 0 0 1 0 1.605m4.696 0a.802.802 0 1 1 0-1.605.802.802 0 0 1 0 1.605"/></g></g><path fill="#1f1f1f" d="m230.806 88.93.021-.274c.959-10.647 10.595-18.988 21.937-18.988 10.942 0 20.041 7.568 21.732 17.444l21.528-5.518a1.044 1.044 0 0 1 1.292.874l1.058 8.062a1.043 1.043 0 0 1-.984 1.177l-22.756 1.084a19 19 0 0 1-.31 1.857l22.6 3.545a1.042 1.042 0 0 1 .84 1.314l-2.215 7.824a1.046 1.046 0 0 1-1.369.691l-21.798-8.178c-3.645 6.735-11.068 11.36-19.618 11.36-10.118 0-18.899-6.456-21.353-15.696q-.119-.445-.214-.897a19.6 19.6 0 0 1-.391-5.681"/><path fill="#fff" d="m230.808 88.929.051-.784.745.05c1.876.128 5.014.341 10.224-.35 3.375-.445 6.12.166 7.532 1.682.973 1.043 1.305 2.483.962 4.163-.271 1.33-1.015 2.352-2.212 3.036-1.17.668-2.694.943-4.299.943-1.909 0-3.932-.388-5.609-.967-2.399-.832-4.609-1.4-6.569-1.687l-.356-.053-.077-.352a19.6 19.6 0 0 1-.392-5.681"/></g><defs><clipPath id="a"><path fill="#fff" d="M0 0h349.333v209.6H0z"/></clipPath></defs></svg>