<svg width="48" height="48" viewBox="0 0 48 48" fill="none" xmlns="http://www.w3.org/2000/svg">
<g clip-path="url(#clip0_10712_5524)">
<rect width="48" height="48" fill="#5474F6"/>
<path d="M58.6565 71.729H44.8839V39.3202C44.8839 35.6546 41.9017 32.6725 38.2363 32.6725H9.76978C6.10435 32.6725 3.1222 35.6546 3.1222 39.3202V71.729H-10.6504V39.3202C-10.6504 28.0605 -1.48996 18.8999 9.76978 18.8999H38.2363C49.496 18.8999 58.6565 28.0605 58.6565 39.3202V71.729Z" fill="#1F1F1F"/>
<path d="M42.2441 103.649H24.6458V48.6094C24.6458 48.256 24.3582 47.9684 24.0049 47.9684C23.6515 47.9684 23.3639 48.256 23.3639 48.6094V103.649H5.76562V48.6094C5.76562 38.5522 13.9477 30.3701 24.0049 30.3701C34.0621 30.3701 42.2441 38.5522 42.2441 48.6094V103.649Z" fill="#1F1F1F"/>
<path d="M24.0025 6.60377C21.3264 6.60377 19.1008 8.45478 18.687 10.8706L13.4209 9.52088C13.3502 9.50277 13.2752 9.51591 13.2147 9.55659C13.1543 9.59727 13.1142 9.66231 13.1048 9.73461L12.8459 11.7065C12.8366 11.777 12.8575 11.8488 12.9032 11.9034C12.9487 11.958 13.0157 11.9912 13.0866 11.9945L18.6529 12.2595C18.6713 12.4129 18.6961 12.5646 18.7287 12.7136L13.2007 13.5807C13.1288 13.5921 13.0649 13.6338 13.0255 13.6951C12.9862 13.7565 12.9751 13.832 12.995 13.9021L13.5368 15.8157C13.5561 15.8841 13.6037 15.9417 13.6672 15.9739C13.703 15.9921 13.7427 16.0011 13.7822 16.0011C13.8124 16.0011 13.8429 15.9958 13.8717 15.9849L19.2038 13.9844C20.0952 15.6318 21.9108 16.7632 24.0025 16.7632C26.9719 16.7632 29.3877 14.4844 29.3877 11.6833C29.3877 8.88224 26.972 6.60352 24.0025 6.60352V6.60377Z" fill="#1F1F1F"/>
<path d="M27.2754 11.2839C26.1671 10.2308 24.5815 10.2383 24.061 10.24H24.0064H23.9471C23.4266 10.2376 21.8454 10.2312 20.7375 11.2838C20.3028 11.6962 20.3873 12.3662 20.6157 12.6914C20.9394 13.1513 21.7758 13.2255 22.3539 13.0063C22.5578 12.9291 22.7869 12.8606 23.0347 12.8034C23.6705 12.6559 24.3426 12.6559 24.9782 12.8034C25.226 12.8606 25.4551 12.929 25.659 13.0063C25.8636 13.0839 26.1005 13.1249 26.3358 13.1249C26.7649 13.1249 27.1882 12.9887 27.3972 12.6915C27.6254 12.3665 27.7101 11.6966 27.2754 11.284V11.2839Z" fill="white"/>
</g>
<defs>
<clipPath id="clip0_10712_5524">
<rect width="48" height="48" fill="white"/>
</clipPath>
</defs>
</svg>
