<svg xmlns="http://www.w3.org/2000/svg" width="414" height="329" fill="none" viewBox="0 0 414 329"><g clip-path="url(#a)"><path fill="#5474f6" d="M131.998 187.459c6.595 0 11.959-5.365 11.959-11.959v-25.31c-7.334-4.286-12.816-11.485-14.814-20.311l-5.919-26.145a21.18 21.18 0 0 0-7.902-12.27H96.244a.3.3 0 0 1-.102-.017.37.37 0 0 1-.224-.142.37.37 0 0 1-.085-.257c0-.037.004-.065.012-.102l1.002-3.804 11.478-43.648H97.91L86.579 86.576l-.127.476-1.05 3.996-.03.106a.41.41 0 0 1-.398.31H71.883a.834.834 0 0 0-.831.83V175.5c0 6.594 5.368 11.959 11.958 11.959zm-52.16-14.342v-12.472a5.714 5.714 0 0 1 5.707-5.71h44.902a5.717 5.717 0 0 1 5.71 5.71v12.472a5.717 5.717 0 0 1-5.71 5.711H85.545a5.714 5.714 0 0 1-5.707-5.711m-45.64 15.98a4.483 4.483 0 0 0 4.48-4.481v-1.995a5 5 0 0 1-.732.916 7 7 0 0 1-.184.175c-.126.114-.256.22-.39.326 0 .004-.005 0-.005 0a5.22 5.22 0 0 1-3.164 1.059H-4.86v4z"/><path fill="#fff" d="M-4.859 122.807v23.535a7.755 7.755 0 0 1 4.864 7.194 7.76 7.76 0 0 1-4.864 7.195v2.385q.015.001.029.004a.626.626 0 0 1-.029 1.227v7.232a.623.623 0 0 1 0 1.201v7.268a.625.625 0 0 1 0 1.164v3.054h.643a.625.625 0 0 1 .44-1.158.624.624 0 0 1 .16 1.158h2.709a.626.626 0 0 1 1.125 0H8.69a.62.62 0 0 1-.099-.497.628.628 0 0 1 1.222.28.6.6 0 0 1-.097.217h2.637a.63.63 0 0 1 .562-.148.6.6 0 0 1 .278.148h8.528a.626.626 0 1 1 1.213-.026l-.01.026h11.277c.212 0 .418-.02.622-.048.003-.022.003-.045.009-.068a.624.624 0 0 1 1.109-.236 4.5 4.5 0 0 0 1.724-1.296.625.625 0 1 1 .63-1.031c.242-.55.378-1.155.378-1.793v-2.654a.62.62 0 0 1 0-.958v-7.544a.626.626 0 0 1 0-.848v-7.677a.63.63 0 0 1 0-.699v-32.135a4.477 4.477 0 0 0-4.472-4.472zm39.39 40.884a.627.627 0 1 1-.28 1.222.627.627 0 0 1 .28-1.222m1.65-1.799a.628.628 0 1 1 1.223.282.628.628 0 0 1-1.223-.282m-3.22 16.83a.627.627 0 1 1 .282-1.223.627.627 0 0 1-.282 1.223m-.42-3.561a.628.628 0 1 1-1.223-.282.628.628 0 0 1 1.223.282m-3.153 2.74a.627.627 0 1 1 .28-1.222.627.627 0 0 1-.28 1.222m-.42-3.56a.628.628 0 1 1-1.223-.282.628.628 0 0 1 1.223.282m-3.152 2.74a.626.626 0 1 1 .279-1.221.626.626 0 0 1-.28 1.221m-.42-3.56a.628.628 0 1 1-1.224-.282.628.628 0 0 1 1.223.282m-6.026 4.259a.626.626 0 1 1 1.221.278.626.626 0 0 1-1.22-.278m-1.93 3.021a.628.628 0 1 1 .282-1.224.628.628 0 0 1-.283 1.224m-.42-3.561a.627.627 0 1 1-1.223-.28.627.627 0 0 1 1.222.28m-3.153 2.74a.627.627 0 1 1 .28-1.222.627.627 0 0 1-.28 1.222m-.42-3.56a.628.628 0 1 1-1.224-.282.628.628 0 0 1 1.223.282m-3.153 2.74a.627.627 0 1 1 .28-1.222.627.627 0 0 1-.28 1.222m-.42-3.56a.628.628 0 1 1-1.223-.282.628.628 0 0 1 1.223.282m-3.153 2.74a.626.626 0 1 1 .278-1.22.626.626 0 0 1-.278 1.22m-.42-3.56a.628.628 0 1 1-1.223-.282.628.628 0 0 1 1.223.282m-4.795-1.101a.628.628 0 1 1 1.223.282.628.628 0 0 1-1.223-.282M-.425 176.7a.627.627 0 1 1 .28-1.222.627.627 0 0 1-.28 1.222m-.412-9.2a.628.628 0 1 1 1.223.282.628.628 0 0 1-1.223-.282m-1.18 2.55a.628.628 0 1 1-1.223-.282.628.628 0 0 1 1.223.282m3.161-8.38a.626.626 0 1 1-.28 1.221.626.626 0 0 1 .28-1.221m29.814 1.201a.627.627 0 1 1-.28 1.222.627.627 0 0 1 .28-1.222m1.65-1.799a.628.628 0 1 1 1.223.282.628.628 0 0 1-1.223-.282m-1.238 10.999a.626.626 0 1 1-1.221-.278.626.626 0 0 1 1.22.278m-1.172-3.089a.626.626 0 1 1-1.22-.28.626.626 0 0 1 1.22.28m-2.401 2.269a.628.628 0 1 1-1.224-.282.628.628 0 0 1 1.224.282m-1.172-3.089a.628.628 0 1 1-1.223-.282.628.628 0 0 1 1.223.282m-2.401 2.269a.628.628 0 1 1-1.223-.282.628.628 0 0 1 1.223.282m-1.172-3.09a.626.626 0 1 1-1.22-.278.626.626 0 0 1 1.22.278m-3.631 7.629a.626.626 0 1 1-1.221-.278.626.626 0 0 1 1.22.278m-1.172-3.089a.628.628 0 1 1-1.223-.282.628.628 0 0 1 1.223.282m-2.401 2.269a.626.626 0 1 1-1.221-.278.626.626 0 0 1 1.22.278m-1.171-3.089a.626.626 0 1 1-1.22-.28.626.626 0 0 1 1.22.28m-2.402 2.269a.626.626 0 1 1-1.22-.278.626.626 0 0 1 1.22.278m-1.171-3.089a.626.626 0 1 1-1.22-.28.626.626 0 0 1 1.22.28m-2.402 2.269a.628.628 0 1 1-1.223-.282.628.628 0 0 1 1.223.282m-1.171-3.09a.626.626 0 1 1-1.221-.278.626.626 0 0 1 1.22.278m-2.402 2.27a.628.628 0 1 1-1.223-.282.628.628 0 0 1 1.223.282m-1.171-3.09a.626.626 0 1 1-1.221-.278.626.626 0 0 1 1.22.278m-2.402 2.27a.628.628 0 1 1-1.223-.282.628.628 0 0 1 1.223.282m.009-5.64a.628.628 0 1 1 1.223.282.628.628 0 0 1-1.223-.282m2.401-2.269a.626.626 0 1 1 1.221.278.626.626 0 0 1-1.221-.278m23.948-8.608a.628.628 0 0 1-1.222-.28.62.62 0 0 1 .293-.398h.634c.23.135.358.405.295.678m-.53 7.698a.627.627 0 1 1-.279 1.222.627.627 0 0 1 .28-1.222m1.65-1.799a.628.628 0 1 1 1.224.282.628.628 0 0 1-1.223-.282m-.007 5.64a.628.628 0 1 1-1.223-.282.628.628 0 0 1 1.223.282m-3.573-.82a.628.628 0 1 1-1.223-.282.628.628 0 0 1 1.223.282m-1.172-3.09a.628.628 0 1 1-1.223-.282.628.628 0 0 1 1.223.282m-2.4 2.27a.628.628 0 1 1-1.224-.282.628.628 0 0 1 1.223.282m-1.172-3.09a.628.628 0 1 1-1.223-.282.628.628 0 0 1 1.223.282m-3.632 7.629a.628.628 0 1 1-1.223-.282.628.628 0 0 1 1.223.282m-1.171-3.09a.628.628 0 1 1-1.223-.282.628.628 0 0 1 1.223.282m-2.402 2.27a.628.628 0 1 1-1.223-.282.628.628 0 0 1 1.223.282m-1.171-3.09a.628.628 0 1 1-1.223-.282.628.628 0 0 1 1.223.282m-2.402 2.27a.628.628 0 1 1-1.223-.282.628.628 0 0 1 1.223.282m-1.171-3.09a.628.628 0 1 1-1.223-.282.628.628 0 0 1 1.223.282m-2.402 2.27a.628.628 0 1 1-1.223-.282.628.628 0 0 1 1.223.282m16.752-7.439a.626.626 0 1 1-1.22-.278.626.626 0 0 1 1.22.278m-1.171-3.089a.626.626 0 1 1-1.22-.28.626.626 0 0 1 1.22.28m-2.402 2.269a.628.628 0 1 1-1.223-.282.628.628 0 0 1 1.223.282m-1.171-3.089a.628.628 0 1 1-1.223-.282.628.628 0 0 1 1.223.282m-3.632 7.629a.626.626 0 1 1-1.22-.28.626.626 0 0 1 1.22.28m-1.171-3.09a.628.628 0 1 1-1.223-.282.628.628 0 0 1 1.223.282m-2.402 2.269a.626.626 0 1 1-1.22-.278.626.626 0 0 1 1.22.278m.009-5.639a.626.626 0 1 1 1.22.278.626.626 0 0 1-1.22-.278m4.043 1.571a.627.627 0 1 1 .282-1.223.627.627 0 0 1-.282 1.223m8.376-3.719a.62.62 0 0 1-.416-.329h1.115a.63.63 0 0 1-.699.329m-8.887-.33a.626.626 0 1 1-1.04.001h1.04zm-3.683 0a.62.62 0 0 1-.55.139.6.6 0 0 1-.267-.139zm-3.422 1.657a.628.628 0 1 1 1.223.282.628.628 0 0 1-1.223-.282m1.922 2.619a.627.627 0 1 1-.281 1.223.627.627 0 0 1 .281-1.223m-2.401 2.27a.627.627 0 1 1-.28 1.222.627.627 0 0 1 .28-1.222m10.438 3.682a.626.626 0 1 1 .28-1.221.626.626 0 0 1-.28 1.221m-.42-3.56a.628.628 0 1 1-1.223-.282.628.628 0 0 1 1.223.282m8.325-.91a.627.627 0 1 1 1.222.28.627.627 0 0 1-1.222-.28m.05-2.809a.626.626 0 1 1-1.22-.28.626.626 0 0 1 1.22.28m-21.487-2.112a.626.626 0 1 1 1.22.28.626.626 0 0 1-1.22-.28m1.922 2.619a.628.628 0 1 1-.282 1.224.628.628 0 0 1 .282-1.224M19.9 170.082a.627.627 0 1 1 .28-1.222.627.627 0 0 1-.28 1.222m-.42-3.561a.626.626 0 1 1-1.221-.278.626.626 0 0 1 1.22.278m12.369.661a.626.626 0 1 1 .278-1.22.626.626 0 0 1-.278 1.22m-2.763-9.739a.628.628 0 1 1-1.223-.282.628.628 0 0 1 1.223.282m1.65-1.799a.627.627 0 1 1 .281-1.223.627.627 0 0 1-.281 1.223M3.546 159.4a.627.627 0 1 1-.28 1.222.627.627 0 0 1 .28-1.222m-4.803 4.539a.628.628 0 1 1-.283 1.224.628.628 0 0 1 .283-1.224m4.405 13.581a.627.627 0 1 1 .28-1.222.627.627 0 0 1-.28 1.222m19.095-1.259a.627.627 0 1 1 .28-1.222.627.627 0 0 1-.28 1.222m-.42-3.56a.628.628 0 1 1-1.224-.282.628.628 0 0 1 1.223.282m12.368.661a.627.627 0 1 1 .28-1.222.627.627 0 0 1-.28 1.222m-.42-3.56a.626.626 0 1 1-1.22-.28.626.626 0 0 1 1.22.28m1.65-1.799a.627.627 0 1 1 .282-1.223.627.627 0 0 1-.281 1.223m-2.763-9.74a.628.628 0 1 1-1.223-.282.628.628 0 0 1 1.223.282m1.65-1.799a.627.627 0 1 1 .281-1.222.627.627 0 0 1-.28 1.222m-32.641-2.79a.623.623 0 0 1-.744.769.63.63 0 0 1-.471-.752l.005-.016zm.707 2.636a.627.627 0 1 1-.28 1.222.627.627 0 0 1 .28-1.222m-3.152 2.741a.626.626 0 1 1 1.22.278.626.626 0 0 1-1.22-.278m-1.65 1.799a.626.626 0 1 1-.28 1.22.626.626 0 0 1 .28-1.22m-1.982 5.83a.628.628 0 1 1 1.223.282.628.628 0 0 1-1.223-.282m3.094 5.708a.627.627 0 1 1-.282 1.223.627.627 0 0 1 .282-1.223m-3.153 2.741a.628.628 0 1 1 1.224.282.628.628 0 0 1-1.224-.282m1.172 3.09a.626.626 0 1 1 1.22.278.626.626 0 0 1-1.22-.278m2.393 3.37a.628.628 0 1 1-1.223-.282.628.628 0 0 1 1.223.282m1.65-1.799a.627.627 0 1 1 .281-1.222.627.627 0 0 1-.28 1.222m1.923 2.619a.626.626 0 1 1-1.22-.28.626.626 0 0 1 1.22.28m1.65-1.799a.627.627 0 1 1 .28-1.222.627.627 0 0 1-.28 1.222m1.923 2.619a.628.628 0 1 1-1.223-.282.628.628 0 0 1 1.223.282m1.65-1.799a.627.627 0 1 1 .282-1.223.627.627 0 0 1-.282 1.223m3.573.82a.627.627 0 1 1 .28-1.222.627.627 0 0 1-.28 1.222m3.573.82a.627.627 0 1 1 .28-1.222.627.627 0 0 1-.28 1.222m4.324.35a.626.626 0 1 1-1.22-.28.626.626 0 0 1 1.22.28m2.402-2.27a.628.628 0 1 1-1.224-.282.628.628 0 0 1 1.224.282m1.65-1.799a.627.627 0 1 1 .28-1.222.627.627 0 0 1-.28 1.222m1.922 2.619a.628.628 0 1 1-1.223-.282.628.628 0 0 1 1.224.282m1.65-1.799a.627.627 0 1 1 .283-1.223.627.627 0 0 1-.282 1.223m1.924 2.619a.628.628 0 1 1-1.224-.282.628.628 0 0 1 1.224.282m1.65-1.799a.627.627 0 1 1 .28-1.222.627.627 0 0 1-.28 1.222m1.922 2.619a.628.628 0 1 1-1.223-.282.628.628 0 0 1 1.223.282m2.402-2.269a.628.628 0 1 1-1.223-.282.628.628 0 0 1 1.223.282m2.401-2.27a.628.628 0 1 1-1.223-.282.628.628 0 0 1 1.223.282m-1.171-3.09a.628.628 0 1 1-1.223-.282.628.628 0 0 1 1.223.282m2.402-2.269a.628.628 0 1 1-1.224-.282.628.628 0 0 1 1.224.282m-1.172-3.09a.628.628 0 1 1-1.223-.282.628.628 0 0 1 1.223.282m.76-6.111a.627.627 0 1 1-.282 1.223.627.627 0 0 1 .282-1.223m-1.873-5.428a.628.628 0 1 1-1.223-.282.628.628 0 0 1 1.223.282m2.402-2.27a.628.628 0 1 1-1.223-.282.628.628 0 0 1 1.223.282m-1.171-3.089a.627.627 0 0 1-1.23-.049h1.236z"/><path fill="#000" d="M.923 154.443a.627.627 0 0 0 .75-.471.6.6 0 0 0-.006-.298H.457q-.001.008-.005.017a.63.63 0 0 0 .47.752m-.529 7.697a.627.627 0 1 0 1.222.28.627.627 0 0 0-1.222-.28m-.7-2.338a.627.627 0 1 0 .28-1.222.627.627 0 0 0-.28 1.222m2.401-2.27a.627.627 0 1 0 .28-1.222.627.627 0 0 0-.28 1.222m2.402-2.27a.626.626 0 1 0 .281-1.22.626.626 0 0 0-.281 1.22m-1.23 5.36a.627.627 0 1 0 .28-1.222.627.627 0 0 0-.28 1.222m2.401-2.27a.626.626 0 1 0 .282-1.22.626.626 0 0 0-.282 1.22m-2.88 7.158a.627.627 0 1 0-1.223-.28.627.627 0 0 0 1.223.28m-2.452 5.079a.626.626 0 1 0 1.22.281.626.626 0 0 0-1.22-.281m.05-2.809a.627.627 0 1 0-1.222-.28.627.627 0 0 0 1.222.28m-.529 7.698a.628.628 0 1 0-.28 1.224.628.628 0 0 0 .28-1.224m8.213-19.396a.626.626 0 1 0 .281-1.22.626.626 0 0 0-.281 1.22m-1.23 5.36a.628.628 0 1 0 .279-1.224.628.628 0 0 0-.28 1.224m2.402-2.269a.628.628 0 1 0 .28-1.224.628.628 0 0 0-.28 1.224m-5.753 8.676a.626.626 0 1 0-.281 1.22.626.626 0 0 0 .281-1.22m1.651-1.799a.626.626 0 1 0 1.22.281.626.626 0 0 0-1.22-.281m.05-2.809a.626.626 0 1 0-1.22-.281.626.626 0 0 0 1.22.281m-1.28 8.168a.627.627 0 1 0 1.221.28.627.627 0 0 0-1.221-.28m-.479 4.889a.626.626 0 1 0-.282 1.22.626.626 0 0 0 .282-1.22m-.701-2.339a.627.627 0 1 0-1.222-.28.627.627 0 0 0 1.222.28m-.53 7.699a.626.626 0 1 0-.281 1.22.626.626 0 0 0 .281-1.22m-1.171-3.09a.626.626 0 1 0-.281 1.22.626.626 0 0 0 .281-1.22m10.615-21.666a.626.626 0 1 0 .281-1.22.626.626 0 0 0-.281 1.22m-1.172-3.089a.62.62 0 0 0 .55-.139h-.817a.6.6 0 0 0 .267.139m3.102.069a.627.627 0 1 0 1.131-.208h-1.04a.6.6 0 0 0-.09.208M8.29 163.31a.627.627 0 1 0-.28 1.222.627.627 0 0 0 .28-1.222m1.65-1.799a.627.627 0 1 0 1.223.28.627.627 0 0 0-1.222-.28m-2.881 7.158a.628.628 0 1 0-.279 1.224.628.628 0 0 0 .28-1.224m1.649-1.799a.627.627 0 1 0 1.222.28.627.627 0 0 0-1.221-.28m-2.881 7.158a.627.627 0 1 0-.28 1.222.627.627 0 0 0 .28-1.222m1.65-1.798a.627.627 0 1 0 1.223.28.627.627 0 0 0-1.222-.28m-.479 4.888a.627.627 0 1 0-.28 1.222.627.627 0 0 0 .28-1.222m-1.231 5.359a.627.627 0 1 0-.279 1.223.627.627 0 0 0 .28-1.223M4.6 179.388a.626.626 0 1 0-.282 1.22.626.626 0 0 0 .282-1.22m8.493-20.618a.627.627 0 1 0-.279 1.224.627.627 0 0 0 .28-1.224m2.401-2.27a.627.627 0 1 0-.28 1.223.627.627 0 0 0 .28-1.223m-3.632 7.63a.626.626 0 1 0-.281 1.22.626.626 0 0 0 .281-1.22m1.651-1.799a.627.627 0 1 0 1.222.28.627.627 0 0 0-1.223-.28m-2.88 7.158a.627.627 0 1 0-.28 1.222.627.627 0 0 0 .28-1.222m1.651-1.799a.627.627 0 1 0 1.22.28.627.627 0 0 0-1.22-.28m-2.881 7.158a.627.627 0 1 0-.28 1.222.627.627 0 0 0 .28-1.222m1.651-1.799a.626.626 0 1 0 1.22.281.626.626 0 0 0-1.22-.281m-2.881 7.158a.627.627 0 1 0-.28 1.223.627.627 0 0 0 .28-1.223m2.401-2.269a.627.627 0 1 0-.279 1.223.627.627 0 0 0 .28-1.223m7.321-23.707a.626.626 0 1 0-.281 1.22.626.626 0 0 0 .281-1.22m-1.23 5.359a.627.627 0 1 0-.28 1.222.627.627 0 0 0 .28-1.222m1.651-1.798a.627.627 0 1 0 1.22.28.627.627 0 0 0-1.22-.28m-2.881 7.158a.627.627 0 1 0-.28 1.222.627.627 0 0 0 .28-1.222m2.402-2.269a.626.626 0 1 0-.282 1.22.626.626 0 0 0 .282-1.22m-3.632 7.628a.628.628 0 1 0-.279 1.224.628.628 0 0 0 .28-1.224m1.65-1.799a.626.626 0 1 0 1.22.281.626.626 0 0 0-1.22-.281m-2.881 7.159a.626.626 0 1 0-.281 1.22.626.626 0 0 0 .281-1.22m1.65-1.799a.627.627 0 1 0 1.222.28.627.627 0 0 0-1.222-.28m-2.88 7.158a.627.627 0 1 0-.28 1.222.627.627 0 0 0 .28-1.222m2.401-2.27a.627.627 0 1 0-.28 1.222.627.627 0 0 0 .28-1.222m7.323-23.707a.627.627 0 1 0-.281 1.222.627.627 0 0 0 .28-1.222m1.705-1.377a.622.622 0 0 0 1.114 0zm-2.934 6.737a.626.626 0 1 0-.282 1.22.626.626 0 0 0 .281-1.22m1.651-1.8a.626.626 0 1 0 1.22.281.626.626 0 0 0-1.22-.281m-2.88 7.159a.627.627 0 1 0-.281 1.222.627.627 0 0 0 .28-1.222m1.651-1.799a.627.627 0 1 0 1.22.28.627.627 0 0 0-1.22-.28m-2.88 7.158a.627.627 0 1 0-.281 1.222.627.627 0 0 0 .28-1.222m2.401-2.269a.626.626 0 1 0-.28 1.22.626.626 0 0 0 .28-1.22m-3.631 7.628a.627.627 0 1 0-.28 1.222.627.627 0 0 0 .28-1.222m1.65-1.798a.627.627 0 1 0 1.221.28.627.627 0 0 0-1.221-.28m-2.88 7.158a.626.626 0 1 0-.282 1.22.626.626 0 0 0 .281-1.22m2.402-2.269a.627.627 0 1 0-.28 1.222.627.627 0 0 0 .28-1.222m7.322-23.708a.628.628 0 1 0-.279 1.224.628.628 0 0 0 .28-1.224m1.65-1.799a.626.626 0 1 0 .926-.398h-.634a.63.63 0 0 0-.293.398m-2.88 7.158a.628.628 0 1 0-.279 1.224.628.628 0 0 0 .279-1.224m2.822 1.291a.627.627 0 1 0 1.221.28.627.627 0 0 0-1.221-.28m.05-2.809a.627.627 0 1 0-1.221-.28.627.627 0 0 0 1.221.28m-4.102 6.878a.626.626 0 1 0-.281 1.22.626.626 0 0 0 .281-1.22m1.65-1.799a.627.627 0 1 0 1.222.28.627.627 0 0 0-1.222-.28m-2.88 7.158a.627.627 0 1 0-.28 1.222.627.627 0 0 0 .28-1.222m1.65-1.799a.627.627 0 1 0 1.221.28.627.627 0 0 0-1.221-.28m-.479 4.889a.627.627 0 1 0-.28 1.222.627.627 0 0 0 .28-1.222m-3.632 7.629a.628.628 0 1 0-.279 1.224.628.628 0 0 0 .28-1.224m2.401-2.27a.628.628 0 1 0-.279 1.224.628.628 0 0 0 .279-1.224m-.701-2.338a.627.627 0 1 0-1.221-.28.627.627 0 0 0 1.221.28m8.023-21.368a.626.626 0 1 0-.281 1.22.626.626 0 0 0 .281-1.22m2.402-2.27a.626.626 0 1 0-.282 1.22.626.626 0 0 0 .282-1.22m-.811 8.92a.627.627 0 1 0 1.222.28.627.627 0 0 0-1.222-.28m.051-2.809a.626.626 0 1 0-1.22-.281.626.626 0 0 0 1.22.281m-4.102 6.878a.626.626 0 1 0-.282 1.22.626.626 0 0 0 .282-1.22m1.65-1.8a.626.626 0 1 0 1.22.281.626.626 0 0 0-1.22-.281m-2.88 7.158a.627.627 0 1 0-.28 1.224.627.627 0 0 0 .28-1.224m1.65-1.798a.627.627 0 1 0 1.222.28.627.627 0 0 0-1.222-.28m-.479 4.888a.627.627 0 1 0-.28 1.222.627.627 0 0 0 .28-1.222m-1.23 5.36a.626.626 0 1 0-.281 1.22.626.626 0 0 0 .28-1.22m-1.171-3.09a.626.626 0 1 0-.28 1.22.626.626 0 0 0 .28-1.22m8.494-20.617a.626.626 0 1 0-.282 1.22.626.626 0 0 0 .282-1.22m2.402-2.27a.626.626 0 1 0-.282 1.22.626.626 0 0 0 .282-1.22m-.81 8.919a.627.627 0 1 0 1.22.28.627.627 0 0 0-1.22-.28m.05-2.809a.627.627 0 1 0-1.221-.28.627.627 0 0 0 1.221.28m-4.102 6.878a.627.627 0 1 0-.28 1.223.627.627 0 0 0 .28-1.223m2.402-2.27a.628.628 0 1 0-.28 1.224.628.628 0 0 0 .28-1.224m-3.633 7.63a.626.626 0 1 0-.28 1.22.626.626 0 0 0 .28-1.22m1.651-1.799a.627.627 0 1 0 1.222.28.627.627 0 0 0-1.222-.28m-.479 4.889a.626.626 0 1 0-.282 1.22.626.626 0 0 0 .282-1.22m-1.23 5.358a.628.628 0 1 0-.28 1.224.628.628 0 0 0 .28-1.224m-1.172-3.089a.626.626 0 1 0-.281 1.22.626.626 0 0 0 .281-1.22m8.494-20.617a.627.627 0 1 0-.28 1.222.627.627 0 0 0 .28-1.222m2.402-2.27a.627.627 0 1 0-.28 1.222.627.627 0 0 0 .28-1.222m-1.931-2.388a.625.625 0 0 0 1.23.049l.006-.049zm1.12 11.308a.627.627 0 1 0 1.222.28.627.627 0 0 0-1.222-.28m.051-2.809a.627.627 0 1 0-1.222-.28.627.627 0 0 0 1.222.28m-4.103 6.878a.626.626 0 1 0-.28 1.22.626.626 0 0 0 .28-1.22m2.402-2.27a.626.626 0 1 0-.281 1.22.626.626 0 0 0 .281-1.22m-3.632 7.629a.627.627 0 1 0-.28 1.222.627.627 0 0 0 .28-1.222m2.402-2.27a.627.627 0 1 0-.28 1.222.627.627 0 0 0 .28-1.222m-1.23 5.359a.628.628 0 1 0-.28 1.224.628.628 0 0 0 .28-1.224m-1.231 5.36a.626.626 0 1 0-.28 1.22.626.626 0 0 0 .28-1.22m-1.171-3.09a.628.628 0 1 0-.279 1.224.628.628 0 0 0 .28-1.224m6.032-9.898a.627.627 0 1 0-.28 1.222.627.627 0 0 0 .28-1.222m-1.23 5.359a.626.626 0 1 0-.28 1.22.626.626 0 0 0 .28-1.22m2.402-2.27a.626.626 0 1 0-.281 1.22.626.626 0 0 0 .28-1.22m-3.631 7.629a.626.626 0 1 0-.281 1.22.626.626 0 0 0 .281-1.22m2.402-2.27a.627.627 0 1 0-.28 1.222.627.627 0 0 0 .28-1.222"/><path fill="#5474f6" d="M.005 153.536a7.76 7.76 0 0 0-4.864-7.195v14.389a7.76 7.76 0 0 0 4.864-7.195z"/><path fill="#fff" d="m201.709 77.787.841-3.66a.623.623 0 0 1 .245-1.069l.985-4.291a.623.623 0 0 1 .245-1.069l.985-4.29a.623.623 0 0 1 .245-1.069l.985-4.29a.623.623 0 0 1 .245-1.069l.345-1.502c-.444.513-.97.965-1.564 1.336a6.92 6.92 0 0 1-5.259.888 6.9 6.9 0 0 1-3.624-2.147.62.62 0 0 1-.589.175.625.625 0 0 1-.152-1.162 7 7 0 0 1-.821-1.917.6.6 0 0 1-.199-.01.628.628 0 0 1-.364-.983c.001-.025-.004-.05.002-.076l4.47-19.475a6.44 6.44 0 0 0-.75-4.798c-.862-1.429-2.216-2.417-3.813-2.783-3.301-.758-6.627 1.41-7.412 4.832l-3.206 13.967a6.67 6.67 0 0 1 3.621 2.819 6.66 6.66 0 0 1 1.006 3.97.62.62 0 0 1-.076.67c-.023.143-.043.285-.076.427a6.67 6.67 0 0 1-2.979 4.187 6.7 6.7 0 0 1-1.568.72c2.025.555 4.901 1.628 7.031 3.583a.627.627 0 1 1 .583.582c.297.32.577.658.827 1.02.187.27.351.549.501.832q.012 0 .024.003a.63.63 0 0 1 .471.75.6.6 0 0 1-.08.187q.384 1.032.471 2.162a.6.6 0 0 1 .309-.01.628.628 0 0 1-.281 1.222l-.02-.007c-.034.568-.113 1.15-.25 1.748a.408.408 0 0 1-.795-.182c.545-2.372.202-4.472-1.018-6.24-2.983-4.317-10.251-5.359-10.324-5.37-.007 0-.014-.005-.021-.007a7 7 0 0 1-.926-.14l-4.509-1.034a.407.407 0 1 1 .182-.794l4.509 1.035a5.906 5.906 0 0 0 7.069-4.43 5.905 5.905 0 0 0-4.43-7.07l-10.098-2.317a5.906 5.906 0 0 0-7.069 4.43l-2.35 9.808-2.854 12.432zm-7.683-3.359a.627.627 0 1 1-1.222-.28.627.627 0 0 1 1.222.28m1.651-1.799a.626.626 0 1 1 .278-1.22.626.626 0 0 1-.278 1.22m3.912-8.85a.626.626 0 1 1-.28 1.22.626.626 0 0 1 .28-1.22m-1.231 5.359a.626.626 0 1 1-.278 1.221.626.626 0 0 1 .278-1.221m-.759 6.11a.627.627 0 1 1-1.222-.28.627.627 0 0 1 1.222.28m3.573.82a.627.627 0 1 1-1.222-.28.627.627 0 0 1 1.222.28m-1.171-3.089a.627.627 0 1 1-1.223-.282.627.627 0 0 1 1.223.282m2.401-2.27a.627.627 0 1 1-1.222-.28.627.627 0 0 1 1.222.28m-1.171-3.09a.627.627 0 1 1-1.223-.281.627.627 0 0 1 1.223.282m2.401-2.269a.626.626 0 1 1-1.221-.28.626.626 0 0 1 1.221.28m.008-5.64a.628.628 0 1 1 1.223.282.628.628 0 0 1-1.223-.282m-1.65 1.8a.627.627 0 1 1-.28 1.221.627.627 0 0 1 .28-1.222m-1.922-2.62a.626.626 0 1 1 1.221.28.626.626 0 0 1-1.221-.28m-1.65 1.799a.626.626 0 1 1-.28 1.22.626.626 0 0 1 .28-1.22m-1.932 3.02a.626.626 0 1 1-1.221-.279.626.626 0 0 1 1.221.28m.009-5.64a.627.627 0 1 1 1.222.28.627.627 0 0 1-1.222-.28m-2.351-.539a.627.627 0 1 1-1.222-.28.627.627 0 0 1 1.222.28m-2.343-6.18a.627.627 0 1 1-1.222-.28.627.627 0 0 1 1.222.28m-4.803 4.54a.627.627 0 1 1-1.222-.28.627.627 0 0 1 1.222.28m1.651-1.799a.626.626 0 1 1 .278-1.22.626.626 0 0 1-.278 1.22m1.922 2.62a.627.627 0 1 1-1.222-.28.627.627 0 0 1 1.222.28m1.18-2.551a.626.626 0 1 1 1.221.28.626.626 0 0 1-1.221-.28m2.342 6.18a.628.628 0 1 1 1.223.281.628.628 0 0 1-1.223-.281m3.094 5.708a.627.627 0 1 1-.28 1.222.627.627 0 0 1 .28-1.222m-3.153 2.74a.628.628 0 1 1 1.224.283.628.628 0 0 1-1.224-.282m-1.65 1.8a.628.628 0 0 1-.28 1.221.6.6 0 0 1-.201-.087l.24-1.142a.6.6 0 0 1 .241.008"/><path fill="#000" d="M186.527 55.139a.627.627 0 1 0-.28 1.221.627.627 0 0 0 .28-1.221m4.803-4.539a.627.627 0 1 0-.28 1.22.627.627 0 0 0 .28-1.22m-1.23 5.358a.626.626 0 1 0-.281 1.22.626.626 0 0 0 .281-1.22m-1.171-3.089a.628.628 0 1 0-.28 1.223.628.628 0 0 0 .28-1.223m3.993 4.381a.627.627 0 1 0 1.222.28.627.627 0 0 0-1.222-.28m.05-2.81a.626.626 0 1 0-1.22-.281.626.626 0 0 0 1.22.281m-1.069 17.281q.09.06.201.088a.627.627 0 1 0 .039-1.23zm5.062-12.901a.627.627 0 1 0 .28-1.22.627.627 0 0 0-.28 1.22m-1.7 4.609a.626.626 0 1 0 1.22.282.626.626 0 0 0-1.22-.282m.051-2.809a.628.628 0 1 0-1.224-.28.628.628 0 0 0 1.224.28m2.35.54a.626.626 0 1 0 1.22.28.626.626 0 0 0-1.22-.28m-3.161 8.38a.627.627 0 1 0 .28-1.222.627.627 0 0 0-.28 1.221m2.402-2.269a.627.627 0 1 0 .28-1.221.627.627 0 0 0-.28 1.221m-3.352 6.407a.627.627 0 1 0-.28 1.223.627.627 0 0 0 .28-1.223m6.983-14.037a.628.628 0 1 0 .28-1.223.628.628 0 0 0-.28 1.223m-1.23 5.36a.628.628 0 1 0 .28-1.223.628.628 0 0 0-.28 1.223m1.931-3.02a.627.627 0 1 0 1.222.28.627.627 0 0 0-1.222-.28m-3.161 8.38a.627.627 0 1 0 .28-1.221.627.627 0 0 0-.28 1.221m-.95 4.138a.627.627 0 1 0-.28 1.222.627.627 0 0 0 .28-1.222m-1.171-3.09a.626.626 0 1 0-.281 1.22.626.626 0 0 0 .281-1.22m8.154-10.947a.626.626 0 1 0 .281-1.22.626.626 0 0 0-.281 1.22m-3.351 6.407a.627.627 0 1 0-.28 1.221.627.627 0 0 0 .28-1.221m2.402-2.269a.626.626 0 1 0-.281 1.22.626.626 0 0 0 .281-1.22m-3.632 7.628a.626.626 0 1 0-.281 1.22.626.626 0 0 0 .281-1.22m2.401-2.27a.627.627 0 1 0-.28 1.223.627.627 0 0 0 .28-1.223m-1.23 5.36a.627.627 0 1 0-.28 1.222.627.627 0 0 0 .28-1.222"/><path fill="#fff" d="m170.689 40.712-.002.008a6.7 6.7 0 0 1 2.198.127l9.869 2.265 3.25-14.16c.008-.028.012-.06.02-.089a6.1 6.1 0 0 0-.802-4.55 6.1 6.1 0 0 0-3.837-2.728 6.12 6.12 0 0 0-4.639.782 6.1 6.1 0 0 0-2.729 3.837zm25.599 5.736-.016.065-.7 3.026a4 4 0 0 0-.045.224 6.1 6.1 0 0 0 .831 4.415 6.1 6.1 0 0 0 3.833 2.73c1.6.366 3.25.089 4.643-.783a6.1 6.1 0 0 0 2.48-3.026 6 6 0 0 0 .249-.81l.692-3.003a6.1 6.1 0 0 0-.778-4.647 6.08 6.08 0 0 0-3.837-2.733 6.155 6.155 0 0 0-7.352 4.541"/><path fill="#000" d="M31.01 19.227a.83.83 0 0 0 .63.167l16.187-2.562a8 8 0 0 0-.02.428.79.79 0 0 0 .313.651.8.8 0 0 0 .636.16c0 .093.008.186.016.284L33.03 24.282a.82.82 0 0 0-.477.468.8.8 0 0 0 .04.668l2.933 5.633a.82.82 0 0 0 .725.44.85.85 0 0 0 .436-.126l13.218-8.35c2.513 6.032 8.716 10.032 15.648 10.032 1.023 0 2.066-.085 3.112-.269 7.181-1.246 12.827-6.61 14.126-13.392l-.216.081q-.116.042-.232.09-.225.082-.456.175a32 32 0 0 0-3.524 1.694c-1.653.913-3.845 1.638-5.75 1.638-.673 0-1.312-.09-1.879-.297-1.01-.367-1.718-1.051-2.105-2.041-.49-1.246-.424-2.4.187-3.332.884-1.356 2.916-2.195 5.572-2.301 3.87-.155 6.207-.68 7.666-1.03q.14-.039.269-.07l.126-.029.395-.097v-.013a15 15 0 0 0-.244-1.148l-.025-.09a1 1 0 0 1-.029-.122 15 15 0 0 0-1.47-3.572l9.36-2.652a2.84 2.84 0 0 0 2.057-2.716q-.001-.38-.106-.766a2.82 2.82 0 0 0-3.21-2.025l-12.594 2.2C72.646.413 67.872-.536 63.127.291c-4.823.83-9.055 3.393-11.91 7.213a17.4 17.4 0 0 0-2.521 4.754l-17.612-.819a.814.814 0 0 0-.847.876l.468 6.333a.8.8 0 0 0 .305.579M91.6 3.004c.049.187.078.37.078.55 0 .892-.603 1.69-1.467 1.934l-9.568 2.713-.403.114-.411.118-23.45 6.643-3.213.913-3.633 1.026-.407.118-.404.114-.102.029q.007-.288.025-.574.008-.208.028-.416a7 7 0 0 1 .041-.42 15 15 0 0 1 .285-1.714c.082-.35.171-.7.281-1.047q.055-.201.127-.403.06-.202.134-.403a16.8 16.8 0 0 1 2.326-4.31c2.733-3.65 6.777-6.101 11.396-6.896a18.6 18.6 0 0 1 3.206-.28c3.499 0 6.892.997 9.8 2.916l.134.09.041-.009 12.871-2.244A2.003 2.003 0 0 1 91.6 3.004"/><path fill="#fff" d="M82.323 13.994q-.129.03-.27.069c-1.457.35-3.796.875-7.665 1.03-2.656.106-4.688.945-5.572 2.302-.61.932-.676 2.085-.187 3.331.387.99 1.095 1.674 2.105 2.041.567.208 1.206.297 1.878.297 1.906 0 4.098-.725 5.751-1.637a32 32 0 0 1 3.524-1.694q.23-.095.456-.176a6 6 0 0 1 .232-.09l.216-.08h.004l.04-.233c.078-.444.135-.884.172-1.3.024-.24.036-.484.045-.724.044-.95-.005-1.898-.139-2.823l-.065-.44h-.004l-.395.098z"/><path fill="#000" d="m202.403 78.387.009-.021 5.759-25.092a.4.4 0 0 0 .004-.157l.002-.005c.07-.208.131-.424.18-.64l.692-3.002a6.92 6.92 0 0 0-.88-5.262 6.92 6.92 0 0 0-4.346-3.096 6.98 6.98 0 0 0-6.821 2.227l2.536-11.046a7.27 7.27 0 0 0-.849-5.41c-.979-1.624-2.519-2.747-4.336-3.164-2.917-.67-5.841.67-7.416 3.119l-.001-.014v-.004a6.9 6.9 0 0 0-1.022-2.937 6.93 6.93 0 0 0-4.346-3.091 6.9 6.9 0 0 0-5.255.887 6.9 6.9 0 0 0-3.091 4.343l-3.405 14.846-.001.004a6.71 6.71 0 0 0-4.853 4.577.4.4 0 0 0-.181.254l-2.289 9.975-.003.013-2.936 12.793-.011-.002-1.354 5.995a65.3 65.3 0 0 0-14.746-16.835c-9.808-7.905-21.795-12.8-34.275-14.093l.094-.363a.4.4 0 0 0-.07-.358.42.42 0 0 0-.33-.163h-11.27a.41.41 0 0 0-.4.31l-.044.178-35.73-.306a20 20 0 0 0-.441.001l-44.744.513c-35.9.075-65.082 29.305-65.082 65.222v13.394h-.856q-.526-.001-1.022.101a.3.3 0 0 0-.094.021q-.366.075-.708.203a4 4 0 0 0-.473.2 5 5 0 0 0-1.075.688 5.3 5.3 0 0 0-1.93 4.09v52.514q0 .07.003.139v4.684a5.303 5.303 0 0 0 5.295 5.295h.86v22.186l.106 31.404c.016 3.833 3.136 6.941 6.965 6.941h.024a6.97 6.97 0 0 0 6.191-3.821 6.97 6.97 0 0 0 6.908 6.085h.025c3.547-.012 6.476-2.688 6.891-6.121.33.635.762 1.226 1.284 1.747a6.93 6.93 0 0 0 4.908 2.02h.024c3.841-.012 6.957-3.148 6.94-6.985l-.012-4.297a6.6 6.6 0 0 0 1.716.227c.532 0 1.06-.063 1.575-.189a6.67 6.67 0 0 0 4.153-3.024 6.67 6.67 0 0 0 .797-5.076l-4.532-18.826c-.003-.015-.013-.026-.018-.04v-.012c.004-.012.004-.02.004-.033h.04v-22.186h8.468v125.211h-.003l-23.951 12.87c-.373.2-.231.767.193.767l78.38-.062a1.63 1.63 0 0 0 1.628-1.635l-.04-11.94h.002V139.327a2.05 2.05 0 0 1 2.048-2.047 2.05 2.05 0 0 1 2.047 2.047v175.796h-.002l-.04 11.94a1.63 1.63 0 0 0 1.628 1.635l78.381.062c.424 0 .567-.567.193-.767l-23.951-12.871V188.291h11.877c7.05 0 12.789-5.739 12.789-12.79v-24.839a31.66 31.66 0 0 0 15.172 3.838h.009c14.867-.005 27.537-10.136 30.812-24.638zM83.011 187.459c-6.59 0-11.959-5.364-11.959-11.958V92.295c0-.456.375-.831.831-.831h13.091c.187 0 .35-.126.4-.31l.028-.105 1.05-3.996.127-.477L97.91 43.495h10.415L96.847 87.142l-1.002 3.805a.4.4 0 0 0-.012.102.37.37 0 0 0 .085.256.37.37 0 0 0 .224.143c.033.012.07.016.102.016h19.078a21.18 21.18 0 0 1 7.902 12.271l5.919 26.145c1.999 8.826 7.48 16.024 14.814 20.311v25.31c0 6.594-5.364 11.958-11.958 11.958zm19.686-100.267a21.2 21.2 0 0 1 11.446 3.445h-17.36l.916-3.487v-.001zm-107.556 21.39c0-11.707 9.525-21.232 21.233-21.232l.252-.001 19.396-.223c-14.118 7.018-25.006 19.594-29.775 34.85H-4.859zm-4.537 134.785a6.153 6.153 0 0 1-6.13 6.171c-1.642-.008-3.19-.628-4.354-1.784a6.12 6.12 0 0 1-1.817-4.261c0-.004.004-.012 0-.016v-.024c.002-.015.008-.028.008-.043l-.04-11.943a.41.41 0 0 0-.408-.406.41.41 0 0 0-.407.409l.04 11.86v.008c-.004.024-.008.045-.008.073l.009 2.31a6.153 6.153 0 0 1-6.13 6.171h-.02c-3.382 0-6.14-2.746-6.151-6.126l-.008-2.306v-.006l-.04-12.251a.41.41 0 0 0-.408-.406h-.001a.41.41 0 0 0-.406.409l.041 12.244-.001.005a6.155 6.155 0 0 1-6.126 6.171h-.025a6.16 6.16 0 0 1-6.15-6.13l-.102-31.074h18.56l23.789-.142c0 .03-.004.06.003.091l4.532 18.827a5.86 5.86 0 0 1-.7 4.46 5.86 5.86 0 0 1-3.65 2.658 5.87 5.87 0 0 1-3.102-.092l-.021-7.229a.407.407 0 0 0-.408-.406h-.001a.406.406 0 0 0-.406.408l.022 7.353v.194zm-44.792-58.751v-2c.207.338.456.644.737.921a5.4 5.4 0 0 0 .888.721q.245.151.5.285a5.2 5.2 0 0 0 .97.366c.44.123.909.188 1.39.188h.855v4h-.86a4.486 4.486 0 0 1-4.48-4.481m.008-57.337a4.48 4.48 0 0 1 4.476-4.472h.856v35.86q-.043-.018-.087-.03a.628.628 0 1 0 .087 1.196v7.309a.7.7 0 0 0-.146-.056.627.627 0 0 0-.28 1.222c.15.035.299.01.426-.056v7.373a.627.627 0 1 0 0 1.043v7.45a.6.6 0 0 0-.263-.134.625.625 0 0 0-.668.277 4.44 4.44 0 0 1-2.527-.836.63.63 0 0 0-.302-.236 4.5 4.5 0 0 1-1.303-1.884.625.625 0 1 0-.254-1.22c-.006-.097-.014-.193-.014-.291v-6.981a.627.627 0 1 0 0-1.153v-7.326a.626.626 0 1 0 0-1.093v-7.39q.096.069.22.099a.628.628 0 0 0 .28-1.222.62.62 0 0 0-.501.101zm88.383-4.472a4.477 4.477 0 0 1 4.472 4.472v32.134a.62.62 0 0 0 0 .699v7.678a.617.617 0 0 0 0 .848v7.544a.62.62 0 0 0-.21.338.62.62 0 0 0 .21.619v2.654a4.4 4.4 0 0 1-.378 1.793.627.627 0 1 0-.63 1.032 4.5 4.5 0 0 1-1.725 1.296.62.62 0 0 0-.358-.235.627.627 0 0 0-.75.471c-.006.023-.006.045-.01.067-.203.029-.41.049-.621.049H22.926l.01-.027a.627.627 0 0 0-1.223-.28.6.6 0 0 0 .01.307h-8.528a.62.62 0 0 0-.84 0H9.718a.627.627 0 1 0-1.026 0H.218a.623.623 0 0 0-1.125 0h-2.71a.624.624 0 0 0-.159-1.159.627.627 0 0 0-.439 1.159h-.643v-3.055a.626.626 0 0 0 0-1.164v-7.267a.625.625 0 0 0 0-1.201v-7.232a.628.628 0 0 0 .029-1.228l-.029-.004v-40.309zm-39.062 66.29v-4h39.062a5.22 5.22 0 0 0 3.164-1.059s.004.004.004 0q.202-.157.391-.326a7 7 0 0 0 .184-.175q.42-.416.733-.917v1.996a4.483 4.483 0 0 1-4.48 4.481zM163.283 55.88l2.35-9.808a5.906 5.906 0 0 1 7.069-4.43l10.098 2.317a5.905 5.905 0 0 1 4.43 7.07 5.906 5.906 0 0 1-7.069 4.43l-4.509-1.035a.408.408 0 0 0-.182.794l4.509 1.035c.308.07.617.112.926.139l.021.008c.073.01 7.341 1.052 10.323 5.37 1.221 1.767 1.564 3.866 1.019 6.239a.408.408 0 0 0 .794.182c.138-.599.217-1.18.251-1.748l.02.007a.626.626 0 1 0-.028-1.212 8 8 0 0 0-.471-2.162.626.626 0 0 0-.392-.938l-.024-.003a8 8 0 0 0-.5-.83 9 9 0 0 0-.827-1.022.626.626 0 1 0-.583-.582c-2.13-1.954-5.007-3.028-7.031-3.582a6.8 6.8 0 0 0 1.568-.72 6.67 6.67 0 0 0 2.979-4.187c.033-.142.053-.284.076-.426a.61.61 0 0 0 .076-.671 6.66 6.66 0 0 0-1.007-3.97 6.66 6.66 0 0 0-3.62-2.82l3.206-13.966c.785-3.423 4.111-5.59 7.412-4.833 1.597.367 2.951 1.355 3.813 2.784a6.45 6.45 0 0 1 .75 4.798l-4.47 19.474c-.006.026-.001.051-.002.077a.627.627 0 0 0 .562.993c.173.667.447 1.311.822 1.917a.62.62 0 0 0-.319.411.627.627 0 0 0 1.06.575 6.9 6.9 0 0 0 3.624 2.147q.79.178 1.572.18a6.9 6.9 0 0 0 3.686-1.068 6.9 6.9 0 0 0 1.565-1.336l-.345 1.502a.623.623 0 0 0-.245 1.069l-.985 4.29a.623.623 0 0 0-.245 1.07l-.985 4.29a.623.623 0 0 0-.245 1.069l-.985 4.29a.623.623 0 0 0-.245 1.07l-.841 3.66-41.28-9.476zm13.462-33.512a6.12 6.12 0 0 1 4.64-.783 6.1 6.1 0 0 1 3.837 2.73 6.1 6.1 0 0 1 .802 4.55c-.008.028-.012.06-.02.089l-3.251 14.158v.001l-9.868-2.265a6.7 6.7 0 0 0-2.198-.127l.002-.008 3.327-14.508a6.1 6.1 0 0 1 2.729-3.837m26.895 19.538a6.08 6.08 0 0 1 3.837 2.733 6.1 6.1 0 0 1 .778 4.648l-.692 3.002c-.065.277-.147.55-.249.81a6.1 6.1 0 0 1-2.48 3.027 6.12 6.12 0 0 1-4.644.782 6.1 6.1 0 0 1-3.832-2.73 6.1 6.1 0 0 1-.831-4.415q.019-.111.044-.224l.701-3.026.016-.065a6.155 6.155 0 0 1 7.352-4.542"/><path fill="#5474f6" d="m76.404 3.818-.134-.09C73.362 1.81 69.969.812 66.47.812q-1.596 0-3.206.281c-4.619.794-8.663 3.246-11.396 6.896a16.8 16.8 0 0 0-2.326 4.31 8 8 0 0 0-.134.402q-.073.203-.127.404c-.11.346-.2.696-.28 1.047a15 15 0 0 0-.286 1.714q-.026.207-.04.42-.021.208-.029.415-.018.287-.025.575l.102-.029.404-.114.407-.118 3.633-1.027 3.214-.912L79.83 8.433l.411-.118.403-.114 9.568-2.713a2.02 2.02 0 0 0 1.466-1.935q-.002-.268-.077-.55a2.003 2.003 0 0 0-2.285-1.437L76.445 3.81z"/><path fill="#fff" d="M130.447 178.001a4.89 4.89 0 0 0 4.883-4.884v-12.472a4.89 4.89 0 0 0-4.883-4.883H85.545a4.89 4.89 0 0 0-4.88 4.883v12.472a4.89 4.89 0 0 0 4.88 4.884z"/><path fill="#000" d="M130.447 178.828a5.717 5.717 0 0 0 5.71-5.71v-12.472a5.717 5.717 0 0 0-5.71-5.71H85.545a5.714 5.714 0 0 0-5.707 5.71v12.472a5.714 5.714 0 0 0 5.707 5.71zm-49.782-5.71v-12.472a4.89 4.89 0 0 1 4.88-4.884h44.901a4.89 4.89 0 0 1 4.884 4.884v12.472a4.89 4.89 0 0 1-4.884 4.884H85.544a4.89 4.89 0 0 1-4.88-4.884"/><path fill="#fff" d="M276.049 155.602c.118-.306.18-.707.191-1.178a.627.627 0 0 1-.556-.796.63.63 0 0 1 .486-.442c-.071-.572-.192-1.2-.366-1.869l-.012-.057-.048-.193a.626.626 0 1 1-.297-1.016q.037.012.072.029c-.313-1.509-.534-3.377-.329-6.041-.428.154-.87.255-1.315.312a.6.6 0 0 1-.021.183.626.626 0 0 1-1.227-.152 6 6 0 0 1-1.658-.376 6 6 0 0 1-.703-.332.627.627 0 1 1-1.029-.707 6 6 0 0 1-.418-.391l-1.162 2.494a.623.623 0 0 1-.494 1.061l-1.347 2.889-1.236-.576a31.4 31.4 0 0 0 1.551 6.572q.004.013.008.02c.301.827.635 1.447.983 1.927l.008-.048a.626.626 0 1 1 .662.794c.509.451 1.03.694 1.52.882.905.351 1.882.44 2.823.261l.029-.004a5.19 5.19 0 0 0 3.885-3.246m-3.459-2.201a.627.627 0 1 1 .342-1.206.627.627 0 0 1-.342 1.206m1.07-6.064a.627.627 0 1 1 1.206.344.627.627 0 0 1-1.206-.344m-1.74 1.713a.627.627 0 1 1-.342 1.206.627.627 0 0 1 .342-1.206m-2.856 3.35a.627.627 0 1 1 .342-1.206.627.627 0 0 1-.342 1.206m1.07-6.064a.627.627 0 1 1 1.206.342.627.627 0 0 1-1.206-.342m-2.515 2.144a.628.628 0 1 1 1.208.345.628.628 0 0 1-1.208-.345m-2.082 2.919a.627.627 0 1 1 .344-1.207.627.627 0 0 1-.344 1.207m1.012 3.145a.627.627 0 1 1 .342-1.206.627.627 0 0 1-.342 1.206m3.527 1.001a.626.626 0 1 1 .34-1.205.626.626 0 0 1-.34 1.205m1.786 2.714a.627.627 0 1 1-1.206-.342.627.627 0 0 1 1.206.342m1.74-1.712a.627.627 0 1 1 .342-1.206.627.627 0 0 1-.342 1.206"/><path fill="#fff" d="m284.252 109.523-.024-.012-15.035 32.263a5.1 5.1 0 0 0 2.069 1.471 5.185 5.185 0 0 0 6.696-2.974q.04-.09.065-.187l.021-.049q.091-.427.195-.843l.025-.114c2.435-10.187 6.557-18.451 8.215-21.535a32 32 0 0 1 .754-1.352 5.18 5.18 0 0 0 .106-3.356 5.16 5.16 0 0 0-3.088-3.312z"/><path fill="#000" d="M274.376 156.115a.627.627 0 1 0-1.207-.343.627.627 0 0 0 1.207.343m-3.526-1.001a.628.628 0 1 0-1.208-.343.628.628 0 0 0 1.208.343m.58 2.371a.627.627 0 1 0-.341 1.208.627.627 0 0 0 .341-1.208m1.502-5.289a.626.626 0 1 0-.344 1.207.626.626 0 0 0 .344-1.207m1.16-4.084a.627.627 0 1 0 .342-1.206.627.627 0 0 0-.342 1.206m-4.686 3.082a.627.627 0 1 0-.344 1.206.627.627 0 0 0 .344-1.206m-2.083 2.918a.626.626 0 1 0-1.206-.342.627.627 0 0 0 1.206.342m3.242-7.002a.628.628 0 1 0 .343-1.208.628.628 0 0 0-.343 1.208m.581 2.372a.626.626 0 1 0 1.208.344.626.626 0 0 0-1.208-.344m-3.095-.227a.627.627 0 1 0 .342-1.206.627.627 0 0 0-.342 1.206m-1.74 1.713a.627.627 0 1 0-1.206-.344.627.627 0 0 0 1.206.344"/><path fill="#5474f6" d="M274.818 104.363h.005l17.363 6.847a56 56 0 0 1 1.845-3.572l-.004-.004-25.302-9.98-46.059-18.165-1.731-.685a5.5 5.5 0 0 1-.819-.407q-.11-.067-.215-.138a2 2 0 0 1-.11-.078 4 4 0 0 1-.257-.195 4 4 0 0 1-.301-.265 5 5 0 0 1-.758-.9 9 9 0 0 1-.204-.33q-.096-.173-.179-.346a2 2 0 0 1-.065-.147q-.007-.006-.008-.012-.03-.068-.053-.135a1 1 0 0 1-.049-.122c-.041-.102-.073-.207-.106-.313a6 6 0 0 1-.098-.371q-.011-.011-.004-.016a1 1 0 0 1-.036-.163l-.73 1.853a4.485 4.485 0 0 0 2.522 5.812l2.814 1.108z"/><path fill="#fff" d="M238.274 22.782a3 3 0 0 0-.154.293c-.045.098-.09.204-.131.306l-.729 1.85-.322.81-.004.008-.611 1.552-.016.04-8.428 21.367a.625.625 0 0 1 .664.961.626.626 0 0 1-1.04-.01l-2.711 6.874a.626.626 0 1 1-.402 1.018l-2.688 6.815a.626.626 0 1 1-.423 1.073l-2.561 6.49v.005c-.035.09-.063.183-.093.275q.154.013.291.104a.626.626 0 0 1-.504 1.124c-.001.046-.007.092-.007.139a4.5 4.5 0 0 0 .285 1.564q.014.043.033.085.023.066.053.13c.02.046.041.086.061.131.028.063.063.122.096.183a.6.6 0 0 1 .189.309c.194.309.416.597.68.844q.117.11.241.208c.016.02.036.033.057.05q.108.088.224.166.14.097.289.183.109.067.224.123a3 3 0 0 0 .335.153.626.626 0 0 1 .985.391l.623.246 7.254 2.86a.62.62 0 0 1 .102-.431.627.627 0 0 1 1.034.71.6.6 0 0 1-.117.124l2.492.983a.62.62 0 0 1 .643.254l7.986 3.15a.627.627 0 1 1 1.147.453l11.058 4.36q.012-.026.028-.05a.626.626 0 0 1 1.123.505l8.026 3.165a.625.625 0 0 1 .835-.915.624.624 0 0 1-.276 1.136l2.52.994a.622.622 0 0 1 1.046.413l.465.183v.004l7.419 2.926a.626.626 0 1 1 .951.375l2.452.967a.625.625 0 0 1 .787.31l7.931 3.128a.6.6 0 0 1 .104-.291.627.627 0 1 1 1.033.709l-.019.023 5.638 2.224v-.004a59 59 0 0 1 8.804-11.607.625.625 0 1 1 .885-.885 59 59 0 0 1 5.471-4.756.628.628 0 1 1 .615-1.085.62.62 0 0 1 .264.43 60 60 0 0 1 1.757-1.249q.044-.03.089-.057a.6.6 0 0 1 .246-.352l4.716-11.953v-.004l5.385-13.645.012-.036.627-1.597v-.004l.318-.802.733-1.854a4.47 4.47 0 0 0-.444-4.126v-.004a4.4 4.4 0 0 0-.407-.517 3 3 0 0 0-.232-.24 5 5 0 0 0-.318-.273 4 4 0 0 0-.525-.359h-.004a4.4 4.4 0 0 0-.587-.285l-59.565-23.494h-.004l-18.488-7.29a4.5 4.5 0 0 0-1.642-.314c-.603 0-1.209.126-1.78.375q-.101.043-.203.093a5 5 0 0 0-.571.334 4.5 4.5 0 0 0-1.319 1.434zm72.193 60.052a.626.626 0 1 1-1.033-.708.626.626 0 0 1 1.033.708m-3.11 4.534a.627.627 0 1 1-1.034-.71.627.627 0 0 1 1.034.71m-9.245 6.995a.626.626 0 1 1-1.033-.708.626.626 0 0 1 1.033.708m-3.11 4.534a.627.627 0 1 1-1.034-.71.627.627 0 0 1 1.034.71m-3.111 4.535a.628.628 0 1 1-1.034-.711.628.628 0 0 1 1.034.711m-9.984-2.755a.627.627 0 1 1 .71-1.034.627.627 0 0 1-.71 1.034m-8.241-3.08a.627.627 0 1 1-1.034-.71.627.627 0 0 1 1.034.71m-3.895-1.912a.627.627 0 1 1 .71-1.034.627.627 0 0 1-.71 1.034m-.118-4.175a.627.627 0 1 1 1.034.71.627.627 0 0 1-1.034-.71m-3.022-2.074a.626.626 0 1 1 1.033.708.626.626 0 0 1-1.033-.708m-42.496-15.818a.627.627 0 1 1 1.034.71.627.627 0 0 1-1.034-.71m.044-3.304a.627.627 0 1 1 1.034.71.627.627 0 0 1-1.034-.71m3.199-11.142a.626.626 0 1 1 1.033.708.626.626 0 0 1-1.033-.708m3.273-3.663a.626.626 0 1 1 .708-1.033.626.626 0 0 1-.708 1.033m2.948-5.405q.024-.032.051-.06l1.092.43a.626.626 0 0 1-.981.502.627.627 0 0 1-.162-.872m73.846 30.657a.627.627 0 1 1-1.034-.711.627.627 0 0 1 1.034.71m-3.112 4.534a.626.626 0 1 1-1.033-.708.626.626 0 0 1 1.033.708m-9.243 6.994a.627.627 0 1 1-1.034-.71.627.627 0 0 1 1.034.71m-10.235 2.982a.627.627 0 1 1 1.034.71.627.627 0 0 1-1.034-.71m-57.609-26.187a.627.627 0 1 1 1.034.71.627.627 0 0 1-1.034-.71m.088-6.608a.627.627 0 1 1 1.034.71.627.627 0 0 1-1.034-.71m3.111-4.534a.626.626 0 1 1 1.033.708.626.626 0 0 1-1.033-.708m3.11-4.535a.627.627 0 1 1 1.034.71.627.627 0 0 1-1.034-.71m70.866 25.28a.626.626 0 1 1-.615-.973l.59.233c.164.21.184.508.025.74m-3.11 4.534a.627.627 0 1 1-1.034-.71.627.627 0 0 1 1.034.71m-9.245 6.995a.626.626 0 1 1-1.033-.708.626.626 0 0 1 1.033.708m-4.1.52a.627.627 0 1 1 1.034.71.627.627 0 0 1-1.034-.71m-21.041-10.34a.626.626 0 1 1 .708-1.034.626.626 0 0 1-.708 1.033M230.357 64.55a.626.626 0 1 1 1.033.708.626.626 0 0 1-1.033-.708m67.813 12.42a.627.627 0 1 1-.71 1.034.627.627 0 0 1 .71-1.034m.118 4.176a.626.626 0 1 1-1.033-.708.626.626 0 0 1 1.033.708m-28.415-6.158a.626.626 0 1 1 1.033.708.626.626 0 0 1-1.033-.708m-33.339-16.203a.627.627 0 1 1 1.034.71.627.627 0 0 1-1.034-.71m58.613 16.112a.627.627 0 1 1-.71 1.034.627.627 0 0 1 .71-1.034m.118 4.175a.627.627 0 1 1-1.034-.71.627.627 0 0 1 1.034.71M276.169 73.4a.627.627 0 1 1 .71-1.033.627.627 0 0 1-.71 1.033m2.904-2.101a.627.627 0 1 1 1.034.71.627.627 0 0 1-1.034-.71m.044-3.304q.005-.007.012-.013l1.125.443a.627.627 0 1 1-1.137-.43m-36.449-11.67a.626.626 0 1 1 1.033.708.626.626 0 0 1-1.033-.708m12.069 2.036 1.086.428a.625.625 0 0 1-1.086-.428m-9.003-3.266a.6.6 0 0 1 .224-.196l.885.348a.625.625 0 0 1-.946.72.626.626 0 0 1-.162-.872zm-.044 3.304a.627.627 0 1 1 1.034.71.627.627 0 0 1-1.034-.71m3.067-1.23a.627.627 0 1 1 1.034.71.627.627 0 0 1-1.034-.71m-.044 3.304a.627.627 0 1 1 1.034.71.627.627 0 0 1-1.034-.71m3.067-1.23a.627.627 0 1 1 1.034.71.627.627 0 0 1-1.034-.71m-.044 3.303a.627.627 0 1 1 1.034.71.627.627 0 0 1-1.034-.71m3.067-1.23a.626.626 0 1 1 1.033.709.626.626 0 0 1-1.033-.709m3.067-1.23a.62.62 0 0 1 .561-.268l.347.137a.625.625 0 0 1-.746 1.002.626.626 0 0 1-.162-.871m3.022 2.074a.627.627 0 1 1 1.034.71.627.627 0 0 1-1.034-.71m21.248 7.909a.627.627 0 1 1 1.034.71.627.627 0 0 1-1.034-.71m3.023 2.073a.627.627 0 1 1 1.034.71.627.627 0 0 1-1.034-.71m3.031-.585.76.3a.63.63 0 0 1-.562-.073.6.6 0 0 1-.198-.227m-9.165 3.046a.627.627 0 1 1 1.034.71.627.627 0 0 1-1.034-.71m3.067-1.23a.627.627 0 1 1 1.034.71.627.627 0 0 1-1.034-.71m-.044 3.304a.627.627 0 1 1 1.034.71.627.627 0 0 1-1.034-.71m3.067-1.23a.627.627 0 1 1 1.034.71.627.627 0 0 1-1.034-.71m3.067-1.23a.626.626 0 1 1 1.033.708.626.626 0 0 1-1.033-.709m3.067-1.23a.6.6 0 0 1 .161-.16l.967.382a.626.626 0 1 1-1.128-.222m-.044 3.303a.626.626 0 1 1 1.033.709.626.626 0 0 1-1.033-.709M243.51 53.932a.624.624 0 0 1-.869-.342zm-3.865.32a.627.627 0 1 1 1.034.71.627.627 0 0 1-1.034-.71m-.044 3.303a.627.627 0 1 1 1.034.71.627.627 0 0 1-1.034-.71m-.044 3.304a.627.627 0 1 1 1.034.71.627.627 0 0 1-1.034-.71m3.067-1.23a.626.626 0 1 1 1.033.708.626.626 0 0 1-1.033-.708m-.044 3.304a.626.626 0 1 1 1.033.709.626.626 0 0 1-1.033-.709m3.066-1.23a.627.627 0 1 1 1.034.71.627.627 0 0 1-1.034-.71m-.043 3.304a.626.626 0 1 1 1.033.708.626.626 0 0 1-1.033-.708m3.066-1.23a.627.627 0 1 1 1.034.71.627.627 0 0 1-1.034-.71m-.044 3.304a.627.627 0 1 1 1.034.71.627.627 0 0 1-1.034-.71m3.067-1.23a.627.627 0 1 1 1.034.71.627.627 0 0 1-1.034-.71m3.067-1.23a.627.627 0 1 1 1.034.71.627.627 0 0 1-1.034-.71m3.067-1.23a.626.626 0 1 1 1.033.708.626.626 0 0 1-1.033-.709m-.044 3.304a.626.626 0 1 1 1.033.707.626.626 0 0 1-1.033-.707m3.066-1.231a.627.627 0 1 1 1.034.71.627.627 0 0 1-1.034-.71m-.044 3.304a.627.627 0 1 1 1.034.71.627.627 0 0 1-1.034-.71m3.024 2.074a.626.626 0 1 1 1.033.707.626.626 0 0 1-1.033-.707m3.185 2.945a.626.626 0 1 1 .708-1.033.626.626 0 0 1-.708 1.033m2.928-1.364a8 8 0 0 1-1.246-.366 7.72 7.72 0 0 1-4.016-3.612.62.62 0 0 1-.645-.035.625.625 0 0 1 .154-1.109c-.56-1.67-.56-3.54.137-5.307a7.758 7.758 0 0 1 14.434 5.693c-1.301 3.298-4.61 5.2-7.972 4.87a.63.63 0 0 1-.708 0 .6.6 0 0 1-.138-.134m2.999 1.336a.627.627 0 1 1 1.034.71.627.627 0 0 1-1.034-.71m-.044 3.304a.627.627 0 1 1 1.034.71.627.627 0 0 1-1.034-.71m3.067-1.23a.626.626 0 1 1 1.033.708.626.626 0 0 1-1.033-.708m-.044 3.304a.626.626 0 1 1 1.033.708.626.626 0 0 1-1.033-.708m3.067-1.23a.626.626 0 1 1 1.033.708.626.626 0 0 1-1.033-.708m-.044 3.304a.626.626 0 1 1 1.033.708.626.626 0 0 1-1.033-.708m3.066-1.23a.627.627 0 1 1 1.034.71.627.627 0 0 1-1.034-.71m3.067-1.23a.627.627 0 1 1 1.034.71.627.627 0 0 1-1.034-.71m3.067-1.23a.627.627 0 1 1 1.034.71.627.627 0 0 1-1.034-.71m-.044 3.303a.627.627 0 1 1 1.034.71.627.627 0 0 1-1.034-.71m3.067-1.23a.626.626 0 1 1 1.033.708.626.626 0 0 1-1.033-.708m-.044 3.304a.626.626 0 1 1 1.033.708.626.626 0 0 1-1.033-.708m3.066-1.23a.627.627 0 1 1 1.034.71.627.627 0 0 1-1.034-.71m7.11-4.943a.623.623 0 0 1-1.037-.409zm-64.675-24.548a.627.627 0 1 1 1.034.71.627.627 0 0 1-1.034-.71m.828 3.142a.627.627 0 1 1-.71 1.034.627.627 0 0 1 .71-1.034m-2.905 2.102a.627.627 0 1 1-1.034-.71.627.627 0 0 1 1.034.71m-.206 2.433a.627.627 0 1 1-.71 1.033.627.627 0 0 1 .71-1.033m-2.905 2.101a.626.626 0 1 1-1.033-.708.626.626 0 0 1 1.033.708m1.989 1.365a.627.627 0 1 1 1.034.71.627.627 0 0 1-1.034-.71m3.067-1.23a.627.627 0 1 1 1.034.71.627.627 0 0 1-1.034-.71m-.044 3.303a.627.627 0 1 1 1.034.71.627.627 0 0 1-1.034-.71m3.067-1.23a.627.627 0 1 1 1.034.71.627.627 0 0 1-1.034-.71m-.044 3.305a.627.627 0 1 1 1.034.71.627.627 0 0 1-1.034-.71m3.067-1.231a.626.626 0 1 1 1.033.708.626.626 0 0 1-1.033-.708m-.044 3.304a.626.626 0 1 1 1.033.708.626.626 0 0 1-1.033-.708m3.067-1.23a.626.626 0 1 1 1.033.708.626.626 0 0 1-1.033-.708m-.044 3.304a.626.626 0 1 1 1.033.708.626.626 0 0 1-1.033-.708m3.066-1.23a.627.627 0 1 1 1.034.71.627.627 0 0 1-1.034-.71m3.067-1.23a.627.627 0 1 1 1.034.71.627.627 0 0 1-1.034-.71m3.067-1.23a.627.627 0 1 1 1.034.71.627.627 0 0 1-1.034-.71m-.044 3.304a.627.627 0 1 1 1.034.71.627.627 0 0 1-1.034-.71m3.067-1.23a.626.626 0 1 1 1.033.707.626.626 0 0 1-1.033-.708m-.044 3.303a.626.626 0 1 1 1.033.708.626.626 0 0 1-1.033-.708m3.066-1.23a.627.627 0 1 1 1.034.71.627.627 0 0 1-1.034-.71m-.043 3.304a.627.627 0 1 1 1.034.71.627.627 0 0 1-1.034-.71m3.067-1.23a.626.626 0 1 1 1.033.708.626.626 0 0 1-1.033-.708m-.044 3.304a.626.626 0 1 1 1.033.708.626.626 0 0 1-1.033-.708m3.066-1.23a.627.627 0 1 1 1.034.71.627.627 0 0 1-1.034-.71m3.023 2.073a.627.627 0 1 1 1.034.71.627.627 0 0 1-1.034-.71m-.044 3.305a.627.627 0 1 1 1.034.71.627.627 0 0 1-1.034-.71m3.067-1.23a.627.627 0 1 1 1.034.71.627.627 0 0 1-1.034-.71m-.044 3.303a.627.627 0 1 1 1.034.71.627.627 0 0 1-1.034-.71m3.067-1.23a.626.626 0 1 1 1.033.708.626.626 0 0 1-1.033-.708m-.044 3.304a.626.626 0 1 1 1.033.708.626.626 0 0 1-1.033-.708m3.067-1.23a.626.626 0 1 1 1.033.708.626.626 0 0 1-1.033-.708m3.066-1.23a.627.627 0 1 1 1.034.71.627.627 0 0 1-1.034-.71m3.067-1.23a.627.627 0 1 1 1.034.71.627.627 0 0 1-1.034-.71m-.044 3.304a.627.627 0 1 1 1.034.71.627.627 0 0 1-1.034-.71m3.067-1.23a.627.627 0 1 1 1.034.71.627.627 0 0 1-1.034-.71m-.044 3.303a.627.627 0 1 1 1.034.71.627.627 0 0 1-1.034-.71m4.1-.52a.626.626 0 1 1-1.033-.708.626.626 0 0 1 1.033.707m2.033-1.94a.627.627 0 1 1 1.034.71.627.627 0 0 1-1.034-.71m3.067-1.23a.627.627 0 1 1 1.034.71.627.627 0 0 1-1.034-.71m4.145-3.825a.627.627 0 1 1-1.034-.71.627.627 0 0 1 1.034.71M227.29 65.78a.627.627 0 1 1 1.034.71.627.627 0 0 1-1.034-.71m3.023 2.074a.626.626 0 1 1 1.033.708.626.626 0 0 1-1.033-.708m3.066-1.23a.627.627 0 1 1 1.034.71.627.627 0 0 1-1.034-.71m-.044 3.304a.627.627 0 1 1 1.034.71.627.627 0 0 1-1.034-.71m3.067-1.23a.627.627 0 1 1 1.034.71.627.627 0 0 1-1.034-.71m-.044 3.304a.627.627 0 1 1 1.034.71.627.627 0 0 1-1.034-.71m3.067-1.23a.627.627 0 1 1 1.034.71.627.627 0 0 1-1.034-.71m-.044 3.303a.627.627 0 1 1 1.034.71.627.627 0 0 1-1.034-.71m3.067-1.23a.626.626 0 1 1 1.033.708.626.626 0 0 1-1.033-.708m-.044 3.304a.627.627 0 1 1 1.034.71.627.627 0 0 1-1.034-.71m3.067-1.23a.626.626 0 1 1 1.033.708.626.626 0 0 1-1.033-.708m3.066-1.23a.627.627 0 1 1 1.034.71.627.627 0 0 1-1.034-.71m3.067-1.23a.627.627 0 1 1 1.034.71.627.627 0 0 1-1.034-.71m-.044 3.304a.627.627 0 1 1 1.034.71.627.627 0 0 1-1.034-.71m3.067-1.23a.627.627 0 1 1 1.034.71.627.627 0 0 1-1.034-.71m-.044 3.303a.627.627 0 1 1 1.034.71.627.627 0 0 1-1.034-.71m3.067-1.23a.626.626 0 1 1 1.033.709.626.626 0 0 1-1.033-.709m-.044 3.305a.626.626 0 1 1 1.033.708.626.626 0 0 1-1.033-.709m3.067-1.231a.627.627 0 1 1 1.034.71.627.627 0 0 1-1.034-.71m-.044 3.304a.627.627 0 1 1 1.034.71.627.627 0 0 1-1.034-.71m3.067-1.23a.626.626 0 1 1 1.033.708.626.626 0 0 1-1.033-.708m-.044 3.304a.626.626 0 1 1 1.033.707.626.626 0 0 1-1.033-.707m3.066-1.23a.627.627 0 1 1 1.034.71.627.627 0 0 1-1.034-.71m-.044 3.304a.627.627 0 1 1 1.034.71.627.627 0 0 1-1.034-.71m3.067-1.23a.627.627 0 1 1 1.034.71.627.627 0 0 1-1.034-.71m-.044 3.303a.627.627 0 1 1 1.034.71.627.627 0 0 1-1.034-.71m3.067-1.23a.627.627 0 1 1 1.034.71.627.627 0 0 1-1.034-.71m-.044 3.305a.627.627 0 1 1 1.034.71.627.627 0 0 1-1.034-.71m3.067-1.23a.627.627 0 1 1 1.034.71.627.627 0 0 1-1.034-.71m3.067-1.231a.626.626 0 1 1 1.033.708.626.626 0 0 1-1.033-.708m3.066-1.23a.627.627 0 1 1 1.034.71.627.627 0 0 1-1.034-.71m-.044 3.304a.627.627 0 1 1 1.034.71.627.627 0 0 1-1.034-.71m3.067-1.23a.627.627 0 1 1 1.034.71.627.627 0 0 1-1.034-.71m-.044 3.303a.627.627 0 1 1 1.034.711.627.627 0 0 1-1.034-.71m3.023 2.075a.627.627 0 1 1 1.034.71.627.627 0 0 1-1.034-.71m3.067-1.23a.626.626 0 1 1 1.033.707.626.626 0 0 1-1.033-.708m4.145-3.826a.627.627 0 1 1-1.034-.71.627.627 0 0 1 1.034.71m2.032-1.94a.627.627 0 1 1 1.034.711.627.627 0 0 1-1.034-.71m3.067-1.23a.627.627 0 1 1 1.034.71.627.627 0 0 1-1.034-.71m4.144-3.824a.626.626 0 1 1-1.033-.708.626.626 0 0 1 1.033.708m-73.365-32.988a.6.6 0 0 1-.273-.102l-.013-.01zm-6.583 15.575a.626.626 0 1 1 .708-1.033.626.626 0 0 1-.708 1.033m2.773 7.81a.627.627 0 1 1 1.034.71.627.627 0 0 1-1.034-.71m3.067-1.23a.626.626 0 1 1 1.033.708.626.626 0 0 1-1.033-.708m-.044 3.304a.626.626 0 1 1 1.033.708.626.626 0 0 1-1.033-.708m3.066-1.23a.627.627 0 1 1 1.034.71.627.627 0 0 1-1.034-.71m-.043 3.304a.626.626 0 1 1 1.033.708.626.626 0 0 1-1.033-.708m3.066-1.23a.627.627 0 1 1 1.034.71.627.627 0 0 1-1.034-.71m-.044 3.304a.627.627 0 1 1 1.034.71.627.627 0 0 1-1.034-.71m3.067-1.23a.627.627 0 1 1 1.034.71.627.627 0 0 1-1.034-.71m-.044 3.304a.627.627 0 1 1 1.034.71.627.627 0 0 1-1.034-.71m3.067-1.23a.627.627 0 1 1 1.034.71.627.627 0 0 1-1.034-.71m3.067-1.231a.626.626 0 1 1 1.033.708.626.626 0 0 1-1.033-.708m3.066-1.23a.627.627 0 1 1 1.034.71.627.627 0 0 1-1.034-.71m-.044 3.304a.627.627 0 1 1 1.034.71.627.627 0 0 1-1.034-.71m3.067-1.23a.627.627 0 1 1 1.034.71.627.627 0 0 1-1.034-.71m-.043 3.304a.626.626 0 1 1 1.033.707.626.626 0 0 1-1.033-.707m3.066-1.23a.627.627 0 1 1 1.034.71.627.627 0 0 1-1.034-.71m-.044 3.304a.627.627 0 1 1 1.034.71.627.627 0 0 1-1.034-.71m3.067-1.23a.626.626 0 1 1 1.033.707.626.626 0 0 1-1.033-.708m-.044 3.303a.626.626 0 1 1 1.033.709.626.626 0 0 1-1.033-.709m3.067-1.23a.627.627 0 1 1 1.034.71.627.627 0 0 1-1.034-.71m-.044 3.304a.627.627 0 1 1 1.034.71.627.627 0 0 1-1.034-.71m3.067-1.23a.626.626 0 1 1 1.033.707.626.626 0 0 1-1.033-.707m10.102 6.93a.627.627 0 1 1-1.034-.71.627.627 0 0 1 1.034.71m2.033-1.939a.627.627 0 1 1 1.034.71.627.627 0 0 1-1.034-.71m3.067-1.23a.626.626 0 1 1 1.033.708.626.626 0 0 1-1.033-.708m-.044 3.304a.626.626 0 1 1 1.033.708.626.626 0 0 1-1.033-.708m3.066-1.23a.627.627 0 1 1 1.034.71.627.627 0 0 1-1.034-.71m-.044 3.304a.627.627 0 1 1 1.034.71.627.627 0 0 1-1.034-.71m3.023 2.074a.627.627 0 1 1 1.034.71.627.627 0 0 1-1.034-.71m3.067-1.23a.627.627 0 1 1 1.034.71.627.627 0 0 1-1.034-.71m3.067-1.23a.626.626 0 1 1 1.033.707.626.626 0 0 1-1.033-.708m4.101-.522a.627.627 0 1 1-1.034-.71.627.627 0 0 1 1.034.71m3.11-4.534a.626.626 0 1 1-1.033-.708.626.626 0 0 1 1.033.708m2.033-1.94a.627.627 0 1 1 1.034.711.627.627 0 0 1-1.034-.71m3.067-1.23a.626.626 0 1 1 1.033.709.626.626 0 0 1-1.033-.709m4.145-3.824a.627.627 0 1 1-1.034-.71.627.627 0 0 1 1.034.71M231.404 51.17a.627.627 0 1 1-.71 1.034.627.627 0 0 1 .71-1.034m-3.067 1.23a.626.626 0 1 1-.708 1.034.626.626 0 0 1 .708-1.033m-.044 3.305a.626.626 0 1 1-.708 1.033.626.626 0 0 1 .708-1.033m-3.982 4.696a.627.627 0 1 1 1.034.71.627.627 0 0 1-1.034-.71m.784 6.446a.627.627 0 1 1-.71 1.034.627.627 0 0 1 .71-1.034m-3.939 1.393a.627.627 0 1 1 1.034.71.627.627 0 0 1-1.034-.71m-.044 3.304a.627.627 0 1 1 1.034.71.627.627 0 0 1-1.034-.71m.118 4.175a.627.627 0 1 1 .71-1.034.627.627 0 0 1-.71 1.034m3.023 2.074a.627.627 0 1 1 .71-1.034.627.627 0 0 1-.71 1.034m2.905-2.102a.627.627 0 1 1 1.034.71.627.627 0 0 1-1.034-.71m.99 4.014a.627.627 0 1 1-1.034-.71.627.627 0 0 1 1.034.71m2.195-1.068a.626.626 0 1 1 .708-1.034.626.626 0 0 1-.708 1.034m3.023 2.073a.626.626 0 1 1 .708-1.033.626.626 0 0 1-.708 1.033m3.023 2.074a.627.627 0 1 1 .707-1.034.627.627 0 0 1-.707 1.034m3.894 1.912a.626.626 0 1 1-1.033-.708.626.626 0 0 1 1.033.708m2.195-1.068a.627.627 0 1 1 .71-1.034.627.627 0 0 1-.71 1.034m2.905-2.102a.626.626 0 1 1 1.033.708.626.626 0 0 1-1.033-.708m.118 4.176a.627.627 0 1 1 .71-1.034.627.627 0 0 1-.71 1.034m2.904-2.102a.627.627 0 1 1 1.034.71.627.627 0 0 1-1.034-.71m.991 4.013a.627.627 0 1 1-1.034-.71.627.627 0 0 1 1.034.71m2.033-1.94a.626.626 0 1 1 1.033.709.626.626 0 0 1-1.033-.708m.989 4.014a.626.626 0 1 1-1.033-.708.626.626 0 0 1 1.033.708m2.196-1.068a.626.626 0 1 1 .708-1.033.626.626 0 0 1-.708 1.033m3.022 2.074a.627.627 0 1 1 .71-1.034.627.627 0 0 1-.71 1.034m3.895 1.912a.627.627 0 1 1-1.034-.71.627.627 0 0 1 1.034.71m2.195-1.068a.627.627 0 1 1 .71-1.034.627.627 0 0 1-.71 1.034m2.861 1.202a.626.626 0 1 1 1.033.708.626.626 0 0 1-1.033-.708m9.274 3.789a.627.627 0 1 1 .71-1.034.627.627 0 0 1-.71 1.034m3.023 2.074a.627.627 0 1 1 .71-1.034.627.627 0 0 1-.71 1.034m6.917 3.985a.628.628 0 1 1-1.032-.711.628.628 0 0 1 1.032.711m2.196-1.068a.628.628 0 1 1 .71-1.035.628.628 0 0 1-.71 1.035m2.904-2.102a.626.626 0 1 1 1.033.709.626.626 0 0 1-1.033-.709m4.013 6.088a.628.628 0 1 1-1.034-.712.628.628 0 0 1 1.034.712m.044-3.305a.627.627 0 1 1-1.035-.708.627.627 0 0 1 1.035.708m3.066-1.23a.627.627 0 1 1-1.034-.709.627.627 0 0 1 1.034.709m.044-3.304a.626.626 0 1 1-1.033-.708.626.626 0 0 1 1.033.708m3.067-1.23a.627.627 0 1 1-1.034-.71.627.627 0 0 1 1.034.71m.044-3.304a.627.627 0 1 1-1.034-.71.627.627 0 0 1 1.034.71m2.195-1.068a.627.627 0 1 1 .71-1.034.627.627 0 0 1-.71 1.034m3.939-1.392a.627.627 0 1 1-1.034-.711.627.627 0 0 1 1.034.71m3.11-4.535a.626.626 0 1 1-1.033-.708.626.626 0 0 1 1.033.708m3.067-1.23a.626.626 0 1 1-1.033-.708.626.626 0 0 1 1.033.708m.044-3.304a.626.626 0 0 1-1.126-.497l1.15.454q-.01.022-.024.043"/><path fill="#000" d="m231.012 49.003-.286-.112.012.01a.6.6 0 0 0 .273.102zm-3.547 3.561a.627.627 0 1 0 1.036.708.627.627 0 0 0-1.036-.708m3.23-.358a.627.627 0 1 0 .709-1.034.627.627 0 0 0-.709 1.034m-3.111 4.534a.627.627 0 1 0 .71-1.035.627.627 0 0 0-.71 1.035m7.049-5.927a.63.63 0 0 0 .109-.339l-1.092-.43q-.027.027-.051.06a.628.628 0 0 0 1.034.709m-3.111 4.534a.627.627 0 1 0-1.035-.71.627.627 0 0 0 1.035.71m-3.982 4.697a.628.628 0 1 0 .71-1.036.628.628 0 0 0-.71 1.036m-2.402 3.5a.627.627 0 1 0-.709 1.034.627.627 0 0 0 .709-1.034m.207-2.432a.627.627 0 1 0-1.033-.71.627.627 0 0 0 1.033.71m-4.027 8a.627.627 0 1 0 .71-1.034.627.627 0 0 0-.71 1.034m3.067-1.23a.628.628 0 1 0 .71-1.035.628.628 0 0 0-.71 1.035m12.4-14.833a.627.627 0 1 0 .709-1.033.627.627 0 0 0-.709 1.033m-2.402 3.501a.628.628 0 1 0-.71 1.035.628.628 0 0 0 .71-1.036m.206-2.432a.627.627 0 1 0-1.035-.71.627.627 0 0 0 1.035.71m2.151 2.236a.628.628 0 1 0 .71-1.035.628.628 0 0 0-.71 1.035m-5.468 4.731a.628.628 0 1 0-.71 1.035.628.628 0 0 0 .71-1.035m.206-2.432a.627.627 0 1 0-1.035-.71.627.627 0 0 0 1.035.71m2.152 2.236a.626.626 0 1 0 .709-1.033.626.626 0 0 0-.709 1.033m-6.178 5.764a.628.628 0 1 0 .71-1.036.628.628 0 0 0-.71 1.036m.916-3.466a.627.627 0 1 0-1.034-.71.627.627 0 0 0 1.034.71m-3.155 7.839a.627.627 0 1 0-1.034-.71.627.627 0 0 0 1.034.71m-3.111 4.533a.627.627 0 1 0-1.034-.71.627.627 0 0 0 1.034.71m.044-3.304a.627.627 0 1 0-1.034-.71.627.627 0 0 0 1.034.71m17.661-17.131a.628.628 0 1 0 .71-1.036.628.628 0 0 0-.71 1.036m3.067-1.23c.195.134.438.14.636.04l-.869-.343a.62.62 0 0 0 .233.303m-6.178 5.764a.628.628 0 1 0 .71-1.035.628.628 0 0 0-.71 1.035m-3.11 4.534a.628.628 0 1 0 .71-1.036.628.628 0 0 0-.71 1.036m-3.111 4.535a.626.626 0 1 0 .709-1.033.626.626 0 0 0-.709 1.033m.915-3.466a.627.627 0 1 0-1.035-.71.627.627 0 0 0 1.035.71m-4.026 8a.628.628 0 1 0 .71-1.035.628.628 0 0 0-.71 1.035m.916-3.467a.627.627 0 1 0-1.035-.71.627.627 0 0 0 1.035.71m-3.317 6.967a.628.628 0 1 0-.71 1.036.628.628 0 0 0 .71-1.036m.206-2.433a.627.627 0 1 0-1.034-.71.627.627 0 0 0 1.034.71m17.661-17.13a.627.627 0 1 0 .709-1.034.627.627 0 0 0-.709 1.034m-3.111 4.534a.628.628 0 1 0 .71-1.035.628.628 0 0 0-.71 1.035m.916-3.466a.627.627 0 1 0-1.034-.71.627.627 0 0 0 1.034.71m-4.027 8a.627.627 0 1 0 .71-1.034.627.627 0 0 0-.71 1.034m.916-3.466a.627.627 0 1 0-1.034-.71.627.627 0 0 0 1.034.71m-4.026 8.001a.626.626 0 1 0 .709-1.033.626.626 0 0 0-.709 1.032m.915-3.466a.627.627 0 1 0-1.034-.71.627.627 0 0 0 1.034.71m-4.026 8.001a.627.627 0 1 0 .709-1.034.627.627 0 0 0-.709 1.034m.916-3.467a.627.627 0 1 0-1.035-.71.627.627 0 0 0 1.035.71m-3.317 6.967a.628.628 0 1 0-.71 1.035.628.628 0 0 0 .71-1.035m.206-2.432a.627.627 0 1 0-1.035-.71.627.627 0 0 0 1.035.71m17.661-17.132a.628.628 0 1 0 .71-1.036.628.628 0 0 0-.71 1.036m.915-3.466a.62.62 0 0 0 .074-.557l-.884-.349a.6.6 0 0 0-.224.197.627.627 0 0 0 1.034.71zm-4.026 8.001a.628.628 0 1 0 .71-1.035.628.628 0 0 0-.71 1.035m.916-3.467a.628.628 0 1 0-1.036-.708.628.628 0 0 0 1.036.708m-4.027 8.002a.628.628 0 1 0 .71-1.036.628.628 0 0 0-.71 1.035m.916-3.466a.627.627 0 1 0-1.035-.71.627.627 0 0 0 1.035.71m-4.026 8a.627.627 0 1 0 .709-1.034.627.627 0 0 0-.709 1.034m.915-3.466a.627.627 0 1 0-1.034-.71.627.627 0 0 0 1.034.71m-6.384 8.197a.627.627 0 1 0-.709 1.033.627.627 0 0 0 .709-1.033m2.358-.196a.628.628 0 1 0 .71-1.036.628.628 0 0 0-.71 1.036m.916-3.468a.627.627 0 1 0-1.034-.709.627.627 0 0 0 1.034.71m14.55-12.596a.627.627 0 1 0 .709-1.034.627.627 0 0 0-.709 1.034m.915-3.467a.627.627 0 1 0-1.034-.71.627.627 0 0 0 1.034.71m-4.026 8.002a.627.627 0 1 0 .709-1.034.627.627 0 0 0-.709 1.033m.915-3.466a.626.626 0 1 0-1.032-.71.626.626 0 0 0 1.032.71m-4.026 8a.628.628 0 1 0 .71-1.036.628.628 0 0 0-.71 1.036m.916-3.466a.628.628 0 1 0-1.036-.709.628.628 0 0 0 1.036.709m-4.027 8a.628.628 0 1 0 .71-1.035.628.628 0 0 0-.71 1.035m.916-3.467a.627.627 0 1 0-1.035-.709.627.627 0 0 0 1.035.71m-6.384 8.197a.628.628 0 1 0-.71 1.036.628.628 0 0 0 .71-1.036m2.358-.197a.627.627 0 1 0 .709-1.033.627.627 0 0 0-.709 1.033m.915-3.466a.627.627 0 1 0-1.034-.71.627.627 0 0 0 1.034.71m17.661-17.131a.626.626 0 0 0 .815-.095l-1.087-.428a.63.63 0 0 0 .272.523m-3.11 4.535a.627.627 0 1 0 .709-1.034.627.627 0 0 0-.709 1.034m.915-3.467a.627.627 0 1 0-1.035-.71.627.627 0 0 0 1.035.71m-4.027 8.001a.628.628 0 1 0 .71-1.036.628.628 0 0 0-.71 1.035m.916-3.466a.627.627 0 1 0-1.035-.71.627.627 0 0 0 1.035.71m-4.026 8.001a.626.626 0 1 0 .71-1.032.626.626 0 0 0-.71 1.032m.916-3.467a.627.627 0 1 0-1.036-.708.627.627 0 0 0 1.036.709m-4.027 8a.628.628 0 1 0 .71-1.035.628.628 0 0 0-.71 1.035m.916-3.467a.627.627 0 1 0-1.035-.71.627.627 0 0 0 1.035.71m-6.384 8.198a.628.628 0 1 0-.71 1.035.628.628 0 0 0 .71-1.035m2.358-.197a.627.627 0 1 0 .709-1.033.627.627 0 0 0-.709 1.033m.915-3.465a.627.627 0 1 0-1.035-.71.627.627 0 0 0 1.035.71m17.661-17.132a.625.625 0 0 0 .746-1.003l-.346-.136a.624.624 0 0 0-.4 1.14zm-3.111 4.534a.628.628 0 1 0 .71-1.035.628.628 0 0 0-.71 1.035m.916-3.467a.627.627 0 1 0-1.034-.71.627.627 0 0 0 1.034.71m-4.026 8.002a.627.627 0 1 0 .709-1.034.627.627 0 0 0-.709 1.034m.915-3.467a.627.627 0 1 0-1.035-.71.627.627 0 0 0 1.035.71m-4.026 8a.628.628 0 1 0 .71-1.035.628.628 0 0 0-.71 1.035m.915-3.466a.627.627 0 1 0-1.034-.709.627.627 0 0 0 1.034.71m-4.026 8a.628.628 0 1 0 .71-1.036.628.628 0 0 0-.71 1.036m.916-3.466a.627.627 0 1 0-1.034-.71.627.627 0 0 0 1.034.71m-6.384 8.196a.628.628 0 1 0-.71 1.036.628.628 0 0 0 .71-1.036m3.229-.358a.627.627 0 1 0-1.034-.71.627.627 0 0 0 1.034.71m.044-3.304a.627.627 0 1 0-1.034-.71.627.627 0 0 0 1.034.71m17.661-17.132a.627.627 0 1 0 .71-1.034.627.627 0 0 0-.71 1.034m-3.111 4.535a.626.626 0 1 0 .709-1.033.626.626 0 0 0-.709 1.033m.916-3.466a.627.627 0 1 0-1.033-.71.627.627 0 0 0 1.033.71m-4.027 8a.628.628 0 1 0 .71-1.036.628.628 0 0 0-.71 1.036m.916-3.466a.627.627 0 1 0-1.035-.71.627.627 0 0 0 1.035.71m-4.026 8a.627.627 0 1 0 .709-1.033.627.627 0 0 0-.709 1.033m.915-3.466a.627.627 0 1 0-1.035-.71.627.627 0 0 0 1.035.71m-4.026 8.001a.628.628 0 1 0 .71-1.036.628.628 0 0 0-.71 1.036m.915-3.467a.627.627 0 1 0-1.035-.71.627.627 0 0 0 1.035.71m-3.154 7.838a.627.627 0 1 0-1.034-.709.627.627 0 0 0 1.034.71m.043-3.304a.627.627 0 1 0-1.034-.71.627.627 0 0 0 1.034.71m14.551-12.597a.627.627 0 1 0 .71-1.035.627.627 0 0 0-.71 1.034m.915-3.465a.627.627 0 1 0-1.034-.71.627.627 0 0 0 1.034.71m-4.026 8a.628.628 0 1 0 .71-1.036.628.628 0 0 0-.71 1.036m.916-3.466a.627.627 0 1 0-1.034-.71.627.627 0 0 0 1.034.71m-4.027 8.001a.628.628 0 1 0 .71-1.036.628.628 0 0 0-.71 1.036m.916-3.467a.627.627 0 1 0-1.034-.71.627.627 0 0 0 1.034.71m-4.026 8a.627.627 0 1 0 .709-1.033.627.627 0 0 0-.709 1.033m.915-3.465a.627.627 0 1 0-1.035-.71.627.627 0 0 0 1.035.71m-3.317 6.966a.626.626 0 1 0-.709 1.033.626.626 0 0 0 .709-1.033m.207-2.433a.627.627 0 1 0-1.035-.71.627.627 0 0 0 1.035.71m14.748-17.009a.627.627 0 0 0-.154 1.109c.198.136.446.14.645.035a8 8 0 0 1-.491-1.143m-.198 4.412a.626.626 0 1 0 .709-1.033.626.626 0 0 0-.709 1.033m-3.111 4.534a.628.628 0 1 0 .71-1.036.628.628 0 0 0-.71 1.036m.916-3.466a.627.627 0 1 0-1.035-.71.627.627 0 0 0 1.035.71m-4.027 8a.628.628 0 1 0 .71-1.036.628.628 0 0 0-.71 1.035m.916-3.465a.627.627 0 1 0-1.034-.71.627.627 0 0 0 1.034.71m-4.026 8a.626.626 0 1 0 .709-1.032.626.626 0 0 0-.709 1.032m.915-3.466a.627.627 0 1 0-1.034-.71.627.627 0 0 0 1.034.71m-3.317 6.967a.626.626 0 1 0-.709 1.031.626.626 0 0 0 .709-1.031m.206-2.433a.627.627 0 1 0-1.035-.71.627.627 0 0 0 1.035.71m15.26-13.63a.627.627 0 1 0-.71 1.034.627.627 0 0 0 .71-1.034m-3.82 5.568a.627.627 0 1 0 .709-1.034.627.627 0 0 0-.709 1.034m.915-3.467a.627.627 0 1 0-1.035-.71.627.627 0 0 0 1.035.71m-4.026 8.001a.628.628 0 1 0 .71-1.036.628.628 0 0 0-.71 1.036m.916-3.467a.627.627 0 1 0-1.035-.71.627.627 0 0 0 1.035.71m-6.384 8.198a.628.628 0 1 0-.71 1.035.628.628 0 0 0 .71-1.035m2.357-.197a.627.627 0 1 0 .71-1.035.627.627 0 0 0-.71 1.035m.915-3.466a.627.627 0 1 0-1.034-.71.627.627 0 0 0 1.034.71m12.312-8.225a.627.627 0 1 0-1.034-.71.627.627 0 0 0 1.034.71m-.12-3.143a8 8 0 0 1-.846-.133.6.6 0 0 0 .138.134c.22.151.501.141.708 0m-2.991 7.676a.627.627 0 1 0-1.034-.71.627.627 0 0 0 1.034.71m.044-3.304a.627.627 0 1 0-1.034-.71.627.627 0 0 0 1.034.71m-4.026 8.001a.628.628 0 1 0 .71-1.036.628.628 0 0 0-.71 1.035m.915-3.465a.627.627 0 1 0-1.035-.71.627.627 0 0 0 1.035.71m-6.384 8.196a.627.627 0 1 0-.709 1.034.627.627 0 0 0 .709-1.034m2.358-.196a.628.628 0 1 0 .71-1.035.628.628 0 0 0-.71 1.035m.916-3.466a.627.627 0 1 0-1.035-.71.627.627 0 0 0 1.035.71m17.661-17.132a.626.626 0 0 0 .974-.441l-1.125-.444-.011.014a.627.627 0 0 0 .162.871m-2.402 3.501a.628.628 0 1 0-.71 1.036.628.628 0 0 0 .71-1.036m-3.82 5.568a.628.628 0 1 0 .71-1.036.628.628 0 0 0-.71 1.036m.916-3.466a.627.627 0 1 0-1.035-.71.627.627 0 0 0 1.035.71m-4.027 8.001a.627.627 0 1 0 .71-1.034.627.627 0 0 0-.71 1.033m.916-3.466a.627.627 0 1 0-1.034-.71.627.627 0 0 0 1.034.71m-4.026 8.001a.627.627 0 1 0 .709-1.034.627.627 0 0 0-.709 1.034m.915-3.466a.627.627 0 1 0-1.034-.71.627.627 0 0 0 1.034.71m-6.384 8.196a.627.627 0 1 0-.709 1.033.627.627 0 0 0 .709-1.033m3.229-.359a.627.627 0 1 0-1.034-.71.627.627 0 0 0 1.034.71m.044-3.303a.627.627 0 1 0-1.035-.71.627.627 0 0 0 1.035.71m17.662-17.132a.627.627 0 1 0 .709-1.033.627.627 0 0 0-.709 1.034m-3.111 4.533a.627.627 0 1 0 .709-1.033.627.627 0 0 0-.709 1.033m.915-3.465a.627.627 0 1 0-1.034-.71.627.627 0 0 0 1.034.71m-4.026 8a.628.628 0 1 0 .71-1.036.628.628 0 0 0-.71 1.035m.915-3.465a.627.627 0 1 0-1.035-.71.627.627 0 0 0 1.035.71m-4.026 8a.628.628 0 1 0 .71-1.035.628.628 0 0 0-.71 1.035m.915-3.466a.627.627 0 1 0-1.035-.71.627.627 0 0 0 1.035.71m-4.026 8a.627.627 0 1 0 .71-1.035.627.627 0 0 0-.71 1.035m.916-3.466a.627.627 0 1 0-1.034-.71.627.627 0 0 0 1.034.71m-3.155 7.839a.627.627 0 1 0-1.034-.71.627.627 0 0 0 1.034.71m.044-3.305a.627.627 0 1 0-1.034-.71.627.627 0 0 0 1.034.71m17.662-17.131a.627.627 0 1 0 .709-1.034.627.627 0 0 0-.709 1.034m-3.111 4.534a.627.627 0 1 0 .709-1.033.627.627 0 0 0-.709 1.033m.915-3.466a.627.627 0 1 0-1.034-.71.627.627 0 0 0 1.034.71m-4.026 8.001a.627.627 0 1 0 .709-1.034.627.627 0 0 0-.709 1.034m.915-3.467a.627.627 0 1 0-1.034-.709.627.627 0 0 0 1.034.71m-4.026 8a.628.628 0 1 0 .71-1.035.628.628 0 0 0-.71 1.035m.915-3.467a.627.627 0 1 0-1.034-.71.627.627 0 0 0 1.034.71m-4.025 8.001a.627.627 0 1 0 .709-1.033.627.627 0 0 0-.709 1.033m.915-3.466a.627.627 0 1 0-1.035-.71.627.627 0 0 0 1.035.71m-3.317 6.967a.628.628 0 1 0-.71 1.035.628.628 0 0 0 .71-1.035m.206-2.433a.627.627 0 1 0-1.034-.71.627.627 0 0 0 1.034.71m17.661-17.131a.628.628 0 1 0 .71-1.036.628.628 0 0 0-.71 1.036m.606-3.231-.76-.3a.6.6 0 0 0 .198.227c.171.117.38.136.562.073m-3.716 7.765a.627.627 0 1 0 .709-1.033.627.627 0 0 0-.709 1.033m.915-3.466a.627.627 0 1 0-1.035-.71.627.627 0 0 0 1.035.71m-4.027 8a.628.628 0 1 0 .71-1.035.628.628 0 0 0-.71 1.035m.916-3.466a.627.627 0 1 0-1.035-.71.627.627 0 0 0 1.035.71m-4.026 8a.627.627 0 1 0 .71-1.034.627.627 0 0 0-.71 1.035m.915-3.467a.627.627 0 1 0-1.034-.71.627.627 0 0 0 1.034.71m-6.383 8.197a.628.628 0 1 0-.71 1.035.628.628 0 0 0 .71-1.035m2.357-.196a.628.628 0 1 0 .71-1.036.628.628 0 0 0-.71 1.036m.916-3.466a.627.627 0 1 0-1.034-.71.627.627 0 0 0 1.034.71m-3.317 6.966a.628.628 0 1 0-.71 1.036.628.628 0 0 0 .71-1.036m20.771-21.665a.627.627 0 1 0 1.033.71.627.627 0 0 0-1.033-.71m-2.904 2.102a.628.628 0 1 0 .71-1.036.628.628 0 0 0-.71 1.036m.915-3.466a.62.62 0 0 0 .095-.488l-.967-.381a.627.627 0 1 0 .872.869m-4.026 8a.628.628 0 1 0 .71-1.035.628.628 0 0 0-.71 1.035m.916-3.466a.627.627 0 1 0-1.035-.71.627.627 0 0 0 1.035.71m-4.027 8a.628.628 0 1 0 .71-1.036.628.628 0 0 0-.71 1.036m.916-3.467a.627.627 0 1 0-1.035-.71.627.627 0 0 0 1.035.71m-4.026 8.001a.628.628 0 1 0 .71-1.035.628.628 0 0 0-.71 1.035m.915-3.466a.627.627 0 1 0-1.034-.71.627.627 0 0 0 1.034.71m-6.384 8.197a.626.626 0 1 0-.71 1.032.626.626 0 0 0 .71-1.032m2.358-.196a.626.626 0 1 0 .709-1.033.626.626 0 0 0-.709 1.032m.915-3.466a.627.627 0 1 0-1.034-.71.627.627 0 0 0 1.034.71m17.455-14.698a.627.627 0 1 0 1.033.709.627.627 0 0 0-1.033-.709m-2.195 1.068a.628.628 0 1 0-.71 1.035.628.628 0 0 0 .71-1.035m-3.82 5.568a.627.627 0 1 0 .709-1.034.627.627 0 0 0-.709 1.034m.915-3.467a.626.626 0 1 0-1.032-.71.626.626 0 0 0 1.032.71m-4.026 8.001a.628.628 0 1 0 .71-1.035.628.628 0 0 0-.71 1.035m.916-3.465a.627.627 0 1 0-1.035-.71.627.627 0 0 0 1.035.71m-4.027 7.999a.628.628 0 1 0 .71-1.035.628.628 0 0 0-.71 1.035m.916-3.466a.627.627 0 1 0-1.035-.71.627.627 0 0 0 1.035.71m-4.026 8.001a.628.628 0 1 0 .71-1.035.628.628 0 0 0-.71 1.035m.915-3.467a.627.627 0 1 0-1.034-.709.627.627 0 0 0 1.034.71m-3.273 3.662a.626.626 0 1 0-.709 1.032.626.626 0 0 0 .709-1.032m20.934-20.794c.243.167.56.137.77-.05l-1.037-.41c.017.18.107.35.267.46m-2.401 3.501a.628.628 0 1 0-.71 1.035.628.628 0 0 0 .71-1.036m-6.178 5.765a.626.626 0 1 0-.709 1.034.626.626 0 0 0 .709-1.033m2.358-.197a.627.627 0 1 0 .71-1.035.627.627 0 0 0-.71 1.035m.915-3.466a.627.627 0 1 0-1.034-.71.627.627 0 0 0 1.034.71m-3.317 6.966a.626.626 0 1 0-.709 1.032.626.626 0 0 0 .709-1.032m-3.82 5.568a.628.628 0 1 0 .71-1.035.628.628 0 0 0-.71 1.035m.916-3.466a.627.627 0 1 0-1.034-.71.627.627 0 0 0 1.034.71m-6.384 8.197a.628.628 0 1 0-.71 1.036.628.628 0 0 0 .71-1.036m2.357-.196a.628.628 0 1 0 .71-1.035.628.628 0 0 0-.71 1.035m.916-3.467a.627.627 0 1 0-1.035-.71.627.627 0 0 0 1.035.71m15.304-16.934a.628.628 0 1 0-.71 1.035.628.628 0 0 0 .71-1.035m2.195-1.068a.627.627 0 0 0 1.033.71.62.62 0 0 0-.025-.74l-.59-.233a.62.62 0 0 0-.418.263m-2.239 4.372a.627.627 0 1 0-.71 1.034.627.627 0 0 0 .71-1.035m-6.178 5.765a.628.628 0 1 0-.71 1.035.628.628 0 0 0 .71-1.035m2.358-.196a.627.627 0 1 0 .709-1.034.627.627 0 0 0-.709 1.034m.915-3.467a.627.627 0 1 0-1.035-.71.627.627 0 0 0 1.035.71m-3.317 6.967a.628.628 0 1 0-.71 1.036.628.628 0 0 0 .71-1.036m-3.82 5.568a.628.628 0 1 0 .71-1.035.628.628 0 0 0-.71 1.035m.916-3.466a.627.627 0 1 0-1.034-.71.627.627 0 0 0 1.034.71m-6.384 8.196a.627.627 0 1 0-.708 1.034.627.627 0 0 0 .708-1.034m3.229-.358a.628.628 0 1 0-1.035-.71.628.628 0 0 0 1.035.71m.044-3.304a.627.627 0 1 0-1.034-.71.627.627 0 0 0 1.034.71m15.303-16.934a.627.627 0 1 0-.709 1.033.627.627 0 0 0 .709-1.034m3.067-1.23a.628.628 0 1 0-.71 1.035.628.628 0 0 0 .71-1.035m-3.111 4.534a.627.627 0 1 0-.709 1.033.627.627 0 0 0 .709-1.033m-6.177 5.765a.626.626 0 1 0-.709 1.033.626.626 0 0 0 .709-1.033m2.358-.197a.627.627 0 1 0 .709-1.033.627.627 0 0 0-.709 1.033m.915-3.466a.627.627 0 1 0-1.034-.71.627.627 0 0 0 1.034.71m-6.384 8.197a.628.628 0 1 0-.71 1.035.628.628 0 0 0 .71-1.035m3.067-1.23a.628.628 0 1 0-.71 1.036.628.628 0 0 0 .71-1.036m-3.111 4.534a.628.628 0 1 0-.71 1.036.628.628 0 0 0 .71-1.036m-3.111 4.534a.627.627 0 1 0-.709 1.033.627.627 0 0 0 .709-1.033m.207-2.432a.628.628 0 1 0-1.035-.71.628.628 0 0 0 1.035.71m15.303-16.935a.627.627 0 1 0-.709 1.033.627.627 0 0 0 .709-1.033m3.067-1.23a.628.628 0 1 0-.71 1.035.628.628 0 0 0 .71-1.035m-3.11 4.534a.627.627 0 1 0-.71 1.034.627.627 0 0 0 .71-1.034m-6.178 5.764a.628.628 0 1 0-.71 1.036.628.628 0 0 0 .71-1.036m3.229-.358a.627.627 0 1 0-1.034-.71.627.627 0 0 0 1.034.71m.044-3.303a.627.627 0 1 0-1.034-.71.627.627 0 0 0 1.034.71m-6.384 8.196a.626.626 0 1 0-.709 1.032.626.626 0 0 0 .709-1.032m3.067-1.23a.628.628 0 1 0-.71 1.035.628.628 0 0 0 .71-1.035m-6.177 5.764a.628.628 0 1 0-.71 1.035.628.628 0 0 0 .71-1.035m3.066-1.23a.627.627 0 1 0-.71 1.034.627.627 0 0 0 .71-1.034m-3.111 4.534a.627.627 0 1 0-.709 1.033.627.627 0 0 0 .709-1.033m15.51-19.367a.626.626 0 1 0-.709 1.033.626.626 0 0 0 .709-1.033m3.067-1.23a.627.627 0 1 0-.71 1.035.627.627 0 0 0 .71-1.035m-.92-2.929a.626.626 0 0 0 1.126.497q.014-.022.024-.043zm-5.257 8.692a.628.628 0 1 0-.71 1.036.628.628 0 0 0 .71-1.036"/><path fill="#5474f6" d="M270.787 72.556c3.361.33 6.671-1.571 7.972-4.87a7.758 7.758 0 0 0-14.434-5.692 7.73 7.73 0 0 0 .354 6.45 7.72 7.72 0 0 0 4.016 3.613 8 8 0 0 0 1.246.366q.423.09.846.133m135.087 128.91 2.169-7.099h-22.371a5.713 5.713 0 0 1-5.706-5.707v-10.997a5.716 5.716 0 0 1 5.706-5.711h29.143l8.178-27.84c2.798-9.523 1.697-19.554-3.1-28.245a36.9 36.9 0 0 0-8.812-10.639.4.4 0 0 1-.363.23h-14.911a.408.408 0 0 1-.394-.511l12.948-49.183-9.049-2.718-14.329 52.113a.41.41 0 0 1-.393.299h-11.759a.84.84 0 0 0-.839.835v83.21c0 6.597 5.369 11.963 11.967 11.963z"/><path fill="#fff" d="m408.354 193.348.161.049 6.056-20.614h-28.899a4.885 4.885 0 0 0-4.879 4.88v10.997a4.89 4.89 0 0 0 4.879 4.88h22.624z"/><path fill="#000" d="M458.406 94.61c-10.512-19.046-27.828-32.804-48.757-38.739l-.44-.125.04-.154a.407.407 0 0 0-.277-.494l-9.825-2.951a.406.406 0 0 0-.509.282l-.082.296-26.621-7.55-67.951-19.292a64.25 64.25 0 0 0-34.945-.047 64 64 0 0 0-5.624 1.873l-.005-.002-19.315-7.617a3 3 0 0 0-.236-.085c-.057-.02-.114-.041-.167-.053a5 5 0 0 0-1.91-.22q-.196.011-.391.04-.022.002-.045.009-.182.032-.358.069a5 5 0 0 0-.379.102 4 4 0 0 0-.436.154 2 2 0 0 0-.244.106 5 5 0 0 0-1.015.611c-.028.02-.053.037-.077.061a3 3 0 0 0-.212.18 5 5 0 0 0-.546.558 5 5 0 0 0-.252.326l-.09.13a5.5 5.5 0 0 0-.521.998L217.95 71.929a2 2 0 0 0-.073.203.1.1 0 0 0-.013.033l-.008.02-1.67 4.232a5.303 5.303 0 0 0 2.982 6.872l3.063 1.205.004.002a64.8 64.8 0 0 0 1.127 15.623c1.899 9.654 6.037 18.865 11.968 26.639 6.238 8.177 14.519 14.821 23.947 19.215l4.435 2.067a33 33 0 0 0 1.649 7.241c.004.021.012.037.02.057.978 2.676 2.326 3.511 3.638 4.016a6 6 0 0 0 3.291.298l.028-.008a6 6 0 0 0 4.473-3.748c.533-1.385.093-3.592-.216-4.782l-.012-.048c-.436-1.732-.868-3.87-.546-7.414q.052-.029.106-.065.139-.075.273-.167.152-.098.293-.203l.195-.155q.099-.08.196-.167c.065-.057.126-.114.191-.175q.092-.092.18-.184.09-.093.175-.191a6 6 0 0 0 1.148-2l.021-.049a.3.3 0 0 0 .016-.057l.2-.863.028-.106c2.411-10.098 6.493-18.284 8.138-21.339.464-.868.75-1.349.754-1.357.012-.016.02-.04.028-.061a6 6 0 0 0-1.792-6.794l5.658 2.232a58 58 0 0 0-2.892 7.731l-20.79 70.514a28.11 28.11 0 0 0 10.314 30.593l36.271 26.663-20.154 67.789-23.734 12.753c-.375.199-.232.766.191.766l60.042-.045 18.142-.017h.199a1.63 1.63 0 0 0 1.626-1.637l11.808-44.23 25.269 18.578-.012.016-1.662 27.139c-.024.424.534.603.754.24l12.17-19.701.016-.021 29.013-46.959c.135-.216.212-.456.228-.696a1.62 1.62 0 0 0-.761-1.548l-47.994-34.3 6.929-23.298h18.808l-3.489 11.421a6.67 6.67 0 0 0 .494 5.115 6.7 6.7 0 0 0 1.439 1.834l-.003.008-1.254 4.11c-1.124 3.67.949 7.572 4.623 8.696 2.582.79 5.278 0 7.042-1.816a6.9 6.9 0 0 0 .713 4.468 6.92 6.92 0 0 0 4.114 3.393 6.94 6.94 0 0 0 5.303-.509 6.92 6.92 0 0 0 3.087-3.304c.127.705.367 1.397.713 2.049a6.9 6.9 0 0 0 4.114 3.389 6.9 6.9 0 0 0 2.033.305c2.981 0 5.747-1.93 6.663-4.928l9.205-30.109a.4.4 0 0 0-.028-.313.4.4 0 0 0-.24-.196l-14.394-4.345h-.005l-3.075-.933-.098-.029-.135-.04 3.369.989 14.873 4.369 14.51-49.393c6.132-20.872 3.719-42.856-6.793-61.902zm-25.648 145.747a6.12 6.12 0 0 1-3.633-2.994 6.1 6.1 0 0 1-.457-4.66c.005-.008.005-.016.009-.024v-.006l3.581-11.711a.407.407 0 1 0-.779-.238l-3.571 11.674q-.008.019-.014.04l-.672 2.208a6.1 6.1 0 0 1-2.998 3.633 6.1 6.1 0 0 1-4.684.452 6.1 6.1 0 0 1-3.633-2.993 6.12 6.12 0 0 1-.448-4.689l.672-2.207q.007-.023.009-.047l3.478-11.377a.406.406 0 1 0-.779-.238l-3.492 11.421c-.004.013-.001.026-.004.039q-.004.018-.011.034v.004c-1.026 3.194-4.439 4.99-7.657 4.008a6.16 6.16 0 0 1-4.086-7.682l1.165-3.807a6.73 6.73 0 0 0 3.799 1.18c2.875 0 5.542-1.864 6.424-4.754l1.251-4.097a.62.62 0 0 0 .395.365.627.627 0 1 0 .367-1.199.62.62 0 0 0-.532.082l1.376-4.509a.625.625 0 1 0 1.103-.573c.993.107 2.826.195 5.167-.179a.6.6 0 0 0 .189.099.625.625 0 0 0 .707-.26 23 23 0 0 0 2.788-.748.407.407 0 1 0-.26-.772c-5.177 1.742-9.205.953-9.245.945a.5.5 0 0 0-.098-.008l-.467.02a.41.41 0 0 0-.373.288l-3.148 10.308a5.905 5.905 0 0 1-7.365 3.919 5.86 5.86 0 0 1-3.485-2.87 5.86 5.86 0 0 1-.434-4.495l3.634-11.892c.01-.021.014-.045.02-.068l2.388-7.817 23.908 7.361 1.026.31 1.302.393a.61.61 0 0 0 .612.184l2.874.868a.63.63 0 0 0 .659.199l2.833.856a.62.62 0 0 0 .693.209l2.801.846a.63.63 0 0 0 .322.233.63.63 0 0 0 .402-.015l2.77.837a.62.62 0 0 0 .327.247l-1.242 4.061a.625.625 0 0 0-.366 1.197l-1.241 4.061a.626.626 0 0 0-.367 1.198l-5.83 19.068a6.163 6.163 0 0 1-7.682 4.082zm-48.799-38.891c-6.598 0-11.966-5.366-11.966-11.962v-83.211c0-.46.376-.835.839-.835h11.758a.406.406 0 0 0 .393-.299l14.329-52.113 9.049 2.719-12.948 49.183a.407.407 0 0 0 .394.511h14.911a.4.4 0 0 0 .363-.231 36.9 36.9 0 0 1 8.813 10.64c4.797 8.69 5.897 18.721 3.099 28.245l-8.178 27.839h-29.142a5.717 5.717 0 0 0-5.707 5.711v10.997a5.713 5.713 0 0 0 5.707 5.707h22.37l-2.169 7.099zm1.714-7.926a4.89 4.89 0 0 1-4.88-4.88v-10.997a4.886 4.886 0 0 1 4.88-4.88h28.898l-6.056 20.614-.16-.049-.059.192zm24.691-88.896h-14.028l1.669-6.34a36.9 36.9 0 0 1 12.359 6.34m-123.025 8.191a5.18 5.18 0 0 1-.106 3.356c-.073.119-.342.583-.753 1.353-1.658 3.083-5.78 11.347-8.216 21.534l-.024.114q-.103.416-.196.843l-.02.049c-.016.066-.041.127-.065.188a5.16 5.16 0 0 1-2.493 2.757 5.18 5.18 0 0 1-4.203.216 5.1 5.1 0 0 1-2.069-1.47l-.001-.001 15.035-32.262.024.012a5.16 5.16 0 0 1 3.088 3.311zm-15.176 46.014c-.008 0-.021.004-.029.004a5.14 5.14 0 0 1-2.822-.26c-.491-.189-1.012-.431-1.521-.883a.63.63 0 0 0 .545-.451.627.627 0 1 0-1.206-.343q-.006.024-.009.048c-.349-.479-.681-1.1-.982-1.927q-.004-.007-.008-.02a31.4 31.4 0 0 1-1.552-6.572l1.237.576 1.346-2.889a.623.623 0 0 0 .494-1.061l1.162-2.493q.199.204.419.391a.624.624 0 0 0 .315.997.626.626 0 0 0 .713-.291c.226.124.459.238.704.332.536.205 1.094.33 1.657.377a.626.626 0 0 0 1.227.151.6.6 0 0 0 .021-.182 6.2 6.2 0 0 0 1.315-.313c-.204 2.664.017 4.532.329 6.041q-.035-.016-.072-.028a.627.627 0 1 0 .298 1.015l.047.194.012.057c.174.669.295 1.296.366 1.869a.627.627 0 0 0 .071 1.238c-.012.47-.074.871-.192 1.178a5.19 5.19 0 0 1-3.886 3.246zm-49.884-75.21-2.814-1.108a4.485 4.485 0 0 1-2.521-5.812l.729-1.853c.008.052.02.11.036.162q-.007.006.004.017.043.188.098.37c.033.106.065.212.106.314q.018.061.049.122.023.067.053.135.001.006.008.012.03.074.065.146.083.174.179.347c.066.11.135.224.204.33.216.33.472.631.758.9q.144.138.301.265c.081.065.167.134.257.195q.054.042.11.078.104.071.215.138.074.049.147.085a6 6 0 0 0 .672.322l1.731.685 46.059 18.166 25.302 9.979.004.004a56 56 0 0 0-1.845 3.572l-17.363-6.847h-.004zm17.315-62.29a5 5 0 0 1 .57-.334c.07-.033.135-.065.204-.094a4.5 4.5 0 0 1 1.78-.375c.554 0 1.112.106 1.641.314l18.488 7.29h.004l59.566 23.495q.305.12.586.285h.004c.184.106.363.228.526.358.11.086.216.18.318.273.081.078.162.159.232.24q.224.246.407.518v.004q.184.275.326.57a4.47 4.47 0 0 1 .118 3.556l-.733 1.853-.318.803v.004l-.627 1.596-.012.037-5.385 13.645v.004l-4.716 11.953a.6.6 0 0 0-.161.16.6.6 0 0 0-.086.191l-.088.058a58 58 0 0 0-1.757 1.25.62.62 0 0 0-.264-.432.628.628 0 0 0-.71 1.034q.046.03.095.052a59 59 0 0 0-5.471 4.756.628.628 0 0 0-.964.085.63.63 0 0 0 .078.8 59 59 0 0 0-8.803 11.606v.004l-5.638-2.223.019-.023a.628.628 0 0 0-1.034-.71.6.6 0 0 0-.103.291l-7.931-3.127a.63.63 0 0 0-.206-.244.63.63 0 0 0-.582-.067l-2.451-.967a.627.627 0 1 0-.862-.878.63.63 0 0 0-.09.503l-7.418-2.926v-.004l-.465-.183a.623.623 0 0 0-1.046-.412l-2.52-.994a.624.624 0 0 0 .275-1.137.625.625 0 0 0-.834.916l-8.026-3.166a.625.625 0 0 0-1.124-.505q-.015.025-.028.051l-11.058-4.361a.625.625 0 1 0-1.146-.453l-7.986-3.15a.62.62 0 0 0-.643-.254l-2.492-.982a.7.7 0 0 0 .117-.125.627.627 0 0 0-1.034-.71.63.63 0 0 0-.103.432l-7.254-2.86-.622-.246a.624.624 0 0 0-.986-.392q-.122-.048-.237-.104a1 1 0 0 1-.097-.049 4.3 4.3 0 0 1-.738-.473c-.02-.016-.04-.028-.057-.048a4 4 0 0 1-.24-.208 4.2 4.2 0 0 1-.68-.845.6.6 0 0 0-.189-.309c-.033-.06-.069-.119-.096-.182l-.061-.13a1 1 0 0 1-.053-.131 1 1 0 0 1-.033-.086q-.048-.129-.09-.264a4.6 4.6 0 0 1-.195-1.3c0-.046.005-.093.006-.139a.625.625 0 1 0 .214-1.228c.03-.092.058-.184.093-.275v-.004l2.561-6.49a.628.628 0 1 0 .792-.964.63.63 0 0 0-.369-.11l2.688-6.814a.6.6 0 0 0 .126.118.628.628 0 0 0 .71-1.033.62.62 0 0 0-.434-.103l2.711-6.874a.628.628 0 1 0 .878-.862.62.62 0 0 0-.502-.09l8.428-21.366.016-.04.611-1.553.004-.008.322-.81.729-1.85c.041-.101.085-.207.13-.305q.072-.153.155-.293.167-.287.371-.542c.269-.342.59-.64.949-.892zM347.601 136.94l-15.836 53.26-4.11-3.022 15.213-51.603a2.46 2.46 0 0 1 2.583-1.755c.289.024 1.16.102 1.816 1.067s.407 1.809.334 2.053m-33.925-50.128 4.415-11.196 13.052 3.706a58.6 58.6 0 0 0-17.467 7.49"/><path fill="#fff" d="m440.44 236.275 5.83-19.069a.625.625 0 0 1 .366-1.197l1.242-4.061a.627.627 0 0 1 .366-1.198l1.241-4.061a.62.62 0 0 1-.326-.247l-2.771-.836a.62.62 0 0 1-.723-.219l-2.801-.846a.615.615 0 0 1-.694-.209l-2.832-.855a.63.63 0 0 1-.659-.199l-2.874-.868a.62.62 0 0 1-.613-.185l-1.302-.393-1.026-.31-23.907-7.361-2.388 7.817c-.007.023-.011.047-.021.068l-3.633 11.893a5.86 5.86 0 0 0 .434 4.494 5.86 5.86 0 0 0 3.485 2.871 5.906 5.906 0 0 0 7.365-3.92l3.148-10.308c.05-.166.2-.281.372-.288l.467-.02a.4.4 0 0 1 .099.008c.04.008 4.067.797 9.245-.945a.407.407 0 1 1 .259.772c-.977.329-1.911.571-2.787.748a.624.624 0 0 1-.707.26.6.6 0 0 1-.19-.099c-2.341.375-4.174.286-5.167.179.098.151.134.34.077.525a.623.623 0 0 1-1.179.048l-1.377 4.509a.624.624 0 0 1 .948.701.627.627 0 0 1-.782.417.62.62 0 0 1-.395-.365l-1.251 4.096a6.73 6.73 0 0 1-6.425 4.754 6.73 6.73 0 0 1-3.798-1.18l-1.165 3.808a6.16 6.16 0 0 0 4.085 7.682c3.218.981 6.631-.815 7.658-4.008v-.004l.011-.035c.002-.013 0-.026.003-.039l3.493-11.421a.408.408 0 0 1 .779.238l-3.479 11.377a.2.2 0 0 1-.009.047l-.672 2.208a6.12 6.12 0 0 0 .448 4.688 6.12 6.12 0 0 0 3.633 2.993 6.1 6.1 0 0 0 4.684-.452 6.1 6.1 0 0 0 2.998-3.633l.672-2.208.015-.04 3.57-11.674a.408.408 0 0 1 .779.238l-3.581 11.711v.006l-.008.024a6.1 6.1 0 0 0 .456 4.66 6.12 6.12 0 0 0 3.633 2.994c3.243.989 6.689-.839 7.682-4.082zm-17.387-24.604a.627.627 0 1 1-.368 1.2.627.627 0 0 1 .368-1.2m.166 3.581a.627.627 0 1 1 1.2.368.627.627 0 0 1-1.2-.368m7.138-8.662a.627.627 0 1 1 .366-1.2.627.627 0 0 1-.366 1.2m2.68 5.914a.627.627 0 1 1-1.2-.366.627.627 0 0 1 1.2.366m2.141-2.876a.628.628 0 1 1-.369 1.2.628.628 0 0 1 .369-1.2m.165 3.582a.628.628 0 1 1 1.2.369.628.628 0 0 1-1.2-.369m3.34-2.51a.628.628 0 1 1-.369 1.2.628.628 0 0 1 .369-1.2m.166 3.582a.628.628 0 1 1 1.2.369.628.628 0 0 1-1.2-.369m3.34-2.51a.628.628 0 1 1-.369 1.2.628.628 0 0 1 .369-1.2m-8.037 7.479a.628.628 0 1 1 .367-1.2.628.628 0 0 1-.367 1.2m-3.506-1.072a.627.627 0 1 1 .368-1.2.627.627 0 0 1-.368 1.2m-6.373.04a.623.623 0 0 1 1.118.348q-.557-.165-1.118-.348m3.569 1.002a.63.63 0 0 1 .614-.148.62.62 0 0 1 .399.375 47 47 0 0 1-1.013-.227m3.047-10.248a.627.627 0 1 1 1.2.365.627.627 0 0 1-1.2-.365m-.825 4.842a.627.627 0 1 1-.367 1.199.627.627 0 0 1 .367-1.199m2.723 1.488a.627.627 0 1 1 1.199.367.627.627 0 0 1-1.199-.367m3.506 1.072a.626.626 0 1 1 1.198.366.626.626 0 0 1-1.198-.366m1.364 3.948a.628.628 0 1 1 .369-1.2.628.628 0 0 1-.369 1.2m2.557-2.093a.628.628 0 1 1 .369-1.2.628.628 0 0 1-.369 1.2m-7.301-13.733a.627.627 0 1 1 .368-1.2.627.627 0 0 1-.368 1.2m-3.381 6.935a.627.627 0 1 1-1.2-.366.627.627 0 0 1 1.2.366m-2.973 1.311a.627.627 0 1 1-.367 1.199.627.627 0 0 1 .367-1.199m.165 3.581a.628.628 0 1 1 1.2.369.628.628 0 0 1-1.2-.369m-5.279.605c.21.064.36.229.418.424a39 39 0 0 1-.909-.369.63.63 0 0 1 .491-.055m19.35 3.567a.625.625 0 0 1 1.07-.047q-.508.028-1.07.047m2.509-1.977a.626.626 0 1 1 1.198.366.626.626 0 0 1-1.198-.366m-.533-2.383a.626.626 0 1 1 .366-1.198.626.626 0 0 1-.366 1.198m3.339-2.509a.627.627 0 1 1-1.199-.364.627.627 0 0 1 1.199.364m.41-5.625a.627.627 0 1 1 1.199.367.627.627 0 0 1-1.199-.367m-1.775 1.677a.627.627 0 1 1-.366 1.2.627.627 0 0 1 .366-1.2m-1.731-2.749a.627.627 0 1 1 1.2.368.627.627 0 0 1-1.2-.368m-1.774 1.677a.628.628 0 1 1-.369 1.2.628.628 0 0 1 .369-1.2m-1.732-2.749a.628.628 0 1 1 1.2.369.628.628 0 0 1-1.2-.369m-1.774 1.677a.627.627 0 1 1-.366 1.2.627.627 0 0 1 .366-1.2m-1.731-2.749a.627.627 0 1 1 1.2.368.627.627 0 0 1-1.2-.368m-1.774 1.677a.628.628 0 1 1-.369 1.2.628.628 0 0 1 .369-1.2m-6.845 1.438a.627.627 0 1 1 1.199.364.627.627 0 0 1-1.199-.364m-1.774 1.677a.627.627 0 1 1-.368 1.2.627.627 0 0 1 .368-1.2m-4.289-.656a.628.628 0 1 1 1.197.366.628.628 0 0 1-1.197-.366m-2.556 2.093a.626.626 0 1 1 1.198.366.626.626 0 0 1-1.198-.366m.948 3.165a.628.628 0 1 1 1.2.369.628.628 0 0 1-1.2-.369M360.529 24.26l.46.18a32 32 0 0 1 3.524 1.698c1.653.909 3.845 1.634 5.751 1.634.672 0 1.311-.09 1.877-.293 1.011-.367 1.719-1.055 2.102-2.041.489-1.25.428-2.403-.183-3.336-.884-1.352-2.916-2.191-5.576-2.301-3.866-.151-6.208-.676-7.662-1.027q-.14-.037-.269-.069l-.13-.032-.391-.098h-.008l-.065.444a15 15 0 0 0-.09 3.535q.056.644.171 1.312l.041.228h.004l.216.081q.111.043.228.086"/><path fill="#5474f6" d="m352.664 10.2 9.572 2.713.395.11.424.122 23.44 6.64 3.271.924 3.576 1.01.404.118.509.143q-.007-.287-.021-.567-.013-.212-.032-.42c-.008-.138-.025-.276-.041-.415a15 15 0 0 0-.285-1.718 14 14 0 0 0-.281-1.051 6 6 0 0 0-.126-.4 8 8 0 0 0-.135-.403 16.7 16.7 0 0 0-2.33-4.305c-2.729-3.654-6.777-6.106-11.392-6.9-4.595-.798-9.218.139-13.006 2.64l-.134.089-.041-.008-12.871-2.248a2.006 2.006 0 0 0-2.285 1.441 2 2 0 0 0-.077.55c0 .892.603 1.687 1.466 1.935"/><path fill="#000" d="m352.44 10.982 9.36 2.652a15.3 15.3 0 0 0-1.479 3.605q-.013.047-.02.09l-.02.08c-.102.392-.188.779-.249 1.158v.008l.391.098.131.032q.128.031.268.07c1.455.35 3.797.875 7.662 1.026 2.66.11 4.692.949 5.576 2.301.611.933.672 2.085.183 3.336-.382.986-1.091 1.674-2.101 2.04-.566.204-1.206.294-1.878.294-1.906 0-4.098-.725-5.751-1.633a32 32 0 0 0-3.524-1.699 30 30 0 0 0-.46-.18q-.117-.042-.228-.085l-.216-.081c1.291 6.781 6.945 12.146 14.126 13.396q1.571.27 3.112.27c6.928 0 13.131-4 15.649-10.037l13.217 8.35a.8.8 0 0 0 .648.098.8.8 0 0 0 .509-.408l2.936-5.633a.8.8 0 0 0 .037-.668.8.8 0 0 0-.472-.472l-15.743-5.927a3 3 0 0 0 .016-.28 1 1 0 0 0 .131.011.81.81 0 0 0 .818-.827c-.004-.142-.008-.284-.02-.423l16.182 2.558a1 1 0 0 0 .127.012.815.815 0 0 0 .814-.758l.469-6.333a.815.815 0 0 0-.852-.872l-17.608.819a17.3 17.3 0 0 0-2.525-4.757c-2.855-3.821-7.083-6.383-11.906-7.214-4.745-.827-9.519.122-13.457 2.672l-12.594-2.2a3 3 0 0 0-.493-.04 2.814 2.814 0 0 0-2.717 2.065 3 3 0 0 0-.106.77c0 1.254.847 2.37 2.057 2.716m-1.165-3.266a2.006 2.006 0 0 1 2.285-1.442l12.871 2.248.041.008.134-.09c3.788-2.5 8.411-3.437 13.006-2.639 4.615.795 8.663 3.247 11.392 6.9a16.6 16.6 0 0 1 2.33 4.306q.073.2.135.403c.048.134.089.264.126.399.11.346.199.697.281 1.05.126.567.224 1.141.285 1.72.016.138.033.277.041.415q.019.207.032.42.013.28.021.566l-.509-.143-.404-.118-3.576-1.01-3.271-.925-23.44-6.639-.424-.122-.395-.11-9.572-2.713a2.03 2.03 0 0 1-1.466-1.934q-.001-.276.077-.55"/></g><defs><clipPath id="a"><path fill="#fff" d="M0 0h413.333v328.88H0z"/></clipPath></defs></svg>