<svg width="126" height="28" viewBox="0 0 126 28" fill="none" xmlns="http://www.w3.org/2000/svg">
<g clip-path="url(#clip0_11343_553)">
<path d="M111.423 24.2827C117.192 24.2827 121.818 19.6801 121.818 13.9869C121.818 8.29467 117.192 3.73041 111.423 3.73041C105.653 3.73041 101.028 8.33296 101.028 13.9869C101.041 19.6288 105.706 24.2827 111.423 24.2827ZM97.2598 0H125.638V28H97.2598V0Z" fill="white"/>
<path d="M60.5383 18.2309V28H32.1602V0H60.5253V14.3847H35.9279C36.1361 19.8715 40.7228 24.2827 46.3236 24.2827C50.5461 24.2827 54.1588 21.7951 55.8219 18.2309H60.5383ZM36.3827 10.9363H56.1991C54.7434 6.16661 50.8449 3.73041 46.3366 3.73041C41.8275 3.73041 37.6302 6.33376 36.3827 10.9363Z" fill="white"/>
<path d="M28.3782 0H0V28H28.3782V18.2309H23.6748C22.051 21.7951 18.399 24.2827 14.2157 24.2827C8.44594 24.2827 3.78083 19.6409 3.78083 13.9869C3.78083 8.33296 8.44594 3.73041 14.2157 3.73041C18.4774 3.73041 22.1285 6.29454 23.7532 9.93624H28.3782V0ZM93.7383 18.2309H89.034C87.6174 21.9109 83.7974 24.2434 79.4572 24.2434C73.8574 24.2434 69.14 20.2441 69.14 13.9869V0H64.346V28H93.7383V18.2309Z" fill="white"/>
</g>
<defs>
<clipPath id="clip0_11343_553">
<rect width="125.638" height="28" fill="white"/>
</clipPath>
</defs>
</svg>
