<svg width="122" height="44" viewBox="0 0 122 44" fill="none" xmlns="http://www.w3.org/2000/svg">
<g clip-path="url(#clip0_11343_563)">
<path d="M43.4563 31.1621L22.0174 44.0003L-0.00195312 31.1621L15.5838 21.8164L22.0174 31.1621V18.1885L43.4563 31.1621Z" fill="#1F1F1F"/>
<path d="M31.4831 18.3823C31.4831 14.9381 29.6352 11.9293 26.878 10.275L28.4259 0.0102539H15.6167L17.1647 10.275C14.4074 11.9293 12.5596 14.9381 12.5596 18.3823H19.7768L20.367 29.5951C20.4153 30.4755 21.1409 31.1624 22.0213 31.1624C22.9017 31.1624 23.6273 30.4755 23.6757 29.5951L24.2658 18.3823H31.4831Z" fill="#1F1F1F"/>
<path d="M67.0667 22.4157C66.6507 23.1606 66.0122 23.7701 65.1511 24.2248C64.2901 24.6892 63.2259 24.9117 61.9488 24.9117H59.5882V30.523H55.7861V14.9082H61.9488C63.1969 14.9082 64.2514 15.121 65.1124 15.5564C65.9735 15.9821 66.6217 16.5819 67.0473 17.3365C67.473 18.0911 67.6955 18.9619 67.6955 19.939C67.6955 20.8484 67.4827 21.6707 67.0764 22.4157H67.0667ZM63.2839 21.3805C63.6419 21.0419 63.816 20.5582 63.816 19.9293C63.816 19.3005 63.6419 18.8264 63.2839 18.4878C62.926 18.1492 62.3842 17.975 61.6586 17.975H59.5882V21.8933H61.6586C62.3842 21.8933 62.926 21.7191 63.2839 21.3805Z" fill="#1F1F1F"/>
<path d="M68.6131 16.2343C68.1874 15.8377 67.9746 15.354 67.9746 14.7735C67.9746 14.193 68.1874 13.6899 68.6131 13.2933C69.0388 12.8966 69.5806 12.7031 70.2481 12.7031C70.9157 12.7031 71.4381 12.8966 71.8638 13.2933C72.2895 13.6899 72.5023 14.1833 72.5023 14.7735C72.5023 15.3636 72.2895 15.8377 71.8638 16.2343C71.4381 16.631 70.906 16.8245 70.2481 16.8245C69.5903 16.8245 69.0388 16.631 68.6131 16.2343ZM72.1444 18.1112V30.5237H68.3422V18.1112H72.1444Z" fill="#1F1F1F"/>
<path d="M84.6139 19.3876C85.4846 20.326 85.92 21.6224 85.92 23.2671V30.523H82.1372V23.7798C82.1372 22.9478 81.9244 22.2996 81.489 21.8449C81.0536 21.3806 80.4828 21.158 79.7573 21.158C79.0317 21.158 78.4512 21.3902 78.0255 21.8449C77.5901 22.3093 77.3773 22.9478 77.3773 23.7798V30.523H73.5752V18.1105H77.3773V19.7552C77.7643 19.2038 78.277 18.7684 78.9349 18.4492C79.5831 18.1299 80.3184 17.9751 81.1407 17.9751C82.5919 17.9751 83.7529 18.4492 84.6236 19.3876H84.6139Z" fill="#1F1F1F"/>
<path d="M108.299 14.9082V30.5327H104.497V21.1677L101.005 30.5327H97.938L94.4261 21.1386V30.5327H90.624V14.9082H95.1227L99.5053 25.7244L103.849 14.9082H108.319H108.299Z" fill="#1F1F1F"/>
<path d="M121.336 25.2311H112.726C112.784 26.005 113.035 26.5952 113.471 27.0015C113.906 27.4078 114.448 27.611 115.086 27.611C116.034 27.611 116.692 27.2144 117.07 26.4114H121.123C120.92 27.224 120.543 27.9593 120.001 28.6172C119.459 29.275 118.782 29.7781 117.969 30.1554C117.157 30.5231 116.238 30.7069 115.231 30.7069C114.012 30.7069 112.929 30.4457 111.981 29.9329C111.033 29.4105 110.288 28.6752 109.756 27.7078C109.224 26.7403 108.953 25.618 108.953 24.3217C108.953 23.0253 109.214 21.903 109.746 20.9356C110.268 19.9681 111.013 19.2328 111.961 18.7104C112.91 18.188 114.003 17.9268 115.231 17.9268C116.46 17.9268 117.505 18.1783 118.434 18.6814C119.372 19.1845 120.098 19.9004 120.62 20.8388C121.143 21.7772 121.413 22.8608 121.413 24.1088C121.413 24.4668 121.394 24.8344 121.346 25.2214L121.336 25.2311ZM117.515 23.1123C117.515 22.4641 117.292 21.9417 116.847 21.5547C116.402 21.1677 115.851 20.9743 115.183 20.9743C114.516 20.9743 114.003 21.1581 113.567 21.5354C113.132 21.9127 112.861 22.4351 112.755 23.1123H117.515Z" fill="#1F1F1F"/>
</g>
<defs>
<clipPath id="clip0_11343_563">
<rect width="121.406" height="44" fill="white"/>
</clipPath>
</defs>
</svg>
