<svg width="19" height="19" viewBox="0 0 19 19" fill="none" xmlns="http://www.w3.org/2000/svg">
<path d="M9.17778 18.3556C14.2465 18.3556 18.3556 14.2465 18.3556 9.17778C18.3556 4.10903 14.2465 0 9.17778 0C4.10903 0 0 4.10903 0 9.17778C0 14.2465 4.10903 18.3556 9.17778 18.3556Z" fill="#627EEA"/>
<path d="M9.46289 2.29395V7.38188L13.7633 9.30347L9.46289 2.29395Z" fill="white"/>
<path d="M9.46305 2.29395L5.16211 9.30347L9.46305 7.38188V2.29395Z" fill="white"/>
<path d="M9.46289 12.5999V16.057L13.7661 10.1035L9.46289 12.5999Z" fill="white"/>
<path d="M9.46305 16.057V12.5993L5.16211 10.1035L9.46305 16.057Z" fill="white"/>
<path d="M9.46289 11.8002L13.7633 9.30326L9.46289 7.38281V11.8002Z" fill="white"/>
<path d="M5.16211 9.30326L9.46305 11.8002V7.38281L5.16211 9.30326Z" fill="white"/>
</svg>
