<svg width="414" height="329" viewBox="0 0 414 329" fill="none" xmlns="http://www.w3.org/2000/svg">
<g clip-path="url(#clip0_10920_7613)">
<path d="M251.142 219.724C263.378 215.767 275.569 209.744 286.145 200.68C286.19 200.648 286.232 200.612 286.271 200.573C292.339 195.27 293.178 190.868 293.178 186.899C293.178 183.711 292.293 180.607 290.618 177.92C290.607 177.902 290.595 177.884 290.581 177.865C287.443 172.86 282.055 169.875 276.155 169.875C271.967 169.875 266.582 173.285 263.745 175.317L263.626 175.402C259.448 178.344 254.172 181.708 244.329 184.496C244.197 184.384 244.054 184.287 243.919 184.18C243.726 184.027 243.534 183.874 243.336 183.731C243.121 183.575 242.899 183.43 242.678 183.285C242.476 183.153 242.277 183.019 242.07 182.896C241.839 182.758 241.602 182.633 241.365 182.507C241.157 182.396 240.951 182.282 240.74 182.18C240.492 182.061 240.239 181.957 239.987 181.85C239.776 181.761 239.568 181.667 239.354 181.587C239.088 181.487 238.816 181.404 238.545 181.318C238.337 181.252 238.131 181.178 237.92 181.12C237.63 181.04 237.336 180.979 237.041 180.914C236.842 180.87 236.646 180.818 236.446 180.781C236.115 180.721 235.779 180.682 235.444 180.642C235.276 180.622 235.11 180.591 234.941 180.575C234.434 180.529 233.924 180.504 233.411 180.504C233.15 180.504 232.9 180.506 232.744 180.525H232.595C232.546 180.525 232.498 180.529 232.449 180.536C231.545 180.669 230.64 180.793 229.745 180.917L229.636 180.932C200.282 184.854 174.297 182.384 164.487 181.14C161.691 180.789 160.118 180.522 160.102 180.52C160.046 180.51 159.991 180.505 159.934 180.505C156.154 180.505 152.439 181.79 149.473 184.123C145.36 187.354 143 192.204 143 197.429V213.293C143 213.478 143.051 213.654 143.143 213.807V329.163H251.143V219.725L251.142 219.724ZM159.851 182.504C160.22 182.566 161.73 182.809 164.236 183.123C174.124 184.376 200.314 186.865 229.905 182.912L230.018 182.896C230.899 182.775 231.788 182.653 232.677 182.522L232.837 182.52C232.997 182.504 233.159 182.503 233.325 182.503C237.077 182.462 240.638 183.85 243.409 186.347C246.545 189.174 248.344 193.212 248.344 197.427C248.344 204.438 243.378 210.576 236.537 212.024C236.505 212.031 236.473 212.04 236.441 212.049C236.428 212.052 236.417 212.054 236.405 212.057C235.678 212.221 229.004 213.688 218.369 214.729C217.819 214.783 217.418 215.272 217.472 215.822C217.523 216.339 217.957 216.724 218.466 216.724C218.498 216.724 218.531 216.722 218.565 216.719C223.693 216.217 227.911 215.616 231.009 215.106C231.287 215.393 231.676 215.572 232.107 215.572C232.726 215.572 233.255 215.203 233.497 214.675C235.301 214.346 236.435 214.1 236.791 214.02C236.836 214.014 236.874 214.005 236.903 213.999V213.997C236.939 213.989 236.975 213.979 237.01 213.969C244.74 212.305 250.344 205.358 250.344 197.428C250.344 193.803 249.166 190.296 247.049 187.413C247.062 187.333 247.074 187.253 247.074 187.17C247.074 186.671 246.831 186.232 246.462 185.952C248.398 185.364 250.148 184.753 251.75 184.129C251.91 184.186 252.08 184.223 252.26 184.223C252.864 184.223 253.382 183.87 253.631 183.361C258.539 181.263 261.914 179.055 264.779 177.037L264.911 176.943C269.406 173.722 273.505 171.875 276.156 171.875C277.259 171.875 278.34 172 279.388 172.229C279.304 172.215 279.219 172.203 279.131 172.203C278.285 172.203 277.6 172.889 277.6 173.735C277.6 174.581 278.286 175.267 279.131 175.267C279.976 175.267 280.663 174.581 280.663 173.735C280.663 173.023 280.175 172.43 279.517 172.258C283.376 173.135 286.755 175.503 288.913 178.967C288.924 178.985 288.935 179.003 288.949 179.021C290.408 181.38 291.179 184.103 291.179 186.899C291.179 189.678 290.816 192.923 287.148 196.93C287.293 196.696 287.38 196.423 287.38 196.127C287.38 195.281 286.694 194.595 285.848 194.595C285.002 194.595 284.317 195.281 284.317 196.127C284.317 196.973 285.003 197.658 285.848 197.658C286.186 197.658 286.495 197.545 286.748 197.36C286.204 197.926 285.598 198.506 284.913 199.102C284.898 199.115 284.884 199.127 284.87 199.141C277.397 205.562 269.078 210.42 260.503 214.093C260.503 214.075 260.508 214.058 260.508 214.04C260.508 213.194 259.822 212.509 258.976 212.509C258.13 212.509 257.445 213.195 257.445 214.04C257.445 214.481 257.634 214.876 257.933 215.156C256.217 215.841 254.495 216.485 252.767 217.08C252.607 217.023 252.438 216.987 252.259 216.987C251.723 216.987 251.254 217.262 250.98 217.678C245.064 219.615 239.132 221.058 233.359 222.12C233.082 221.724 232.625 221.464 232.106 221.464C231.399 221.464 230.811 221.945 230.634 222.596C226.928 223.209 223.304 223.671 219.811 224.01C220.052 223.739 220.203 223.387 220.203 222.996C220.203 222.15 219.517 221.464 218.671 221.464C217.825 221.464 217.139 222.15 217.139 222.996C217.139 223.488 217.375 223.921 217.736 224.201C209.664 224.885 202.368 224.933 196.502 224.741C168.387 223.805 148.431 214.401 145 212.679V197.671L144.953 197.66C144.972 197.583 145 197.509 145 197.426C145 192.82 147.081 188.543 150.709 185.693C153.341 183.623 156.5 182.52 159.852 182.503L159.851 182.504Z" fill="black"/>
<path d="M145 197.426C145 197.509 144.972 197.583 144.953 197.66L145 197.671V212.679C148.431 214.401 168.387 223.805 196.502 224.741C202.368 224.933 209.664 224.885 217.736 224.201C217.376 223.921 217.139 223.488 217.139 222.996C217.139 222.15 217.825 221.464 218.671 221.464C219.517 221.464 220.203 222.15 220.203 222.996C220.203 223.387 220.052 223.739 219.811 224.01C223.305 223.671 226.928 223.209 230.634 222.596C230.811 221.946 231.4 221.464 232.106 221.464C232.625 221.464 233.083 221.724 233.359 222.12C239.131 221.058 245.064 219.614 250.98 217.678C251.254 217.262 251.724 216.987 252.259 216.987C252.438 216.987 252.607 217.023 252.767 217.08C254.495 216.485 256.217 215.84 257.933 215.156C257.634 214.876 257.445 214.482 257.445 214.04C257.445 213.194 258.131 212.509 258.976 212.509C259.821 212.509 260.508 213.195 260.508 214.04C260.508 214.058 260.504 214.075 260.503 214.093C269.078 210.419 277.397 205.562 284.87 199.141C284.884 199.127 284.898 199.115 284.913 199.102C285.598 198.505 286.204 197.926 286.748 197.36C286.495 197.545 286.186 197.658 285.848 197.658C285.002 197.658 284.317 196.972 284.317 196.127C284.317 195.282 285.003 194.595 285.848 194.595C286.693 194.595 287.38 195.281 287.38 196.127C287.38 196.422 287.293 196.696 287.148 196.93C290.815 192.923 291.179 189.678 291.179 186.899C291.179 184.103 290.408 181.38 288.949 179.021C288.935 179.003 288.924 178.985 288.913 178.967C286.756 175.503 283.377 173.135 279.517 172.258C280.175 172.43 280.663 173.023 280.663 173.735C280.663 174.581 279.977 175.267 279.131 175.267C278.285 175.267 277.6 174.581 277.6 173.735C277.6 172.889 278.286 172.203 279.131 172.203C279.219 172.203 279.304 172.215 279.388 172.229C278.34 172 277.259 171.875 276.156 171.875C273.505 171.875 269.406 173.723 264.911 176.943L264.779 177.037C261.914 179.055 258.539 181.263 253.631 183.361C253.382 183.87 252.864 184.223 252.26 184.223C252.08 184.223 251.91 184.186 251.75 184.129C250.148 184.753 248.398 185.363 246.462 185.952C246.831 186.232 247.074 186.671 247.074 187.17C247.074 187.253 247.062 187.333 247.049 187.413C249.167 190.296 250.344 193.803 250.344 197.428C250.344 205.358 244.74 212.305 237.01 213.969C236.975 213.98 236.939 213.99 236.903 213.997V213.999C236.874 214.006 236.836 214.015 236.791 214.02C236.436 214.1 235.301 214.346 233.497 214.675C233.255 215.203 232.726 215.572 232.107 215.572C231.676 215.572 231.288 215.393 231.009 215.106C227.911 215.616 223.694 216.217 218.565 216.719C218.532 216.722 218.499 216.724 218.466 216.724C217.957 216.724 217.523 216.338 217.472 215.822C217.418 215.272 217.82 214.783 218.369 214.729C229.004 213.688 235.679 212.221 236.405 212.057C236.417 212.054 236.428 212.052 236.441 212.049C236.472 212.039 236.504 212.03 236.537 212.024C243.378 210.577 248.344 204.438 248.344 197.427C248.344 193.212 246.545 189.174 243.409 186.347C240.638 183.85 237.077 182.462 233.325 182.503C233.159 182.503 232.997 182.503 232.837 182.52L232.677 182.522C231.787 182.653 230.899 182.775 230.018 182.896L229.905 182.912C200.314 186.865 174.124 184.376 164.236 183.123C161.73 182.809 160.22 182.565 159.851 182.504C156.499 182.522 153.34 183.624 150.708 185.694C147.08 188.545 144.999 192.821 144.999 197.427L145 197.426ZM238.825 220.05C237.979 220.05 237.293 219.364 237.293 218.518C237.293 217.672 237.979 216.987 238.825 216.987C239.671 216.987 240.357 217.673 240.357 218.518C240.357 219.363 239.671 220.05 238.825 220.05ZM250.729 209.561C250.729 208.715 251.415 208.03 252.261 208.03C253.107 208.03 253.792 208.716 253.792 209.561C253.792 210.406 253.106 211.093 252.261 211.093C251.416 211.093 250.729 210.407 250.729 209.561ZM264.164 182.69C264.164 181.844 264.85 181.158 265.695 181.158C266.54 181.158 267.227 181.844 267.227 182.69C267.227 183.536 266.541 184.221 265.695 184.221C264.849 184.221 264.164 183.535 264.164 182.69ZM270.882 187.169C270.882 186.323 271.568 185.637 272.413 185.637C273.258 185.637 273.945 186.323 273.945 187.169C273.945 188.015 273.259 188.7 272.413 188.7C271.567 188.7 270.882 188.014 270.882 187.169ZM280.663 191.647C280.663 192.493 279.977 193.178 279.131 193.178C278.285 193.178 277.6 192.492 277.6 191.647C277.6 190.802 278.286 190.115 279.131 190.115C279.976 190.115 280.663 190.801 280.663 191.647ZM279.131 184.222C278.285 184.222 277.6 183.536 277.6 182.691C277.6 181.846 278.286 181.159 279.131 181.159C279.976 181.159 280.663 181.845 280.663 182.691C280.663 183.537 279.977 184.222 279.131 184.222ZM265.696 190.115C266.542 190.115 267.228 190.801 267.228 191.647C267.228 192.493 266.542 193.178 265.696 193.178C264.85 193.178 264.165 192.492 264.165 191.647C264.165 190.802 264.851 190.115 265.696 190.115ZM265.696 199.072C266.542 199.072 267.228 199.758 267.228 200.603C267.228 201.448 266.542 202.135 265.696 202.135C264.85 202.135 264.165 201.449 264.165 200.603C264.165 199.757 264.851 199.072 265.696 199.072ZM265.696 211.093C264.85 211.093 264.165 210.407 264.165 209.561C264.165 208.715 264.851 208.03 265.696 208.03C266.541 208.03 267.228 208.716 267.228 209.561C267.228 210.406 266.542 211.093 265.696 211.093ZM272.414 206.614C271.568 206.614 270.883 205.928 270.883 205.082C270.883 204.236 271.569 203.551 272.414 203.551C273.259 203.551 273.946 204.237 273.946 205.082C273.946 205.927 273.26 206.614 272.414 206.614ZM279.131 202.136C278.285 202.136 277.6 201.45 277.6 200.604C277.6 199.758 278.286 199.073 279.131 199.073C279.976 199.073 280.663 199.759 280.663 200.604C280.663 201.449 279.977 202.136 279.131 202.136ZM272.414 197.657C271.568 197.657 270.883 196.971 270.883 196.126C270.883 195.281 271.569 194.594 272.414 194.594C273.259 194.594 273.946 195.28 273.946 196.126C273.946 196.972 273.26 197.657 272.414 197.657ZM285.849 188.7C285.003 188.7 284.318 188.014 284.318 187.169C284.318 186.324 285.004 185.637 285.849 185.637C286.694 185.637 287.381 186.323 287.381 187.169C287.381 188.015 286.695 188.7 285.849 188.7ZM285.849 176.68C286.695 176.68 287.381 177.366 287.381 178.212C287.381 179.058 286.695 179.743 285.849 179.743C285.003 179.743 284.318 179.057 284.318 178.212C284.318 177.367 285.004 176.68 285.849 176.68ZM270.882 178.212C270.882 177.366 271.568 176.68 272.413 176.68C273.258 176.68 273.945 177.366 273.945 178.212C273.945 179.058 273.259 179.743 272.413 179.743C271.567 179.743 270.882 179.057 270.882 178.212ZM257.447 187.169C257.447 186.323 258.133 185.637 258.978 185.637C259.823 185.637 260.51 186.323 260.51 187.169C260.51 188.015 259.824 188.7 258.978 188.7C258.132 188.7 257.447 188.014 257.447 187.169ZM253.792 191.647C253.792 192.493 253.106 193.178 252.261 193.178C251.416 193.178 250.729 192.492 250.729 191.647C250.729 190.802 251.415 190.115 252.261 190.115C253.107 190.115 253.792 190.801 253.792 191.647ZM257.447 196.126C257.447 195.28 258.133 194.594 258.978 194.594C259.823 194.594 260.51 195.28 260.51 196.126C260.51 196.972 259.824 197.657 258.978 197.657C258.132 197.657 257.447 196.971 257.447 196.126ZM253.792 200.604C253.792 201.45 253.106 202.136 252.261 202.136C251.416 202.136 250.729 201.45 250.729 200.604C250.729 199.758 251.415 199.073 252.261 199.073C253.107 199.073 253.792 199.759 253.792 200.604ZM257.447 205.082C257.447 204.236 258.133 203.551 258.978 203.551C259.823 203.551 260.51 204.237 260.51 205.082C260.51 205.927 259.824 206.614 258.978 206.614C258.132 206.614 257.447 205.928 257.447 205.082ZM244.011 214.039C244.011 213.193 244.697 212.508 245.543 212.508C246.389 212.508 247.075 213.194 247.075 214.039C247.075 214.884 246.389 215.571 245.543 215.571C244.697 215.571 244.011 214.885 244.011 214.039ZM225.39 216.987C226.236 216.987 226.922 217.673 226.922 218.518C226.922 219.363 226.236 220.05 225.39 220.05C224.544 220.05 223.858 219.364 223.858 218.518C223.858 217.672 224.544 216.987 225.39 216.987Z" fill="white"/>
<path d="M225.391 220.051C226.237 220.051 226.923 219.365 226.923 218.519C226.923 217.673 226.237 216.988 225.391 216.988C224.545 216.988 223.859 217.674 223.859 218.519C223.859 219.364 224.545 220.051 225.391 220.051Z" fill="black"/>
<path d="M245.54 215.573C246.386 215.573 247.072 214.887 247.072 214.041C247.072 213.195 246.386 212.51 245.54 212.51C244.694 212.51 244.008 213.196 244.008 214.041C244.008 214.886 244.694 215.573 245.54 215.573Z" fill="black"/>
<path d="M238.825 216.988C237.979 216.988 237.293 217.674 237.293 218.519C237.293 219.364 237.979 220.051 238.825 220.051C239.671 220.051 240.357 219.365 240.357 218.519C240.357 217.673 239.671 216.988 238.825 216.988Z" fill="black"/>
<path d="M258.976 206.616C259.822 206.616 260.508 205.93 260.508 205.084C260.508 204.238 259.822 203.553 258.976 203.553C258.13 203.553 257.445 204.239 257.445 205.084C257.445 205.929 258.131 206.616 258.976 206.616Z" fill="black"/>
<path d="M252.259 211.094C253.105 211.094 253.79 210.408 253.79 209.562C253.79 208.716 253.104 208.031 252.259 208.031C251.414 208.031 250.727 208.717 250.727 209.562C250.727 210.407 251.413 211.094 252.259 211.094Z" fill="black"/>
<path d="M265.695 208.031C264.849 208.031 264.164 208.717 264.164 209.562C264.164 210.407 264.85 211.094 265.695 211.094C266.54 211.094 267.227 210.408 267.227 209.562C267.227 208.716 266.541 208.031 265.695 208.031Z" fill="black"/>
<path d="M258.976 197.659C259.822 197.659 260.508 196.973 260.508 196.128C260.508 195.283 259.822 194.596 258.976 194.596C258.13 194.596 257.445 195.282 257.445 196.128C257.445 196.974 258.131 197.659 258.976 197.659Z" fill="black"/>
<path d="M250.727 200.605C250.727 201.451 251.413 202.137 252.259 202.137C253.105 202.137 253.79 201.451 253.79 200.605C253.79 199.759 253.104 199.074 252.259 199.074C251.414 199.074 250.727 199.76 250.727 200.605Z" fill="black"/>
<path d="M265.695 202.137C266.541 202.137 267.227 201.451 267.227 200.605C267.227 199.759 266.541 199.074 265.695 199.074C264.849 199.074 264.164 199.76 264.164 200.605C264.164 201.45 264.85 202.137 265.695 202.137Z" fill="black"/>
<path d="M279.129 199.074C278.283 199.074 277.598 199.76 277.598 200.605C277.598 201.45 278.284 202.137 279.129 202.137C279.974 202.137 280.661 201.451 280.661 200.605C280.661 199.759 279.975 199.074 279.129 199.074Z" fill="black"/>
<path d="M272.414 203.553C271.568 203.553 270.883 204.239 270.883 205.084C270.883 205.929 271.569 206.616 272.414 206.616C273.259 206.616 273.946 205.93 273.946 205.084C273.946 204.238 273.26 203.553 272.414 203.553Z" fill="black"/>
<path d="M258.976 188.702C259.822 188.702 260.508 188.016 260.508 187.171C260.508 186.326 259.822 185.639 258.976 185.639C258.13 185.639 257.445 186.325 257.445 187.171C257.445 188.017 258.131 188.702 258.976 188.702Z" fill="black"/>
<path d="M250.727 191.649C250.727 192.495 251.413 193.18 252.259 193.18C253.105 193.18 253.79 192.494 253.79 191.649C253.79 190.804 253.104 190.117 252.259 190.117C251.414 190.117 250.727 190.803 250.727 191.649Z" fill="black"/>
<path d="M272.414 188.702C273.26 188.702 273.946 188.016 273.946 187.171C273.946 186.326 273.26 185.639 272.414 185.639C271.568 185.639 270.883 186.325 270.883 187.171C270.883 188.017 271.569 188.702 272.414 188.702Z" fill="black"/>
<path d="M265.695 193.18C266.541 193.18 267.227 192.494 267.227 191.649C267.227 190.804 266.541 190.117 265.695 190.117C264.849 190.117 264.164 190.803 264.164 191.649C264.164 192.495 264.85 193.18 265.695 193.18Z" fill="black"/>
<path d="M277.598 191.649C277.598 192.495 278.284 193.18 279.129 193.18C279.974 193.18 280.661 192.494 280.661 191.649C280.661 190.804 279.975 190.117 279.129 190.117C278.283 190.117 277.598 190.803 277.598 191.649Z" fill="black"/>
<path d="M272.414 194.596C271.568 194.596 270.883 195.282 270.883 196.128C270.883 196.974 271.569 197.659 272.414 197.659C273.259 197.659 273.946 196.973 273.946 196.128C273.946 195.283 273.26 194.596 272.414 194.596Z" fill="black"/>
<path d="M272.414 179.745C273.26 179.745 273.946 179.059 273.946 178.214C273.946 177.369 273.26 176.682 272.414 176.682C271.568 176.682 270.883 177.368 270.883 178.214C270.883 179.06 271.569 179.745 272.414 179.745Z" fill="black"/>
<path d="M267.227 182.692C267.227 181.846 266.541 181.16 265.695 181.16C264.849 181.16 264.164 181.846 264.164 182.692C264.164 183.538 264.85 184.223 265.695 184.223C266.54 184.223 267.227 183.537 267.227 182.692Z" fill="black"/>
<path d="M285.847 179.745C286.693 179.745 287.379 179.059 287.379 178.214C287.379 177.369 286.693 176.682 285.847 176.682C285.001 176.682 284.316 177.368 284.316 178.214C284.316 179.06 285.002 179.745 285.847 179.745Z" fill="black"/>
<path d="M279.129 181.16C278.283 181.16 277.598 181.846 277.598 182.692C277.598 183.538 278.284 184.223 279.129 184.223C279.974 184.223 280.661 183.537 280.661 182.692C280.661 181.847 279.975 181.16 279.129 181.16Z" fill="black"/>
<path d="M285.847 185.639C285.001 185.639 284.316 186.325 284.316 187.171C284.316 188.017 285.002 188.702 285.847 188.702C286.692 188.702 287.379 188.016 287.379 187.171C287.379 186.326 286.693 185.639 285.847 185.639Z" fill="black"/>
<path d="M146.652 86.8304C146.652 122.011 175.274 150.633 210.455 150.633C245.636 150.633 274.258 122.011 274.258 86.8304C274.258 51.6494 245.636 23.0273 210.455 23.0273C175.274 23.0273 146.652 51.6494 146.652 86.8304ZM210.455 37.1803C237.832 37.1803 260.104 59.4523 260.104 86.8293C260.104 114.206 237.832 136.478 210.455 136.478C183.078 136.478 160.806 114.206 160.806 86.8293C160.806 59.4523 183.078 37.1803 210.455 37.1803Z" fill="#5474F6"/>
<path d="M210.455 152.633C211.72 152.633 212.974 152.589 214.221 152.518C215.469 152.589 216.722 152.633 217.987 152.633C254.271 152.633 283.79 123.114 283.79 86.8304C283.79 50.5464 254.271 21.0273 217.987 21.0273C216.722 21.0273 215.468 21.0713 214.221 21.1423C212.973 21.0713 211.72 21.0273 210.455 21.0273C174.171 21.0273 144.652 50.5464 144.652 86.8304C144.652 123.114 174.171 152.633 210.455 152.633ZM210.455 23.0273C245.636 23.0273 274.258 51.6494 274.258 86.8304C274.258 122.011 245.636 150.633 210.455 150.633C175.274 150.633 146.652 122.011 146.652 86.8304C146.652 51.6494 175.274 23.0273 210.455 23.0273Z" fill="black"/>
<path d="M205.918 39.4017C205.946 39.5177 205.965 39.6377 205.965 39.7617C205.965 40.6117 205.276 41.3007 204.426 41.3007C203.585 41.3007 202.904 40.6247 202.889 39.7867C193.406 41.3067 184.853 45.6337 178.104 51.8867C178.612 52.1377 178.965 52.6567 178.965 53.2617C178.965 54.1117 178.276 54.8007 177.426 54.8007C176.814 54.8007 176.29 54.4407 176.042 53.9237C174.558 55.4757 173.176 57.1247 171.91 58.8647C172.182 58.6237 172.535 58.4727 172.927 58.4727C173.777 58.4727 174.466 59.1617 174.466 60.0117C174.466 60.8617 173.777 61.5507 172.927 61.5507C172.077 61.5507 171.388 60.8617 171.388 60.0117C171.388 59.8097 171.43 59.6177 171.5 59.4407C170.188 61.3007 169.007 63.2577 167.968 65.2997C168.114 65.2537 168.266 65.2227 168.426 65.2227C169.276 65.2227 169.965 65.9117 169.965 66.7617C169.965 67.6117 169.276 68.3007 168.426 68.3007C167.776 68.3007 167.222 67.8957 166.997 67.3257C166.249 68.9847 165.587 70.6897 165.03 72.4427C165.298 72.7197 165.465 73.0957 165.465 73.5117C165.465 74.2347 164.965 74.8367 164.293 75.0017C163.395 78.5067 162.898 82.1697 162.828 85.9347C163.107 85.6497 163.495 85.4727 163.926 85.4727C164.776 85.4727 165.465 86.1617 165.465 87.0117C165.465 87.8617 164.776 88.5507 163.926 88.5507C163.501 88.5507 163.116 88.3787 162.838 88.0997C162.938 91.8757 163.47 95.5447 164.403 99.0557C165.018 99.2577 165.465 99.8297 165.465 100.512C165.465 100.878 165.331 101.21 165.118 101.475C165.678 103.204 166.337 104.888 167.083 106.524C167.345 106.049 167.845 105.723 168.426 105.723C169.276 105.723 169.965 106.412 169.965 107.262C169.965 108.112 169.276 108.801 168.426 108.801C168.342 108.801 168.261 108.789 168.181 108.776C169.139 110.614 170.212 112.38 171.392 114.068C171.392 114.049 171.386 114.031 171.386 114.011C171.386 113.161 172.075 112.472 172.925 112.472C173.775 112.472 174.464 113.161 174.464 114.011C174.464 114.861 173.775 115.55 172.925 115.55C172.733 115.55 172.551 115.511 172.382 115.446C173.553 117 174.823 118.474 176.172 119.872C176.451 119.48 176.907 119.221 177.425 119.221C178.275 119.221 178.964 119.91 178.964 120.76C178.964 121.267 178.715 121.713 178.337 121.994C185.061 128.14 193.547 132.385 202.939 133.879C203.109 133.214 203.707 132.721 204.425 132.721C205.275 132.721 205.964 133.41 205.964 134.26C207.443 134.399 208.94 134.478 210.454 134.478C210.94 134.478 211.421 134.456 211.904 134.441C211.897 134.381 211.886 134.323 211.886 134.261C211.886 133.411 212.575 132.722 213.425 132.722C214.275 132.722 214.963 133.41 214.964 134.259C217.122 134.055 219.235 133.701 221.299 133.218C221.58 132.915 221.979 132.722 222.425 132.722C222.6 132.722 222.766 132.758 222.924 132.812C227.014 131.702 230.884 130.059 234.462 127.963C234.418 127.819 234.387 127.67 234.387 127.511C234.387 126.661 235.076 125.972 235.926 125.972C236.334 125.972 236.703 126.134 236.978 126.393C247.581 119.262 255.162 107.985 257.405 94.9047C257.089 94.6227 256.886 94.2167 256.886 93.7597C256.886 93.1447 257.249 92.6187 257.77 92.3717C257.982 90.5517 258.103 88.7037 258.103 86.8277C258.103 85.0867 258.003 83.3687 257.82 81.6747C257.271 81.4397 256.886 80.8947 256.886 80.2597C256.886 79.7767 257.113 79.3507 257.462 79.0687C255.301 65.9367 247.761 54.5947 237.178 47.3987C236.899 47.7907 236.444 48.0487 235.926 48.0487C235.076 48.0487 234.387 47.3597 234.387 46.5097C234.387 46.2387 234.463 45.9867 234.587 45.7657C231.105 43.7117 227.34 42.0907 223.366 40.9707C223.105 41.1737 222.782 41.2997 222.426 41.2997C221.794 41.2997 221.252 40.9177 221.015 40.3727C219.025 39.9207 216.991 39.5877 214.916 39.3947C214.945 39.5127 214.965 39.6337 214.965 39.7607C214.965 40.6107 214.276 41.2997 213.426 41.2997C212.576 41.2997 211.887 40.6107 211.887 39.7607C211.887 39.5687 211.927 39.3877 211.991 39.2187C211.48 39.2027 210.97 39.1797 210.455 39.1797C208.924 39.1797 207.413 39.2607 205.918 39.4017ZM217.926 58.4727C218.776 58.4727 219.465 59.1617 219.465 60.0117C219.465 60.8617 218.776 61.5507 217.926 61.5507C217.076 61.5507 216.387 60.8617 216.387 60.0117C216.387 59.1617 217.076 58.4727 217.926 58.4727ZM226.926 58.4727C227.776 58.4727 228.465 59.1617 228.465 60.0117C228.465 60.8617 227.776 61.5507 226.926 61.5507C226.076 61.5507 225.387 60.8617 225.387 60.0117C225.387 59.1617 226.076 58.4727 226.926 58.4727ZM235.926 58.4727C236.776 58.4727 237.465 59.1617 237.465 60.0117C237.465 60.8617 236.776 61.5507 235.926 61.5507C235.076 61.5507 234.387 60.8617 234.387 60.0117C234.387 59.1617 235.076 58.4727 235.926 58.4727ZM241.965 80.2617C241.965 81.1117 241.276 81.8007 240.426 81.8007C239.576 81.8007 238.887 81.1117 238.887 80.2617C238.887 79.4117 239.576 78.7227 240.426 78.7227C241.276 78.7227 241.965 79.4117 241.965 80.2617ZM234.387 73.5117C234.387 72.6617 235.076 71.9727 235.926 71.9727C236.776 71.9727 237.465 72.6617 237.465 73.5117C237.465 74.3617 236.776 75.0507 235.926 75.0507C235.076 75.0507 234.387 74.3617 234.387 73.5117ZM244.926 75.0507C244.076 75.0507 243.387 74.3617 243.387 73.5117C243.387 72.6617 244.076 71.9727 244.926 71.9727C245.776 71.9727 246.465 72.6617 246.465 73.5117C246.465 74.3617 245.776 75.0507 244.926 75.0507ZM241.965 66.7617C241.965 67.6117 241.276 68.3007 240.426 68.3007C239.576 68.3007 238.887 67.6117 238.887 66.7617C238.887 65.9117 239.576 65.2227 240.426 65.2227C241.276 65.2227 241.965 65.9117 241.965 66.7617ZM232.965 66.7617C232.965 67.6117 232.276 68.3007 231.426 68.3007C230.576 68.3007 229.887 67.6117 229.887 66.7617C229.887 65.9117 230.576 65.2227 231.426 65.2227C232.276 65.2227 232.965 65.9117 232.965 66.7617ZM228.465 73.5117C228.465 74.3617 227.776 75.0507 226.926 75.0507C226.076 75.0507 225.387 74.3617 225.387 73.5117C225.387 72.6617 226.076 71.9727 226.926 71.9727C227.776 71.9727 228.465 72.6617 228.465 73.5117ZM223.965 66.7617C223.965 67.6117 223.276 68.3007 222.426 68.3007C221.576 68.3007 220.887 67.6117 220.887 66.7617C220.887 65.9117 221.576 65.2227 222.426 65.2227C223.276 65.2227 223.965 65.9117 223.965 66.7617ZM219.465 73.5117C219.465 73.8407 219.36 74.1447 219.183 74.3947C220.309 76.3987 222.1 77.9637 224.288 78.7627L230.022 80.8877C229.936 80.6957 229.886 80.4847 229.886 80.2617C229.886 79.4117 230.575 78.7227 231.425 78.7227C232.275 78.7227 232.964 79.4117 232.964 80.2617C232.964 80.8767 232.6 81.4047 232.078 81.6507L243.783 85.9887C244.065 85.6747 244.47 85.4727 244.925 85.4727C245.775 85.4727 246.464 86.1617 246.464 87.0117C246.464 87.8617 245.775 88.5507 244.925 88.5507C244.343 88.5507 243.842 88.2237 243.581 87.7467L231.475 92.2277C232.301 92.2547 232.964 92.9287 232.964 93.7617C232.964 94.6117 232.275 95.3007 231.425 95.3007C230.575 95.3007 229.886 94.6117 229.886 93.7617C229.886 93.3117 230.082 92.9107 230.39 92.6287L224.287 94.8877C222.018 95.7257 220.173 97.3747 219.058 99.4787C219.308 99.7517 219.464 100.113 219.464 100.512C219.464 101.334 218.818 101.999 218.007 102.043L211.03 120.893C210.841 121.427 210.085 121.427 209.885 120.893L207.664 114.893C207.521 114.689 207.432 114.447 207.403 114.186L205.306 108.521C205.056 108.697 204.753 108.802 204.424 108.802C203.574 108.802 202.885 108.113 202.885 107.263C202.885 106.464 203.496 105.815 204.276 105.739L202.395 100.656C201.406 97.9887 199.305 95.8777 196.638 94.8877L196.518 94.8437C196.239 95.1257 195.852 95.3017 195.424 95.3017C194.612 95.3017 193.954 94.6717 193.896 93.8747L176.39 87.3987C175.857 87.2097 175.857 86.4537 176.39 86.2647L193.979 79.7487C194.191 79.1527 194.755 78.7237 195.424 78.7237C195.702 78.7237 195.959 78.8037 196.184 78.9317L196.638 78.7637C199.305 77.7857 201.406 75.6737 202.395 72.9957L204.143 68.2727C203.428 68.1397 202.885 67.5157 202.885 66.7617C202.885 65.9117 203.574 65.2227 204.424 65.2227C204.705 65.2227 204.966 65.3037 205.193 65.4357L209.885 52.7587C210.085 52.2367 210.841 52.2367 211.03 52.7587L218.15 71.9957C218.892 72.1057 219.463 72.7397 219.463 73.5117H219.465ZM241.965 107.262C241.965 108.112 241.276 108.801 240.426 108.801C239.576 108.801 238.887 108.112 238.887 107.262C238.887 106.412 239.576 105.723 240.426 105.723C241.276 105.723 241.965 106.412 241.965 107.262ZM217.926 112.473C218.776 112.473 219.465 113.162 219.465 114.012C219.465 114.862 218.776 115.551 217.926 115.551C217.076 115.551 216.387 114.862 216.387 114.012C216.387 113.162 217.076 112.473 217.926 112.473ZM222.426 105.723C223.276 105.723 223.965 106.412 223.965 107.262C223.965 108.112 223.276 108.801 222.426 108.801C221.576 108.801 220.887 108.112 220.887 107.262C220.887 106.412 221.576 105.723 222.426 105.723ZM228.465 100.512C228.465 101.362 227.776 102.051 226.926 102.051C226.076 102.051 225.387 101.362 225.387 100.512C225.387 99.6617 226.076 98.9727 226.926 98.9727C227.776 98.9727 228.465 99.6617 228.465 100.512ZM228.465 114.012C228.465 114.862 227.776 115.551 226.926 115.551C226.076 115.551 225.387 114.862 225.387 114.012C225.387 113.162 226.076 112.473 226.926 112.473C227.776 112.473 228.465 113.162 228.465 114.012ZM231.426 105.723C232.276 105.723 232.965 106.412 232.965 107.262C232.965 108.112 232.276 108.801 231.426 108.801C230.576 108.801 229.887 108.112 229.887 107.262C229.887 106.412 230.576 105.723 231.426 105.723ZM235.926 98.9727C236.776 98.9727 237.465 99.6617 237.465 100.512C237.465 101.362 236.776 102.051 235.926 102.051C235.076 102.051 234.387 101.362 234.387 100.512C234.387 99.6617 235.076 98.9727 235.926 98.9727ZM237.465 114.012C237.465 114.862 236.776 115.551 235.926 115.551C235.076 115.551 234.387 114.862 234.387 114.012C234.387 113.162 235.076 112.473 235.926 112.473C236.776 112.473 237.465 113.162 237.465 114.012ZM244.926 102.051C244.076 102.051 243.387 101.362 243.387 100.512C243.387 99.6617 244.076 98.9727 244.926 98.9727C245.776 98.9727 246.465 99.6617 246.465 100.512C246.465 101.362 245.776 102.051 244.926 102.051ZM241.965 93.7617C241.965 94.6117 241.276 95.3007 240.426 95.3007C239.576 95.3007 238.887 94.6117 238.887 93.7617C238.887 92.9117 239.576 92.2227 240.426 92.2227C241.276 92.2227 241.965 92.9117 241.965 93.7617ZM208.926 125.973C209.776 125.973 210.465 126.662 210.465 127.512C210.465 128.362 209.776 129.051 208.926 129.051C208.076 129.051 207.387 128.362 207.387 127.512C207.387 126.662 208.076 125.973 208.926 125.973ZM183.465 114.012C183.465 114.862 182.776 115.551 181.926 115.551C181.076 115.551 180.387 114.862 180.387 114.012C180.387 113.162 181.076 112.473 181.926 112.473C182.776 112.473 183.465 113.162 183.465 114.012ZM174.465 100.512C174.465 101.362 173.776 102.051 172.926 102.051C172.076 102.051 171.387 101.362 171.387 100.512C171.387 99.6617 172.076 98.9727 172.926 98.9727C173.776 98.9727 174.465 99.6617 174.465 100.512ZM171.387 73.5117C171.387 72.6617 172.076 71.9727 172.926 71.9727C173.776 71.9727 174.465 72.6617 174.465 73.5117C174.465 74.3617 173.776 75.0507 172.926 75.0507C172.076 75.0507 171.387 74.3617 171.387 73.5117ZM180.387 60.0117C180.387 59.1617 181.076 58.4727 181.926 58.4727C182.776 58.4727 183.465 59.1617 183.465 60.0117C183.465 60.8617 182.776 61.5507 181.926 61.5507C181.076 61.5507 180.387 60.8617 180.387 60.0117ZM190.926 58.4727C191.776 58.4727 192.465 59.1617 192.465 60.0117C192.465 60.8617 191.776 61.5507 190.926 61.5507C190.076 61.5507 189.387 60.8617 189.387 60.0117C189.387 59.1617 190.076 58.4727 190.926 58.4727ZM199.926 58.4727C200.776 58.4727 201.465 59.1617 201.465 60.0117C201.465 60.8617 200.776 61.5507 199.926 61.5507C199.076 61.5507 198.387 60.8617 198.387 60.0117C198.387 59.1617 199.076 58.4727 199.926 58.4727ZM201.465 73.5117C201.465 74.3617 200.776 75.0507 199.926 75.0507C199.076 75.0507 198.387 74.3617 198.387 73.5117C198.387 72.6617 199.076 71.9727 199.926 71.9727C200.776 71.9727 201.465 72.6617 201.465 73.5117ZM196.965 66.7617C196.965 67.6117 196.276 68.3007 195.426 68.3007C194.576 68.3007 193.887 67.6117 193.887 66.7617C193.887 65.9117 194.576 65.2227 195.426 65.2227C196.276 65.2227 196.965 65.9117 196.965 66.7617ZM190.926 75.0507C190.076 75.0507 189.387 74.3617 189.387 73.5117C189.387 72.6617 190.076 71.9727 190.926 71.9727C191.776 71.9727 192.465 72.6617 192.465 73.5117C192.465 74.3617 191.776 75.0507 190.926 75.0507ZM187.965 66.7617C187.965 67.6117 187.276 68.3007 186.426 68.3007C185.576 68.3007 184.887 67.6117 184.887 66.7617C184.887 65.9117 185.576 65.2227 186.426 65.2227C187.276 65.2227 187.965 65.9117 187.965 66.7617ZM181.926 71.9727C182.776 71.9727 183.465 72.6617 183.465 73.5117C183.465 74.3617 182.776 75.0507 181.926 75.0507C181.076 75.0507 180.387 74.3617 180.387 73.5117C180.387 72.6617 181.076 71.9727 181.926 71.9727ZM186.426 78.7227C187.276 78.7227 187.965 79.4117 187.965 80.2617C187.965 81.1117 187.276 81.8007 186.426 81.8007C185.576 81.8007 184.887 81.1117 184.887 80.2617C184.887 79.4117 185.576 78.7227 186.426 78.7227ZM178.965 80.2617C178.965 81.1117 178.276 81.8007 177.426 81.8007C176.576 81.8007 175.887 81.1117 175.887 80.2617C175.887 79.4117 176.576 78.7227 177.426 78.7227C178.276 78.7227 178.965 79.4117 178.965 80.2617ZM172.926 85.4727C173.776 85.4727 174.465 86.1617 174.465 87.0117C174.465 87.8617 173.776 88.5507 172.926 88.5507C172.076 88.5507 171.387 87.8617 171.387 87.0117C171.387 86.1617 172.076 85.4727 172.926 85.4727ZM177.426 92.2227C178.276 92.2227 178.965 92.9117 178.965 93.7617C178.965 94.6117 178.276 95.3007 177.426 95.3007C176.576 95.3007 175.887 94.6117 175.887 93.7617C175.887 92.9117 176.576 92.2227 177.426 92.2227ZM192.465 114.012C192.465 114.862 191.776 115.551 190.926 115.551C190.076 115.551 189.387 114.862 189.387 114.012C189.387 113.162 190.076 112.473 190.926 112.473C191.776 112.473 192.465 113.162 192.465 114.012ZM190.926 102.051C190.076 102.051 189.387 101.362 189.387 100.512C189.387 99.6617 190.076 98.9727 190.926 98.9727C191.776 98.9727 192.465 99.6617 192.465 100.512C192.465 101.362 191.776 102.051 190.926 102.051ZM187.965 93.7617C187.965 94.6117 187.276 95.3007 186.426 95.3007C185.576 95.3007 184.887 94.6117 184.887 93.7617C184.887 92.9117 185.576 92.2227 186.426 92.2227C187.276 92.2227 187.965 92.9117 187.965 93.7617ZM183.465 100.512C183.465 101.362 182.776 102.051 181.926 102.051C181.076 102.051 180.387 101.362 180.387 100.512C180.387 99.6617 181.076 98.9727 181.926 98.9727C182.776 98.9727 183.465 99.6617 183.465 100.512ZM186.426 105.723C187.276 105.723 187.965 106.412 187.965 107.262C187.965 108.112 187.276 108.801 186.426 108.801C185.576 108.801 184.887 108.112 184.887 107.262C184.887 106.412 185.576 105.723 186.426 105.723ZM195.426 105.723C196.276 105.723 196.965 106.412 196.965 107.262C196.965 108.112 196.276 108.801 195.426 108.801C194.576 108.801 193.887 108.112 193.887 107.262C193.887 106.412 194.576 105.723 195.426 105.723ZM198.387 100.512C198.387 99.6617 199.076 98.9727 199.926 98.9727C200.776 98.9727 201.465 99.6617 201.465 100.512C201.465 101.362 200.776 102.051 199.926 102.051C199.076 102.051 198.387 101.362 198.387 100.512ZM201.465 114.012C201.465 114.862 200.776 115.551 199.926 115.551C199.076 115.551 198.387 114.862 198.387 114.012C198.387 113.162 199.076 112.473 199.926 112.473C200.776 112.473 201.465 113.162 201.465 114.012ZM207.387 46.5117C207.387 45.6617 208.076 44.9727 208.926 44.9727C209.776 44.9727 210.465 45.6617 210.465 46.5117C210.465 47.3617 209.776 48.0507 208.926 48.0507C208.076 48.0507 207.387 47.3617 207.387 46.5117ZM204.426 51.7227C205.276 51.7227 205.965 52.4117 205.965 53.2617C205.965 54.1117 205.276 54.8007 204.426 54.8007C203.576 54.8007 202.887 54.1117 202.887 53.2617C202.887 52.4117 203.576 51.7227 204.426 51.7227ZM199.926 44.9727C200.776 44.9727 201.465 45.6617 201.465 46.5117C201.465 47.3617 200.776 48.0507 199.926 48.0507C199.076 48.0507 198.387 47.3617 198.387 46.5117C198.387 45.6617 199.076 44.9727 199.926 44.9727ZM195.426 51.7227C196.276 51.7227 196.965 52.4117 196.965 53.2617C196.965 54.1117 196.276 54.8007 195.426 54.8007C194.576 54.8007 193.887 54.1117 193.887 53.2617C193.887 52.4117 194.576 51.7227 195.426 51.7227ZM190.926 44.9727C191.776 44.9727 192.465 45.6617 192.465 46.5117C192.465 47.3617 191.776 48.0507 190.926 48.0507C190.076 48.0507 189.387 47.3617 189.387 46.5117C189.387 45.6617 190.076 44.9727 190.926 44.9727ZM186.426 51.7227C187.276 51.7227 187.965 52.4117 187.965 53.2617C187.965 54.1117 187.276 54.8007 186.426 54.8007C185.576 54.8007 184.887 54.1117 184.887 53.2617C184.887 52.4117 185.576 51.7227 186.426 51.7227ZM177.426 65.2227C178.276 65.2227 178.965 65.9117 178.965 66.7617C178.965 67.6117 178.276 68.3007 177.426 68.3007C176.576 68.3007 175.887 67.6117 175.887 66.7617C175.887 65.9117 176.576 65.2227 177.426 65.2227ZM168.426 78.7227C169.276 78.7227 169.965 79.4117 169.965 80.2617C169.965 81.1117 169.276 81.8007 168.426 81.8007C167.576 81.8007 166.887 81.1117 166.887 80.2617C166.887 79.4117 167.576 78.7227 168.426 78.7227ZM168.426 95.3007C167.576 95.3007 166.887 94.6117 166.887 93.7617C166.887 92.9117 167.576 92.2227 168.426 92.2227C169.276 92.2227 169.965 92.9117 169.965 93.7617C169.965 94.6117 169.276 95.3007 168.426 95.3007ZM177.426 108.801C176.576 108.801 175.887 108.112 175.887 107.262C175.887 106.412 176.576 105.723 177.426 105.723C178.276 105.723 178.965 106.412 178.965 107.262C178.965 108.112 178.276 108.801 177.426 108.801ZM186.426 122.301C185.576 122.301 184.887 121.612 184.887 120.762C184.887 119.912 185.576 119.223 186.426 119.223C187.276 119.223 187.965 119.912 187.965 120.762C187.965 121.612 187.276 122.301 186.426 122.301ZM190.926 129.051C190.076 129.051 189.387 128.362 189.387 127.512C189.387 126.662 190.076 125.973 190.926 125.973C191.776 125.973 192.465 126.662 192.465 127.512C192.465 128.362 191.776 129.051 190.926 129.051ZM195.426 122.301C194.576 122.301 193.887 121.612 193.887 120.762C193.887 119.912 194.576 119.223 195.426 119.223C196.276 119.223 196.965 119.912 196.965 120.762C196.965 121.612 196.276 122.301 195.426 122.301ZM199.926 129.051C199.076 129.051 198.387 128.362 198.387 127.512C198.387 126.662 199.076 125.973 199.926 125.973C200.776 125.973 201.465 126.662 201.465 127.512C201.465 128.362 200.776 129.051 199.926 129.051ZM204.426 122.301C203.576 122.301 202.887 121.612 202.887 120.762C202.887 119.912 203.576 119.223 204.426 119.223C205.276 119.223 205.965 119.912 205.965 120.762C205.965 121.612 205.276 122.301 204.426 122.301ZM213.426 122.301C212.576 122.301 211.887 121.612 211.887 120.762C211.887 119.912 212.576 119.223 213.426 119.223C214.276 119.223 214.965 119.912 214.965 120.762C214.965 121.612 214.276 122.301 213.426 122.301ZM217.926 129.051C217.076 129.051 216.387 128.362 216.387 127.512C216.387 126.662 217.076 125.973 217.926 125.973C218.776 125.973 219.465 126.662 219.465 127.512C219.465 128.362 218.776 129.051 217.926 129.051ZM222.426 122.301C221.576 122.301 220.887 121.612 220.887 120.762C220.887 119.912 221.576 119.223 222.426 119.223C223.276 119.223 223.965 119.912 223.965 120.762C223.965 121.612 223.276 122.301 222.426 122.301ZM226.926 129.051C226.076 129.051 225.387 128.362 225.387 127.512C225.387 126.662 226.076 125.973 226.926 125.973C227.776 125.973 228.465 126.662 228.465 127.512C228.465 128.362 227.776 129.051 226.926 129.051ZM231.426 122.301C230.576 122.301 229.887 121.612 229.887 120.762C229.887 119.912 230.576 119.223 231.426 119.223C232.276 119.223 232.965 119.912 232.965 120.762C232.965 121.612 232.276 122.301 231.426 122.301ZM241.965 120.762C241.965 121.612 241.276 122.301 240.426 122.301C239.576 122.301 238.887 121.612 238.887 120.762C238.887 119.912 239.576 119.223 240.426 119.223C241.276 119.223 241.965 119.912 241.965 120.762ZM244.926 115.551C244.076 115.551 243.387 114.862 243.387 114.012C243.387 113.162 244.076 112.473 244.926 112.473C245.776 112.473 246.465 113.162 246.465 114.012C246.465 114.862 245.776 115.551 244.926 115.551ZM250.965 107.262C250.965 108.112 250.276 108.801 249.426 108.801C248.576 108.801 247.887 108.112 247.887 107.262C247.887 106.412 248.576 105.723 249.426 105.723C250.276 105.723 250.965 106.412 250.965 107.262ZM253.926 102.051C253.076 102.051 252.387 101.362 252.387 100.512C252.387 99.6617 253.076 98.9727 253.926 98.9727C254.776 98.9727 255.465 99.6617 255.465 100.512C255.465 101.362 254.776 102.051 253.926 102.051ZM250.965 93.7617C250.965 94.6117 250.276 95.3007 249.426 95.3007C248.576 95.3007 247.887 94.6117 247.887 93.7617C247.887 92.9117 248.576 92.2227 249.426 92.2227C250.276 92.2227 250.965 92.9117 250.965 93.7617ZM252.387 87.0117C252.387 86.1617 253.076 85.4727 253.926 85.4727C254.776 85.4727 255.465 86.1617 255.465 87.0117C255.465 87.8617 254.776 88.5507 253.926 88.5507C253.076 88.5507 252.387 87.8617 252.387 87.0117ZM250.965 80.2617C250.965 81.1117 250.276 81.8007 249.426 81.8007C248.576 81.8007 247.887 81.1117 247.887 80.2617C247.887 79.4117 248.576 78.7227 249.426 78.7227C250.276 78.7227 250.965 79.4117 250.965 80.2617ZM255.465 73.5117C255.465 74.3617 254.776 75.0507 253.926 75.0507C253.076 75.0507 252.387 74.3617 252.387 73.5117C252.387 72.6617 253.076 71.9727 253.926 71.9727C254.776 71.9727 255.465 72.6617 255.465 73.5117ZM249.426 65.2227C250.276 65.2227 250.965 65.9117 250.965 66.7617C250.965 67.6117 250.276 68.3007 249.426 68.3007C248.576 68.3007 247.887 67.6117 247.887 66.7617C247.887 65.9117 248.576 65.2227 249.426 65.2227ZM246.465 60.0117C246.465 60.8617 245.776 61.5507 244.926 61.5507C244.076 61.5507 243.387 60.8617 243.387 60.0117C243.387 59.1617 244.076 58.4727 244.926 58.4727C245.776 58.4727 246.465 59.1617 246.465 60.0117ZM240.426 51.7227C241.276 51.7227 241.965 52.4117 241.965 53.2617C241.965 54.1117 241.276 54.8007 240.426 54.8007C239.576 54.8007 238.887 54.1117 238.887 53.2617C238.887 52.4117 239.576 51.7227 240.426 51.7227ZM231.426 51.7227C232.276 51.7227 232.965 52.4117 232.965 53.2617C232.965 54.1117 232.276 54.8007 231.426 54.8007C230.576 54.8007 229.887 54.1117 229.887 53.2617C229.887 52.4117 230.576 51.7227 231.426 51.7227ZM226.926 44.9727C227.776 44.9727 228.465 45.6617 228.465 46.5117C228.465 47.3617 227.776 48.0507 226.926 48.0507C226.076 48.0507 225.387 47.3617 225.387 46.5117C225.387 45.6617 226.076 44.9727 226.926 44.9727ZM222.426 51.7227C223.276 51.7227 223.965 52.4117 223.965 53.2617C223.965 54.1117 223.276 54.8007 222.426 54.8007C221.576 54.8007 220.887 54.1117 220.887 53.2617C220.887 52.4117 221.576 51.7227 222.426 51.7227ZM219.465 46.5117C219.465 47.3617 218.776 48.0507 217.926 48.0507C217.076 48.0507 216.387 47.3617 216.387 46.5117C216.387 45.6617 217.076 44.9727 217.926 44.9727C218.776 44.9727 219.465 45.6617 219.465 46.5117ZM213.426 51.7227C214.276 51.7227 214.965 52.4117 214.965 53.2617C214.965 54.1117 214.276 54.8007 213.426 54.8007C212.576 54.8007 211.887 54.1117 211.887 53.2617C211.887 52.4117 212.576 51.7227 213.426 51.7227Z" fill="white"/>
<path d="M160.805 86.8306C160.805 114.208 183.077 136.48 210.454 136.48C237.831 136.48 260.103 114.208 260.103 86.8306C260.103 59.4536 237.831 37.1816 210.454 37.1816C183.077 37.1816 160.805 59.4536 160.805 86.8306ZM211.887 39.7626C211.887 40.6126 212.576 41.3016 213.426 41.3016C214.276 41.3016 214.965 40.6126 214.965 39.7626C214.965 39.6356 214.945 39.5146 214.916 39.3966C216.991 39.5896 219.025 39.9226 221.015 40.3746C221.252 40.9196 221.793 41.3016 222.426 41.3016C222.782 41.3016 223.105 41.1756 223.366 40.9726C227.34 42.0936 231.104 43.7136 234.587 45.7676C234.463 45.9886 234.387 46.2406 234.387 46.5116C234.387 47.3616 235.076 48.0506 235.926 48.0506C236.444 48.0506 236.9 47.7926 237.178 47.4006C247.761 54.5966 255.302 65.9386 257.462 79.0706C257.113 79.3526 256.886 79.7786 256.886 80.2616C256.886 80.8966 257.271 81.4417 257.82 81.6767C258.003 83.3697 258.103 85.0876 258.103 86.8296C258.103 88.7056 257.982 90.5536 257.77 92.3736C257.249 92.6196 256.886 93.1466 256.886 93.7616C256.886 94.2186 257.089 94.6246 257.405 94.9066C255.161 107.987 247.58 119.264 236.978 126.395C236.703 126.135 236.334 125.974 235.926 125.974C235.076 125.974 234.387 126.663 234.387 127.513C234.387 127.671 234.418 127.821 234.462 127.965C230.885 130.061 227.014 131.704 222.924 132.814C222.767 132.76 222.601 132.724 222.425 132.724C221.979 132.724 221.58 132.917 221.299 133.22C219.234 133.703 217.121 134.057 214.964 134.261C214.964 133.412 214.275 132.724 213.425 132.724C212.575 132.724 211.886 133.413 211.886 134.263C211.886 134.325 211.897 134.384 211.904 134.443C211.421 134.458 210.94 134.48 210.454 134.48C208.939 134.48 207.443 134.401 205.964 134.262C205.964 133.412 205.275 132.723 204.425 132.723C203.707 132.723 203.109 133.217 202.939 133.881C193.547 132.387 185.061 128.142 178.337 121.996C178.715 121.716 178.964 121.27 178.964 120.762C178.964 119.912 178.275 119.223 177.425 119.223C176.907 119.223 176.451 119.481 176.172 119.874C174.824 118.476 173.554 117.002 172.382 115.448C172.551 115.512 172.733 115.552 172.925 115.552C173.775 115.552 174.464 114.863 174.464 114.013C174.464 113.163 173.775 112.474 172.925 112.474C172.075 112.474 171.386 113.163 171.386 114.013C171.386 114.033 171.391 114.051 171.392 114.07C170.211 112.382 169.139 110.615 168.181 108.778C168.261 108.791 168.342 108.803 168.426 108.803C169.276 108.803 169.965 108.114 169.965 107.264C169.965 106.414 169.276 105.725 168.426 105.725C167.845 105.725 167.345 106.051 167.083 106.526C166.336 104.889 165.677 103.206 165.118 101.477C165.331 101.213 165.465 100.881 165.465 100.514C165.465 99.8316 165.017 99.2596 164.403 99.0576C163.47 95.5476 162.938 91.8786 162.838 88.1016C163.116 88.3796 163.501 88.5526 163.926 88.5526C164.776 88.5526 165.465 87.8636 165.465 87.0136C165.465 86.1636 164.776 85.4746 163.926 85.4746C163.495 85.4746 163.107 85.6526 162.828 85.9366C162.898 82.1716 163.394 78.5086 164.293 75.0036C164.965 74.8386 165.465 74.2366 165.465 73.5136C165.465 73.0976 165.298 72.7216 165.03 72.4446C165.587 70.6916 166.249 68.9866 166.997 67.3276C167.223 67.8976 167.776 68.3026 168.426 68.3026C169.276 68.3026 169.965 67.6136 169.965 66.7636C169.965 65.9136 169.276 65.2246 168.426 65.2246C168.265 65.2246 168.113 65.2556 167.968 65.3016C169.007 63.2596 170.188 61.3026 171.5 59.4426C171.429 59.6196 171.388 59.8116 171.388 60.0136C171.388 60.8636 172.077 61.5526 172.927 61.5526C173.777 61.5526 174.466 60.8636 174.466 60.0136C174.466 59.1636 173.777 58.4746 172.927 58.4746C172.535 58.4746 172.182 58.6256 171.91 58.8666C173.176 57.1266 174.558 55.4776 176.042 53.9256C176.29 54.4426 176.814 54.8026 177.426 54.8026C178.276 54.8026 178.965 54.1136 178.965 53.2636C178.965 52.6586 178.612 52.1396 178.104 51.8886C184.853 45.6356 193.406 41.3086 202.889 39.7886C202.903 40.6266 203.584 41.3026 204.426 41.3026C205.276 41.3026 205.965 40.6136 205.965 39.7636C205.965 39.6386 205.946 39.5196 205.918 39.4036C207.412 39.2616 208.924 39.1826 210.455 39.1826C210.97 39.1826 211.479 39.2056 211.991 39.2216C211.927 39.3906 211.887 39.5726 211.887 39.7636V39.7626Z" fill="black"/>
<path d="M249.426 81.8007C250.276 81.8007 250.965 81.1116 250.965 80.2617C250.965 79.4117 250.276 78.7227 249.426 78.7227C248.576 78.7227 247.887 79.4117 247.887 80.2617C247.887 81.1116 248.576 81.8007 249.426 81.8007Z" fill="black"/>
<path d="M253.926 75.0507C254.776 75.0507 255.465 74.3616 255.465 73.5117C255.465 72.6617 254.776 71.9727 253.926 71.9727C253.076 71.9727 252.387 72.6617 252.387 73.5117C252.387 74.3616 253.076 75.0507 253.926 75.0507Z" fill="black"/>
<path d="M249.426 95.3007C250.276 95.3007 250.965 94.6116 250.965 93.7617C250.965 92.9117 250.276 92.2227 249.426 92.2227C248.576 92.2227 247.887 92.9117 247.887 93.7617C247.887 94.6116 248.576 95.3007 249.426 95.3007Z" fill="black"/>
<path d="M253.926 88.5507C254.776 88.5507 255.465 87.8616 255.465 87.0117C255.465 86.1617 254.776 85.4727 253.926 85.4727C253.076 85.4727 252.387 86.1617 252.387 87.0117C252.387 87.8616 253.076 88.5507 253.926 88.5507Z" fill="black"/>
<path d="M249.426 108.801C250.276 108.801 250.965 108.112 250.965 107.262C250.965 106.412 250.276 105.723 249.426 105.723C248.576 105.723 247.887 106.412 247.887 107.262C247.887 108.112 248.576 108.801 249.426 108.801Z" fill="black"/>
<path d="M253.926 102.051C254.776 102.051 255.465 101.362 255.465 100.512C255.465 99.6617 254.776 98.9727 253.926 98.9727C253.076 98.9727 252.387 99.6617 252.387 100.512C252.387 101.362 253.076 102.051 253.926 102.051Z" fill="black"/>
<path d="M240.426 68.3007C241.276 68.3007 241.965 67.6116 241.965 66.7617C241.965 65.9117 241.276 65.2227 240.426 65.2227C239.576 65.2227 238.887 65.9117 238.887 66.7617C238.887 67.6116 239.576 68.3007 240.426 68.3007Z" fill="black"/>
<path d="M244.926 61.5507C245.776 61.5507 246.465 60.8616 246.465 60.0117C246.465 59.1617 245.776 58.4727 244.926 58.4727C244.076 58.4727 243.387 59.1617 243.387 60.0117C243.387 60.8616 244.076 61.5507 244.926 61.5507Z" fill="black"/>
<path d="M240.426 81.8007C241.276 81.8007 241.965 81.1116 241.965 80.2617C241.965 79.4117 241.276 78.7227 240.426 78.7227C239.576 78.7227 238.887 79.4117 238.887 80.2617C238.887 81.1116 239.576 81.8007 240.426 81.8007Z" fill="black"/>
<path d="M244.926 75.0507C245.776 75.0507 246.465 74.3616 246.465 73.5117C246.465 72.6617 245.776 71.9727 244.926 71.9727C244.076 71.9727 243.387 72.6617 243.387 73.5117C243.387 74.3616 244.076 75.0507 244.926 75.0507Z" fill="black"/>
<path d="M249.426 68.3007C250.276 68.3007 250.965 67.6116 250.965 66.7617C250.965 65.9117 250.276 65.2227 249.426 65.2227C248.576 65.2227 247.887 65.9117 247.887 66.7617C247.887 67.6116 248.576 68.3007 249.426 68.3007Z" fill="black"/>
<path d="M240.426 95.3007C241.276 95.3007 241.965 94.6116 241.965 93.7617C241.965 92.9117 241.276 92.2227 240.426 92.2227C239.576 92.2227 238.887 92.9117 238.887 93.7617C238.887 94.6116 239.576 95.3007 240.426 95.3007Z" fill="black"/>
<path d="M240.426 108.801C241.276 108.801 241.965 108.112 241.965 107.262C241.965 106.412 241.276 105.723 240.426 105.723C239.576 105.723 238.887 106.412 238.887 107.262C238.887 108.112 239.576 108.801 240.426 108.801Z" fill="black"/>
<path d="M244.926 102.051C245.776 102.051 246.465 101.362 246.465 100.512C246.465 99.6617 245.776 98.9727 244.926 98.9727C244.076 98.9727 243.387 99.6617 243.387 100.512C243.387 101.362 244.076 102.051 244.926 102.051Z" fill="black"/>
<path d="M240.426 122.301C241.276 122.301 241.965 121.612 241.965 120.762C241.965 119.912 241.276 119.223 240.426 119.223C239.576 119.223 238.887 119.912 238.887 120.762C238.887 121.612 239.576 122.301 240.426 122.301Z" fill="black"/>
<path d="M244.926 115.551C245.776 115.551 246.465 114.862 246.465 114.012C246.465 113.162 245.776 112.473 244.926 112.473C244.076 112.473 243.387 113.162 243.387 114.012C243.387 114.862 244.076 115.551 244.926 115.551Z" fill="black"/>
<path d="M231.426 68.3007C232.276 68.3007 232.965 67.6116 232.965 66.7617C232.965 65.9117 232.276 65.2227 231.426 65.2227C230.576 65.2227 229.887 65.9117 229.887 66.7617C229.887 67.6116 230.576 68.3007 231.426 68.3007Z" fill="black"/>
<path d="M235.926 61.5507C236.776 61.5507 237.465 60.8616 237.465 60.0117C237.465 59.1617 236.776 58.4727 235.926 58.4727C235.076 58.4727 234.387 59.1617 234.387 60.0117C234.387 60.8616 235.076 61.5507 235.926 61.5507Z" fill="black"/>
<path d="M240.426 54.8007C241.276 54.8007 241.965 54.1116 241.965 53.2617C241.965 52.4117 241.276 51.7227 240.426 51.7227C239.576 51.7227 238.887 52.4117 238.887 53.2617C238.887 54.1116 239.576 54.8007 240.426 54.8007Z" fill="black"/>
<path d="M235.926 75.0507C236.776 75.0507 237.465 74.3616 237.465 73.5117C237.465 72.6617 236.776 71.9727 235.926 71.9727C235.076 71.9727 234.387 72.6617 234.387 73.5117C234.387 74.3616 235.076 75.0507 235.926 75.0507Z" fill="black"/>
<path d="M235.926 102.051C236.776 102.051 237.465 101.362 237.465 100.512C237.465 99.6617 236.776 98.9727 235.926 98.9727C235.076 98.9727 234.387 99.6617 234.387 100.512C234.387 101.362 235.076 102.051 235.926 102.051Z" fill="black"/>
<path d="M231.426 122.301C232.276 122.301 232.965 121.612 232.965 120.762C232.965 119.912 232.276 119.223 231.426 119.223C230.576 119.223 229.887 119.912 229.887 120.762C229.887 121.612 230.576 122.301 231.426 122.301Z" fill="black"/>
<path d="M235.926 115.551C236.776 115.551 237.465 114.862 237.465 114.012C237.465 113.162 236.776 112.473 235.926 112.473C235.076 112.473 234.387 113.162 234.387 114.012C234.387 114.862 235.076 115.551 235.926 115.551Z" fill="black"/>
<path d="M226.926 48.0507C227.776 48.0507 228.465 47.3616 228.465 46.5117C228.465 45.6617 227.776 44.9727 226.926 44.9727C226.076 44.9727 225.387 45.6617 225.387 46.5117C225.387 47.3616 226.076 48.0507 226.926 48.0507Z" fill="black"/>
<path d="M222.426 68.3007C223.276 68.3007 223.965 67.6116 223.965 66.7617C223.965 65.9117 223.276 65.2227 222.426 65.2227C221.576 65.2227 220.887 65.9117 220.887 66.7617C220.887 67.6116 221.576 68.3007 222.426 68.3007Z" fill="black"/>
<path d="M226.926 61.5507C227.776 61.5507 228.465 60.8616 228.465 60.0117C228.465 59.1617 227.776 58.4727 226.926 58.4727C226.076 58.4727 225.387 59.1617 225.387 60.0117C225.387 60.8616 226.076 61.5507 226.926 61.5507Z" fill="black"/>
<path d="M231.426 54.8007C232.276 54.8007 232.965 54.1116 232.965 53.2617C232.965 52.4117 232.276 51.7227 231.426 51.7227C230.576 51.7227 229.887 52.4117 229.887 53.2617C229.887 54.1116 230.576 54.8007 231.426 54.8007Z" fill="black"/>
<path d="M226.926 75.0507C227.776 75.0507 228.465 74.3616 228.465 73.5117C228.465 72.6617 227.776 71.9727 226.926 71.9727C226.076 71.9727 225.387 72.6617 225.387 73.5117C225.387 74.3616 226.076 75.0507 226.926 75.0507Z" fill="black"/>
<path d="M226.926 102.051C227.776 102.051 228.465 101.362 228.465 100.512C228.465 99.6617 227.776 98.9727 226.926 98.9727C226.076 98.9727 225.387 99.6617 225.387 100.512C225.387 101.362 226.076 102.051 226.926 102.051Z" fill="black"/>
<path d="M222.426 122.301C223.276 122.301 223.965 121.612 223.965 120.762C223.965 119.912 223.276 119.223 222.426 119.223C221.576 119.223 220.887 119.912 220.887 120.762C220.887 121.612 221.576 122.301 222.426 122.301Z" fill="black"/>
<path d="M226.926 115.551C227.776 115.551 228.465 114.862 228.465 114.012C228.465 113.162 227.776 112.473 226.926 112.473C226.076 112.473 225.387 113.162 225.387 114.012C225.387 114.862 226.076 115.551 226.926 115.551Z" fill="black"/>
<path d="M231.426 108.801C232.276 108.801 232.965 108.112 232.965 107.262C232.965 106.412 232.276 105.723 231.426 105.723C230.576 105.723 229.887 106.412 229.887 107.262C229.887 108.112 230.576 108.801 231.426 108.801Z" fill="black"/>
<path d="M226.926 129.051C227.776 129.051 228.465 128.362 228.465 127.512C228.465 126.662 227.776 125.973 226.926 125.973C226.076 125.973 225.387 126.662 225.387 127.512C225.387 128.362 226.076 129.051 226.926 129.051Z" fill="black"/>
<path d="M217.926 48.0507C218.776 48.0507 219.465 47.3616 219.465 46.5117C219.465 45.6617 218.776 44.9727 217.926 44.9727C217.076 44.9727 216.387 45.6617 216.387 46.5117C216.387 47.3616 217.076 48.0507 217.926 48.0507Z" fill="black"/>
<path d="M217.926 61.5507C218.776 61.5507 219.465 60.8616 219.465 60.0117C219.465 59.1617 218.776 58.4727 217.926 58.4727C217.076 58.4727 216.387 59.1617 216.387 60.0117C216.387 60.8616 217.076 61.5507 217.926 61.5507Z" fill="black"/>
<path d="M222.426 54.8007C223.276 54.8007 223.965 54.1116 223.965 53.2617C223.965 52.4117 223.276 51.7227 222.426 51.7227C221.576 51.7227 220.887 52.4117 220.887 53.2617C220.887 54.1116 221.576 54.8007 222.426 54.8007Z" fill="black"/>
<path d="M213.426 122.301C214.276 122.301 214.965 121.612 214.965 120.762C214.965 119.912 214.276 119.223 213.426 119.223C212.576 119.223 211.887 119.912 211.887 120.762C211.887 121.612 212.576 122.301 213.426 122.301Z" fill="black"/>
<path d="M217.926 115.551C218.776 115.551 219.465 114.862 219.465 114.012C219.465 113.162 218.776 112.473 217.926 112.473C217.076 112.473 216.387 113.162 216.387 114.012C216.387 114.862 217.076 115.551 217.926 115.551Z" fill="black"/>
<path d="M222.426 108.801C223.276 108.801 223.965 108.112 223.965 107.262C223.965 106.412 223.276 105.723 222.426 105.723C221.576 105.723 220.887 106.412 220.887 107.262C220.887 108.112 221.576 108.801 222.426 108.801Z" fill="black"/>
<path d="M217.926 129.051C218.776 129.051 219.465 128.362 219.465 127.512C219.465 126.662 218.776 125.973 217.926 125.973C217.076 125.973 216.387 126.662 216.387 127.512C216.387 128.362 217.076 129.051 217.926 129.051Z" fill="black"/>
<path d="M208.926 48.0507C209.776 48.0507 210.465 47.3616 210.465 46.5117C210.465 45.6617 209.776 44.9727 208.926 44.9727C208.076 44.9727 207.387 45.6617 207.387 46.5117C207.387 47.3616 208.076 48.0507 208.926 48.0507Z" fill="black"/>
<path d="M213.426 54.8007C214.276 54.8007 214.965 54.1116 214.965 53.2617C214.965 52.4117 214.276 51.7227 213.426 51.7227C212.576 51.7227 211.887 52.4117 211.887 53.2617C211.887 54.1116 212.576 54.8007 213.426 54.8007Z" fill="black"/>
<path d="M204.426 122.301C205.276 122.301 205.965 121.612 205.965 120.762C205.965 119.912 205.276 119.223 204.426 119.223C203.576 119.223 202.887 119.912 202.887 120.762C202.887 121.612 203.576 122.301 204.426 122.301Z" fill="black"/>
<path d="M208.926 129.051C209.776 129.051 210.465 128.362 210.465 127.512C210.465 126.662 209.776 125.973 208.926 125.973C208.076 125.973 207.387 126.662 207.387 127.512C207.387 128.362 208.076 129.051 208.926 129.051Z" fill="black"/>
<path d="M199.926 48.0507C200.776 48.0507 201.465 47.3616 201.465 46.5117C201.465 45.6617 200.776 44.9727 199.926 44.9727C199.076 44.9727 198.387 45.6617 198.387 46.5117C198.387 47.3616 199.076 48.0507 199.926 48.0507Z" fill="black"/>
<path d="M195.426 68.3007C196.276 68.3007 196.965 67.6116 196.965 66.7617C196.965 65.9117 196.276 65.2227 195.426 65.2227C194.576 65.2227 193.887 65.9117 193.887 66.7617C193.887 67.6116 194.576 68.3007 195.426 68.3007Z" fill="black"/>
<path d="M199.926 61.5507C200.776 61.5507 201.465 60.8616 201.465 60.0117C201.465 59.1617 200.776 58.4727 199.926 58.4727C199.076 58.4727 198.387 59.1617 198.387 60.0117C198.387 60.8616 199.076 61.5507 199.926 61.5507Z" fill="black"/>
<path d="M204.426 54.8007C205.276 54.8007 205.965 54.1116 205.965 53.2617C205.965 52.4117 205.276 51.7227 204.426 51.7227C203.576 51.7227 202.887 52.4117 202.887 53.2617C202.887 54.1116 203.576 54.8007 204.426 54.8007Z" fill="black"/>
<path d="M199.926 75.0507C200.776 75.0507 201.465 74.3616 201.465 73.5117C201.465 72.6617 200.776 71.9727 199.926 71.9727C199.076 71.9727 198.387 72.6617 198.387 73.5117C198.387 74.3616 199.076 75.0507 199.926 75.0507Z" fill="black"/>
<path d="M199.926 102.051C200.776 102.051 201.465 101.362 201.465 100.512C201.465 99.6617 200.776 98.9727 199.926 98.9727C199.076 98.9727 198.387 99.6617 198.387 100.512C198.387 101.362 199.076 102.051 199.926 102.051Z" fill="black"/>
<path d="M195.426 122.301C196.276 122.301 196.965 121.612 196.965 120.762C196.965 119.912 196.276 119.223 195.426 119.223C194.576 119.223 193.887 119.912 193.887 120.762C193.887 121.612 194.576 122.301 195.426 122.301Z" fill="black"/>
<path d="M199.926 115.551C200.776 115.551 201.465 114.862 201.465 114.012C201.465 113.162 200.776 112.473 199.926 112.473C199.076 112.473 198.387 113.162 198.387 114.012C198.387 114.862 199.076 115.551 199.926 115.551Z" fill="black"/>
<path d="M199.926 129.051C200.776 129.051 201.465 128.362 201.465 127.512C201.465 126.662 200.776 125.973 199.926 125.973C199.076 125.973 198.387 126.662 198.387 127.512C198.387 128.362 199.076 129.051 199.926 129.051Z" fill="black"/>
<path d="M190.926 48.0507C191.776 48.0507 192.465 47.3616 192.465 46.5117C192.465 45.6617 191.776 44.9727 190.926 44.9727C190.076 44.9727 189.387 45.6617 189.387 46.5117C189.387 47.3616 190.076 48.0507 190.926 48.0507Z" fill="black"/>
<path d="M186.426 68.3007C187.276 68.3007 187.965 67.6116 187.965 66.7617C187.965 65.9117 187.276 65.2227 186.426 65.2227C185.576 65.2227 184.887 65.9117 184.887 66.7617C184.887 67.6116 185.576 68.3007 186.426 68.3007Z" fill="black"/>
<path d="M190.926 61.5507C191.776 61.5507 192.465 60.8616 192.465 60.0117C192.465 59.1617 191.776 58.4727 190.926 58.4727C190.076 58.4727 189.387 59.1617 189.387 60.0117C189.387 60.8616 190.076 61.5507 190.926 61.5507Z" fill="black"/>
<path d="M195.426 54.8007C196.276 54.8007 196.965 54.1116 196.965 53.2617C196.965 52.4117 196.276 51.7227 195.426 51.7227C194.576 51.7227 193.887 52.4117 193.887 53.2617C193.887 54.1116 194.576 54.8007 195.426 54.8007Z" fill="black"/>
<path d="M190.926 75.0507C191.776 75.0507 192.465 74.3616 192.465 73.5117C192.465 72.6617 191.776 71.9727 190.926 71.9727C190.076 71.9727 189.387 72.6617 189.387 73.5117C189.387 74.3616 190.076 75.0507 190.926 75.0507Z" fill="black"/>
<path d="M186.426 95.3007C187.276 95.3007 187.965 94.6116 187.965 93.7617C187.965 92.9117 187.276 92.2227 186.426 92.2227C185.576 92.2227 184.887 92.9117 184.887 93.7617C184.887 94.6116 185.576 95.3007 186.426 95.3007Z" fill="black"/>
<path d="M190.926 102.051C191.776 102.051 192.465 101.362 192.465 100.512C192.465 99.6617 191.776 98.9727 190.926 98.9727C190.076 98.9727 189.387 99.6617 189.387 100.512C189.387 101.362 190.076 102.051 190.926 102.051Z" fill="black"/>
<path d="M186.426 122.301C187.276 122.301 187.965 121.612 187.965 120.762C187.965 119.912 187.276 119.223 186.426 119.223C185.576 119.223 184.887 119.912 184.887 120.762C184.887 121.612 185.576 122.301 186.426 122.301Z" fill="black"/>
<path d="M190.926 115.551C191.776 115.551 192.465 114.862 192.465 114.012C192.465 113.162 191.776 112.473 190.926 112.473C190.076 112.473 189.387 113.162 189.387 114.012C189.387 114.862 190.076 115.551 190.926 115.551Z" fill="black"/>
<path d="M195.426 108.801C196.276 108.801 196.965 108.112 196.965 107.262C196.965 106.412 196.276 105.723 195.426 105.723C194.576 105.723 193.887 106.412 193.887 107.262C193.887 108.112 194.576 108.801 195.426 108.801Z" fill="black"/>
<path d="M190.926 129.051C191.776 129.051 192.465 128.362 192.465 127.512C192.465 126.662 191.776 125.973 190.926 125.973C190.076 125.973 189.387 126.662 189.387 127.512C189.387 128.362 190.076 129.051 190.926 129.051Z" fill="black"/>
<path d="M181.926 61.5507C182.776 61.5507 183.465 60.8616 183.465 60.0117C183.465 59.1617 182.776 58.4727 181.926 58.4727C181.076 58.4727 180.387 59.1617 180.387 60.0117C180.387 60.8616 181.076 61.5507 181.926 61.5507Z" fill="black"/>
<path d="M186.426 54.8007C187.276 54.8007 187.965 54.1116 187.965 53.2617C187.965 52.4117 187.276 51.7227 186.426 51.7227C185.576 51.7227 184.887 52.4117 184.887 53.2617C184.887 54.1116 185.576 54.8007 186.426 54.8007Z" fill="black"/>
<path d="M177.426 81.8007C178.276 81.8007 178.965 81.1116 178.965 80.2617C178.965 79.4117 178.276 78.7227 177.426 78.7227C176.576 78.7227 175.887 79.4117 175.887 80.2617C175.887 81.1116 176.576 81.8007 177.426 81.8007Z" fill="black"/>
<path d="M181.926 75.0507C182.776 75.0507 183.465 74.3616 183.465 73.5117C183.465 72.6617 182.776 71.9727 181.926 71.9727C181.076 71.9727 180.387 72.6617 180.387 73.5117C180.387 74.3616 181.076 75.0507 181.926 75.0507Z" fill="black"/>
<path d="M186.426 81.8007C187.276 81.8007 187.965 81.1116 187.965 80.2617C187.965 79.4117 187.276 78.7227 186.426 78.7227C185.576 78.7227 184.887 79.4117 184.887 80.2617C184.887 81.1116 185.576 81.8007 186.426 81.8007Z" fill="black"/>
<path d="M181.926 102.051C182.776 102.051 183.465 101.362 183.465 100.512C183.465 99.6617 182.776 98.9727 181.926 98.9727C181.076 98.9727 180.387 99.6617 180.387 100.512C180.387 101.362 181.076 102.051 181.926 102.051Z" fill="black"/>
<path d="M181.926 115.551C182.776 115.551 183.465 114.862 183.465 114.012C183.465 113.162 182.776 112.473 181.926 112.473C181.076 112.473 180.387 113.162 180.387 114.012C180.387 114.862 181.076 115.551 181.926 115.551Z" fill="black"/>
<path d="M186.426 108.801C187.276 108.801 187.965 108.112 187.965 107.262C187.965 106.412 187.276 105.723 186.426 105.723C185.576 105.723 184.887 106.412 184.887 107.262C184.887 108.112 185.576 108.801 186.426 108.801Z" fill="black"/>
<path d="M177.426 108.801C178.276 108.801 178.965 108.112 178.965 107.262C178.965 106.412 178.276 105.723 177.426 105.723C176.576 105.723 175.887 106.412 175.887 107.262C175.887 108.112 176.576 108.801 177.426 108.801Z" fill="black"/>
<path d="M172.926 75.0507C173.776 75.0507 174.465 74.3616 174.465 73.5117C174.465 72.6617 173.776 71.9727 172.926 71.9727C172.076 71.9727 171.387 72.6617 171.387 73.5117C171.387 74.3616 172.076 75.0507 172.926 75.0507Z" fill="black"/>
<path d="M177.426 68.3007C178.276 68.3007 178.965 67.6116 178.965 66.7617C178.965 65.9117 178.276 65.2227 177.426 65.2227C176.576 65.2227 175.887 65.9117 175.887 66.7617C175.887 67.6116 176.576 68.3007 177.426 68.3007Z" fill="black"/>
<path d="M172.926 88.5507C173.776 88.5507 174.465 87.8616 174.465 87.0117C174.465 86.1617 173.776 85.4727 172.926 85.4727C172.076 85.4727 171.387 86.1617 171.387 87.0117C171.387 87.8616 172.076 88.5507 172.926 88.5507Z" fill="black"/>
<path d="M172.926 102.051C173.776 102.051 174.465 101.362 174.465 100.512C174.465 99.6617 173.776 98.9727 172.926 98.9727C172.076 98.9727 171.387 99.6617 171.387 100.512C171.387 101.362 172.076 102.051 172.926 102.051Z" fill="black"/>
<path d="M177.426 95.3007C178.276 95.3007 178.965 94.6116 178.965 93.7617C178.965 92.9117 178.276 92.2227 177.426 92.2227C176.576 92.2227 175.887 92.9117 175.887 93.7617C175.887 94.6116 176.576 95.3007 177.426 95.3007Z" fill="black"/>
<path d="M168.426 95.3007C169.276 95.3007 169.965 94.6116 169.965 93.7617C169.965 92.9117 169.276 92.2227 168.426 92.2227C167.576 92.2227 166.887 92.9117 166.887 93.7617C166.887 94.6116 167.576 95.3007 168.426 95.3007Z" fill="black"/>
<path d="M168.426 81.8007C169.276 81.8007 169.965 81.1116 169.965 80.2617C169.965 79.4117 169.276 78.7227 168.426 78.7227C167.576 78.7227 166.887 79.4117 166.887 80.2617C166.887 81.1116 167.576 81.8007 168.426 81.8007Z" fill="black"/>
<path d="M211.032 52.7587C210.843 52.2367 210.087 52.2367 209.887 52.7587L205.195 65.4357C204.968 65.3037 204.708 65.2227 204.426 65.2227C203.576 65.2227 202.887 65.9117 202.887 66.7617C202.887 67.5157 203.429 68.1397 204.145 68.2727L202.397 72.9957C201.408 75.6737 199.307 77.7857 196.64 78.7637L196.186 78.9317C195.96 78.8027 195.704 78.7237 195.426 78.7237C194.757 78.7237 194.194 79.1527 193.981 79.7487L176.392 86.2647C175.859 86.4537 175.859 87.2097 176.392 87.3987L193.898 93.8747C193.956 94.6717 194.614 95.3017 195.426 95.3017C195.854 95.3017 196.24 95.1267 196.52 94.8437L196.64 94.8877C199.307 95.8767 201.408 97.9887 202.397 100.656L204.278 105.739C203.498 105.814 202.887 106.464 202.887 107.263C202.887 108.113 203.576 108.802 204.426 108.802C204.755 108.802 205.058 108.697 205.308 108.521L207.405 114.186C207.434 114.447 207.523 114.688 207.666 114.893L209.887 120.893C210.087 121.427 210.843 121.427 211.032 120.893L218.009 102.043C218.82 101.999 219.466 101.334 219.466 100.512C219.466 100.113 219.31 99.7517 219.06 99.4787C220.175 97.3747 222.021 95.7257 224.289 94.8877L230.392 92.6287C230.084 92.9097 229.888 93.3117 229.888 93.7617C229.888 94.6117 230.577 95.3007 231.427 95.3007C232.277 95.3007 232.966 94.6117 232.966 93.7617C232.966 92.9287 232.303 92.2547 231.477 92.2277L243.583 87.7467C243.845 88.2237 244.345 88.5507 244.927 88.5507C245.777 88.5507 246.466 87.8617 246.466 87.0117C246.466 86.1617 245.777 85.4727 244.927 85.4727C244.471 85.4727 244.067 85.6747 243.785 85.9887L232.08 81.6507C232.602 81.4047 232.966 80.8777 232.966 80.2617C232.966 79.4117 232.277 78.7227 231.427 78.7227C230.577 78.7227 229.888 79.4117 229.888 80.2617C229.888 80.4857 229.938 80.6967 230.024 80.8877L224.29 78.7627C222.102 77.9637 220.311 76.3987 219.185 74.3947C219.361 74.1447 219.467 73.8407 219.467 73.5117C219.467 72.7387 218.895 72.1057 218.154 71.9957L211.034 52.7587H211.032ZM205.731 86.8197C205.731 84.2157 207.85 82.0967 210.455 82.0967C213.06 82.0967 215.178 84.2147 215.178 86.8197C215.178 89.4247 213.06 91.5537 210.455 91.5537C207.85 91.5537 205.731 89.4297 205.731 86.8197Z" fill="black"/>
<path d="M215.174 86.8206C215.174 84.2166 213.056 82.0977 210.451 82.0977C207.846 82.0977 205.727 84.2156 205.727 86.8206C205.727 89.4256 207.846 91.5547 210.451 91.5547C213.056 91.5547 215.174 89.4306 215.174 86.8206Z" fill="white"/>
</g>
<defs>
<clipPath id="clip0_10920_7613">
<rect width="413.333" height="328.88" fill="white"/>
</clipPath>
</defs>
</svg>
