<svg width="414" height="329" viewBox="0 0 414 329" fill="none" xmlns="http://www.w3.org/2000/svg">
<g clip-path="url(#clip0_10920_482)">
<path d="M203.282 15.4015C203.282 14.7375 202.75 14.2005 202.09 14.1875V16.6145C202.75 16.6025 203.282 16.0645 203.282 15.4015Z" fill="black"/>
<path d="M223.996 284.717V266.238C260.988 259.88 289.129 229.282 289.129 192.58C289.129 155.878 260.988 125.281 223.996 118.924V39.3111C223.996 39.1201 223.927 38.9361 223.802 38.7921L190.723 0.760039C190.506 0.512039 190.159 0.422046 189.85 0.539046C189.541 0.655046 189.337 0.949052 189.337 1.27905V120.212C159.414 127.726 136.383 151.345 131.373 180.595L53.737 160.697C52.694 160.431 51.589 160.624 50.696 161.224C49.806 161.824 49.215 162.783 49.075 163.849L45.258 192.92C45.12 193.959 45.429 195.019 46.103 195.823C46.775 196.627 47.761 197.116 48.805 197.165L130.868 201.072C131.14 203.334 131.505 205.57 131.987 207.768L50.489 220.552C49.428 220.719 48.486 221.334 47.906 222.239C47.328 223.144 47.164 224.257 47.456 225.291L55.444 253.502C55.729 254.51 56.43 255.36 57.366 255.834C57.895 256.102 58.478 256.236 59.062 256.236C59.508 256.236 59.956 256.157 60.382 255.997L138.99 226.504C149.127 245.237 167.372 259.435 189.335 264.954V284.717H11.97C7.958 284.717 3.971 284.822 0 284.99V366.32H190.917V3.39204L207.57 22.538C207.513 22.53 207.457 22.521 207.398 22.521C206.727 22.521 206.183 23.065 206.183 23.737C206.183 24.409 206.727 24.953 207.398 24.953C208.069 24.953 208.613 24.41 208.614 23.739L211.534 27.097C211.524 27.161 211.514 27.2251 211.514 27.2921C211.514 27.9641 212.058 28.508 212.73 28.508C212.74 28.508 212.749 28.505 212.759 28.505L222.415 39.607V40.799C222.269 40.999 222.18 41.2451 222.18 41.5121C222.18 41.7791 222.269 42.025 222.415 42.226V47.909C222.269 48.11 222.18 48.355 222.18 48.623C222.18 48.891 222.269 49.1361 222.415 49.3371V55.0201C222.269 55.2201 222.18 55.466 222.18 55.733C222.18 56 222.269 56.2461 222.415 56.4471V62.1301C222.269 62.3301 222.18 62.576 222.18 62.843C222.18 63.11 222.269 63.3561 222.415 63.5571V69.2401C222.269 69.4411 222.18 69.686 222.18 69.954C222.18 70.222 222.269 70.467 222.415 70.668V76.351C222.269 76.552 222.18 76.797 222.18 77.064C222.18 77.331 222.269 77.577 222.415 77.778V83.461C222.269 83.661 222.18 83.907 222.18 84.174C222.18 84.441 222.269 84.687 222.415 84.888V90.571C222.269 90.771 222.18 91.017 222.18 91.284C222.18 91.551 222.269 91.797 222.415 91.998V97.681C222.269 97.882 222.18 98.1271 222.18 98.3951C222.18 98.6631 222.269 98.908 222.415 99.108V104.791C222.269 104.991 222.18 105.237 222.18 105.504C222.18 105.771 222.269 106.017 222.415 106.218V111.901C222.269 112.102 222.18 112.347 222.18 112.615C222.18 112.883 222.269 113.128 222.415 113.329V119.012C222.269 119.213 222.18 119.458 222.18 119.725C222.18 119.992 222.269 120.238 222.415 120.439V126.122C222.269 126.323 222.18 126.568 222.18 126.835C222.18 127.102 222.269 127.348 222.415 127.549V133.232C222.269 133.432 222.18 133.678 222.18 133.945C222.18 134.212 222.269 134.458 222.415 134.659V140.342C222.269 140.543 222.18 140.788 222.18 141.056C222.18 141.324 222.269 141.569 222.415 141.769V147.452C222.269 147.652 222.18 147.898 222.18 148.165C222.18 148.432 222.269 148.678 222.415 148.879V154.562C222.269 154.763 222.18 155.008 222.18 155.276C222.18 155.544 222.269 155.789 222.415 155.99V161.673C222.269 161.874 222.18 162.119 222.18 162.386C222.18 162.653 222.269 162.899 222.415 163.1V168.783C222.269 168.984 222.18 169.229 222.18 169.496C222.18 169.763 222.269 170.009 222.415 170.21V175.893C222.269 176.093 222.18 176.339 222.18 176.606C222.18 176.873 222.269 177.119 222.415 177.32V183.003C222.269 183.204 222.18 183.449 222.18 183.717C222.18 183.985 222.269 184.23 222.415 184.43V190.113C222.269 190.313 222.18 190.559 222.18 190.826C222.18 191.093 222.269 191.339 222.415 191.54V197.223C222.269 197.424 222.18 197.669 222.18 197.937C222.18 198.205 222.269 198.45 222.415 198.651V204.334C222.269 204.535 222.18 204.78 222.18 205.047C222.18 205.314 222.269 205.56 222.415 205.761V211.444C222.269 211.645 222.18 211.89 222.18 212.157C222.18 212.424 222.269 212.67 222.415 212.871V218.554C222.269 218.754 222.18 219 222.18 219.267C222.18 219.534 222.269 219.78 222.415 219.981V225.664C222.269 225.865 222.18 226.11 222.18 226.378C222.18 226.646 222.269 226.891 222.415 227.092V232.775C222.269 232.975 222.18 233.221 222.18 233.488C222.18 233.755 222.269 234.001 222.415 234.202V239.885C222.269 240.086 222.18 240.331 222.18 240.599C222.18 240.867 222.269 241.112 222.415 241.313V246.996C222.269 247.197 222.18 247.442 222.18 247.709C222.18 247.976 222.269 248.222 222.415 248.423V254.106C222.269 254.307 222.18 254.552 222.18 254.819C222.18 255.086 222.269 255.332 222.415 255.533V261.216C222.269 261.416 222.18 261.662 222.18 261.929C222.18 262.196 222.269 262.442 222.415 262.643V268.326C222.269 268.527 222.18 268.772 222.18 269.04C222.18 269.308 222.269 269.553 222.415 269.754V275.437C222.269 275.638 222.18 275.883 222.18 276.15C222.18 276.417 222.269 276.663 222.415 276.864V282.547C222.269 282.747 222.18 282.993 222.18 283.26C222.18 283.527 222.269 283.773 222.415 283.974V289.657C222.269 289.858 222.18 290.103 222.18 290.371C222.18 290.639 222.269 290.884 222.415 291.085V296.768C222.269 296.969 222.18 297.214 222.18 297.481C222.18 297.748 222.269 297.994 222.415 298.195V303.878C222.269 304.078 222.18 304.324 222.18 304.591C222.18 304.858 222.269 305.104 222.415 305.305V310.988C222.269 311.188 222.18 311.434 222.18 311.701C222.18 311.968 222.269 312.214 222.415 312.415V318.098C222.269 318.299 222.18 318.544 222.18 318.812C222.18 319.08 222.269 319.325 222.415 319.525V325.208C222.269 325.408 222.18 325.654 222.18 325.921C222.18 326.188 222.269 326.434 222.415 326.635V332.318C222.269 332.519 222.18 332.764 222.18 333.032C222.18 333.3 222.269 333.545 222.415 333.746V339.429C222.269 339.63 222.18 339.875 222.18 340.142C222.18 340.409 222.269 340.655 222.415 340.856V346.539C222.269 346.74 222.18 346.985 222.18 347.252C222.18 347.519 222.269 347.765 222.415 347.966V353.649C222.269 353.849 222.18 354.095 222.18 354.362C222.18 354.629 222.269 354.875 222.415 355.076V360.759C222.269 360.96 222.18 361.205 222.18 361.473C222.18 361.741 222.269 361.986 222.415 362.186V366.319H413.332V284.989C409.361 284.821 405.374 284.716 401.362 284.716H223.995L223.996 284.717ZM223.996 172.015C234.241 173.276 247.512 176.815 257.93 186.713C264.339 192.796 263.091 202.671 259.725 207.463C256.642 211.844 250.404 213.852 244.077 213.852C240.609 213.852 237.117 213.25 234.1 212.104C231.095 210.966 227.717 209.958 224.063 209.113C224.041 209.108 224.018 209.104 223.996 209.1V172.015ZM189.337 210.756C187.96 211.183 186.628 211.63 185.374 212.105C176.851 215.338 164.521 214.244 159.749 207.463C156.382 202.669 155.135 192.792 161.544 186.711C169.986 178.69 180.289 174.846 189.337 173.004V210.756Z" fill="black"/>
<path d="M159.748 207.463C164.52 214.243 176.85 215.338 185.373 212.105C186.627 211.63 187.959 211.184 189.336 210.756V173.004C180.288 174.847 169.985 178.691 161.543 186.711C155.134 192.792 156.38 202.669 159.748 207.463Z" fill="white"/>
<path d="M234.1 212.105C237.117 213.251 240.609 213.853 244.077 213.853C250.404 213.853 256.642 211.844 259.725 207.464C263.09 202.672 264.339 192.797 257.93 186.714C247.512 176.816 234.241 173.277 223.996 172.016V209.101C224.018 209.106 224.041 209.109 224.063 209.114C227.717 209.958 231.095 210.967 234.1 212.105Z" fill="white"/>
<path d="M222.181 361.476C222.181 361.208 222.27 360.963 222.416 360.762V355.079C222.27 354.878 222.181 354.633 222.181 354.365C222.181 354.097 222.27 353.852 222.416 353.652V347.969C222.27 347.768 222.181 347.523 222.181 347.255C222.181 346.987 222.27 346.742 222.416 346.542V340.859C222.27 340.658 222.181 340.413 222.181 340.145C222.181 339.877 222.27 339.632 222.416 339.432V333.749C222.27 333.548 222.181 333.303 222.181 333.035C222.181 332.767 222.27 332.522 222.416 332.321V326.638C222.27 326.437 222.181 326.192 222.181 325.924C222.181 325.656 222.27 325.411 222.416 325.211V319.528C222.27 319.327 222.181 319.082 222.181 318.815C222.181 318.548 222.27 318.302 222.416 318.101V312.418C222.27 312.217 222.181 311.972 222.181 311.704C222.181 311.436 222.27 311.191 222.416 310.991V305.308C222.27 305.107 222.181 304.862 222.181 304.594C222.181 304.326 222.27 304.081 222.416 303.881V298.198C222.27 297.997 222.181 297.752 222.181 297.484C222.181 297.216 222.27 296.971 222.416 296.771V291.088C222.27 290.887 222.181 290.642 222.181 290.374C222.181 290.106 222.27 289.861 222.416 289.66V283.977C222.27 283.776 222.181 283.531 222.181 283.263C222.181 282.995 222.27 282.75 222.416 282.55V276.867C222.27 276.666 222.181 276.421 222.181 276.153C222.181 275.885 222.27 275.64 222.416 275.44V269.757C222.27 269.556 222.181 269.311 222.181 269.043C222.181 268.775 222.27 268.53 222.416 268.329V262.646C222.27 262.445 222.181 262.2 222.181 261.932C222.181 261.664 222.27 261.419 222.416 261.219V255.536C222.27 255.335 222.181 255.09 222.181 254.822C222.181 254.554 222.27 254.309 222.416 254.109V248.426C222.27 248.225 222.181 247.98 222.181 247.712C222.181 247.444 222.27 247.199 222.416 246.999V241.316C222.27 241.115 222.181 240.87 222.181 240.602C222.181 240.334 222.27 240.089 222.416 239.888V234.205C222.27 234.004 222.181 233.759 222.181 233.491C222.181 233.223 222.27 232.978 222.416 232.778V227.095C222.27 226.894 222.181 226.649 222.181 226.381C222.181 226.113 222.27 225.868 222.416 225.667V219.984C222.27 219.783 222.181 219.538 222.181 219.27C222.181 219.002 222.27 218.757 222.416 218.557V212.874C222.27 212.673 222.181 212.428 222.181 212.16C222.181 211.892 222.27 211.647 222.416 211.447V205.764C222.27 205.563 222.181 205.318 222.181 205.05C222.181 204.782 222.27 204.537 222.416 204.337V198.654C222.27 198.453 222.181 198.208 222.181 197.94C222.181 197.672 222.27 197.427 222.416 197.226V191.543C222.27 191.342 222.181 191.097 222.181 190.829C222.181 190.561 222.27 190.316 222.416 190.116V184.433C222.27 184.232 222.181 183.987 222.181 183.72C222.181 183.453 222.27 183.207 222.416 183.006V177.323C222.27 177.122 222.181 176.877 222.181 176.609C222.181 176.341 222.27 176.096 222.416 175.896V170.213C222.27 170.012 222.181 169.767 222.181 169.499C222.181 169.231 222.27 168.986 222.416 168.786V163.103C222.27 162.902 222.181 162.657 222.181 162.389C222.181 162.121 222.27 161.876 222.416 161.676V155.993C222.27 155.792 222.181 155.547 222.181 155.279C222.181 155.011 222.27 154.766 222.416 154.565V148.882C222.27 148.681 222.181 148.436 222.181 148.168C222.181 147.9 222.27 147.655 222.416 147.455V141.772C222.27 141.571 222.181 141.326 222.181 141.059C222.181 140.792 222.27 140.546 222.416 140.345V134.662C222.27 134.461 222.181 134.216 222.181 133.948C222.181 133.68 222.27 133.435 222.416 133.235V127.552C222.27 127.351 222.181 127.106 222.181 126.838C222.181 126.57 222.27 126.325 222.416 126.125V120.442C222.27 120.241 222.181 119.996 222.181 119.728C222.181 119.46 222.27 119.215 222.416 119.015V113.332C222.27 113.131 222.181 112.886 222.181 112.618C222.181 112.35 222.27 112.105 222.416 111.904V106.221C222.27 106.02 222.181 105.775 222.181 105.507C222.181 105.239 222.27 104.994 222.416 104.794V99.1105C222.27 98.9095 222.181 98.6645 222.181 98.3975C222.181 98.1305 222.27 97.8845 222.416 97.6835V92.0005C222.27 91.7995 222.181 91.5545 222.181 91.2865C222.181 91.0185 222.27 90.7735 222.416 90.5735V84.8905C222.27 84.6895 222.181 84.4445 222.181 84.1765C222.181 83.9085 222.27 83.6635 222.416 83.4635V77.7805C222.27 77.5795 222.181 77.3345 222.181 77.0665C222.181 76.7985 222.27 76.5535 222.416 76.3535V70.6705C222.27 70.4695 222.181 70.2245 222.181 69.9565C222.181 69.6885 222.27 69.4435 222.416 69.2425V63.5595C222.27 63.3585 222.181 63.1135 222.181 62.8455C222.181 62.5775 222.27 62.3325 222.416 62.1325V56.4495C222.27 56.2485 222.181 56.0035 222.181 55.7355C222.181 55.4675 222.27 55.2225 222.416 55.0225V49.3395C222.27 49.1385 222.181 48.8935 222.181 48.6255C222.181 48.3575 222.27 48.1125 222.416 47.9115V42.2285C222.27 42.0275 222.181 41.7825 222.181 41.5145C222.181 41.2465 222.27 41.0015 222.416 40.8015V39.6095L212.76 28.5075C212.75 28.5075 212.741 28.5105 212.731 28.5105C212.06 28.5105 211.515 27.9665 211.515 27.2945C211.515 27.2275 211.524 27.1635 211.535 27.0995L208.615 23.7415C208.615 24.4125 208.07 24.9555 207.399 24.9555C206.728 24.9555 206.184 24.4115 206.184 23.7395C206.184 23.0675 206.728 22.5235 207.399 22.5235C207.458 22.5235 207.515 22.5325 207.571 22.5405L190.918 3.39453V366.324H222.417V362.191C222.271 361.99 222.182 361.745 222.182 361.478L222.181 361.476ZM202.066 362.692C202.045 362.692 202.025 362.687 202.004 362.686V360.267C202.025 360.267 202.045 360.261 202.066 360.261C202.737 360.261 203.282 360.805 203.282 361.477C203.282 362.149 202.738 362.693 202.066 362.693V362.692ZM202.066 355.581C202.045 355.581 202.026 355.576 202.006 355.575V353.155C202.027 353.155 202.046 353.149 202.066 353.149C202.737 353.149 203.282 353.693 203.282 354.365C203.282 355.037 202.738 355.581 202.066 355.581ZM202.066 348.471C202.046 348.471 202.028 348.466 202.008 348.465V346.045C202.029 346.045 202.047 346.039 202.066 346.039C202.737 346.039 203.282 346.583 203.282 347.255C203.282 347.927 202.738 348.471 202.066 348.471ZM202.066 341.361C202.047 341.361 202.029 341.356 202.01 341.355V338.934C202.03 338.934 202.047 338.929 202.066 338.929C202.737 338.929 203.282 339.473 203.282 340.145C203.282 340.817 202.738 341.361 202.066 341.361ZM202.066 334.25C202.047 334.25 202.03 334.245 202.012 334.245V331.824C202.031 331.824 202.048 331.819 202.066 331.819C202.737 331.819 203.282 332.363 203.282 333.035C203.282 333.707 202.738 334.251 202.066 334.251V334.25ZM202.066 327.14C202.048 327.14 202.032 327.135 202.014 327.135V324.714C202.033 324.714 202.049 324.709 202.066 324.709C202.737 324.709 203.282 325.253 203.282 325.925C203.282 326.597 202.738 327.141 202.066 327.141V327.14ZM202.066 320.03C202.049 320.03 202.033 320.026 202.016 320.025V317.604C202.034 317.604 202.049 317.599 202.066 317.599C202.737 317.599 203.282 318.143 203.282 318.815C203.282 319.487 202.738 320.03 202.066 320.03ZM202.066 312.92C202.049 312.92 202.034 312.916 202.018 312.915V310.493C202.035 310.493 202.05 310.488 202.066 310.488C202.737 310.488 203.282 311.032 203.282 311.704C203.282 312.376 202.738 312.92 202.066 312.92ZM202.066 305.809C202.05 305.809 202.035 305.805 202.02 305.804V303.382C202.036 303.382 202.051 303.377 202.066 303.377C202.737 303.377 203.282 303.921 203.282 304.593C203.282 305.265 202.738 305.809 202.066 305.809ZM202.066 298.699C202.051 298.699 202.036 298.695 202.021 298.694V296.271C202.037 296.271 202.051 296.267 202.066 296.267C202.737 296.267 203.282 296.811 203.282 297.483C203.282 298.155 202.738 298.699 202.066 298.699ZM202.066 291.589C202.051 291.589 202.038 291.585 202.023 291.585V289.162C202.038 289.162 202.052 289.158 202.066 289.158C202.737 289.158 203.282 289.702 203.282 290.374C203.282 291.046 202.738 291.589 202.066 291.589ZM202.066 284.478C202.052 284.478 202.039 284.474 202.024 284.474V282.051C202.039 282.051 202.052 282.047 202.066 282.047C202.737 282.047 203.282 282.591 203.282 283.263C203.282 283.935 202.738 284.478 202.066 284.478ZM202.066 277.368C202.052 277.368 202.04 277.364 202.026 277.364V274.94C202.04 274.94 202.052 274.936 202.066 274.936C202.737 274.936 203.282 275.48 203.282 276.152C203.282 276.824 202.738 277.368 202.066 277.368ZM202.066 270.258C202.053 270.258 202.041 270.255 202.028 270.254V267.83C202.041 267.83 202.053 267.826 202.066 267.826C202.737 267.826 203.282 268.37 203.282 269.042C203.282 269.714 202.738 270.258 202.066 270.258ZM202.066 263.148C202.054 263.148 202.043 263.145 202.03 263.144V260.719C202.043 260.719 202.053 260.716 202.066 260.716C202.737 260.716 203.282 261.26 203.282 261.932C203.282 262.604 202.738 263.148 202.066 263.148ZM202.066 256.038C202.054 256.038 202.044 256.035 202.032 256.034V253.609C202.044 253.609 202.054 253.606 202.066 253.606C202.737 253.606 203.282 254.15 203.282 254.822C203.282 255.494 202.738 256.038 202.066 256.038ZM202.066 248.927C202.055 248.927 202.045 248.924 202.034 248.924V246.499C202.045 246.499 202.055 246.496 202.066 246.496C202.737 246.496 203.282 247.04 203.282 247.712C203.282 248.384 202.738 248.928 202.066 248.928V248.927ZM202.066 241.817C202.056 241.817 202.046 241.814 202.036 241.814V239.388C202.047 239.388 202.056 239.385 202.066 239.385C202.737 239.385 203.282 239.929 203.282 240.601C203.282 241.273 202.738 241.817 202.066 241.817ZM202.066 234.707C202.056 234.707 202.047 234.704 202.038 234.704V232.278C202.048 232.278 202.057 232.275 202.066 232.275C202.737 232.275 203.282 232.819 203.282 233.491C203.282 234.163 202.738 234.707 202.066 234.707ZM202.066 227.596C202.057 227.596 202.049 227.594 202.039 227.593V225.166C202.049 225.166 202.057 225.164 202.066 225.164C202.737 225.164 203.282 225.708 203.282 226.38C203.282 227.052 202.738 227.596 202.066 227.596ZM202.066 220.486C202.058 220.486 202.05 220.484 202.041 220.484V218.057C202.05 218.057 202.058 218.055 202.066 218.055C202.737 218.055 203.282 218.599 203.282 219.271C203.282 219.943 202.738 220.486 202.066 220.486ZM202.066 213.376C202.058 213.376 202.051 213.374 202.043 213.374V210.947C202.051 210.947 202.058 210.945 202.066 210.945C202.737 210.945 203.282 211.489 203.282 212.161C203.282 212.833 202.738 213.377 202.066 213.377V213.376ZM202.066 206.266C202.059 206.266 202.052 206.264 202.045 206.264V203.837C202.052 203.837 202.059 203.835 202.066 203.835C202.737 203.835 203.282 204.379 203.282 205.051C203.282 205.723 202.738 206.266 202.066 206.266ZM202.066 199.155C202.06 199.155 202.053 199.153 202.047 199.153V196.725C202.054 196.725 202.06 196.723 202.066 196.723C202.737 196.723 203.282 197.267 203.282 197.939C203.282 198.611 202.738 199.155 202.066 199.155ZM202.066 192.045C202.06 192.045 202.054 192.043 202.049 192.043V189.615C202.055 189.615 202.06 189.614 202.066 189.614C202.737 189.614 203.282 190.158 203.282 190.83C203.282 191.502 202.738 192.046 202.066 192.046V192.045ZM202.066 184.935C202.061 184.935 202.056 184.934 202.05 184.934V182.505C202.055 182.505 202.061 182.504 202.066 182.504C202.737 182.504 203.282 183.048 203.282 183.72C203.282 184.392 202.738 184.936 202.066 184.936V184.935ZM202.066 177.824C202.066 177.824 202.057 177.823 202.052 177.823V175.394C202.052 175.394 202.061 175.393 202.066 175.393C202.737 175.393 203.282 175.937 203.282 176.609C203.282 177.281 202.738 177.825 202.066 177.825V177.824ZM202.066 170.714C202.066 170.714 202.058 170.714 202.054 170.714V168.285C202.054 168.285 202.062 168.284 202.066 168.284C202.737 168.284 203.282 168.828 203.282 169.5C203.282 170.172 202.738 170.716 202.066 170.716V170.714ZM202.066 163.604C202.066 163.604 202.06 163.604 202.056 163.604V161.174C202.056 161.174 202.063 161.174 202.066 161.174C202.737 161.174 203.282 161.718 203.282 162.39C203.282 163.062 202.738 163.606 202.066 163.606V163.604ZM202.066 156.494C202.066 156.494 202.061 156.494 202.058 156.494V154.064C202.058 154.064 202.064 154.064 202.066 154.064C202.737 154.064 203.282 154.608 203.282 155.28C203.282 155.952 202.738 156.496 202.066 156.496V156.494ZM202.066 149.384C202.066 149.384 202.062 149.384 202.06 149.384V146.954C202.06 146.954 202.064 146.954 202.066 146.954C202.737 146.954 203.282 147.498 203.282 148.17C203.282 148.842 202.738 149.386 202.066 149.386V149.384ZM202.066 142.273C202.066 142.273 202.063 142.273 202.062 142.273V139.842C202.062 139.842 202.065 139.842 202.066 139.842C202.737 139.842 203.282 140.386 203.282 141.058C203.282 141.73 202.738 142.274 202.066 142.274V142.273ZM202.066 135.163H202.064V132.732H202.066C202.737 132.732 203.282 133.276 203.282 133.948C203.282 134.62 202.738 135.164 202.066 135.164V135.163ZM202.066 128.052V125.62C202.737 125.62 203.282 126.164 203.282 126.836C203.282 127.508 202.738 128.052 202.066 128.052ZM202.067 120.942V118.51C202.738 118.51 203.282 119.055 203.282 119.726C203.282 120.397 202.738 120.942 202.067 120.942ZM202.069 113.832V111.401C202.739 111.403 203.282 111.946 203.282 112.617C203.282 113.288 202.74 113.831 202.069 113.833V113.832ZM202.071 106.721V104.29C202.741 104.293 203.282 104.835 203.282 105.505C203.282 106.175 202.74 106.718 202.071 106.721ZM202.073 99.6105V97.1805C202.742 97.1845 203.282 97.7265 203.282 98.3955C203.282 99.0645 202.741 99.6075 202.073 99.6105ZM202.074 92.4995V90.0695C202.742 90.0745 203.282 90.6165 203.282 91.2845C203.282 91.9525 202.742 92.4955 202.074 92.4995ZM202.076 85.3895V82.9595C202.743 82.9655 203.282 83.5065 203.282 84.1745C203.282 84.8425 202.743 85.3835 202.076 85.3895ZM202.078 78.2795V75.8505C202.745 75.8575 203.282 76.3975 203.282 77.0645C203.282 77.7315 202.744 78.2725 202.078 78.2795ZM202.08 71.1685V68.7395C202.746 68.7475 203.282 69.2875 203.282 69.9535C203.282 70.6195 202.745 71.1605 202.08 71.1685ZM202.082 64.0585V61.6305C202.747 61.6395 203.282 62.1785 203.282 62.8445C203.282 63.5105 202.746 64.0505 202.082 64.0585ZM202.084 56.9475V54.5195C202.748 54.5295 203.282 55.0685 203.282 55.7335C203.282 56.3985 202.747 56.9385 202.084 56.9475ZM202.085 49.8375V47.4095C202.748 47.4205 203.282 47.9585 203.282 48.6235C203.282 49.2885 202.748 49.8275 202.085 49.8375ZM202.087 42.7265V40.2995C202.749 40.3115 203.282 40.8495 203.282 41.5135C203.282 42.1775 202.749 42.7155 202.087 42.7275V42.7265ZM202.089 35.6165V33.1895C202.75 33.2025 203.282 33.7395 203.282 34.4025C203.282 35.0655 202.75 35.6035 202.089 35.6165ZM202.091 28.5055V26.0785C202.751 26.0925 203.282 26.6295 203.282 27.2915C203.282 27.9535 202.75 28.4915 202.091 28.5055ZM202.093 21.3955V18.9695C202.753 18.9845 203.282 19.5205 203.282 20.1825C203.282 20.8445 202.752 21.3815 202.093 21.3955ZM207.399 366.247C206.728 366.247 206.184 365.703 206.184 365.031C206.184 364.359 206.728 363.815 207.399 363.815C208.07 363.815 208.615 364.359 208.615 365.031C208.615 365.703 208.071 366.247 207.399 366.247ZM207.399 359.136C206.728 359.136 206.184 358.592 206.184 357.92C206.184 357.248 206.728 356.704 207.399 356.704C208.07 356.704 208.615 357.248 208.615 357.92C208.615 358.592 208.071 359.136 207.399 359.136ZM207.399 352.026C206.728 352.026 206.184 351.482 206.184 350.81C206.184 350.138 206.728 349.594 207.399 349.594C208.07 349.594 208.615 350.138 208.615 350.81C208.615 351.482 208.071 352.026 207.399 352.026ZM207.399 344.916C206.728 344.916 206.184 344.372 206.184 343.7C206.184 343.028 206.728 342.484 207.399 342.484C208.07 342.484 208.615 343.028 208.615 343.7C208.615 344.372 208.071 344.916 207.399 344.916ZM207.399 337.806C206.728 337.806 206.184 337.262 206.184 336.59C206.184 335.918 206.728 335.374 207.399 335.374C208.07 335.374 208.615 335.918 208.615 336.59C208.615 337.262 208.071 337.806 207.399 337.806ZM207.399 330.695C206.728 330.695 206.184 330.151 206.184 329.479C206.184 328.807 206.728 328.263 207.399 328.263C208.07 328.263 208.615 328.807 208.615 329.479C208.615 330.151 208.071 330.695 207.399 330.695ZM207.399 323.585C206.728 323.585 206.184 323.041 206.184 322.369C206.184 321.697 206.728 321.153 207.399 321.153C208.07 321.153 208.615 321.697 208.615 322.369C208.615 323.041 208.071 323.585 207.399 323.585ZM207.399 316.475C206.728 316.475 206.184 315.931 206.184 315.259C206.184 314.587 206.728 314.043 207.399 314.043C208.07 314.043 208.615 314.587 208.615 315.259C208.615 315.931 208.071 316.475 207.399 316.475ZM207.399 309.364C206.728 309.364 206.184 308.82 206.184 308.148C206.184 307.476 206.728 306.932 207.399 306.932C208.07 306.932 208.615 307.476 208.615 308.148C208.615 308.82 208.071 309.364 207.399 309.364ZM207.399 302.254C206.728 302.254 206.184 301.71 206.184 301.038C206.184 300.366 206.728 299.822 207.399 299.822C208.07 299.822 208.615 300.366 208.615 301.038C208.615 301.71 208.071 302.254 207.399 302.254ZM207.399 295.144C206.728 295.144 206.184 294.6 206.184 293.928C206.184 293.256 206.728 292.712 207.399 292.712C208.07 292.712 208.615 293.256 208.615 293.928C208.615 294.6 208.071 295.144 207.399 295.144ZM207.399 288.034C206.728 288.034 206.184 287.49 206.184 286.818C206.184 286.146 206.728 285.602 207.399 285.602C208.07 285.602 208.615 286.146 208.615 286.818C208.615 287.49 208.071 288.034 207.399 288.034ZM207.399 280.924C206.728 280.924 206.184 280.38 206.184 279.708C206.184 279.036 206.728 278.492 207.399 278.492C208.07 278.492 208.615 279.036 208.615 279.708C208.615 280.38 208.071 280.924 207.399 280.924ZM207.399 273.813C206.728 273.813 206.184 273.269 206.184 272.597C206.184 271.925 206.728 271.381 207.399 271.381C208.07 271.381 208.615 271.925 208.615 272.597C208.615 273.269 208.071 273.813 207.399 273.813ZM207.399 266.703C206.728 266.703 206.184 266.159 206.184 265.487C206.184 264.815 206.728 264.271 207.399 264.271C208.07 264.271 208.615 264.815 208.615 265.487C208.615 266.159 208.071 266.703 207.399 266.703ZM207.399 259.592C206.728 259.592 206.184 259.048 206.184 258.376C206.184 257.704 206.728 257.16 207.399 257.16C208.07 257.16 208.615 257.704 208.615 258.376C208.615 259.048 208.071 259.592 207.399 259.592ZM207.399 252.482C206.728 252.482 206.184 251.938 206.184 251.266C206.184 250.594 206.728 250.05 207.399 250.05C208.07 250.05 208.615 250.594 208.615 251.266C208.615 251.938 208.071 252.482 207.399 252.482ZM207.399 245.372C206.728 245.372 206.184 244.828 206.184 244.156C206.184 243.484 206.728 242.94 207.399 242.94C208.07 242.94 208.615 243.484 208.615 244.156C208.615 244.828 208.071 245.372 207.399 245.372ZM207.399 238.262C206.728 238.262 206.184 237.718 206.184 237.046C206.184 236.374 206.728 235.83 207.399 235.83C208.07 235.83 208.615 236.374 208.615 237.046C208.615 237.718 208.071 238.262 207.399 238.262ZM207.399 231.152C206.728 231.152 206.184 230.608 206.184 229.936C206.184 229.264 206.728 228.72 207.399 228.72C208.07 228.72 208.615 229.264 208.615 229.936C208.615 230.608 208.071 231.152 207.399 231.152ZM207.399 224.041C206.728 224.041 206.184 223.497 206.184 222.825C206.184 222.153 206.728 221.609 207.399 221.609C208.07 221.609 208.615 222.153 208.615 222.825C208.615 223.497 208.071 224.041 207.399 224.041ZM207.399 216.931C206.728 216.931 206.184 216.387 206.184 215.715C206.184 215.043 206.728 214.499 207.399 214.499C208.07 214.499 208.615 215.043 208.615 215.715C208.615 216.387 208.071 216.931 207.399 216.931ZM207.399 209.821C206.728 209.821 206.184 209.277 206.184 208.605C206.184 207.933 206.728 207.389 207.399 207.389C208.07 207.389 208.615 207.933 208.615 208.605C208.615 209.277 208.071 209.821 207.399 209.821ZM207.399 202.71C206.728 202.71 206.184 202.166 206.184 201.494C206.184 200.822 206.728 200.278 207.399 200.278C208.07 200.278 208.615 200.822 208.615 201.494C208.615 202.166 208.071 202.71 207.399 202.71ZM207.399 195.6C206.728 195.6 206.184 195.056 206.184 194.384C206.184 193.712 206.728 193.168 207.399 193.168C208.07 193.168 208.615 193.712 208.615 194.384C208.615 195.056 208.071 195.6 207.399 195.6ZM207.399 188.49C206.728 188.49 206.184 187.946 206.184 187.274C206.184 186.602 206.728 186.058 207.399 186.058C208.07 186.058 208.615 186.602 208.615 187.274C208.615 187.946 208.071 188.49 207.399 188.49ZM207.399 181.38C206.728 181.38 206.184 180.836 206.184 180.164C206.184 179.492 206.728 178.948 207.399 178.948C208.07 178.948 208.615 179.492 208.615 180.164C208.615 180.836 208.071 181.38 207.399 181.38ZM207.399 174.269C206.728 174.269 206.184 173.725 206.184 173.053C206.184 172.381 206.728 171.837 207.399 171.837C208.07 171.837 208.615 172.381 208.615 173.053C208.615 173.725 208.071 174.269 207.399 174.269ZM207.399 167.159C206.728 167.159 206.184 166.615 206.184 165.943C206.184 165.271 206.728 164.727 207.399 164.727C208.07 164.727 208.615 165.271 208.615 165.943C208.615 166.615 208.071 167.159 207.399 167.159ZM207.399 160.049C206.728 160.049 206.184 159.505 206.184 158.833C206.184 158.161 206.728 157.617 207.399 157.617C208.07 157.617 208.615 158.161 208.615 158.833C208.615 159.505 208.071 160.049 207.399 160.049ZM207.399 152.938C206.728 152.938 206.184 152.394 206.184 151.722C206.184 151.05 206.728 150.506 207.399 150.506C208.07 150.506 208.615 151.05 208.615 151.722C208.615 152.394 208.071 152.938 207.399 152.938ZM207.399 145.828C206.728 145.828 206.184 145.284 206.184 144.612C206.184 143.94 206.728 143.396 207.399 143.396C208.07 143.396 208.615 143.94 208.615 144.612C208.615 145.284 208.071 145.828 207.399 145.828ZM207.399 138.718C206.728 138.718 206.184 138.174 206.184 137.502C206.184 136.83 206.728 136.286 207.399 136.286C208.07 136.286 208.615 136.83 208.615 137.502C208.615 138.174 208.071 138.718 207.399 138.718ZM207.399 131.608C206.728 131.608 206.184 131.064 206.184 130.392C206.184 129.72 206.728 129.176 207.399 129.176C208.07 129.176 208.615 129.72 208.615 130.392C208.615 131.064 208.071 131.608 207.399 131.608ZM207.399 124.497C206.728 124.497 206.184 123.953 206.184 123.281C206.184 122.609 206.728 122.065 207.399 122.065C208.07 122.065 208.615 122.609 208.615 123.281C208.615 123.953 208.071 124.497 207.399 124.497ZM207.399 117.387C206.728 117.387 206.184 116.843 206.184 116.171C206.184 115.499 206.728 114.955 207.399 114.955C208.07 114.955 208.615 115.499 208.615 116.171C208.615 116.843 208.071 117.387 207.399 117.387ZM207.399 110.277C206.728 110.277 206.184 109.733 206.184 109.061C206.184 108.389 206.728 107.845 207.399 107.845C208.07 107.845 208.615 108.389 208.615 109.061C208.615 109.733 208.071 110.277 207.399 110.277ZM207.399 103.167C206.728 103.167 206.184 102.623 206.184 101.951C206.184 101.279 206.728 100.735 207.399 100.735C208.07 100.735 208.615 101.279 208.615 101.951C208.615 102.623 208.071 103.167 207.399 103.167ZM207.399 96.0555C206.728 96.0555 206.184 95.5115 206.184 94.8395C206.184 94.1675 206.728 93.6235 207.399 93.6235C208.07 93.6235 208.615 94.1675 208.615 94.8395C208.615 95.5115 208.071 96.0555 207.399 96.0555ZM207.399 88.9455C206.728 88.9455 206.184 88.4015 206.184 87.7295C206.184 87.0575 206.728 86.5135 207.399 86.5135C208.07 86.5135 208.615 87.0575 208.615 87.7295C208.615 88.4015 208.071 88.9455 207.399 88.9455ZM207.399 81.8355C206.728 81.8355 206.184 81.2915 206.184 80.6195C206.184 79.9475 206.728 79.4035 207.399 79.4035C208.07 79.4035 208.615 79.9475 208.615 80.6195C208.615 81.2915 208.071 81.8355 207.399 81.8355ZM207.399 74.7255C206.728 74.7255 206.184 74.1815 206.184 73.5095C206.184 72.8375 206.728 72.2935 207.399 72.2935C208.07 72.2935 208.615 72.8375 208.615 73.5095C208.615 74.1815 208.071 74.7255 207.399 74.7255ZM207.399 67.6145C206.728 67.6145 206.184 67.0705 206.184 66.3985C206.184 65.7265 206.728 65.1825 207.399 65.1825C208.07 65.1825 208.615 65.7265 208.615 66.3985C208.615 67.0705 208.071 67.6145 207.399 67.6145ZM207.399 60.5045C206.728 60.5045 206.184 59.9605 206.184 59.2885C206.184 58.6165 206.728 58.0725 207.399 58.0725C208.07 58.0725 208.615 58.6165 208.615 59.2885C208.615 59.9605 208.071 60.5045 207.399 60.5045ZM207.399 53.3945C206.728 53.3945 206.184 52.8505 206.184 52.1785C206.184 51.5065 206.728 50.9625 207.399 50.9625C208.07 50.9625 208.615 51.5065 208.615 52.1785C208.615 52.8505 208.071 53.3945 207.399 53.3945ZM207.399 46.2835C206.728 46.2835 206.184 45.7395 206.184 45.0675C206.184 44.3955 206.728 43.8515 207.399 43.8515C208.07 43.8515 208.615 44.3955 208.615 45.0675C208.615 45.7395 208.071 46.2835 207.399 46.2835ZM207.399 39.1735C206.728 39.1735 206.184 38.6295 206.184 37.9575C206.184 37.2855 206.728 36.7415 207.399 36.7415C208.07 36.7415 208.615 37.2855 208.615 37.9575C208.615 38.6295 208.071 39.1735 207.399 39.1735ZM207.399 32.0635C206.728 32.0635 206.184 31.5195 206.184 30.8475C206.184 30.1755 206.728 29.6315 207.399 29.6315C208.07 29.6315 208.615 30.1755 208.615 30.8475C208.615 31.5195 208.071 32.0635 207.399 32.0635ZM212.732 362.692C212.061 362.692 211.516 362.148 211.516 361.476C211.516 360.804 212.06 360.26 212.732 360.26C213.404 360.26 213.948 360.804 213.948 361.476C213.948 362.148 213.404 362.692 212.732 362.692ZM212.732 355.581C212.061 355.581 211.516 355.037 211.516 354.365C211.516 353.693 212.06 353.149 212.732 353.149C213.404 353.149 213.948 353.693 213.948 354.365C213.948 355.037 213.404 355.581 212.732 355.581ZM212.732 348.471C212.061 348.471 211.516 347.927 211.516 347.255C211.516 346.583 212.06 346.039 212.732 346.039C213.404 346.039 213.948 346.583 213.948 347.255C213.948 347.927 213.404 348.471 212.732 348.471ZM212.732 341.361C212.061 341.361 211.516 340.817 211.516 340.145C211.516 339.473 212.06 338.929 212.732 338.929C213.404 338.929 213.948 339.473 213.948 340.145C213.948 340.817 213.404 341.361 212.732 341.361ZM212.732 334.25C212.061 334.25 211.516 333.706 211.516 333.034C211.516 332.362 212.06 331.818 212.732 331.818C213.404 331.818 213.948 332.362 213.948 333.034C213.948 333.706 213.404 334.25 212.732 334.25ZM212.732 327.14C212.061 327.14 211.516 326.596 211.516 325.924C211.516 325.252 212.06 324.708 212.732 324.708C213.404 324.708 213.948 325.252 213.948 325.924C213.948 326.596 213.404 327.14 212.732 327.14ZM212.732 320.03C212.061 320.03 211.516 319.486 211.516 318.814C211.516 318.142 212.06 317.598 212.732 317.598C213.404 317.598 213.948 318.142 213.948 318.814C213.948 319.486 213.404 320.03 212.732 320.03ZM212.732 312.92C212.061 312.92 211.516 312.376 211.516 311.704C211.516 311.032 212.06 310.488 212.732 310.488C213.404 310.488 213.948 311.032 213.948 311.704C213.948 312.376 213.404 312.92 212.732 312.92ZM212.732 305.809C212.061 305.809 211.516 305.265 211.516 304.593C211.516 303.921 212.06 303.377 212.732 303.377C213.404 303.377 213.948 303.921 213.948 304.593C213.948 305.265 213.404 305.809 212.732 305.809ZM212.732 298.699C212.061 298.699 211.516 298.155 211.516 297.483C211.516 296.811 212.06 296.267 212.732 296.267C213.404 296.267 213.948 296.811 213.948 297.483C213.948 298.155 213.404 298.699 212.732 298.699ZM212.732 291.589C212.061 291.589 211.516 291.045 211.516 290.373C211.516 289.701 212.06 289.157 212.732 289.157C213.404 289.157 213.948 289.701 213.948 290.373C213.948 291.045 213.404 291.589 212.732 291.589ZM212.732 284.478C212.061 284.478 211.516 283.934 211.516 283.262C211.516 282.59 212.06 282.046 212.732 282.046C213.404 282.046 213.948 282.59 213.948 283.262C213.948 283.934 213.404 284.478 212.732 284.478ZM212.732 277.368C212.061 277.368 211.516 276.824 211.516 276.152C211.516 275.48 212.06 274.936 212.732 274.936C213.404 274.936 213.948 275.48 213.948 276.152C213.948 276.824 213.404 277.368 212.732 277.368ZM212.732 270.258C212.061 270.258 211.516 269.714 211.516 269.042C211.516 268.37 212.06 267.826 212.732 267.826C213.404 267.826 213.948 268.37 213.948 269.042C213.948 269.714 213.404 270.258 212.732 270.258ZM212.732 263.148C212.061 263.148 211.516 262.604 211.516 261.932C211.516 261.26 212.06 260.716 212.732 260.716C213.404 260.716 213.948 261.26 213.948 261.932C213.948 262.604 213.404 263.148 212.732 263.148ZM212.732 256.038C212.061 256.038 211.516 255.494 211.516 254.822C211.516 254.15 212.06 253.606 212.732 253.606C213.404 253.606 213.948 254.15 213.948 254.822C213.948 255.494 213.404 256.038 212.732 256.038ZM212.732 248.927C212.061 248.927 211.516 248.383 211.516 247.711C211.516 247.039 212.06 246.495 212.732 246.495C213.404 246.495 213.948 247.039 213.948 247.711C213.948 248.383 213.404 248.927 212.732 248.927ZM212.732 241.817C212.061 241.817 211.516 241.273 211.516 240.601C211.516 239.929 212.06 239.385 212.732 239.385C213.404 239.385 213.948 239.929 213.948 240.601C213.948 241.273 213.404 241.817 212.732 241.817ZM212.732 234.707C212.061 234.707 211.516 234.163 211.516 233.491C211.516 232.819 212.06 232.275 212.732 232.275C213.404 232.275 213.948 232.819 213.948 233.491C213.948 234.163 213.404 234.707 212.732 234.707ZM212.732 227.596C212.061 227.596 211.516 227.052 211.516 226.38C211.516 225.708 212.06 225.164 212.732 225.164C213.404 225.164 213.948 225.708 213.948 226.38C213.948 227.052 213.404 227.596 212.732 227.596ZM212.732 220.486C212.061 220.486 211.516 219.942 211.516 219.27C211.516 218.598 212.06 218.054 212.732 218.054C213.404 218.054 213.948 218.598 213.948 219.27C213.948 219.942 213.404 220.486 212.732 220.486ZM212.732 213.376C212.061 213.376 211.516 212.832 211.516 212.16C211.516 211.488 212.06 210.944 212.732 210.944C213.404 210.944 213.948 211.488 213.948 212.16C213.948 212.832 213.404 213.376 212.732 213.376ZM212.732 206.266C212.061 206.266 211.516 205.722 211.516 205.05C211.516 204.378 212.06 203.834 212.732 203.834C213.404 203.834 213.948 204.378 213.948 205.05C213.948 205.722 213.404 206.266 212.732 206.266ZM212.732 199.155C212.061 199.155 211.516 198.611 211.516 197.939C211.516 197.267 212.06 196.723 212.732 196.723C213.404 196.723 213.948 197.267 213.948 197.939C213.948 198.611 213.404 199.155 212.732 199.155ZM212.732 192.045C212.061 192.045 211.516 191.501 211.516 190.829C211.516 190.157 212.06 189.613 212.732 189.613C213.404 189.613 213.948 190.157 213.948 190.829C213.948 191.501 213.404 192.045 212.732 192.045ZM212.732 184.935C212.061 184.935 211.516 184.391 211.516 183.719C211.516 183.047 212.06 182.503 212.732 182.503C213.404 182.503 213.948 183.047 213.948 183.719C213.948 184.391 213.404 184.935 212.732 184.935ZM212.732 177.824C212.061 177.824 211.516 177.28 211.516 176.608C211.516 175.936 212.06 175.392 212.732 175.392C213.404 175.392 213.948 175.936 213.948 176.608C213.948 177.28 213.404 177.824 212.732 177.824ZM212.732 170.714C212.061 170.714 211.516 170.17 211.516 169.498C211.516 168.826 212.06 168.282 212.732 168.282C213.404 168.282 213.948 168.826 213.948 169.498C213.948 170.17 213.404 170.714 212.732 170.714ZM212.732 163.604C212.061 163.604 211.516 163.06 211.516 162.388C211.516 161.716 212.06 161.172 212.732 161.172C213.404 161.172 213.948 161.716 213.948 162.388C213.948 163.06 213.404 163.604 212.732 163.604ZM212.732 156.494C212.061 156.494 211.516 155.95 211.516 155.278C211.516 154.606 212.06 154.062 212.732 154.062C213.404 154.062 213.948 154.606 213.948 155.278C213.948 155.95 213.404 156.494 212.732 156.494ZM212.732 149.384C212.061 149.384 211.516 148.84 211.516 148.168C211.516 147.496 212.06 146.952 212.732 146.952C213.404 146.952 213.948 147.496 213.948 148.168C213.948 148.84 213.404 149.384 212.732 149.384ZM212.732 142.273C212.061 142.273 211.516 141.729 211.516 141.057C211.516 140.385 212.06 139.841 212.732 139.841C213.404 139.841 213.948 140.385 213.948 141.057C213.948 141.729 213.404 142.273 212.732 142.273ZM212.732 135.163C212.061 135.163 211.516 134.619 211.516 133.947C211.516 133.275 212.06 132.731 212.732 132.731C213.404 132.731 213.948 133.275 213.948 133.947C213.948 134.619 213.404 135.163 212.732 135.163ZM212.732 128.052C212.061 128.052 211.516 127.508 211.516 126.836C211.516 126.164 212.06 125.62 212.732 125.62C213.404 125.62 213.948 126.164 213.948 126.836C213.948 127.508 213.404 128.052 212.732 128.052ZM212.732 120.942C212.061 120.942 211.516 120.398 211.516 119.726C211.516 119.054 212.06 118.51 212.732 118.51C213.404 118.51 213.948 119.054 213.948 119.726C213.948 120.398 213.404 120.942 212.732 120.942ZM212.732 113.832C212.061 113.832 211.516 113.288 211.516 112.616C211.516 111.944 212.06 111.4 212.732 111.4C213.404 111.4 213.948 111.944 213.948 112.616C213.948 113.288 213.404 113.832 212.732 113.832ZM212.732 106.722C212.061 106.722 211.516 106.178 211.516 105.506C211.516 104.834 212.06 104.29 212.732 104.29C213.404 104.29 213.948 104.834 213.948 105.506C213.948 106.178 213.404 106.722 212.732 106.722ZM212.732 99.6115C212.061 99.6115 211.516 99.0675 211.516 98.3955C211.516 97.7235 212.06 97.1795 212.732 97.1795C213.404 97.1795 213.948 97.7235 213.948 98.3955C213.948 99.0675 213.404 99.6115 212.732 99.6115ZM212.732 92.5005C212.061 92.5005 211.516 91.9565 211.516 91.2845C211.516 90.6125 212.06 90.0685 212.732 90.0685C213.404 90.0685 213.948 90.6125 213.948 91.2845C213.948 91.9565 213.404 92.5005 212.732 92.5005ZM212.732 85.3905C212.061 85.3905 211.516 84.8465 211.516 84.1745C211.516 83.5025 212.06 82.9585 212.732 82.9585C213.404 82.9585 213.948 83.5025 213.948 84.1745C213.948 84.8465 213.404 85.3905 212.732 85.3905ZM212.732 78.2805C212.061 78.2805 211.516 77.7365 211.516 77.0645C211.516 76.3925 212.06 75.8485 212.732 75.8485C213.404 75.8485 213.948 76.3925 213.948 77.0645C213.948 77.7365 213.404 78.2805 212.732 78.2805ZM212.732 71.1695C212.061 71.1695 211.516 70.6255 211.516 69.9535C211.516 69.2815 212.06 68.7375 212.732 68.7375C213.404 68.7375 213.948 69.2815 213.948 69.9535C213.948 70.6255 213.404 71.1695 212.732 71.1695ZM212.732 64.0595C212.061 64.0595 211.516 63.5155 211.516 62.8435C211.516 62.1715 212.06 61.6275 212.732 61.6275C213.404 61.6275 213.948 62.1715 213.948 62.8435C213.948 63.5155 213.404 64.0595 212.732 64.0595ZM212.732 56.9495C212.061 56.9495 211.516 56.4055 211.516 55.7335C211.516 55.0615 212.06 54.5175 212.732 54.5175C213.404 54.5175 213.948 55.0615 213.948 55.7335C213.948 56.4055 213.404 56.9495 212.732 56.9495ZM212.732 49.8395C212.061 49.8395 211.516 49.2955 211.516 48.6235C211.516 47.9515 212.06 47.4075 212.732 47.4075C213.404 47.4075 213.948 47.9515 213.948 48.6235C213.948 49.2955 213.404 49.8395 212.732 49.8395ZM212.732 42.7285C212.061 42.7285 211.516 42.1845 211.516 41.5125C211.516 40.8405 212.06 40.2965 212.732 40.2965C213.404 40.2965 213.948 40.8405 213.948 41.5125C213.948 42.1845 213.404 42.7285 212.732 42.7285ZM212.732 35.6185C212.061 35.6185 211.516 35.0745 211.516 34.4025C211.516 33.7305 212.06 33.1865 212.732 33.1865C213.404 33.1865 213.948 33.7305 213.948 34.4025C213.948 35.0745 213.404 35.6185 212.732 35.6185ZM218.064 366.247C217.393 366.247 216.849 365.703 216.849 365.031C216.849 364.359 217.393 363.815 218.064 363.815C218.735 363.815 219.28 364.359 219.28 365.031C219.28 365.703 218.736 366.247 218.064 366.247ZM218.064 359.136C217.393 359.136 216.849 358.592 216.849 357.92C216.849 357.248 217.393 356.704 218.064 356.704C218.735 356.704 219.28 357.248 219.28 357.92C219.28 358.592 218.736 359.136 218.064 359.136ZM218.064 352.026C217.393 352.026 216.849 351.482 216.849 350.81C216.849 350.138 217.393 349.594 218.064 349.594C218.735 349.594 219.28 350.138 219.28 350.81C219.28 351.482 218.736 352.026 218.064 352.026ZM218.064 344.916C217.393 344.916 216.849 344.372 216.849 343.7C216.849 343.028 217.393 342.484 218.064 342.484C218.735 342.484 219.28 343.028 219.28 343.7C219.28 344.372 218.736 344.916 218.064 344.916ZM218.064 337.806C217.393 337.806 216.849 337.262 216.849 336.59C216.849 335.918 217.393 335.374 218.064 335.374C218.735 335.374 219.28 335.918 219.28 336.59C219.28 337.262 218.736 337.806 218.064 337.806ZM218.064 330.695C217.393 330.695 216.849 330.151 216.849 329.479C216.849 328.807 217.393 328.263 218.064 328.263C218.735 328.263 219.28 328.807 219.28 329.479C219.28 330.151 218.736 330.695 218.064 330.695ZM218.064 323.585C217.393 323.585 216.849 323.041 216.849 322.369C216.849 321.697 217.393 321.153 218.064 321.153C218.735 321.153 219.28 321.697 219.28 322.369C219.28 323.041 218.736 323.585 218.064 323.585ZM218.064 316.475C217.393 316.475 216.849 315.931 216.849 315.259C216.849 314.587 217.393 314.043 218.064 314.043C218.735 314.043 219.28 314.587 219.28 315.259C219.28 315.931 218.736 316.475 218.064 316.475ZM218.064 309.364C217.393 309.364 216.849 308.82 216.849 308.148C216.849 307.476 217.393 306.932 218.064 306.932C218.735 306.932 219.28 307.476 219.28 308.148C219.28 308.82 218.736 309.364 218.064 309.364ZM218.064 302.254C217.393 302.254 216.849 301.71 216.849 301.038C216.849 300.366 217.393 299.822 218.064 299.822C218.735 299.822 219.28 300.366 219.28 301.038C219.28 301.71 218.736 302.254 218.064 302.254ZM218.064 295.144C217.393 295.144 216.849 294.6 216.849 293.928C216.849 293.256 217.393 292.712 218.064 292.712C218.735 292.712 219.28 293.256 219.28 293.928C219.28 294.6 218.736 295.144 218.064 295.144ZM218.064 288.034C217.393 288.034 216.849 287.49 216.849 286.818C216.849 286.146 217.393 285.602 218.064 285.602C218.735 285.602 219.28 286.146 219.28 286.818C219.28 287.49 218.736 288.034 218.064 288.034ZM218.064 280.924C217.393 280.924 216.849 280.38 216.849 279.708C216.849 279.036 217.393 278.492 218.064 278.492C218.735 278.492 219.28 279.036 219.28 279.708C219.28 280.38 218.736 280.924 218.064 280.924ZM218.064 273.813C217.393 273.813 216.849 273.269 216.849 272.597C216.849 271.925 217.393 271.381 218.064 271.381C218.735 271.381 219.28 271.925 219.28 272.597C219.28 273.269 218.736 273.813 218.064 273.813ZM218.064 266.703C217.393 266.703 216.849 266.159 216.849 265.487C216.849 264.815 217.393 264.271 218.064 264.271C218.735 264.271 219.28 264.815 219.28 265.487C219.28 266.159 218.736 266.703 218.064 266.703ZM218.064 259.592C217.393 259.592 216.849 259.048 216.849 258.376C216.849 257.704 217.393 257.16 218.064 257.16C218.735 257.16 219.28 257.704 219.28 258.376C219.28 259.048 218.736 259.592 218.064 259.592ZM218.064 252.482C217.393 252.482 216.849 251.938 216.849 251.266C216.849 250.594 217.393 250.05 218.064 250.05C218.735 250.05 219.28 250.594 219.28 251.266C219.28 251.938 218.736 252.482 218.064 252.482ZM218.064 245.372C217.393 245.372 216.849 244.828 216.849 244.156C216.849 243.484 217.393 242.94 218.064 242.94C218.735 242.94 219.28 243.484 219.28 244.156C219.28 244.828 218.736 245.372 218.064 245.372ZM218.064 238.262C217.393 238.262 216.849 237.718 216.849 237.046C216.849 236.374 217.393 235.83 218.064 235.83C218.735 235.83 219.28 236.374 219.28 237.046C219.28 237.718 218.736 238.262 218.064 238.262ZM218.064 231.152C217.393 231.152 216.849 230.608 216.849 229.936C216.849 229.264 217.393 228.72 218.064 228.72C218.735 228.72 219.28 229.264 219.28 229.936C219.28 230.608 218.736 231.152 218.064 231.152ZM218.064 224.041C217.393 224.041 216.849 223.497 216.849 222.825C216.849 222.153 217.393 221.609 218.064 221.609C218.735 221.609 219.28 222.153 219.28 222.825C219.28 223.497 218.736 224.041 218.064 224.041ZM218.064 216.931C217.393 216.931 216.849 216.387 216.849 215.715C216.849 215.043 217.393 214.499 218.064 214.499C218.735 214.499 219.28 215.043 219.28 215.715C219.28 216.387 218.736 216.931 218.064 216.931ZM218.064 209.821C217.393 209.821 216.849 209.277 216.849 208.605C216.849 207.933 217.393 207.389 218.064 207.389C218.735 207.389 219.28 207.933 219.28 208.605C219.28 209.277 218.736 209.821 218.064 209.821ZM218.064 202.71C217.393 202.71 216.849 202.166 216.849 201.494C216.849 200.822 217.393 200.278 218.064 200.278C218.735 200.278 219.28 200.822 219.28 201.494C219.28 202.166 218.736 202.71 218.064 202.71ZM218.064 195.6C217.393 195.6 216.849 195.056 216.849 194.384C216.849 193.712 217.393 193.168 218.064 193.168C218.735 193.168 219.28 193.712 219.28 194.384C219.28 195.056 218.736 195.6 218.064 195.6ZM218.064 188.49C217.393 188.49 216.849 187.946 216.849 187.274C216.849 186.602 217.393 186.058 218.064 186.058C218.735 186.058 219.28 186.602 219.28 187.274C219.28 187.946 218.736 188.49 218.064 188.49ZM218.064 181.38C217.393 181.38 216.849 180.836 216.849 180.164C216.849 179.492 217.393 178.948 218.064 178.948C218.735 178.948 219.28 179.492 219.28 180.164C219.28 180.836 218.736 181.38 218.064 181.38ZM218.064 174.269C217.393 174.269 216.849 173.725 216.849 173.053C216.849 172.381 217.393 171.837 218.064 171.837C218.735 171.837 219.28 172.381 219.28 173.053C219.28 173.725 218.736 174.269 218.064 174.269ZM218.064 167.159C217.393 167.159 216.849 166.615 216.849 165.943C216.849 165.271 217.393 164.727 218.064 164.727C218.735 164.727 219.28 165.271 219.28 165.943C219.28 166.615 218.736 167.159 218.064 167.159ZM218.064 160.049C217.393 160.049 216.849 159.505 216.849 158.833C216.849 158.161 217.393 157.617 218.064 157.617C218.735 157.617 219.28 158.161 219.28 158.833C219.28 159.505 218.736 160.049 218.064 160.049ZM218.064 152.938C217.393 152.938 216.849 152.394 216.849 151.722C216.849 151.05 217.393 150.506 218.064 150.506C218.735 150.506 219.28 151.05 219.28 151.722C219.28 152.394 218.736 152.938 218.064 152.938ZM218.064 145.828C217.393 145.828 216.849 145.284 216.849 144.612C216.849 143.94 217.393 143.396 218.064 143.396C218.735 143.396 219.28 143.94 219.28 144.612C219.28 145.284 218.736 145.828 218.064 145.828ZM218.064 138.718C217.393 138.718 216.849 138.174 216.849 137.502C216.849 136.83 217.393 136.286 218.064 136.286C218.735 136.286 219.28 136.83 219.28 137.502C219.28 138.174 218.736 138.718 218.064 138.718ZM218.064 131.608C217.393 131.608 216.849 131.064 216.849 130.392C216.849 129.72 217.393 129.176 218.064 129.176C218.735 129.176 219.28 129.72 219.28 130.392C219.28 131.064 218.736 131.608 218.064 131.608ZM218.064 124.497C217.393 124.497 216.849 123.953 216.849 123.281C216.849 122.609 217.393 122.065 218.064 122.065C218.735 122.065 219.28 122.609 219.28 123.281C219.28 123.953 218.736 124.497 218.064 124.497ZM218.064 117.387C217.393 117.387 216.849 116.843 216.849 116.171C216.849 115.499 217.393 114.955 218.064 114.955C218.735 114.955 219.28 115.499 219.28 116.171C219.28 116.843 218.736 117.387 218.064 117.387ZM218.064 110.277C217.393 110.277 216.849 109.733 216.849 109.061C216.849 108.389 217.393 107.845 218.064 107.845C218.735 107.845 219.28 108.389 219.28 109.061C219.28 109.733 218.736 110.277 218.064 110.277ZM218.064 103.167C217.393 103.167 216.849 102.623 216.849 101.951C216.849 101.279 217.393 100.735 218.064 100.735C218.735 100.735 219.28 101.279 219.28 101.951C219.28 102.623 218.736 103.167 218.064 103.167ZM218.064 96.0555C217.393 96.0555 216.849 95.5115 216.849 94.8395C216.849 94.1675 217.393 93.6235 218.064 93.6235C218.735 93.6235 219.28 94.1675 219.28 94.8395C219.28 95.5115 218.736 96.0555 218.064 96.0555ZM218.064 88.9455C217.393 88.9455 216.849 88.4015 216.849 87.7295C216.849 87.0575 217.393 86.5135 218.064 86.5135C218.735 86.5135 219.28 87.0575 219.28 87.7295C219.28 88.4015 218.736 88.9455 218.064 88.9455ZM218.064 81.8355C217.393 81.8355 216.849 81.2915 216.849 80.6195C216.849 79.9475 217.393 79.4035 218.064 79.4035C218.735 79.4035 219.28 79.9475 219.28 80.6195C219.28 81.2915 218.736 81.8355 218.064 81.8355ZM218.064 74.7255C217.393 74.7255 216.849 74.1815 216.849 73.5095C216.849 72.8375 217.393 72.2935 218.064 72.2935C218.735 72.2935 219.28 72.8375 219.28 73.5095C219.28 74.1815 218.736 74.7255 218.064 74.7255ZM218.064 67.6145C217.393 67.6145 216.849 67.0705 216.849 66.3985C216.849 65.7265 217.393 65.1825 218.064 65.1825C218.735 65.1825 219.28 65.7265 219.28 66.3985C219.28 67.0705 218.736 67.6145 218.064 67.6145ZM218.064 60.5045C217.393 60.5045 216.849 59.9605 216.849 59.2885C216.849 58.6165 217.393 58.0725 218.064 58.0725C218.735 58.0725 219.28 58.6165 219.28 59.2885C219.28 59.9605 218.736 60.5045 218.064 60.5045ZM218.064 53.3945C217.393 53.3945 216.849 52.8505 216.849 52.1785C216.849 51.5065 217.393 50.9625 218.064 50.9625C218.735 50.9625 219.28 51.5065 219.28 52.1785C219.28 52.8505 218.736 53.3945 218.064 53.3945ZM218.064 46.2835C217.393 46.2835 216.849 45.7395 216.849 45.0675C216.849 44.3955 217.393 43.8515 218.064 43.8515C218.735 43.8515 219.28 44.3955 219.28 45.0675C219.28 45.7395 218.736 46.2835 218.064 46.2835ZM218.064 39.1735C217.393 39.1735 216.849 38.6295 216.849 37.9575C216.849 37.2855 217.393 36.7415 218.064 36.7415C218.735 36.7415 219.28 37.2855 219.28 37.9575C219.28 38.6295 218.736 39.1735 218.064 39.1735Z" fill="white"/>
<path d="M218.063 328.264C217.392 328.264 216.848 328.808 216.848 329.48C216.848 330.152 217.392 330.696 218.063 330.696C218.734 330.696 219.279 330.152 219.279 329.48C219.279 328.808 218.735 328.264 218.063 328.264Z" fill="black"/>
<path d="M207.399 328.262C206.728 328.262 206.184 328.806 206.184 329.478C206.184 330.15 206.728 330.694 207.399 330.694C208.07 330.694 208.615 330.15 208.615 329.478C208.615 328.806 208.071 328.262 207.399 328.262Z" fill="black"/>
<path d="M212.732 324.707C212.061 324.707 211.516 325.251 211.516 325.923C211.516 326.595 212.06 327.139 212.732 327.139C213.404 327.139 213.948 326.595 213.948 325.923C213.948 325.251 213.404 324.707 212.732 324.707Z" fill="black"/>
<path d="M218.063 321.152C217.392 321.152 216.848 321.696 216.848 322.368C216.848 323.04 217.392 323.584 218.063 323.584C218.734 323.584 219.279 323.04 219.279 322.368C219.279 321.696 218.735 321.152 218.063 321.152Z" fill="black"/>
<path d="M202.064 324.708C202.046 324.708 202.03 324.712 202.012 324.713V327.134C202.03 327.134 202.046 327.139 202.064 327.139C202.735 327.139 203.28 326.595 203.28 325.923C203.28 325.251 202.736 324.707 202.064 324.707V324.708Z" fill="black"/>
<path d="M207.399 321.152C206.728 321.152 206.184 321.696 206.184 322.368C206.184 323.04 206.728 323.584 207.399 323.584C208.07 323.584 208.615 323.04 208.615 322.368C208.615 321.696 208.071 321.152 207.399 321.152Z" fill="black"/>
<path d="M212.732 320.03C213.403 320.03 213.948 319.485 213.948 318.814C213.948 318.142 213.403 317.598 212.732 317.598C212.06 317.598 211.516 318.142 211.516 318.814C211.516 319.485 212.06 320.03 212.732 320.03Z" fill="black"/>
<path d="M218.063 314.043C217.392 314.043 216.848 314.587 216.848 315.259C216.848 315.931 217.392 316.475 218.063 316.475C218.734 316.475 219.279 315.931 219.279 315.259C219.279 314.587 218.735 314.043 218.063 314.043Z" fill="black"/>
<path d="M202.066 317.597C202.049 317.597 202.033 317.601 202.016 317.602V320.023C202.033 320.023 202.049 320.028 202.066 320.028C202.737 320.028 203.282 319.484 203.282 318.812C203.282 318.14 202.738 317.596 202.066 317.596V317.597Z" fill="black"/>
<path d="M207.399 314.043C206.728 314.043 206.184 314.587 206.184 315.259C206.184 315.931 206.728 316.475 207.399 316.475C208.07 316.475 208.615 315.931 208.615 315.259C208.615 314.587 208.071 314.043 207.399 314.043Z" fill="black"/>
<path d="M212.732 312.92C213.403 312.92 213.948 312.376 213.948 311.704C213.948 311.033 213.403 310.488 212.732 310.488C212.06 310.488 211.516 311.033 211.516 311.704C211.516 312.376 212.06 312.92 212.732 312.92Z" fill="black"/>
<path d="M218.063 306.932C217.392 306.932 216.848 307.476 216.848 308.148C216.848 308.82 217.392 309.364 218.063 309.364C218.734 309.364 219.279 308.82 219.279 308.148C219.279 307.476 218.735 306.932 218.063 306.932Z" fill="black"/>
<path d="M202.064 310.488C202.048 310.488 202.032 310.492 202.016 310.493V312.915C202.032 312.915 202.047 312.92 202.064 312.92C202.735 312.92 203.28 312.376 203.28 311.704C203.28 311.032 202.736 310.488 202.064 310.488Z" fill="black"/>
<path d="M207.399 306.932C206.728 306.932 206.184 307.476 206.184 308.148C206.184 308.82 206.728 309.364 207.399 309.364C208.07 309.364 208.615 308.82 208.615 308.148C208.615 307.476 208.071 306.932 207.399 306.932Z" fill="black"/>
<path d="M212.732 305.807C213.403 305.807 213.948 305.263 213.948 304.591C213.948 303.919 213.403 303.375 212.732 303.375C212.06 303.375 211.516 303.919 211.516 304.591C211.516 305.263 212.06 305.807 212.732 305.807Z" fill="black"/>
<path d="M218.063 299.822C217.392 299.822 216.848 300.366 216.848 301.038C216.848 301.71 217.392 302.254 218.063 302.254C218.734 302.254 219.279 301.71 219.279 301.038C219.279 300.366 218.735 299.822 218.063 299.822Z" fill="black"/>
<path d="M202.066 303.377C202.05 303.377 202.036 303.381 202.02 303.382V305.804C202.036 305.804 202.051 305.809 202.066 305.809C202.737 305.809 203.282 305.265 203.282 304.593C203.282 303.921 202.738 303.377 202.066 303.377Z" fill="black"/>
<path d="M207.399 299.822C206.728 299.822 206.184 300.366 206.184 301.038C206.184 301.71 206.728 302.254 207.399 302.254C208.07 302.254 208.615 301.71 208.615 301.038C208.615 300.366 208.071 299.822 207.399 299.822Z" fill="black"/>
<path d="M212.732 296.268C212.061 296.268 211.516 296.812 211.516 297.484C211.516 298.156 212.06 298.7 212.732 298.7C213.404 298.7 213.948 298.156 213.948 297.484C213.948 296.812 213.404 296.268 212.732 296.268Z" fill="black"/>
<path d="M218.063 292.711C217.392 292.711 216.848 293.255 216.848 293.927C216.848 294.599 217.392 295.143 218.063 295.143C218.734 295.143 219.279 294.599 219.279 293.927C219.279 293.255 218.735 292.711 218.063 292.711Z" fill="black"/>
<path d="M202.067 296.268C202.052 296.268 202.038 296.272 202.023 296.272V298.695C202.038 298.695 202.052 298.7 202.067 298.7C202.738 298.7 203.283 298.156 203.283 297.484C203.283 296.812 202.739 296.268 202.067 296.268Z" fill="black"/>
<path d="M207.399 292.711C206.728 292.711 206.184 293.255 206.184 293.927C206.184 294.599 206.728 295.143 207.399 295.143C208.07 295.143 208.615 294.599 208.615 293.927C208.615 293.255 208.071 292.711 207.399 292.711Z" fill="black"/>
<path d="M212.732 291.588C213.403 291.588 213.948 291.044 213.948 290.372C213.948 289.701 213.403 289.156 212.732 289.156C212.06 289.156 211.516 289.701 211.516 290.372C211.516 291.044 212.06 291.588 212.732 291.588Z" fill="black"/>
<path d="M218.063 285.602C217.392 285.602 216.848 286.146 216.848 286.818C216.848 287.49 217.392 288.034 218.063 288.034C218.734 288.034 219.279 287.49 219.279 286.818C219.279 286.146 218.735 285.602 218.063 285.602Z" fill="black"/>
<path d="M202.065 289.157C202.051 289.157 202.037 289.161 202.023 289.161V291.584C202.037 291.584 202.051 291.588 202.065 291.588C202.736 291.588 203.281 291.044 203.281 290.372C203.281 289.7 202.737 289.156 202.065 289.156V289.157Z" fill="black"/>
<path d="M207.399 285.602C206.728 285.602 206.184 286.146 206.184 286.818C206.184 287.49 206.728 288.034 207.399 288.034C208.07 288.034 208.615 287.49 208.615 286.818C208.615 286.146 208.071 285.602 207.399 285.602Z" fill="black"/>
<path d="M212.732 282.047C212.061 282.047 211.516 282.591 211.516 283.263C211.516 283.935 212.06 284.479 212.732 284.479C213.404 284.479 213.948 283.935 213.948 283.263C213.948 282.591 213.404 282.047 212.732 282.047Z" fill="black"/>
<path d="M218.063 278.492C217.392 278.492 216.848 279.036 216.848 279.708C216.848 280.38 217.392 280.924 218.063 280.924C218.734 280.924 219.279 280.38 219.279 279.708C219.279 279.036 218.735 278.492 218.063 278.492Z" fill="black"/>
<path d="M202.064 282.046C202.05 282.046 202.037 282.049 202.023 282.05V284.473C202.036 284.473 202.05 284.477 202.064 284.477C202.735 284.477 203.28 283.933 203.28 283.261C203.28 282.589 202.736 282.046 202.064 282.046Z" fill="black"/>
<path d="M207.399 278.492C206.728 278.492 206.184 279.036 206.184 279.708C206.184 280.38 206.728 280.924 207.399 280.924C208.07 280.924 208.615 280.38 208.615 279.708C208.615 279.036 208.071 278.492 207.399 278.492Z" fill="black"/>
<path d="M212.732 274.936C212.061 274.936 211.516 275.48 211.516 276.152C211.516 276.824 212.06 277.368 212.732 277.368C213.404 277.368 213.948 276.824 213.948 276.152C213.948 275.48 213.404 274.936 212.732 274.936Z" fill="black"/>
<path d="M218.063 271.381C217.392 271.381 216.848 271.925 216.848 272.597C216.848 273.269 217.392 273.813 218.063 273.813C218.734 273.813 219.279 273.269 219.279 272.597C219.279 271.925 218.735 271.381 218.063 271.381Z" fill="black"/>
<path d="M202.062 274.936C202.049 274.936 202.037 274.939 202.023 274.94V277.364C202.036 277.364 202.048 277.368 202.062 277.368C202.733 277.368 203.278 276.824 203.278 276.152C203.278 275.48 202.734 274.936 202.062 274.936Z" fill="black"/>
<path d="M207.399 271.381C206.728 271.381 206.184 271.925 206.184 272.597C206.184 273.269 206.728 273.813 207.399 273.813C208.07 273.813 208.615 273.269 208.615 272.597C208.615 271.925 208.071 271.381 207.399 271.381Z" fill="black"/>
<path d="M212.732 270.256C213.403 270.256 213.948 269.712 213.948 269.04C213.948 268.369 213.403 267.824 212.732 267.824C212.06 267.824 211.516 268.369 211.516 269.04C211.516 269.712 212.06 270.256 212.732 270.256Z" fill="black"/>
<path d="M218.063 264.27C217.392 264.27 216.848 264.814 216.848 265.486C216.848 266.158 217.392 266.702 218.063 266.702C218.734 266.702 219.279 266.158 219.279 265.486C219.279 264.814 218.735 264.27 218.063 264.27Z" fill="black"/>
<path d="M202.064 267.824C202.051 267.824 202.04 267.827 202.027 267.828V270.252C202.039 270.252 202.051 270.256 202.064 270.256C202.735 270.256 203.28 269.712 203.28 269.04C203.28 268.368 202.736 267.824 202.064 267.824Z" fill="black"/>
<path d="M207.399 264.27C206.728 264.27 206.184 264.814 206.184 265.486C206.184 266.158 206.728 266.702 207.399 266.702C208.07 266.702 208.615 266.158 208.615 265.486C208.615 264.814 208.071 264.27 207.399 264.27Z" fill="black"/>
<path d="M212.732 263.147C213.403 263.147 213.948 262.602 213.948 261.931C213.948 261.259 213.403 260.715 212.732 260.715C212.06 260.715 211.516 261.259 211.516 261.931C211.516 262.602 212.06 263.147 212.732 263.147Z" fill="black"/>
<path d="M218.063 257.16C217.392 257.16 216.848 257.704 216.848 258.376C216.848 259.048 217.392 259.592 218.063 259.592C218.734 259.592 219.279 259.048 219.279 258.376C219.279 257.704 218.735 257.16 218.063 257.16Z" fill="black"/>
<path d="M202.066 260.715C202.054 260.715 202.043 260.718 202.031 260.718V263.143C202.043 263.143 202.054 263.147 202.066 263.147C202.737 263.147 203.282 262.603 203.282 261.931C203.282 261.259 202.738 260.715 202.066 260.715Z" fill="black"/>
<path d="M207.399 257.16C206.728 257.16 206.184 257.704 206.184 258.376C206.184 259.048 206.728 259.592 207.399 259.592C208.07 259.592 208.615 259.048 208.615 258.376C208.615 257.704 208.071 257.16 207.399 257.16Z" fill="black"/>
<path d="M212.732 253.605C212.061 253.605 211.516 254.149 211.516 254.821C211.516 255.493 212.06 256.037 212.732 256.037C213.404 256.037 213.948 255.493 213.948 254.821C213.948 254.149 213.404 253.605 212.732 253.605Z" fill="black"/>
<path d="M218.063 250.051C217.392 250.051 216.848 250.595 216.848 251.267C216.848 251.939 217.392 252.483 218.063 252.483C218.734 252.483 219.279 251.939 219.279 251.267C219.279 250.595 218.735 250.051 218.063 250.051Z" fill="black"/>
<path d="M202.065 253.605C202.054 253.605 202.043 253.608 202.031 253.608V256.033C202.042 256.033 202.053 256.037 202.065 256.037C202.736 256.037 203.281 255.493 203.281 254.821C203.281 254.149 202.737 253.605 202.065 253.605Z" fill="black"/>
<path d="M207.399 250.051C206.728 250.051 206.184 250.595 206.184 251.267C206.184 251.939 206.728 252.483 207.399 252.483C208.07 252.483 208.615 251.939 208.615 251.267C208.615 250.595 208.071 250.051 207.399 250.051Z" fill="black"/>
<path d="M212.732 246.496C212.061 246.496 211.516 247.04 211.516 247.712C211.516 248.384 212.06 248.928 212.732 248.928C213.404 248.928 213.948 248.384 213.948 247.712C213.948 247.04 213.404 246.496 212.732 246.496Z" fill="black"/>
<path d="M218.063 242.939C217.392 242.939 216.848 243.483 216.848 244.155C216.848 244.827 217.392 245.371 218.063 245.371C218.734 245.371 219.279 244.827 219.279 244.155C219.279 243.483 218.735 242.939 218.063 242.939Z" fill="black"/>
<path d="M202.063 246.495C202.052 246.495 202.042 246.498 202.031 246.498V248.923C202.042 248.923 202.052 248.926 202.063 248.926C202.734 248.926 203.279 248.382 203.279 247.71C203.279 247.038 202.735 246.494 202.063 246.494V246.495Z" fill="black"/>
<path d="M207.399 242.939C206.728 242.939 206.184 243.483 206.184 244.155C206.184 244.827 206.728 245.371 207.399 245.371C208.07 245.371 208.615 244.827 208.615 244.155C208.615 243.483 208.071 242.939 207.399 242.939Z" fill="black"/>
<path d="M212.732 241.817C213.403 241.817 213.948 241.272 213.948 240.601C213.948 239.929 213.403 239.385 212.732 239.385C212.06 239.385 211.516 239.929 211.516 240.601C211.516 241.272 212.06 241.817 212.732 241.817Z" fill="black"/>
<path d="M218.063 235.828C217.392 235.828 216.848 236.372 216.848 237.044C216.848 237.716 217.392 238.26 218.063 238.26C218.734 238.26 219.279 237.716 219.279 237.044C219.279 236.372 218.735 235.828 218.063 235.828Z" fill="black"/>
<path d="M202.065 239.385C202.055 239.385 202.045 239.388 202.035 239.388V241.814C202.045 241.814 202.055 241.817 202.065 241.817C202.736 241.817 203.281 241.273 203.281 240.601C203.281 239.929 202.737 239.385 202.065 239.385Z" fill="black"/>
<path d="M207.399 235.828C206.728 235.828 206.184 236.372 206.184 237.044C206.184 237.716 206.728 238.26 207.399 238.26C208.07 238.26 208.615 237.716 208.615 237.044C208.615 236.372 208.071 235.828 207.399 235.828Z" fill="black"/>
<path d="M212.732 232.273C212.061 232.273 211.516 232.817 211.516 233.489C211.516 234.161 212.06 234.705 212.732 234.705C213.404 234.705 213.948 234.161 213.948 233.489C213.948 232.817 213.404 232.273 212.732 232.273Z" fill="black"/>
<path d="M218.063 228.719C217.392 228.719 216.848 229.263 216.848 229.935C216.848 230.607 217.392 231.151 218.063 231.151C218.734 231.151 219.279 230.607 219.279 229.935C219.279 229.263 218.735 228.719 218.063 228.719Z" fill="black"/>
<path d="M202.067 232.273C202.057 232.273 202.049 232.275 202.039 232.276V234.702C202.048 234.702 202.057 234.705 202.067 234.705C202.738 234.705 203.283 234.161 203.283 233.489C203.283 232.817 202.739 232.273 202.067 232.273Z" fill="black"/>
<path d="M207.399 228.719C206.728 228.719 206.184 229.263 206.184 229.935C206.184 230.607 206.728 231.151 207.399 231.151C208.07 231.151 208.615 230.607 208.615 229.935C208.615 229.263 208.071 228.719 207.399 228.719Z" fill="black"/>
<path d="M212.732 227.596C213.403 227.596 213.948 227.052 213.948 226.38C213.948 225.708 213.403 225.164 212.732 225.164C212.06 225.164 211.516 225.708 211.516 226.38C211.516 227.052 212.06 227.596 212.732 227.596Z" fill="black"/>
<path d="M218.063 221.609C217.392 221.609 216.848 222.153 216.848 222.825C216.848 223.497 217.392 224.041 218.063 224.041C218.734 224.041 219.279 223.497 219.279 222.825C219.279 222.153 218.735 221.609 218.063 221.609Z" fill="black"/>
<path d="M202.065 225.164C202.056 225.164 202.048 225.166 202.039 225.166V227.593C202.048 227.593 202.056 227.596 202.065 227.596C202.736 227.596 203.281 227.052 203.281 226.38C203.281 225.708 202.737 225.164 202.065 225.164Z" fill="black"/>
<path d="M207.399 221.609C206.728 221.609 206.184 222.153 206.184 222.825C206.184 223.497 206.728 224.041 207.399 224.041C208.07 224.041 208.615 223.497 208.615 222.825C208.615 222.153 208.071 221.609 207.399 221.609Z" fill="black"/>
<path d="M212.732 220.485C213.403 220.485 213.948 219.94 213.948 219.269C213.948 218.597 213.403 218.053 212.732 218.053C212.06 218.053 211.516 218.597 211.516 219.269C211.516 219.94 212.06 220.485 212.732 220.485Z" fill="black"/>
<path d="M218.063 214.498C217.392 214.498 216.848 215.042 216.848 215.714C216.848 216.386 217.392 216.93 218.063 216.93C218.734 216.93 219.279 216.386 219.279 215.714C219.279 215.042 218.735 214.498 218.063 214.498Z" fill="black"/>
<path d="M202.063 218.052C202.055 218.052 202.047 218.054 202.039 218.054V220.481C202.047 220.481 202.055 220.483 202.063 220.483C202.734 220.483 203.279 219.939 203.279 219.267C203.279 218.595 202.735 218.051 202.063 218.051V218.052Z" fill="black"/>
<path d="M207.399 214.498C206.728 214.498 206.184 215.042 206.184 215.714C206.184 216.386 206.728 216.93 207.399 216.93C208.07 216.93 208.615 216.386 208.615 215.714C208.615 215.042 208.071 214.498 207.399 214.498Z" fill="black"/>
<path d="M212.732 210.943C212.061 210.943 211.516 211.487 211.516 212.159C211.516 212.831 212.06 213.375 212.732 213.375C213.404 213.375 213.948 212.831 213.948 212.159C213.948 211.487 213.404 210.943 212.732 210.943Z" fill="black"/>
<path d="M218.063 207.389C217.392 207.389 216.848 207.933 216.848 208.605C216.848 209.277 217.392 209.821 218.063 209.821C218.734 209.821 219.279 209.277 219.279 208.605C219.279 207.933 218.735 207.389 218.063 207.389Z" fill="black"/>
<path d="M202.065 210.942C202.057 210.942 202.05 210.944 202.043 210.944V213.371C202.05 213.371 202.058 213.373 202.065 213.373C202.736 213.373 203.281 212.829 203.281 212.157C203.281 211.485 202.737 210.942 202.065 210.942Z" fill="black"/>
<path d="M207.399 207.389C206.728 207.389 206.184 207.933 206.184 208.605C206.184 209.277 206.728 209.821 207.399 209.821C208.07 209.821 208.615 209.277 208.615 208.605C208.615 207.933 208.071 207.389 207.399 207.389Z" fill="black"/>
<path d="M212.732 203.832C212.061 203.832 211.516 204.376 211.516 205.048C211.516 205.72 212.06 206.264 212.732 206.264C213.404 206.264 213.948 205.72 213.948 205.048C213.948 204.376 213.404 203.832 212.732 203.832Z" fill="black"/>
<path d="M218.063 200.277C217.392 200.277 216.848 200.821 216.848 201.493C216.848 202.165 217.392 202.709 218.063 202.709C218.734 202.709 219.279 202.165 219.279 201.493C219.279 200.821 218.735 200.277 218.063 200.277Z" fill="black"/>
<path d="M202.064 203.833C202.057 203.833 202.05 203.835 202.043 203.835V206.262C202.05 206.262 202.056 206.264 202.064 206.264C202.735 206.264 203.28 205.72 203.28 205.048C203.28 204.376 202.736 203.832 202.064 203.832V203.833Z" fill="black"/>
<path d="M207.399 200.277C206.728 200.277 206.184 200.821 206.184 201.493C206.184 202.165 206.728 202.709 207.399 202.709C208.07 202.709 208.615 202.165 208.615 201.493C208.615 200.821 208.071 200.277 207.399 200.277Z" fill="black"/>
<path d="M212.732 199.155C213.403 199.155 213.948 198.61 213.948 197.939C213.948 197.267 213.403 196.723 212.732 196.723C212.06 196.723 211.516 197.267 211.516 197.939C211.516 198.61 212.06 199.155 212.732 199.155Z" fill="black"/>
<path d="M218.063 193.168C217.392 193.168 216.848 193.712 216.848 194.384C216.848 195.056 217.392 195.6 218.063 195.6C218.734 195.6 219.279 195.056 219.279 194.384C219.279 193.712 218.735 193.168 218.063 193.168Z" fill="black"/>
<path d="M202.066 196.723C202.06 196.723 202.054 196.725 202.047 196.725V199.153C202.053 199.153 202.06 199.155 202.066 199.155C202.737 199.155 203.282 198.611 203.282 197.939C203.282 197.267 202.738 196.723 202.066 196.723Z" fill="black"/>
<path d="M207.399 193.168C206.728 193.168 206.184 193.712 206.184 194.384C206.184 195.056 206.728 195.6 207.399 195.6C208.07 195.6 208.615 195.056 208.615 194.384C208.615 193.712 208.071 193.168 207.399 193.168Z" fill="black"/>
<path d="M212.732 189.611C212.061 189.611 211.516 190.155 211.516 190.827C211.516 191.499 212.06 192.043 212.732 192.043C213.404 192.043 213.948 191.499 213.948 190.827C213.948 190.155 213.404 189.611 212.732 189.611Z" fill="black"/>
<path d="M218.063 186.057C217.392 186.057 216.848 186.601 216.848 187.273C216.848 187.945 217.392 188.489 218.063 188.489C218.734 188.489 219.279 187.945 219.279 187.273C219.279 186.601 218.735 186.057 218.063 186.057Z" fill="black"/>
<path d="M202.064 189.612C202.058 189.612 202.053 189.613 202.047 189.613V192.041C202.052 192.041 202.058 192.043 202.064 192.043C202.735 192.043 203.28 191.499 203.28 190.827C203.28 190.155 202.736 189.611 202.064 189.611V189.612Z" fill="black"/>
<path d="M207.399 186.057C206.728 186.057 206.184 186.601 206.184 187.273C206.184 187.945 206.728 188.489 207.399 188.489C208.07 188.489 208.615 187.945 208.615 187.273C208.615 186.601 208.071 186.057 207.399 186.057Z" fill="black"/>
<path d="M212.732 184.934C213.403 184.934 213.948 184.39 213.948 183.718C213.948 183.046 213.403 182.502 212.732 182.502C212.06 182.502 211.516 183.046 211.516 183.718C211.516 184.39 212.06 184.934 212.732 184.934Z" fill="black"/>
<path d="M218.063 178.947C217.392 178.947 216.848 179.491 216.848 180.163C216.848 180.835 217.392 181.379 218.063 181.379C218.734 181.379 219.279 180.835 219.279 180.163C219.279 179.491 218.735 178.947 218.063 178.947Z" fill="black"/>
<path d="M202.066 182.501C202.066 182.501 202.056 182.502 202.051 182.502V184.931C202.051 184.931 202.061 184.932 202.066 184.932C202.737 184.932 203.282 184.388 203.282 183.716C203.282 183.044 202.738 182.5 202.066 182.5V182.501Z" fill="black"/>
<path d="M207.399 178.947C206.728 178.947 206.184 179.491 206.184 180.163C206.184 180.835 206.728 181.379 207.399 181.379C208.07 181.379 208.615 180.835 208.615 180.163C208.615 179.491 208.071 178.947 207.399 178.947Z" fill="black"/>
<path d="M212.732 177.825C213.403 177.825 213.948 177.28 213.948 176.609C213.948 175.937 213.403 175.393 212.732 175.393C212.06 175.393 211.516 175.937 211.516 176.609C211.516 177.28 212.06 177.825 212.732 177.825Z" fill="black"/>
<path d="M218.063 171.836C217.392 171.836 216.848 172.38 216.848 173.052C216.848 173.724 217.392 174.268 218.063 174.268C218.734 174.268 219.279 173.724 219.279 173.052C219.279 172.38 218.735 171.836 218.063 171.836Z" fill="black"/>
<path d="M202.064 175.392C202.064 175.392 202.055 175.393 202.051 175.393V177.822C202.051 177.822 202.06 177.823 202.064 177.823C202.735 177.823 203.28 177.279 203.28 176.607C203.28 175.935 202.736 175.391 202.064 175.391V175.392Z" fill="black"/>
<path d="M207.399 171.836C206.728 171.836 206.184 172.38 206.184 173.052C206.184 173.724 206.728 174.268 207.399 174.268C208.07 174.268 208.615 173.724 208.615 173.052C208.615 172.38 208.071 171.836 207.399 171.836Z" fill="black"/>
<path d="M212.732 170.713C213.403 170.713 213.948 170.169 213.948 169.497C213.948 168.826 213.403 168.281 212.732 168.281C212.06 168.281 211.516 168.826 211.516 169.497C211.516 170.169 212.06 170.713 212.732 170.713Z" fill="black"/>
<path d="M218.063 164.727C217.392 164.727 216.848 165.271 216.848 165.943C216.848 166.615 217.392 167.159 218.063 167.159C218.734 167.159 219.279 166.615 219.279 165.943C219.279 165.271 218.735 164.727 218.063 164.727Z" fill="black"/>
<path d="M202.067 168.281C202.067 168.281 202.06 168.281 202.055 168.282V170.711C202.055 170.711 202.062 170.711 202.067 170.711C202.738 170.711 203.283 170.167 203.283 169.495C203.283 168.823 202.739 168.279 202.067 168.279V168.281Z" fill="black"/>
<path d="M207.399 164.727C206.728 164.727 206.184 165.271 206.184 165.943C206.184 166.615 206.728 167.159 207.399 167.159C208.07 167.159 208.615 166.615 208.615 165.943C208.615 165.271 208.071 164.727 207.399 164.727Z" fill="black"/>
<path d="M212.732 161.172C212.061 161.172 211.516 161.716 211.516 162.388C211.516 163.06 212.06 163.604 212.732 163.604C213.404 163.604 213.948 163.06 213.948 162.388C213.948 161.716 213.404 161.172 212.732 161.172Z" fill="black"/>
<path d="M218.063 157.617C217.392 157.617 216.848 158.161 216.848 158.833C216.848 159.505 217.392 160.049 218.063 160.049C218.734 160.049 219.279 159.505 219.279 158.833C219.279 158.161 218.735 157.617 218.063 157.617Z" fill="black"/>
<path d="M202.065 161.17C202.065 161.17 202.059 161.17 202.055 161.17V163.6C202.055 163.6 202.061 163.6 202.065 163.6C202.736 163.6 203.281 163.056 203.281 162.384C203.281 161.712 202.737 161.168 202.065 161.168V161.17Z" fill="black"/>
<path d="M207.399 157.617C206.728 157.617 206.184 158.161 206.184 158.833C206.184 159.505 206.728 160.049 207.399 160.049C208.07 160.049 208.615 159.505 208.615 158.833C208.615 158.161 208.071 157.617 207.399 157.617Z" fill="black"/>
<path d="M212.732 156.493C213.403 156.493 213.948 155.948 213.948 155.277C213.948 154.605 213.403 154.061 212.732 154.061C212.06 154.061 211.516 154.605 211.516 155.277C211.516 155.948 212.06 156.493 212.732 156.493Z" fill="black"/>
<path d="M218.063 150.506C217.392 150.506 216.848 151.05 216.848 151.722C216.848 152.394 217.392 152.938 218.063 152.938C218.734 152.938 219.279 152.394 219.279 151.722C219.279 151.05 218.735 150.506 218.063 150.506Z" fill="black"/>
<path d="M202.063 154.061C202.063 154.061 202.058 154.061 202.055 154.061V156.491C202.055 156.491 202.06 156.491 202.063 156.491C202.734 156.491 203.279 155.947 203.279 155.275C203.279 154.603 202.735 154.059 202.063 154.059V154.061Z" fill="black"/>
<path d="M207.399 150.506C206.728 150.506 206.184 151.05 206.184 151.722C206.184 152.394 206.728 152.938 207.399 152.938C208.07 152.938 208.615 152.394 208.615 151.722C208.615 151.05 208.071 150.506 207.399 150.506Z" fill="black"/>
<path d="M212.732 146.951C212.061 146.951 211.516 147.495 211.516 148.167C211.516 148.839 212.06 149.383 212.732 149.383C213.404 149.383 213.948 148.839 213.948 148.167C213.948 147.495 213.404 146.951 212.732 146.951Z" fill="black"/>
<path d="M218.063 143.396C217.392 143.396 216.848 143.94 216.848 144.612C216.848 145.284 217.392 145.828 218.063 145.828C218.734 145.828 219.279 145.284 219.279 144.612C219.279 143.94 218.735 143.396 218.063 143.396Z" fill="black"/>
<path d="M202.065 146.951C202.065 146.951 202.061 146.951 202.059 146.951V149.381C202.059 149.381 202.062 149.381 202.065 149.381C202.736 149.381 203.281 148.837 203.281 148.165C203.281 147.493 202.737 146.949 202.065 146.949V146.951Z" fill="black"/>
<path d="M207.399 143.396C206.728 143.396 206.184 143.94 206.184 144.612C206.184 145.284 206.728 145.828 207.399 145.828C208.07 145.828 208.615 145.284 208.615 144.612C208.615 143.94 208.071 143.396 207.399 143.396Z" fill="black"/>
<path d="M212.732 142.272C213.403 142.272 213.948 141.727 213.948 141.056C213.948 140.384 213.403 139.84 212.732 139.84C212.06 139.84 211.516 140.384 211.516 141.056C211.516 141.727 212.06 142.272 212.732 142.272Z" fill="black"/>
<path d="M218.063 136.285C217.392 136.285 216.848 136.829 216.848 137.501C216.848 138.173 217.392 138.717 218.063 138.717C218.734 138.717 219.279 138.173 219.279 137.501C219.279 136.829 218.735 136.285 218.063 136.285Z" fill="black"/>
<path d="M202.066 139.841C202.066 139.841 202.065 139.841 202.062 139.841V142.272H202.066C202.737 142.272 203.283 141.728 203.283 141.056C203.283 140.384 202.738 139.84 202.066 139.84V139.841Z" fill="black"/>
<path d="M207.399 136.285C206.728 136.285 206.184 136.829 206.184 137.501C206.184 138.173 206.728 138.717 207.399 138.717C208.07 138.717 208.615 138.173 208.615 137.501C208.615 136.829 208.071 136.285 207.399 136.285Z" fill="black"/>
<path d="M212.732 135.162C213.403 135.162 213.948 134.618 213.948 133.946C213.948 133.275 213.403 132.73 212.732 132.73C212.06 132.73 211.516 133.275 211.516 133.946C211.516 134.618 212.06 135.162 212.732 135.162Z" fill="black"/>
<path d="M218.063 129.176C217.392 129.176 216.848 129.72 216.848 130.392C216.848 131.064 217.392 131.608 218.063 131.608C218.734 131.608 219.279 131.064 219.279 130.392C219.279 129.72 218.735 129.176 218.063 129.176Z" fill="black"/>
<path d="M202.064 132.73H202.062V135.161H202.064C202.735 135.161 203.281 134.617 203.281 133.945C203.281 133.273 202.736 132.729 202.064 132.729V132.73Z" fill="black"/>
<path d="M207.399 129.176C206.728 129.176 206.184 129.72 206.184 130.392C206.184 131.064 206.728 131.608 207.399 131.608C208.07 131.608 208.615 131.064 208.615 130.392C208.615 129.72 208.071 129.176 207.399 129.176Z" fill="black"/>
<path d="M212.732 128.053C213.403 128.053 213.948 127.509 213.948 126.837C213.948 126.166 213.403 125.621 212.732 125.621C212.06 125.621 211.516 126.166 211.516 126.837C211.516 127.509 212.06 128.053 212.732 128.053Z" fill="black"/>
<path d="M218.063 122.064C217.392 122.064 216.848 122.608 216.848 123.28C216.848 123.952 217.392 124.496 218.063 124.496C218.734 124.496 219.279 123.952 219.279 123.28C219.279 122.608 218.735 122.064 218.063 122.064Z" fill="black"/>
<path d="M202.062 125.621V128.053C202.734 128.053 203.279 127.509 203.279 126.837C203.279 126.165 202.734 125.621 202.062 125.621Z" fill="black"/>
<path d="M207.399 122.064C206.728 122.064 206.184 122.608 206.184 123.28C206.184 123.952 206.728 124.496 207.399 124.496C208.07 124.496 208.615 123.952 208.615 123.28C208.615 122.608 208.071 122.064 207.399 122.064Z" fill="black"/>
<path d="M212.732 118.51C212.061 118.51 211.516 119.054 211.516 119.726C211.516 120.398 212.06 120.942 212.732 120.942C213.404 120.942 213.948 120.398 213.948 119.726C213.948 119.054 213.404 118.51 212.732 118.51Z" fill="black"/>
<path d="M218.063 114.955C217.392 114.955 216.848 115.499 216.848 116.171C216.848 116.843 217.392 117.387 218.063 117.387C218.734 117.387 219.279 116.843 219.279 116.171C219.279 115.499 218.735 114.955 218.063 114.955Z" fill="black"/>
<path d="M202.066 118.51V120.942C202.736 120.942 203.28 120.397 203.28 119.726C203.28 119.055 202.737 118.511 202.066 118.51Z" fill="black"/>
<path d="M207.399 114.955C206.728 114.955 206.184 115.499 206.184 116.171C206.184 116.843 206.728 117.387 207.399 117.387C208.07 117.387 208.615 116.843 208.615 116.171C208.615 115.499 208.071 114.955 207.399 114.955Z" fill="black"/>
<path d="M212.732 113.83C213.403 113.83 213.948 113.286 213.948 112.614C213.948 111.943 213.403 111.398 212.732 111.398C212.06 111.398 211.516 111.943 211.516 112.614C211.516 113.286 212.06 113.83 212.732 113.83Z" fill="black"/>
<path d="M218.063 107.844C217.392 107.844 216.848 108.388 216.848 109.06C216.848 109.732 217.392 110.276 218.063 110.276C218.734 110.276 219.279 109.732 219.279 109.06C219.279 108.388 218.735 107.844 218.063 107.844Z" fill="black"/>
<path d="M202.07 111.399V113.83C202.74 113.829 203.283 113.285 203.283 112.614C203.283 111.943 202.741 111.4 202.07 111.398V111.399Z" fill="black"/>
<path d="M207.399 107.844C206.728 107.844 206.184 108.388 206.184 109.06C206.184 109.732 206.728 110.276 207.399 110.276C208.07 110.276 208.615 109.732 208.615 109.06C208.615 108.388 208.071 107.844 207.399 107.844Z" fill="black"/>
<path d="M212.732 104.289C212.061 104.289 211.516 104.833 211.516 105.505C211.516 106.177 212.06 106.721 212.732 106.721C213.404 106.721 213.948 106.177 213.948 105.505C213.948 104.833 213.404 104.289 212.732 104.289Z" fill="black"/>
<path d="M218.063 100.734C217.392 100.734 216.848 101.278 216.848 101.95C216.848 102.622 217.392 103.166 218.063 103.166C218.734 103.166 219.279 102.622 219.279 101.95C219.279 101.278 218.735 100.734 218.063 100.734Z" fill="black"/>
<path d="M202.07 104.289V106.72C202.739 106.718 203.281 106.175 203.281 105.504C203.281 104.833 202.739 104.291 202.07 104.289Z" fill="black"/>
<path d="M207.399 100.734C206.728 100.734 206.184 101.278 206.184 101.95C206.184 102.622 206.728 103.166 207.399 103.166C208.07 103.166 208.615 102.622 208.615 101.95C208.615 101.278 208.071 100.734 207.399 100.734Z" fill="black"/>
<path d="M212.732 99.6117C213.403 99.6117 213.948 99.0673 213.948 98.3957C213.948 97.7241 213.403 97.1797 212.732 97.1797C212.06 97.1797 211.516 97.7241 211.516 98.3957C211.516 99.0673 212.06 99.6117 212.732 99.6117Z" fill="black"/>
<path d="M218.063 93.625C217.392 93.625 216.848 94.169 216.848 94.841C216.848 95.513 217.392 96.057 218.063 96.057C218.734 96.057 219.279 95.513 219.279 94.841C219.279 94.169 218.735 93.625 218.063 93.625Z" fill="black"/>
<path d="M202.07 97.1797V99.6097C202.738 99.6067 203.279 99.0637 203.279 98.3947C203.279 97.7257 202.738 97.1827 202.07 97.1797Z" fill="black"/>
<path d="M207.399 93.625C206.728 93.625 206.184 94.169 206.184 94.841C206.184 95.513 206.728 96.057 207.399 96.057C208.07 96.057 208.615 95.513 208.615 94.841C208.615 94.169 208.071 93.625 207.399 93.625Z" fill="black"/>
<path d="M212.732 92.5004C213.403 92.5004 213.948 91.9559 213.948 91.2843C213.948 90.6128 213.403 90.0684 212.732 90.0684C212.06 90.0684 211.516 90.6128 211.516 91.2843C211.516 91.9559 212.06 92.5004 212.732 92.5004Z" fill="black"/>
<path d="M218.063 86.5137C217.392 86.5137 216.848 87.0577 216.848 87.7297C216.848 88.4017 217.392 88.9457 218.063 88.9457C218.734 88.9457 219.279 88.4017 219.279 87.7297C219.279 87.0577 218.735 86.5137 218.063 86.5137Z" fill="black"/>
<path d="M202.074 90.0684V92.4984C202.741 92.4944 203.281 91.9524 203.281 91.2834C203.281 90.6144 202.741 90.0734 202.074 90.0684Z" fill="black"/>
<path d="M207.399 86.5137C206.728 86.5137 206.184 87.0577 206.184 87.7297C206.184 88.4017 206.728 88.9457 207.399 88.9457C208.07 88.9457 208.615 88.4017 208.615 87.7297C208.615 87.0577 208.071 86.5137 207.399 86.5137Z" fill="black"/>
<path d="M212.732 85.389C213.403 85.389 213.948 84.8446 213.948 84.173C213.948 83.5014 213.403 82.957 212.732 82.957C212.06 82.957 211.516 83.5014 211.516 84.173C211.516 84.8446 212.06 85.389 212.732 85.389Z" fill="black"/>
<path d="M218.063 79.4023C217.392 79.4023 216.848 79.9463 216.848 80.6183C216.848 81.2903 217.392 81.8344 218.063 81.8344C218.734 81.8344 219.279 81.2903 219.279 80.6183C219.279 79.9463 218.735 79.4023 218.063 79.4023Z" fill="black"/>
<path d="M202.074 82.959V85.389C202.741 85.384 203.28 84.842 203.28 84.174C203.28 83.506 202.741 82.965 202.074 82.959Z" fill="black"/>
<path d="M207.399 79.4023C206.728 79.4023 206.184 79.9463 206.184 80.6183C206.184 81.2903 206.728 81.8344 207.399 81.8344C208.07 81.8344 208.615 81.2903 208.615 80.6183C208.615 79.9463 208.071 79.4023 207.399 79.4023Z" fill="black"/>
<path d="M212.732 75.8477C212.061 75.8477 211.516 76.3916 211.516 77.0636C211.516 77.7356 212.06 78.2796 212.732 78.2796C213.404 78.2796 213.948 77.7356 213.948 77.0636C213.948 76.3916 213.404 75.8477 212.732 75.8477Z" fill="black"/>
<path d="M218.063 72.293C217.392 72.293 216.848 72.837 216.848 73.509C216.848 74.181 217.392 74.725 218.063 74.725C218.734 74.725 219.279 74.181 219.279 73.509C219.279 72.837 218.735 72.293 218.063 72.293Z" fill="black"/>
<path d="M202.078 75.8496V78.2786C202.744 78.2726 203.282 77.7316 203.282 77.0636C203.282 76.3956 202.744 75.8556 202.078 75.8496Z" fill="black"/>
<path d="M207.399 72.293C206.728 72.293 206.184 72.837 206.184 73.509C206.184 74.181 206.728 74.725 207.399 74.725C208.07 74.725 208.615 74.181 208.615 73.509C208.615 72.837 208.071 72.293 207.399 72.293Z" fill="black"/>
<path d="M212.732 71.1703C213.403 71.1703 213.948 70.6258 213.948 69.9543C213.948 69.2827 213.403 68.7383 212.732 68.7383C212.06 68.7383 211.516 69.2827 211.516 69.9543C211.516 70.6258 212.06 71.1703 212.732 71.1703Z" fill="black"/>
<path d="M218.063 65.1836C217.392 65.1836 216.848 65.7276 216.848 66.3996C216.848 67.0716 217.392 67.6156 218.063 67.6156C218.734 67.6156 219.279 67.0716 219.279 66.3996C219.279 65.7276 218.735 65.1836 218.063 65.1836Z" fill="black"/>
<path d="M202.078 68.7383V71.1673C202.743 71.1603 203.28 70.6193 203.28 69.9523C203.28 69.2853 202.743 68.7453 202.078 68.7383Z" fill="black"/>
<path d="M207.399 65.1836C206.728 65.1836 206.184 65.7276 206.184 66.3996C206.184 67.0716 206.728 67.6156 207.399 67.6156C208.07 67.6156 208.615 67.0716 208.615 66.3996C208.615 65.7276 208.071 65.1836 207.399 65.1836Z" fill="black"/>
<path d="M212.732 61.6289C212.061 61.6289 211.516 62.1729 211.516 62.8449C211.516 63.5169 212.06 64.0609 212.732 64.0609C213.404 64.0609 213.948 63.5169 213.948 62.8449C213.948 62.1729 213.404 61.6289 212.732 61.6289Z" fill="black"/>
<path d="M218.063 58.0723C217.392 58.0723 216.848 58.6163 216.848 59.2883C216.848 59.9603 217.392 60.5043 218.063 60.5043C218.734 60.5043 219.279 59.9603 219.279 59.2883C219.279 58.6163 218.735 58.0723 218.063 58.0723Z" fill="black"/>
<path d="M202.082 61.6289V64.0569C202.746 64.0489 203.282 63.5089 203.282 62.8429C203.282 62.1769 202.746 61.6369 202.082 61.6289Z" fill="black"/>
<path d="M207.399 58.0723C206.728 58.0723 206.184 58.6163 206.184 59.2883C206.184 59.9603 206.728 60.5043 207.399 60.5043C208.07 60.5043 208.615 59.9603 208.615 59.2883C208.615 58.6163 208.071 58.0723 207.399 58.0723Z" fill="black"/>
<path d="M212.732 54.5176C212.061 54.5176 211.516 55.0616 211.516 55.7336C211.516 56.4056 212.06 56.9496 212.732 56.9496C213.404 56.9496 213.948 56.4056 213.948 55.7336C213.948 55.0616 213.404 54.5176 212.732 54.5176Z" fill="black"/>
<path d="M218.063 50.9609C217.392 50.9609 216.848 51.5049 216.848 52.1769C216.848 52.8489 217.392 53.3929 218.063 53.3929C218.734 53.3929 219.279 52.8489 219.279 52.1769C219.279 51.5049 218.735 50.9609 218.063 50.9609Z" fill="black"/>
<path d="M202.082 54.5195V56.9475C202.746 56.9385 203.28 56.3995 203.28 55.7335C203.28 55.0675 202.745 54.5295 202.082 54.5195Z" fill="black"/>
<path d="M207.399 50.9609C206.728 50.9609 206.184 51.5049 206.184 52.1769C206.184 52.8489 206.728 53.3929 207.399 53.3929C208.07 53.3929 208.615 52.8489 208.615 52.1769C208.615 51.5049 208.071 50.9609 207.399 50.9609Z" fill="black"/>
<path d="M212.732 49.8383C213.403 49.8383 213.948 49.2938 213.948 48.6223C213.948 47.9507 213.403 47.4062 212.732 47.4062C212.06 47.4062 211.516 47.9507 211.516 48.6223C211.516 49.2938 212.06 49.8383 212.732 49.8383Z" fill="black"/>
<path d="M218.063 43.8516C217.392 43.8516 216.848 44.3956 216.848 45.0676C216.848 45.7396 217.392 46.2836 218.063 46.2836C218.734 46.2836 219.279 45.7396 219.279 45.0676C219.279 44.3956 218.735 43.8516 218.063 43.8516Z" fill="black"/>
<path d="M202.086 47.4082V49.8362C202.748 49.8262 203.282 49.2872 203.282 48.6222C203.282 47.9572 202.748 47.4192 202.086 47.4082Z" fill="black"/>
<path d="M207.399 43.8516C206.728 43.8516 206.184 44.3956 206.184 45.0676C206.184 45.7396 206.728 46.2836 207.399 46.2836C208.07 46.2836 208.615 45.7396 208.615 45.0676C208.615 44.3956 208.071 43.8516 207.399 43.8516Z" fill="black"/>
<path d="M212.732 42.7289C213.403 42.7289 213.948 42.1845 213.948 41.5129C213.948 40.8413 213.403 40.2969 212.732 40.2969C212.06 40.2969 211.516 40.8413 211.516 41.5129C211.516 42.1845 212.06 42.7289 212.732 42.7289Z" fill="black"/>
<path d="M218.063 36.7422C217.392 36.7422 216.848 37.2862 216.848 37.9582C216.848 38.6302 217.392 39.1742 218.063 39.1742C218.734 39.1742 219.279 38.6302 219.279 37.9582C219.279 37.2862 218.735 36.7422 218.063 36.7422Z" fill="black"/>
<path d="M202.086 40.2998V42.7268C202.747 42.7158 203.28 42.1778 203.28 41.5128C203.28 40.8478 202.747 40.3118 202.086 40.2998Z" fill="black"/>
<path d="M207.399 36.7422C206.728 36.7422 206.184 37.2862 206.184 37.9582C206.184 38.6302 206.728 39.1742 207.399 39.1742C208.07 39.1742 208.615 38.6302 208.615 37.9582C208.615 37.2862 208.071 36.7422 207.399 36.7422Z" fill="black"/>
<path d="M202.09 33.1895V35.6165C202.75 35.6045 203.282 35.0665 203.282 34.4025C203.282 33.7385 202.75 33.2015 202.09 33.1895Z" fill="black"/>
<path d="M207.399 29.6309C206.728 29.6309 206.184 30.1749 206.184 30.8469C206.184 31.5189 206.728 32.0629 207.399 32.0629C208.07 32.0629 208.615 31.5189 208.615 30.8469C208.615 30.1749 208.071 29.6309 207.399 29.6309Z" fill="black"/>
<path d="M212.732 33.1855C212.061 33.1855 211.516 33.7296 211.516 34.4016C211.516 35.0736 212.06 35.6175 212.732 35.6175C213.404 35.6175 213.948 35.0736 213.948 34.4016C213.948 33.7296 213.404 33.1855 212.732 33.1855Z" fill="black"/>
<path d="M202.09 26.0781V28.5051C202.749 28.4921 203.281 27.9551 203.281 27.2911C203.281 26.6271 202.75 26.0911 202.09 26.0781Z" fill="black"/>
<path d="M202.094 18.9688V21.3947C202.753 21.3807 203.283 20.8437 203.283 20.1817C203.283 19.5197 202.753 18.9837 202.094 18.9688Z" fill="black"/>
</g>
<defs>
<clipPath id="clip0_10920_482">
<rect width="413.333" height="328.88" fill="white"/>
</clipPath>
</defs>
</svg>
