<svg xmlns="http://www.w3.org/2000/svg" width="524" height="329" fill="none" viewBox="0 0 524 329"><g clip-path="url(#a)"><path fill="#5474f6" d="M187.006 187.459c6.594 0 11.959-5.365 11.959-11.959v-25.31c-7.334-4.286-12.816-11.485-14.814-20.311l-5.92-26.144a21.18 21.18 0 0 0-7.901-12.272h-19.078a.3.3 0 0 1-.102-.016.37.37 0 0 1-.224-.142.37.37 0 0 1-.086-.257c0-.037.005-.065.013-.102l1.002-3.804 11.478-43.648h-10.415l-11.332 43.082-.126.476-1.051 3.996-.028.106a.414.414 0 0 1-.4.31H126.89a.834.834 0 0 0-.83.83V175.5c0 6.594 5.368 11.959 11.958 11.959zm-52.16-14.342v-12.472a5.714 5.714 0 0 1 5.707-5.71h44.902a5.717 5.717 0 0 1 5.71 5.71v12.472a5.717 5.717 0 0 1-5.71 5.711h-44.902a5.714 5.714 0 0 1-5.707-5.711m-45.64 15.98a4.483 4.483 0 0 0 4.48-4.481v-1.995a5 5 0 0 1-.732.916q-.092.09-.184.175c-.126.114-.256.22-.39.326 0 .004-.005 0-.005 0a5.22 5.22 0 0 1-3.165 1.059H50.15v4zM6.16 185.096h-.856a5.2 5.2 0 0 1-1.389-.187 5.4 5.4 0 0 1-.97-.366 8 8 0 0 1-.5-.286 5.2 5.2 0 0 1-.888-.721 5 5 0 0 1-.737-.92v2a4.486 4.486 0 0 0 4.48 4.48h.86z"/><path fill="#fff" d="M50.149 122.806v23.536a7.755 7.755 0 0 1 4.864 7.194 7.75 7.75 0 0 1-4.864 7.194v2.386q.015 0 .029.003a.627.627 0 0 1-.029 1.228v7.232a.624.624 0 0 1 0 1.201v7.268a.625.625 0 0 1 0 1.164v3.054h.643a.625.625 0 0 1 .44-1.159.623.623 0 0 1 .16 1.159H54.1a.622.622 0 0 1 1.125 0H63.7a.62.62 0 0 1-.099-.497.628.628 0 0 1 1.222.28.6.6 0 0 1-.097.217h2.637a.616.616 0 0 1 .84 0h8.528a.6.6 0 0 1-.01-.307.626.626 0 1 1 1.222.281l-.009.026H89.21c.212 0 .418-.02.622-.048l.008-.068a.63.63 0 0 1 .751-.471.62.62 0 0 1 .358.235 4.5 4.5 0 0 0 1.725-1.296.625.625 0 1 1 .63-1.032 4.4 4.4 0 0 0 .378-1.793v-2.654a.62.62 0 0 1 0-.957v-7.544a.626.626 0 0 1 0-.848v-7.677a.63.63 0 0 1 0-.699v-32.135a4.477 4.477 0 0 0-4.473-4.472zm39.39 40.885a.627.627 0 1 1-.28 1.222.627.627 0 0 1 .28-1.222m1.65-1.799a.628.628 0 1 1 1.223.282.628.628 0 0 1-1.223-.282m-3.22 16.829a.626.626 0 1 1 .28-1.221.626.626 0 0 1-.28 1.221m-.42-3.56a.628.628 0 1 1-1.223-.282.628.628 0 0 1 1.223.282m-3.153 2.74a.627.627 0 1 1 .28-1.222.627.627 0 0 1-.28 1.222m-.42-3.56a.628.628 0 1 1-1.223-.282.628.628 0 0 1 1.223.282m-3.153 2.74a.627.627 0 1 1 .28-1.222.627.627 0 0 1-.28 1.222m-.42-3.56a.628.628 0 1 1-1.223-.282.628.628 0 0 1 1.223.282m-6.025 4.258a.628.628 0 1 1 1.223.282.628.628 0 0 1-1.223-.282m-1.93 3.021a.626.626 0 1 1 .279-1.221.626.626 0 0 1-.28 1.221m-.421-3.56a.628.628 0 1 1-1.223-.282.628.628 0 0 1 1.223.282m-3.153 2.74a.627.627 0 1 1 .28-1.222.627.627 0 0 1-.28 1.222m-.42-3.56a.628.628 0 1 1-1.223-.282.628.628 0 0 1 1.223.282m-3.153 2.74a.627.627 0 1 1 .28-1.222.627.627 0 0 1-.28 1.222m-.42-3.56a.628.628 0 1 1-1.223-.282.628.628 0 0 1 1.224.282m-3.153 2.74a.627.627 0 1 1 .28-1.222.627.627 0 0 1-.28 1.222m-.42-3.561a.626.626 0 1 1-1.22-.278.626.626 0 0 1 1.22.278m-4.794-1.1a.628.628 0 1 1 1.223.282.628.628 0 0 1-1.223-.282m-1.931 3.021a.627.627 0 1 1 .28-1.222.627.627 0 0 1-.28 1.222m-.412-9.2a.626.626 0 1 1 1.22.278.626.626 0 0 1-1.22-.278m-1.18 2.55a.628.628 0 1 1-1.223-.282.628.628 0 0 1 1.223.282m3.161-8.381a.627.627 0 1 1-.282 1.223.627.627 0 0 1 .282-1.223m29.814 1.202a.627.627 0 1 1-.28 1.222.627.627 0 0 1 .28-1.222m1.65-1.799a.627.627 0 1 1 1.222.28.627.627 0 0 1-1.222-.28m-1.239 10.999a.628.628 0 1 1-1.223-.282.628.628 0 0 1 1.223.282m-1.171-3.09a.626.626 0 1 1-1.221-.278.626.626 0 0 1 1.221.278m-2.401 2.27a.628.628 0 1 1-1.224-.282.628.628 0 0 1 1.224.282m-1.172-3.09a.626.626 0 1 1-1.22-.278.626.626 0 0 1 1.22.278m-2.401 2.27a.628.628 0 1 1-1.224-.282.628.628 0 0 1 1.224.282m-1.172-3.09a.628.628 0 1 1-1.223-.282.628.628 0 0 1 1.223.282m-3.632 7.629a.628.628 0 1 1-1.223-.282.628.628 0 0 1 1.224.282m-1.17-3.089a.626.626 0 1 1-1.222-.28.626.626 0 0 1 1.221.28m-2.402 2.269a.628.628 0 1 1-1.224-.282.628.628 0 0 1 1.224.282m-1.171-3.09a.626.626 0 1 1-1.221-.278.626.626 0 0 1 1.22.278m-2.402 2.27a.628.628 0 1 1-1.223-.282.628.628 0 0 1 1.223.282m-1.171-3.09a.626.626 0 1 1-1.221-.278.626.626 0 0 1 1.22.278m-2.402 2.27a.628.628 0 1 1-1.223-.282.628.628 0 0 1 1.223.282m-1.171-3.09a.628.628 0 1 1-1.224-.282.628.628 0 0 1 1.224.282m-2.402 2.27a.628.628 0 1 1-1.223-.282.628.628 0 0 1 1.223.282m-1.171-3.09a.628.628 0 1 1-1.224-.282.628.628 0 0 1 1.224.282m-2.402 2.27a.628.628 0 1 1-1.223-.282.628.628 0 0 1 1.223.282m.008-5.64a.628.628 0 1 1 1.224.282.628.628 0 0 1-1.224-.282m2.402-2.27a.626.626 0 1 1 1.22.28.626.626 0 0 1-1.22-.28m23.948-8.607a.628.628 0 0 1-1.222-.28.62.62 0 0 1 .292-.398h.635c.23.134.358.404.295.678m-.53 7.698a.626.626 0 1 1-.278 1.22.626.626 0 0 1 .279-1.22m1.65-1.799a.628.628 0 1 1 1.224.282.628.628 0 0 1-1.223-.282m-.008 5.639a.626.626 0 1 1-1.22-.278.626.626 0 0 1 1.22.278m-3.572-.819a.626.626 0 1 1-1.221-.28.626.626 0 0 1 1.22.28m-1.172-3.09a.628.628 0 1 1-1.223-.282.628.628 0 0 1 1.223.282m-2.4 2.27a.626.626 0 1 1-1.222-.28.626.626 0 0 1 1.221.28m-1.172-3.09a.628.628 0 1 1-1.224-.282.628.628 0 0 1 1.224.282m-3.632 7.629a.628.628 0 1 1-1.223-.282.628.628 0 0 1 1.223.282m-1.171-3.09a.628.628 0 1 1-1.224-.282.628.628 0 0 1 1.224.282m-2.402 2.27a.628.628 0 1 1-1.223-.282.628.628 0 0 1 1.223.282m-1.171-3.09a.628.628 0 1 1-1.224-.282.628.628 0 0 1 1.224.282m-2.402 2.269a.626.626 0 1 1-1.22-.278.626.626 0 0 1 1.22.278m-1.171-3.089a.626.626 0 1 1-1.221-.28.626.626 0 0 1 1.22.28m-2.402 2.27a.626.626 0 1 1-1.22-.28.626.626 0 0 1 1.22.28m16.752-7.439a.628.628 0 1 1-1.223-.282.628.628 0 0 1 1.223.282m-1.171-3.09a.626.626 0 1 1-1.221-.278.626.626 0 0 1 1.22.278m-2.402 2.27a.628.628 0 1 1-1.223-.282.628.628 0 0 1 1.223.282m-1.171-3.09a.626.626 0 1 1-1.221-.278.626.626 0 0 1 1.22.278m-3.632 7.629a.626.626 0 1 1-1.22-.278.626.626 0 0 1 1.22.278m-1.171-3.089a.626.626 0 1 1-1.22-.28.626.626 0 0 1 1.22.28m-2.402 2.269a.628.628 0 1 1-1.223-.282.628.628 0 0 1 1.223.282m.008-5.64a.626.626 0 1 1 1.221.28.626.626 0 0 1-1.22-.28m4.044 1.571a.626.626 0 1 1 .28-1.221.626.626 0 0 1-.28 1.221m8.376-3.718a.62.62 0 0 1-.416-.329h1.115a.63.63 0 0 1-.699.329m-8.887-.33a.626.626 0 1 1-1.04.001h1.04zm-3.684 0a.63.63 0 0 1-.55.139.6.6 0 0 1-.266-.139zm-3.422 1.657a.628.628 0 1 1 1.224.282.628.628 0 0 1-1.224-.282m1.923 2.619a.627.627 0 1 1-.282 1.223.627.627 0 0 1 .282-1.223m-2.402 2.27a.626.626 0 1 1-.279 1.221.626.626 0 0 1 .28-1.221m10.439 3.682a.627.627 0 1 1 .28-1.222.627.627 0 0 1-.28 1.222m-.42-3.561a.626.626 0 1 1-1.221-.278.626.626 0 0 1 1.22.278m8.325-.909a.626.626 0 1 1 1.221.278.626.626 0 0 1-1.22-.278m.05-2.81a.626.626 0 1 1-1.22-.278.626.626 0 0 1 1.22.278m-21.487-2.111a.628.628 0 1 1 1.223.282.628.628 0 0 1-1.224-.282m1.922 2.619a.627.627 0 1 1-.281 1.223.627.627 0 0 1 .281-1.223m13.953 12.952a.628.628 0 1 1 .281-1.223.628.628 0 0 1-.281 1.223m-.42-3.561a.628.628 0 1 1-1.224-.282.628.628 0 0 1 1.224.282m12.368.661a.627.627 0 1 1 .28-1.222.627.627 0 0 1-.28 1.222m-2.762-9.739a.626.626 0 1 1-1.221-.28.626.626 0 0 1 1.22.28m1.65-1.799a.628.628 0 1 1 .282-1.224.628.628 0 0 1-.282 1.224m-27.19 3.756a.627.627 0 1 1-.281 1.222.627.627 0 0 1 .28-1.222m-4.803 4.539a.627.627 0 1 1-.282 1.223.627.627 0 0 1 .282-1.223m4.405 13.581a.627.627 0 1 1 .28-1.222.627.627 0 0 1-.28 1.222m19.094-1.259a.627.627 0 1 1 .282-1.223.627.627 0 0 1-.282 1.223m-.42-3.56a.626.626 0 1 1-1.22-.28.626.626 0 0 1 1.22.28m12.37.661a.627.627 0 1 1 .28-1.222.627.627 0 0 1-.28 1.222m-.421-3.561a.626.626 0 1 1-1.221-.278.626.626 0 0 1 1.22.278m1.65-1.798a.627.627 0 1 1 .282-1.223.627.627 0 0 1-.282 1.223m-2.763-9.74a.626.626 0 1 1-1.22-.28.626.626 0 0 1 1.22.28m1.65-1.799a.627.627 0 1 1 .282-1.223.627.627 0 0 1-.281 1.223m-32.641-2.79a.626.626 0 1 1-1.215.017l.005-.016h1.21zm.707 2.636a.627.627 0 1 1-.28 1.222.627.627 0 0 1 .28-1.222m-3.152 2.74a.628.628 0 1 1 1.223.282.628.628 0 0 1-1.224-.282m-1.651 1.799a.627.627 0 1 1-.28 1.222.627.627 0 0 1 .28-1.222m-1.981 5.831a.626.626 0 1 1 1.22.278.626.626 0 0 1-1.22-.278m3.094 5.708a.627.627 0 1 1-.28 1.222.627.627 0 0 1 .28-1.222m-3.153 2.741a.626.626 0 1 1 1.221.278.626.626 0 0 1-1.22-.278m1.172 3.089a.626.626 0 1 1 1.22.28.626.626 0 0 1-1.22-.28m2.393 3.37a.626.626 0 1 1-1.22-.278.626.626 0 0 1 1.22.278m1.65-1.799a.626.626 0 1 1 .279-1.22.626.626 0 0 1-.279 1.22m1.923 2.619a.626.626 0 1 1-1.221-.278.626.626 0 0 1 1.221.278m1.65-1.798a.627.627 0 1 1 .281-1.223.627.627 0 0 1-.281 1.223m1.922 2.619a.628.628 0 1 1-1.223-.282.628.628 0 0 1 1.223.282m1.65-1.799a.627.627 0 1 1 .283-1.223.627.627 0 0 1-.282 1.223m3.574.82a.627.627 0 1 1 .28-1.222.627.627 0 0 1-.28 1.222m3.573.82a.627.627 0 1 1 .281-1.223.627.627 0 0 1-.281 1.223m4.324.349a.626.626 0 1 1-1.221-.278.626.626 0 0 1 1.22.278m2.401-2.269a.628.628 0 1 1-1.223-.282.628.628 0 0 1 1.223.282m1.65-1.799a.627.627 0 1 1 .282-1.223.627.627 0 0 1-.281 1.223m1.923 2.619a.628.628 0 1 1-1.223-.282.628.628 0 0 1 1.223.282m1.65-1.799a.627.627 0 1 1 .282-1.223.627.627 0 0 1-.281 1.223m1.923 2.619a.626.626 0 1 1-1.22-.28.626.626 0 0 1 1.22.28m1.65-1.799a.627.627 0 1 1 .281-1.222.627.627 0 0 1-.28 1.222m1.923 2.619a.628.628 0 1 1-1.223-.282.628.628 0 0 1 1.223.282m2.402-2.27a.626.626 0 1 1-1.221-.278.626.626 0 0 1 1.22.278m2.401-2.269a.628.628 0 1 1-1.223-.282.628.628 0 0 1 1.223.282m-1.171-3.09a.628.628 0 1 1-1.223-.282.628.628 0 0 1 1.223.282m2.401-2.27a.626.626 0 1 1-1.22-.278.626.626 0 0 1 1.22.278m-1.171-3.089a.626.626 0 1 1-1.22-.28.626.626 0 0 1 1.22.28m.76-6.111a.627.627 0 1 1-.281 1.222.627.627 0 0 1 .28-1.222m-1.873-5.428a.628.628 0 1 1-1.223-.282.628.628 0 0 1 1.223.282m2.402-2.27a.628.628 0 1 1-1.224-.282.628.628 0 0 1 1.224.282m-1.171-3.09a.626.626 0 0 1-1.23-.048h1.236zM.828 154.828a.626.626 0 1 1 .22 1.121.6.6 0 0 1-.22-.099v7.391c.13-.072.285-.1.442-.065a.627.627 0 0 1-.28 1.222.6.6 0 0 1-.162-.064v7.326a.626.626 0 1 1 0 1.153v6.98c0 .099.009.195.015.292a.626.626 0 1 1 .254 1.22 4.5 4.5 0 0 0 1.302 1.884c.127.047.231.13.303.236.715.513 1.585.82 2.527.836a.63.63 0 0 1 .668-.277.6.6 0 0 1 .263.134v-7.45a.627.627 0 1 1-.204-1.133.6.6 0 0 1 .204.09v-7.373a.62.62 0 0 1-.426.056.627.627 0 0 1 .28-1.222.6.6 0 0 1 .145.056v-7.31a.625.625 0 0 1-.837-.724.63.63 0 0 1 .75-.471q.045.012.087.03v-35.861h-.855a4.48 4.48 0 0 0-4.476 4.473zm2.913-1.154a.6.6 0 0 1-.292.005l-.015-.005zm-1.992 4.614a.628.628 0 1 1 1.223.282.628.628 0 0 1-1.223-.282m1.112 11.539a.626.626 0 1 1 1.221.278.626.626 0 0 1-1.22-.278m-1.23 5.359a.628.628 0 1 1 1.223.282.628.628 0 0 1-1.223-.282m3.565 6.46a.628.628 0 1 1-1.224-.282.628.628 0 0 1 1.224.282m-1.172-3.09a.628.628 0 1 1-1.223-.282.628.628 0 0 1 1.223.282m.76-6.11a.626.626 0 1 1-.28 1.221.626.626 0 0 1 .28-1.221m-1.872-5.429a.626.626 0 1 1-1.221-.278.626.626 0 0 1 1.22.278m2.401-2.269a.628.628 0 1 1-1.223-.282.628.628 0 0 1 1.223.282m-1.171-3.09a.628.628 0 1 1-1.223-.282.628.628 0 0 1 1.223.282m1.23-5.359a.628.628 0 1 1-1.223-.282.628.628 0 0 1 1.223.282"/><path fill="#000" d="M3.741 153.674h-.307l.016.006q.15.031.291-.006m-1.521 5.365a.627.627 0 1 0 .28-1.222.627.627 0 0 0-.28 1.222m2.681-3.492a.627.627 0 1 0-.28 1.222.627.627 0 0 0 .28-1.222m-1.23 5.36a.627.627 0 1 0-.28 1.222.627.627 0 0 0 .28-1.222m-1.23 5.359a.628.628 0 1 0-.279 1.224.628.628 0 0 0 .28-1.224m2.401-2.27a.628.628 0 1 0-.28 1.224.628.628 0 0 0 .28-1.224m-.81 8.92a.627.627 0 1 0 1.221.28.627.627 0 0 0-1.221-.28m.05-2.809a.627.627 0 1 0-1.221-.28.627.627 0 0 0 1.221.28m-1.981 5.83a.626.626 0 1 0 .28-1.22.626.626 0 0 0-.28 1.22m1.452 1.868a.626.626 0 1 0-.282 1.22.626.626 0 0 0 .282-1.22m1.171 3.09a.626.626 0 1 0-.281 1.22.626.626 0 0 0 .281-1.22M52.3 162.071a.626.626 0 1 0 .28-1.22.626.626 0 0 0-.28 1.22m3.63-7.628a.627.627 0 0 0 .752-.471.6.6 0 0 0-.007-.298h-1.21l-.005.017a.63.63 0 0 0 .47.752m-.529 7.697a.627.627 0 1 0 1.222.28.627.627 0 0 0-1.222-.28m-.701-2.338a.627.627 0 1 0 .28-1.222.627.627 0 0 0-.28 1.222m2.402-2.27a.627.627 0 1 0 .28-1.222.627.627 0 0 0-.28 1.222m-3.632 7.629a.626.626 0 1 0 .282-1.22.626.626 0 0 0-.282 1.22m-1.7 4.608a.627.627 0 1 0 1.22.28.627.627 0 0 0-1.22-.28m.05-2.809a.627.627 0 1 0-1.221-.28.627.627 0 0 0 1.221.28m-.81 8.92a.627.627 0 1 0 .28-1.223.627.627 0 0 0-.28 1.223m2.401-2.27a.626.626 0 1 0 .282-1.22.626.626 0 0 0-.282 1.22m6.093-18.348a.626.626 0 1 0 .281-1.22.626.626 0 0 0-.281 1.22m-1.23 5.36a.627.627 0 1 0 .28-1.222.627.627 0 0 0-.28 1.222m2.401-2.27a.626.626 0 1 0 .281-1.22.626.626 0 0 0-.28 1.22m-2.882 7.158a.627.627 0 1 0-1.222-.28.627.627 0 0 0 1.222.28m-2.452 5.08a.627.627 0 1 0 1.223.28.627.627 0 0 0-1.223-.28m.051-2.81a.627.627 0 1 0-1.223-.28.627.627 0 0 0 1.223.28m-.529 7.698a.627.627 0 1 0-.28 1.222.627.627 0 0 0 .28-1.222m-1.23 5.36a.626.626 0 1 0-.282 1.22.626.626 0 0 0 .282-1.22m-.701-2.339a.626.626 0 1 0-1.22-.281.626.626 0 0 0 1.22.281m10.144-22.417a.626.626 0 1 0 .28-1.22.626.626 0 0 0-.28 1.22m-1.23 5.36a.627.627 0 1 0 .28-1.222.627.627 0 0 0-.28 1.222m2.401-2.27a.626.626 0 1 0 .282-1.22.626.626 0 0 0-.282 1.22m-5.753 8.677a.626.626 0 1 0-.281 1.22.626.626 0 0 0 .281-1.22m1.65-1.799a.627.627 0 1 0 1.222.28.627.627 0 0 0-1.222-.28m.051-2.809a.627.627 0 1 0-1.222-.28.627.627 0 0 0 1.222.28m-1.281 8.168a.627.627 0 1 0 1.222.28.627.627 0 0 0-1.222-.28m-.478 4.889a.626.626 0 1 0-.282 1.22.626.626 0 0 0 .282-1.22m-.701-2.339a.627.627 0 1 0-1.223-.28.627.627 0 0 0 1.223.28m-.53 7.699a.626.626 0 1 0-.282 1.22.626.626 0 0 0 .282-1.22m-1.171-3.09a.626.626 0 1 0-.281 1.22.626.626 0 0 0 .28-1.22m10.616-21.666a.626.626 0 1 0 .281-1.22.626.626 0 0 0-.281 1.22m-1.172-3.089a.62.62 0 0 0 .55-.139h-.817a.6.6 0 0 0 .267.139m3.102.069a.627.627 0 1 0 1.13-.208h-1.038a.6.6 0 0 0-.092.208m-5.282 9.428a.626.626 0 1 0-.281 1.22.626.626 0 0 0 .281-1.22m1.65-1.799a.627.627 0 1 0 1.223.28.627.627 0 0 0-1.223-.28m-2.88 7.158a.628.628 0 1 0-.28 1.224.628.628 0 0 0 .28-1.224m1.65-1.799a.627.627 0 1 0 1.222.28.627.627 0 0 0-1.222-.28m-2.88 7.158a.627.627 0 1 0-.28 1.222.627.627 0 0 0 .28-1.222m1.65-1.798a.627.627 0 1 0 1.223.28.627.627 0 0 0-1.223-.28m-.478 4.888a.627.627 0 1 0-.28 1.222.627.627 0 0 0 .28-1.222m-1.23 5.36a.626.626 0 1 0-.282 1.22.626.626 0 0 0 .281-1.22m-1.171-3.09a.626.626 0 1 0-.282 1.22.626.626 0 0 0 .282-1.22m8.493-20.618a.627.627 0 1 0-.279 1.224.627.627 0 0 0 .28-1.224m2.401-2.27a.627.627 0 1 0-.28 1.223.627.627 0 0 0 .28-1.223m-3.633 7.63a.627.627 0 1 0-.28 1.222.627.627 0 0 0 .28-1.222m1.651-1.799a.627.627 0 1 0 1.223.28.627.627 0 0 0-1.223-.28m-2.881 7.158a.627.627 0 1 0-.28 1.222.627.627 0 0 0 .28-1.222m1.651-1.799a.627.627 0 1 0 1.222.28.627.627 0 0 0-1.222-.28m-2.881 7.158a.627.627 0 1 0-.28 1.222.627.627 0 0 0 .28-1.222m1.651-1.798a.627.627 0 1 0 1.223.28.627.627 0 0 0-1.223-.28m-2.881 7.158a.626.626 0 1 0-.28 1.22.626.626 0 0 0 .28-1.22m2.402-2.27a.627.627 0 1 0-.28 1.221.627.627 0 0 0 .28-1.221m7.322-23.707a.627.627 0 1 0-.28 1.222.627.627 0 0 0 .28-1.222m-1.23 5.359a.628.628 0 1 0-.28 1.224.628.628 0 0 0 .28-1.224m1.65-1.798a.627.627 0 1 0 1.223.28.627.627 0 0 0-1.223-.28m-2.88 7.158a.626.626 0 1 0-.281 1.22.626.626 0 0 0 .28-1.22m2.403-2.27a.628.628 0 1 0-.28 1.224.628.628 0 0 0 .28-1.224m-3.632 7.629a.628.628 0 1 0-.28 1.224.628.628 0 0 0 .28-1.224m1.65-1.799a.627.627 0 1 0 1.222.28.627.627 0 0 0-1.222-.28m-2.88 7.159a.626.626 0 1 0-.282 1.22.626.626 0 0 0 .282-1.22m1.65-1.799a.627.627 0 1 0 1.222.28.627.627 0 0 0-1.222-.28m-2.881 7.158a.627.627 0 1 0-.28 1.222.627.627 0 0 0 .28-1.222m2.402-2.27a.627.627 0 1 0-.28 1.221.627.627 0 0 0 .28-1.221m7.322-23.707a.627.627 0 1 0-.28 1.222.627.627 0 0 0 .28-1.222m1.705-1.377a.622.622 0 0 0 1.114 0zm-2.935 6.736a.628.628 0 1 0-.28 1.224.628.628 0 0 0 .28-1.224m1.65-1.799a.626.626 0 1 0 1.22.281.626.626 0 0 0-1.22-.281m-2.88 7.159a.627.627 0 1 0-.28 1.222.627.627 0 0 0 .28-1.222m1.65-1.799a.627.627 0 1 0 1.222.28.627.627 0 0 0-1.222-.28m-2.88 7.158a.627.627 0 1 0-.28 1.222.627.627 0 0 0 .28-1.222m2.402-2.269a.626.626 0 1 0-.282 1.22.626.626 0 0 0 .282-1.22m-3.632 7.628a.627.627 0 1 0-.28 1.221.627.627 0 0 0 .28-1.221m1.65-1.798a.627.627 0 1 0 1.221.28.627.627 0 0 0-1.221-.28m-2.881 7.158a.626.626 0 1 0-.281 1.22.626.626 0 0 0 .281-1.22m2.402-2.269a.626.626 0 1 0-.281 1.22.626.626 0 0 0 .28-1.22m7.323-23.707a.626.626 0 1 0-.282 1.22.626.626 0 0 0 .282-1.22m1.65-1.8a.626.626 0 1 0 .927-.398h-.635a.62.62 0 0 0-.292.398m-2.88 7.158a.628.628 0 1 0-.28 1.224.628.628 0 0 0 .28-1.224m2.822 1.291a.626.626 0 1 0 1.22.281.626.626 0 0 0-1.22-.281m.05-2.809a.627.627 0 1 0-1.221-.28.627.627 0 0 0 1.221.28m-4.102 6.878a.626.626 0 1 0-.281 1.22.626.626 0 0 0 .28-1.22m1.651-1.799a.627.627 0 1 0 1.222.28.627.627 0 0 0-1.222-.28m-2.88 7.158a.627.627 0 1 0-.28 1.223.627.627 0 0 0 .28-1.223m1.65-1.799a.627.627 0 1 0 1.221.28.627.627 0 0 0-1.221-.28m-.479 4.889a.626.626 0 1 0-.282 1.22.626.626 0 0 0 .282-1.22m-3.631 7.629a.627.627 0 1 0-.28 1.222.627.627 0 0 0 .28-1.222m2.4-2.27a.627.627 0 1 0-.28 1.222.627.627 0 0 0 .28-1.222m-.7-2.338a.627.627 0 1 0-1.221-.28.627.627 0 0 0 1.221.28m8.023-21.368a.626.626 0 1 0-.282 1.22.626.626 0 0 0 .282-1.22m2.401-2.27a.626.626 0 1 0-.281 1.22.626.626 0 0 0 .281-1.22m-.81 8.92a.627.627 0 1 0 1.222.28.627.627 0 0 0-1.222-.28m.051-2.809a.626.626 0 1 0-1.22-.281.626.626 0 0 0 1.22.281m-4.102 6.877a.628.628 0 1 0-.28 1.224.628.628 0 0 0 .28-1.224m1.65-1.799a.626.626 0 1 0 1.22.281.626.626 0 0 0-1.22-.281m-2.88 7.158a.627.627 0 1 0-.28 1.222.627.627 0 0 0 .28-1.222m1.65-1.798a.627.627 0 1 0 1.222.28.627.627 0 0 0-1.222-.28m-.479 4.888a.628.628 0 1 0-.28 1.224.628.628 0 0 0 .28-1.224m-1.23 5.36a.626.626 0 1 0-.281 1.22.626.626 0 0 0 .28-1.22m-1.171-3.09a.626.626 0 1 0-.281 1.22.626.626 0 0 0 .281-1.22m8.494-20.617a.626.626 0 1 0-.282 1.22.626.626 0 0 0 .282-1.22m2.401-2.27a.626.626 0 1 0-.281 1.22.626.626 0 0 0 .281-1.22m-.81 8.919a.626.626 0 1 0 1.22.281.626.626 0 0 0-1.22-.281m.051-2.809a.627.627 0 1 0-1.222-.28.627.627 0 0 0 1.222.28m-4.102 6.878a.627.627 0 1 0-.28 1.223.627.627 0 0 0 .28-1.223m2.401-2.27a.628.628 0 1 0-.279 1.224.628.628 0 0 0 .28-1.224m-3.633 7.63a.626.626 0 1 0-.281 1.22.626.626 0 0 0 .281-1.22m1.651-1.799a.627.627 0 1 0 1.22.28.627.627 0 0 0-1.22-.28m-.479 4.888a.628.628 0 1 0-.28 1.224.628.628 0 0 0 .28-1.224m-1.231 5.359a.627.627 0 1 0-.28 1.222.627.627 0 0 0 .28-1.222m-1.171-3.089a.626.626 0 1 0-.281 1.22.626.626 0 0 0 .281-1.22m8.494-20.617a.627.627 0 1 0-.28 1.222.627.627 0 0 0 .28-1.222m2.401-2.27a.627.627 0 1 0-.28 1.222.627.627 0 0 0 .28-1.222m-1.93-2.388a.626.626 0 0 0 1.23.049l.005-.049zm1.12 11.308a.627.627 0 1 0 1.221.28.627.627 0 0 0-1.221-.28m.05-2.809a.626.626 0 1 0-1.22-.281.626.626 0 0 0 1.22.281m-4.102 6.877a.627.627 0 1 0-.279 1.223.627.627 0 0 0 .28-1.223m2.401-2.27a.627.627 0 1 0-.28 1.223.627.627 0 0 0 .28-1.223m-3.632 7.63a.627.627 0 1 0-.28 1.222.627.627 0 0 0 .28-1.222m2.402-2.27a.627.627 0 1 0-.28 1.222.627.627 0 0 0 .28-1.222m-1.23 5.359a.628.628 0 1 0-.28 1.224.628.628 0 0 0 .28-1.224m-1.23 5.36a.626.626 0 1 0-.282 1.22.626.626 0 0 0 .281-1.22m-1.171-3.09a.628.628 0 1 0-.28 1.224.628.628 0 0 0 .28-1.224m6.033-9.898a.627.627 0 1 0-.28 1.222.627.627 0 0 0 .28-1.222m-1.23 5.359a.626.626 0 1 0-.281 1.22.626.626 0 0 0 .281-1.22m2.402-2.27a.626.626 0 1 0-.282 1.22.626.626 0 0 0 .282-1.22m-3.633 7.629a.626.626 0 1 0-.28 1.22.626.626 0 0 0 .28-1.22m2.402-2.27a.628.628 0 1 0-.279 1.224.628.628 0 0 0 .28-1.224"/><path fill="#5474f6" d="M55.013 153.536a7.76 7.76 0 0 0-4.864-7.195v14.388a7.75 7.75 0 0 0 4.864-7.194z"/><path fill="#fff" d="m256.717 77.787.841-3.66a.623.623 0 0 1 .245-1.07l.985-4.29a.623.623 0 0 1 .245-1.069l.985-4.29a.623.623 0 0 1 .245-1.069l.985-4.29a.623.623 0 0 1 .245-1.069l.345-1.502c-.444.513-.97.965-1.564 1.336a6.92 6.92 0 0 1-5.259.888 6.9 6.9 0 0 1-3.624-2.147.625.625 0 1 1-.741-.987 7 7 0 0 1-.822-1.917.62.62 0 0 1-.669-.761.6.6 0 0 1 .107-.232c.001-.025-.004-.05.002-.076l4.47-19.475a6.45 6.45 0 0 0-.75-4.798c-.862-1.429-2.216-2.417-3.813-2.783-3.301-.758-6.627 1.41-7.412 4.832l-3.206 13.967a6.66 6.66 0 0 1 3.62 2.819 6.66 6.66 0 0 1 1.007 3.97.62.62 0 0 1-.076.67c-.023.143-.043.285-.076.427a6.67 6.67 0 0 1-2.979 4.187 6.7 6.7 0 0 1-1.568.72c2.025.555 4.901 1.628 7.031 3.583a.626.626 0 1 1 .583.582c.297.32.576.658.827 1.02.187.27.351.549.5.832q.012 0 .025.003a.626.626 0 0 1 .391.937q.384 1.032.471 2.162a.6.6 0 0 1 .309-.01.626.626 0 1 1-.281 1.222l-.02-.007c-.034.568-.113 1.15-.251 1.748a.407.407 0 1 1-.794-.182c.545-2.372.202-4.472-1.018-6.24-2.983-4.317-10.251-5.359-10.324-5.37-.008 0-.014-.005-.021-.007a7 7 0 0 1-.926-.14l-4.509-1.034a.406.406 0 1 1 .182-.794l4.509 1.035a5.906 5.906 0 0 0 7.069-4.43 5.905 5.905 0 0 0-4.43-7.07l-10.098-2.317a5.906 5.906 0 0 0-7.069 4.43l-2.35 9.808-2.854 12.432zm-7.683-3.359a.627.627 0 1 1-1.222-.28.627.627 0 0 1 1.222.28m1.651-1.799a.626.626 0 1 1 .278-1.22.626.626 0 0 1-.278 1.22m3.911-8.85a.626.626 0 1 1-.278 1.22.626.626 0 0 1 .278-1.22m-1.23 5.359a.626.626 0 1 1-.278 1.221.626.626 0 0 1 .278-1.221m-.759 6.11a.627.627 0 1 1-1.222-.28.627.627 0 0 1 1.222.28m3.573.82a.627.627 0 1 1-1.222-.28.627.627 0 0 1 1.222.28m-1.171-3.089a.627.627 0 1 1-1.223-.282.627.627 0 0 1 1.223.282m2.401-2.27a.627.627 0 1 1-1.222-.28.627.627 0 0 1 1.222.28m-1.171-3.09a.627.627 0 1 1-1.223-.281.627.627 0 0 1 1.223.282m2.401-2.269a.627.627 0 1 1-1.222-.28.627.627 0 0 1 1.222.28m.008-5.64a.627.627 0 1 1 1.222.28.627.627 0 0 1-1.222-.28m-1.65 1.8a.627.627 0 1 1-.28 1.221.627.627 0 0 1 .28-1.222m-1.923-2.62a.627.627 0 1 1 1.223.282.627.627 0 0 1-1.223-.282m-1.65 1.799a.626.626 0 1 1-.278 1.22.626.626 0 0 1 .278-1.22m-1.931 3.02a.627.627 0 1 1-1.222-.28.627.627 0 0 1 1.222.28m.009-5.64a.627.627 0 1 1 1.222.28.627.627 0 0 1-1.222-.28m-2.351-.539a.627.627 0 1 1-1.223-.281.627.627 0 0 1 1.223.281m-2.343-6.18a.627.627 0 1 1-1.222-.28.627.627 0 0 1 1.222.28m-4.803 4.54a.627.627 0 1 1-1.222-.28.627.627 0 0 1 1.222.28m1.65-1.799a.626.626 0 1 1 .28-1.22.626.626 0 0 1-.28 1.22m1.923 2.62a.627.627 0 1 1-1.222-.28.627.627 0 0 1 1.222.28m1.179-2.551a.628.628 0 1 1 1.224.282.628.628 0 0 1-1.224-.282m2.343 6.18a.627.627 0 1 1 1.222.28.627.627 0 0 1-1.222-.28m3.094 5.708a.627.627 0 1 1-.28 1.222.627.627 0 0 1 .28-1.222m-3.153 2.74a.627.627 0 1 1 1.223.282.627.627 0 0 1-1.223-.281m-1.65 1.8a.628.628 0 0 1-.28 1.221.6.6 0 0 1-.202-.087l.241-1.142a.6.6 0 0 1 .241.008"/><path fill="#000" d="M241.535 55.139a.627.627 0 1 0-.28 1.221.627.627 0 0 0 .28-1.221m4.803-4.539a.627.627 0 1 0-.28 1.221.627.627 0 0 0 .28-1.221m-1.23 5.359a.626.626 0 1 0-.281 1.22.626.626 0 0 0 .281-1.22m-1.172-3.09a.627.627 0 1 0-.28 1.222.627.627 0 0 0 .28-1.222m3.994 4.381a.627.627 0 1 0 1.222.28.627.627 0 0 0-1.222-.28m.05-2.81a.626.626 0 1 0-1.22-.281.626.626 0 0 0 1.22.281m-1.07 17.281q.09.06.202.088a.627.627 0 1 0 .039-1.23zm5.063-12.901a.627.627 0 1 0 .28-1.22.627.627 0 0 0-.28 1.22m-1.701 4.609a.627.627 0 1 0 1.224.28.627.627 0 0 0-1.224-.28m.051-2.809a.626.626 0 1 0-1.22-.282.626.626 0 0 0 1.22.282m2.351.54a.626.626 0 1 0 1.22.281.626.626 0 0 0-1.22-.282m-3.161 8.381a.627.627 0 1 0 .28-1.222.627.627 0 0 0-.28 1.222m2.402-2.27a.627.627 0 1 0 .28-1.221.627.627 0 0 0-.28 1.22m-3.352 6.408a.627.627 0 1 0-.28 1.222.627.627 0 0 0 .28-1.222m6.983-14.037a.626.626 0 1 0 .281-1.22.626.626 0 0 0-.281 1.22m-1.23 5.36a.627.627 0 1 0 .28-1.221.627.627 0 0 0-.28 1.22m1.931-3.02a.627.627 0 1 0 1.222.28.627.627 0 0 0-1.222-.28m-3.161 8.381a.627.627 0 1 0 .28-1.221.627.627 0 0 0-.28 1.221m-.95 4.138a.627.627 0 1 0-.28 1.222.627.627 0 0 0 .28-1.222m-1.171-3.09a.626.626 0 1 0-.281 1.22.626.626 0 0 0 .281-1.22m8.154-10.947a.627.627 0 1 0 .28-1.221.627.627 0 0 0-.28 1.221m-3.351 6.407a.627.627 0 1 0-.28 1.22.627.627 0 0 0 .28-1.22m2.401-2.269a.627.627 0 1 0-.28 1.222.627.627 0 0 0 .28-1.222m-3.631 7.628a.626.626 0 1 0-.281 1.22.626.626 0 0 0 .281-1.22m2.401-2.269a.627.627 0 1 0-.28 1.222.627.627 0 0 0 .28-1.223m-1.23 5.36a.627.627 0 1 0-.28 1.222.627.627 0 0 0 .28-1.222"/><path fill="#fff" d="m225.697 40.713-.002.007a6.7 6.7 0 0 1 2.198.127l9.869 2.265 3.25-14.159c.008-.029.012-.061.02-.09a6.1 6.1 0 0 0-.802-4.55 6.1 6.1 0 0 0-3.837-2.728 6.12 6.12 0 0 0-4.639.782 6.1 6.1 0 0 0-2.729 3.837zm25.599 5.735-.016.065-.701 3.026q-.025.111-.044.224a6.1 6.1 0 0 0 .831 4.415 6.1 6.1 0 0 0 3.832 2.73 6.12 6.12 0 0 0 4.644-.783 6.1 6.1 0 0 0 2.48-3.026 6 6 0 0 0 .249-.81l.692-3.003a6.1 6.1 0 0 0-.778-4.647 6.08 6.08 0 0 0-3.837-2.733 6.155 6.155 0 0 0-7.352 4.541"/><path fill="#000" d="M86.017 19.227a.83.83 0 0 0 .505.175q.067-.001.126-.008l16.187-2.562q-.016.213-.02.428a.79.79 0 0 0 .313.651.8.8 0 0 0 .636.16c0 .093.008.186.016.284l-15.743 5.927a.82.82 0 0 0-.476.468.8.8 0 0 0 .04.668l2.933 5.633a.82.82 0 0 0 .725.44.85.85 0 0 0 .436-.126l13.217-8.35c2.513 6.032 8.717 10.032 15.649 10.032 1.023 0 2.065-.085 3.112-.269 7.181-1.246 12.826-6.61 14.126-13.392l-.216.081a5 5 0 0 0-.232.09q-.226.082-.457.175a32 32 0 0 0-3.523 1.694c-1.653.913-3.845 1.638-5.751 1.638-.672 0-1.312-.09-1.878-.297-1.01-.367-1.719-1.051-2.106-2.041-.488-1.246-.423-2.4.188-3.332.884-1.356 2.916-2.195 5.572-2.301 3.869-.155 6.207-.68 7.665-1.03q.141-.039.269-.07l.127-.029.395-.097v-.013a16 16 0 0 0-.245-1.148l-.024-.09a1 1 0 0 1-.029-.122 15 15 0 0 0-1.47-3.572l9.36-2.652a2.84 2.84 0 0 0 2.057-2.716q-.001-.38-.106-.766a2.82 2.82 0 0 0-3.21-2.025l-12.594 2.2c-3.938-2.55-8.712-3.499-13.457-2.672-4.823.83-9.055 3.393-11.91 7.213a17.4 17.4 0 0 0-2.521 4.754l-17.613-.819a.814.814 0 0 0-.847.876l.469 6.333a.8.8 0 0 0 .305.579M146.61 3.004q.075.28.077.55c0 .892-.603 1.69-1.466 1.934l-9.568 2.713-.403.114-.411.118-23.449 6.643-3.214.913-3.633 1.026-.408.118-.403.114-.102.029q.006-.288.025-.574.008-.208.028-.416c.008-.142.025-.28.041-.42a15 15 0 0 1 .285-1.714c.082-.35.171-.7.281-1.047q.055-.201.126-.403.061-.202.135-.403a16.8 16.8 0 0 1 2.326-4.31c2.733-3.65 6.777-6.101 11.396-6.896a18.6 18.6 0 0 1 3.206-.28c3.499 0 6.891.997 9.8 2.916l.134.09.041-.009 12.871-2.244a2.003 2.003 0 0 1 2.285 1.438"/><path fill="#fff" d="M137.33 13.994q-.128.03-.269.069c-1.458.35-3.796.875-7.665 1.03-2.656.106-4.688.945-5.572 2.302-.611.932-.676 2.085-.188 3.331.387.99 1.096 1.674 2.106 2.041.566.208 1.206.297 1.878.297 1.906 0 4.097-.725 5.751-1.637a32 32 0 0 1 3.523-1.694q.232-.095.457-.176a5 5 0 0 1 .232-.09l.216-.08h.004l.04-.233c.078-.444.135-.884.172-1.3.024-.24.036-.484.044-.724.045-.95-.004-1.898-.138-2.823l-.065-.44h-.004l-.395.098z"/><path fill="#000" d="m257.411 78.387.009-.021 5.759-25.092a.4.4 0 0 0 .004-.157l.002-.005q.105-.314.179-.64l.693-3.002a6.93 6.93 0 0 0-.88-5.262 6.92 6.92 0 0 0-4.346-3.096 6.98 6.98 0 0 0-6.821 2.227l2.536-11.046a7.27 7.27 0 0 0-.849-5.411c-.979-1.623-2.519-2.746-4.336-3.163-2.917-.67-5.841.67-7.416 3.119l-.001-.014v-.004a6.9 6.9 0 0 0-1.022-2.937 6.93 6.93 0 0 0-4.347-3.091 6.9 6.9 0 0 0-5.254.887 6.9 6.9 0 0 0-3.091 4.342l-3.405 14.847-.001.004a6.71 6.71 0 0 0-4.853 4.577.4.4 0 0 0-.181.254l-2.289 9.975-.003.012-2.937 12.794-.011-.002-1.353 5.995a65.3 65.3 0 0 0-14.746-16.835c-9.808-7.905-21.795-12.8-34.275-14.093l.093-.363a.4.4 0 0 0-.069-.358.42.42 0 0 0-.33-.164H152.6a.41.41 0 0 0-.399.31l-.045.18-35.731-.307a20 20 0 0 0-.44 0l-44.744.514c-35.901.075-65.082 29.304-65.082 65.222v13.393h-.856q-.526 0-1.022.102a.3.3 0 0 0-.094.021 4.5 4.5 0 0 0-.709.203 4 4 0 0 0-.472.2 5 5 0 0 0-1.075.688A5.3 5.3 0 0 0 0 127.28v52.514q-.001.07.004.139v4.684a5.303 5.303 0 0 0 5.295 5.295h.86v22.186l.105 31.404c.017 3.833 3.137 6.941 6.966 6.941h.024a6.97 6.97 0 0 0 6.191-3.821 6.97 6.97 0 0 0 6.908 6.085h.024a6.976 6.976 0 0 0 6.892-6.122c.33.636.762 1.226 1.283 1.748a6.93 6.93 0 0 0 4.908 2.02h.025c3.84-.012 6.957-3.148 6.94-6.985l-.012-4.297c.337.089.68.156 1.029.192q.343.035.687.035c.532 0 1.06-.063 1.575-.189a6.67 6.67 0 0 0 4.153-3.025 6.67 6.67 0 0 0 .797-5.075l-4.532-18.826q-.008-.02-.019-.04v-.012q.006-.016.005-.033v-.001h.04v-22.185h8.468v125.211h-.003l-23.951 12.87c-.374.2-.231.767.193.767l78.38-.062a1.63 1.63 0 0 0 1.628-1.635l-.04-11.94h.002V139.327a2.05 2.05 0 0 1 2.048-2.047c1.129 0 2.047.918 2.047 2.047v175.796h-.002l-.04 11.94a1.63 1.63 0 0 0 1.628 1.634l78.381.062c.424 0 .566-.566.193-.766l-23.951-12.871V188.29h11.877c7.05 0 12.789-5.739 12.789-12.789v-24.839a31.64 31.64 0 0 0 15.172 3.837h.009c14.867-.004 27.537-10.135 30.812-24.637zM138.019 187.459c-6.591 0-11.959-5.364-11.959-11.959V92.295c0-.457.375-.831.831-.831h13.091c.187 0 .35-.126.399-.31l.028-.106 1.051-3.995.127-.477 11.331-43.081h10.415l-11.478 43.647-1.002 3.805a.4.4 0 0 0-.012.101.37.37 0 0 0 .085.257.37.37 0 0 0 .224.142c.033.013.07.017.102.017h19.078a21.2 21.2 0 0 1 7.902 12.271l5.919 26.145c1.998 8.826 7.48 16.024 14.814 20.31v25.31c0 6.595-5.364 11.959-11.959 11.959zm19.686-100.267a21.2 21.2 0 0 1 11.446 3.445H151.79l.917-3.487v-.001zm-107.556 21.39c0-11.707 9.525-21.232 21.233-21.232l.252-.001 19.395-.223c-14.117 7.018-25.005 19.594-29.774 34.85H50.149zm-4.537 134.785a6.153 6.153 0 0 1-6.13 6.171c-1.642-.009-3.19-.628-4.355-1.784a6.12 6.12 0 0 1-1.816-4.261c0-.004.004-.012 0-.016v-.024c.001-.015.008-.028.008-.043l-.04-11.943a.41.41 0 0 0-.408-.406.41.41 0 0 0-.407.409l.04 11.86v.008c-.004.024-.008.045-.008.073l.008 2.31a6.15 6.15 0 0 1-6.13 6.17h-.02a6.16 6.16 0 0 1-6.15-6.126l-.009-2.305.002-.006-.042-12.251a.41.41 0 0 0-.407-.406h-.002a.41.41 0 0 0-.406.409l.042 12.243-.001.006a6.155 6.155 0 0 1-6.126 6.171h-.025a6.16 6.16 0 0 1-6.15-6.13l-.102-31.074h18.56l23.789-.142c0 .03-.004.06.003.091l4.532 18.827a5.86 5.86 0 0 1-.7 4.46 5.86 5.86 0 0 1-3.65 2.658 5.9 5.9 0 0 1-3.102-.092l-.022-7.229a.407.407 0 0 0-.407-.406h-.001a.406.406 0 0 0-.406.408l.022 7.353h-.001v.194zM.82 184.616v-2c.207.338.456.644.737.921a5.6 5.6 0 0 0 .888.721q.245.15.5.285a5.2 5.2 0 0 0 .97.366c.44.123.908.188 1.389.188h.855v4H5.3a4.486 4.486 0 0 1-4.48-4.481m.008-57.337a4.48 4.48 0 0 1 4.476-4.473h.855v35.861q-.042-.018-.086-.03a.628.628 0 1 0 .086 1.195v7.31a.6.6 0 0 0-.145-.056.627.627 0 1 0 .146 1.166v7.373a.627.627 0 1 0 0 1.043v7.45a.6.6 0 0 0-.263-.134.625.625 0 0 0-.668.277 4.45 4.45 0 0 1-2.527-.836.63.63 0 0 0-.303-.236 4.5 4.5 0 0 1-1.302-1.884.627.627 0 0 0 .056-1.23.6.6 0 0 0-.31.01c-.006-.097-.015-.193-.015-.291v-6.981a.628.628 0 1 0 .383-1.187.62.62 0 0 0-.383.034v-7.326a.626.626 0 1 0 0-1.093v-7.391a.626.626 0 1 0 0-1.021zm88.382-4.473a4.477 4.477 0 0 1 4.473 4.473v32.134a.62.62 0 0 0 0 .699v7.678a.62.62 0 0 0 0 .848v7.544a.62.62 0 0 0-.21.338.62.62 0 0 0 .21.619v2.654a4.4 4.4 0 0 1-.378 1.793.627.627 0 0 0-1.062.294.625.625 0 0 0 .431.738 4.5 4.5 0 0 1-1.724 1.295.626.626 0 0 0-1.109.237l-.008.067a4.4 4.4 0 0 1-.622.049H77.934l.01-.027a.627.627 0 0 0-1.223-.28.6.6 0 0 0 .01.307h-8.528a.62.62 0 0 0-.84 0h-2.637a.626.626 0 1 0-1.026 0h-8.474a.623.623 0 0 0-1.125 0h-2.71a.625.625 0 0 0-.159-1.159.627.627 0 0 0-.439 1.159h-.643v-3.055a.626.626 0 0 0 0-1.164v-7.267a.63.63 0 0 0 .44-.461.626.626 0 0 0-.44-.741v-7.231a.627.627 0 0 0 .029-1.228l-.03-.004v-40.309h39.062m-39.06 66.291v-4h39.06a5.22 5.22 0 0 0 3.165-1.059s.004.004.004 0q.202-.157.391-.326.091-.084.184-.175.42-.416.733-.917v1.996a4.484 4.484 0 0 1-4.48 4.481zM218.29 55.879l2.351-9.807a5.906 5.906 0 0 1 7.069-4.43l10.098 2.317a5.905 5.905 0 0 1 4.43 7.07 5.906 5.906 0 0 1-7.069 4.43l-4.509-1.035a.407.407 0 1 0-.182.794l4.509 1.035c.307.07.617.111.925.139l.022.008c.073.01 7.341 1.052 10.323 5.37 1.221 1.767 1.564 3.866 1.019 6.239a.406.406 0 0 0 .398.498.41.41 0 0 0 .396-.316c.137-.599.217-1.18.251-1.748l.02.007a.627.627 0 1 0-.028-1.212 8 8 0 0 0-.471-2.162.626.626 0 0 0-.392-.938l-.024-.003a8.2 8.2 0 0 0-1.327-1.852.626.626 0 1 0-.583-.582c-2.13-1.954-5.007-3.028-7.031-3.582a6.8 6.8 0 0 0 1.568-.72 6.67 6.67 0 0 0 2.979-4.187c.032-.142.053-.284.076-.427a.62.62 0 0 0 .076-.67 6.66 6.66 0 0 0-1.007-3.97 6.66 6.66 0 0 0-3.62-2.82l3.206-13.966c.785-3.423 4.111-5.59 7.412-4.833 1.597.367 2.951 1.355 3.813 2.784a6.45 6.45 0 0 1 .75 4.797l-4.47 19.475c-.006.026-.001.051-.002.077a.627.627 0 0 0 .364.983.6.6 0 0 0 .198.01c.173.667.447 1.311.821 1.917a.626.626 0 1 0 .742.986 6.9 6.9 0 0 0 3.624 2.147 6.9 6.9 0 0 0 5.258-.888 6.9 6.9 0 0 0 1.564-1.336l-.344 1.502a.623.623 0 0 0-.245 1.069l-.985 4.29a.623.623 0 0 0-.245 1.07l-.985 4.29a.62.62 0 0 0-.444.46.63.63 0 0 0 .198.609l-.984 4.29a.62.62 0 0 0-.444.46.63.63 0 0 0 .198.609l-.84 3.66-41.28-9.475zm13.463-33.512a6.12 6.12 0 0 1 4.64-.782 6.1 6.1 0 0 1 3.836 2.73 6.1 6.1 0 0 1 .803 4.549c-.008.028-.012.061-.02.09l-3.251 14.158v.001l-9.869-2.265a6.7 6.7 0 0 0-2.197-.128l.002-.007 3.327-14.508a6.1 6.1 0 0 1 2.729-3.837m26.895 19.54a6.1 6.1 0 0 1 3.837 2.732 6.1 6.1 0 0 1 .778 4.648l-.692 3.002c-.066.276-.147.55-.249.81a6.1 6.1 0 0 1-2.48 3.026 6.12 6.12 0 0 1-4.644.782 6.1 6.1 0 0 1-3.833-2.729 6.07 6.07 0 0 1-.94-3.14 6 6 0 0 1 .154-1.499l.701-3.026.016-.065a6.154 6.154 0 0 1 7.352-4.542"/><path fill="#5474f6" d="m131.412 3.818-.134-.09c-2.908-1.918-6.301-2.916-9.8-2.916a18.6 18.6 0 0 0-3.206.281c-4.619.794-8.663 3.246-11.396 6.896a16.8 16.8 0 0 0-2.326 4.31 7 7 0 0 0-.134.403q-.073.2-.127.403c-.11.346-.199.696-.281 1.047a15 15 0 0 0-.285 1.714c-.016.139-.033.277-.041.42a7 7 0 0 0-.028.415q-.018.288-.025.575l.102-.029.403-.114.408-.118 3.633-1.026 3.214-.913 23.449-6.643.411-.118.403-.114 9.568-2.713a2.02 2.02 0 0 0 1.466-1.935q-.002-.268-.077-.55a2.003 2.003 0 0 0-2.285-1.437L131.453 3.81z"/><path fill="#fff" d="M185.455 178.001a4.89 4.89 0 0 0 4.883-4.884v-12.472a4.89 4.89 0 0 0-4.883-4.883h-44.903a4.89 4.89 0 0 0-4.879 4.883v12.472a4.89 4.89 0 0 0 4.879 4.884z"/><path fill="#000" d="M185.455 178.828a5.717 5.717 0 0 0 5.71-5.71v-12.472a5.717 5.717 0 0 0-5.71-5.711h-44.902a5.714 5.714 0 0 0-5.707 5.711v12.472a5.714 5.714 0 0 0 5.707 5.71zm-49.782-5.71v-12.472a4.89 4.89 0 0 1 4.879-4.884h44.902a4.89 4.89 0 0 1 4.884 4.884v12.472a4.89 4.89 0 0 1-4.884 4.884h-44.902a4.89 4.89 0 0 1-4.879-4.884"/><path fill="#fff" d="m45.597 238.351-.022-7.353c0-.225.18-.407.406-.408h.001c.224 0 .407.181.407.406l.022 7.229a5.87 5.87 0 0 0 3.102.092 5.86 5.86 0 0 0 3.65-2.658 5.86 5.86 0 0 0 .7-4.46l-4.532-18.827c-.007-.031-.003-.061-.003-.091l-23.79.142H6.98l.102 31.074a6.16 6.16 0 0 0 6.15 6.13h.025a6.155 6.155 0 0 0 6.126-6.171v-.005l-.04-12.244a.406.406 0 0 1 .405-.409h.002c.224 0 .406.182.407.406l.042 12.251-.002.006.008 2.306a6.16 6.16 0 0 0 6.15 6.126h.021a6.154 6.154 0 0 0 6.13-6.171l-.008-2.31c0-.028.004-.049.008-.073v-.008l-.04-11.86c0-.225.18-.408.406-.409h.001c.225 0 .407.181.408.406l.04 11.943c0 .015-.007.028-.008.043v.024c.004.004 0 .012 0 .016a6.12 6.12 0 0 0 1.816 4.261c1.165 1.156 2.713 1.776 4.355 1.784a6.153 6.153 0 0 0 6.13-6.171l-.017-4.823zm285.459-82.749c.119-.306.181-.707.192-1.178a.627.627 0 0 1-.556-.796.63.63 0 0 1 .486-.442c-.072-.572-.192-1.2-.366-1.869l-.012-.057-.048-.193a.626.626 0 1 1-.298-1.016q.038.012.073.029c-.313-1.509-.534-3.377-.33-6.041a6.2 6.2 0 0 1-1.314.312.6.6 0 0 1-.021.183.625.625 0 0 1-1.227-.152 6 6 0 0 1-1.658-.376 6 6 0 0 1-.704-.332.625.625 0 1 1-1.028-.707 6 6 0 0 1-.418-.391l-1.162 2.494a.626.626 0 0 1-.495 1.061l-1.346 2.889-1.236-.576a31.4 31.4 0 0 0 1.551 6.572q.004.013.008.02c.301.827.634 1.447.983 1.927l.008-.048a.628.628 0 0 1 1.206.342.62.62 0 0 1-.544.452c.508.451 1.03.694 1.52.882.904.351 1.882.44 2.823.261l.028-.004a5.19 5.19 0 0 0 3.886-3.246zm-3.459-2.201a.627.627 0 1 1 .344-1.206.627.627 0 0 1-.344 1.206m1.07-6.064a.627.627 0 1 1 1.206.344.627.627 0 0 1-1.206-.344m-1.739 1.713a.627.627 0 1 1-.342 1.206.627.627 0 0 1 .342-1.206m-2.857 3.35a.627.627 0 1 1 .344-1.206.627.627 0 0 1-.344 1.206m1.07-6.064a.628.628 0 1 1 1.208.345.628.628 0 0 1-1.208-.345m-2.514 2.144a.627.627 0 1 1 1.207.344.627.627 0 0 1-1.207-.344m-2.082 2.919a.627.627 0 1 1 .344-1.207.627.627 0 0 1-.344 1.207m1.012 3.145a.627.627 0 1 1 .342-1.206.627.627 0 0 1-.342 1.206m3.527 1.001a.627.627 0 1 1 .342-1.206.627.627 0 0 1-.342 1.206m1.786 2.714a.627.627 0 1 1-1.207-.344.627.627 0 0 1 1.207.344m1.74-1.712a.627.627 0 1 1 .341-1.207.627.627 0 0 1-.341 1.207"/><path fill="#fff" d="m339.26 109.523-.024-.012-15.036 32.263h.001a5.1 5.1 0 0 0 2.069 1.471c1.364.525 2.9.448 4.203-.216a5.16 5.16 0 0 0 2.493-2.758q.04-.09.065-.187l.021-.049q.091-.427.195-.843l.025-.114c2.435-10.187 6.557-18.451 8.215-21.535a32 32 0 0 1 .754-1.352 5.18 5.18 0 0 0 .106-3.356 5.16 5.16 0 0 0-3.088-3.312z"/><path fill="#000" d="M329.384 156.115a.627.627 0 1 0-1.206-.342.627.627 0 0 0 1.206.342m-3.526-1.001a.627.627 0 1 0-1.206-.342.627.627 0 0 0 1.206.342m.58 2.372a.626.626 0 1 0-.344 1.207.626.626 0 0 0 .344-1.207m1.502-5.29a.626.626 0 1 0-.344 1.208.626.626 0 0 0 .344-1.208m1.16-4.084a.627.627 0 1 0 .342-1.206.627.627 0 0 0-.342 1.206m-4.687 3.082a.627.627 0 1 0-.341 1.208.627.627 0 0 0 .341-1.208m-2.082 2.918a.626.626 0 1 0-1.204-.344.626.626 0 0 0 1.204.344m3.242-7.001a.627.627 0 1 0 .342-1.206.627.627 0 0 0-.342 1.206m.581 2.371a.627.627 0 1 0 1.206.344.627.627 0 0 0-1.206-.344m-3.095-.227a.627.627 0 1 0 .342-1.206.627.627 0 0 0-.342 1.206m-1.74 1.713a.627.627 0 1 0-1.206-.344.627.627 0 0 0 1.206.344"/><path fill="#5474f6" d="M329.826 104.363h.004l17.364 6.847a55 55 0 0 1 1.845-3.572l-.004-.004-25.302-9.98-46.059-18.165-1.731-.685a5.3 5.3 0 0 1-1.035-.546q-.054-.035-.11-.077a4 4 0 0 1-.256-.195 5 5 0 0 1-1.059-1.165 9 9 0 0 1-.204-.33q-.096-.173-.179-.346a2 2 0 0 1-.065-.147q-.007-.006-.008-.012-.03-.068-.053-.135a1 1 0 0 1-.049-.122 6 6 0 0 1-.204-.684q-.011-.01-.004-.017a1 1 0 0 1-.037-.162l-.729 1.853a4.485 4.485 0 0 0 2.522 5.812l2.814 1.108z"/><path fill="#fff" d="M293.282 22.782a3 3 0 0 0-.155.294 9 9 0 0 0-.13.305l-.729 1.85-.322.81-.004.008-.611 1.552-.016.04-8.428 21.367a.624.624 0 0 1 .664.961.627.627 0 0 1-1.04-.01l-2.711 6.874a.62.62 0 0 1 .434.103.627.627 0 0 1-.71 1.034.6.6 0 0 1-.126-.119l-2.688 6.815a.627.627 0 1 1-.423 1.072l-2.561 6.492v.004q-.051.136-.093.275a.62.62 0 0 1 .453.975.62.62 0 0 1-.666.253c-.002.046-.007.093-.007.139q0 .157.012.313a4.5 4.5 0 0 0 .273 1.251q.014.043.033.085.023.066.053.13c.02.046.04.086.061.131.028.063.063.122.096.183a.6.6 0 0 1 .189.309c.194.309.416.597.68.845q.118.11.24.207c.017.02.037.033.058.05q.108.088.224.166.14.097.289.183.108.067.224.123.043.024.097.048.115.056.238.105a.624.624 0 0 1 .985.392l.623.245 7.253 2.86a.625.625 0 0 1 .975-.593.627.627 0 0 1 .162.872.6.6 0 0 1-.117.124l2.492.983a.62.62 0 0 1 .643.254l7.986 3.15a.627.627 0 0 1 .969-.391c.276.19.351.56.177.843l11.058 4.362c.01-.017.017-.035.029-.052a.626.626 0 0 1 1.123.506l8.026 3.165a.625.625 0 0 1 .835-.915.624.624 0 0 1-.276 1.136l2.52.994a.622.622 0 0 1 1.046.413l.465.183v.004l7.418 2.926a.626.626 0 0 1 .962-.665.626.626 0 0 1-.01 1.04l2.452.967a.62.62 0 0 1 .787.311l7.931 3.127a.6.6 0 0 1 .103-.291.627.627 0 0 1 1.034.709l-.019.023 5.638 2.224v-.004a59 59 0 0 1 8.803-11.607.626.626 0 1 1 .886-.885 59 59 0 0 1 5.471-4.756.627.627 0 1 1 .879-.654 59 59 0 0 1 1.757-1.25q.044-.03.088-.057a.6.6 0 0 1 .086-.192.6.6 0 0 1 .161-.16l4.716-11.952v-.005l5.385-13.644.012-.037.627-1.597v-.004l.318-.802.733-1.854a4.47 4.47 0 0 0-.444-4.126v-.004a4.4 4.4 0 0 0-.407-.517 3 3 0 0 0-.232-.24 5 5 0 0 0-.318-.273 4 4 0 0 0-.525-.359h-.005a4 4 0 0 0-.586-.285L317.29 28.154h-.004l-18.488-7.291a4.5 4.5 0 0 0-1.642-.314 4.45 4.45 0 0 0-1.78.375c-.069.028-.134.06-.203.093a5 5 0 0 0-.571.334 4.5 4.5 0 0 0-1.319 1.434zm72.193 60.052a.627.627 0 1 1-1.034-.71.627.627 0 0 1 1.034.71m-3.111 4.534a.626.626 0 1 1-1.033-.708.626.626 0 0 1 1.033.709m-9.244 6.995a.627.627 0 1 1-1.034-.71.627.627 0 0 1 1.034.71m-3.111 4.534a.626.626 0 1 1-1.033-.708.626.626 0 0 1 1.033.709m-3.11 4.535a.628.628 0 1 1-1.034-.711.628.628 0 0 1 1.034.711m-9.984-2.755a.627.627 0 1 1 .71-1.034.627.627 0 0 1-.71 1.034m-8.241-3.08a.627.627 0 1 1-1.034-.71.627.627 0 0 1 1.034.71m-3.895-1.912a.627.627 0 1 1 .71-1.033.627.627 0 0 1-.71 1.033m-.118-4.175a.627.627 0 1 1 1.034.71.627.627 0 0 1-1.034-.71m-3.023-2.074a.627.627 0 1 1 1.034.71.627.627 0 0 1-1.034-.71M279.143 73.62a.626.626 0 1 1 1.033.708.626.626 0 0 1-1.033-.707m.044-3.304a.626.626 0 1 1 1.033.708.626.626 0 0 1-1.033-.708m3.198-11.142a.627.627 0 1 1 1.034.71.627.627 0 0 1-1.034-.71m3.274-3.663a.627.627 0 1 1 .707-1.034.627.627 0 0 1-.707 1.034m2.948-5.405q.023-.032.051-.06l1.092.431a.626.626 0 1 1-1.143-.371m73.845 30.657a.626.626 0 1 1-1.033-.709.626.626 0 0 1 1.033.709m-3.111 4.534a.626.626 0 1 1-1.033-.708.626.626 0 0 1 1.033.708m-9.244 6.994a.626.626 0 1 1-1.033-.708.626.626 0 0 1 1.033.708m-10.234 2.982a.627.627 0 1 1 1.034.71.627.627 0 0 1-1.034-.71m-57.609-26.187a.626.626 0 1 1 1.033.708.626.626 0 0 1-1.033-.708m.088-6.608a.626.626 0 1 1 1.033.709.626.626 0 0 1-1.033-.709m3.11-4.534a.627.627 0 1 1 1.034.71.627.627 0 0 1-1.034-.71m3.111-4.534a.627.627 0 1 1 1.034.71.627.627 0 0 1-1.034-.71m70.866 25.279a.626.626 0 1 1-.616-.973l.591.233c.164.21.184.508.025.74m-3.11 4.534a.627.627 0 1 1-1.034-.71.627.627 0 0 1 1.034.71m-9.245 6.995a.626.626 0 1 1-1.033-.708.626.626 0 0 1 1.033.708m-4.1.52a.627.627 0 1 1 1.034.71.627.627 0 0 1-1.034-.71m-21.041-10.34a.627.627 0 1 1 .707-1.035.627.627 0 0 1-.707 1.034M285.364 64.55a.627.627 0 1 1 1.034.71.627.627 0 0 1-1.034-.71m67.813 12.422a.627.627 0 1 1-.71 1.034.627.627 0 0 1 .71-1.034m.119 4.175a.627.627 0 1 1-1.034-.71.627.627 0 0 1 1.034.71m-28.415-6.157a.626.626 0 1 1 1.033.708.626.626 0 0 1-1.033-.708m-33.339-16.204a.626.626 0 1 1 1.033.708.626.626 0 0 1-1.033-.708m58.613 16.112a.627.627 0 1 1-.71 1.034.627.627 0 0 1 .71-1.034m.118 4.175a.627.627 0 1 1-1.034-.71.627.627 0 0 1 1.034.71m-19.096-5.672a.626.626 0 1 1 .708-1.034.626.626 0 0 1-.708 1.034m2.904-2.102a.627.627 0 1 1 1.034.71.627.627 0 0 1-1.034-.71m.044-3.304.011-.013 1.125.443a.6.6 0 0 1-.102.28.627.627 0 0 1-1.034-.71m-36.45-11.67a.627.627 0 1 1 1.034.71.627.627 0 0 1-1.034-.71m12.07 2.036 1.086.428a.625.625 0 0 1-1.086-.428m-9.003-3.266a.6.6 0 0 1 .224-.196l.884.349a.626.626 0 1 1-1.107-.153zm-.044 3.304a.627.627 0 1 1 1.034.71.627.627 0 0 1-1.034-.71m3.067-1.23a.627.627 0 1 1 1.034.71.627.627 0 0 1-1.034-.71m-.044 3.304a.627.627 0 1 1 1.034.71.627.627 0 0 1-1.034-.71m3.067-1.23a.626.626 0 1 1 1.033.708.626.626 0 0 1-1.033-.708m-.044 3.303a.627.627 0 1 1 1.034.71.627.627 0 0 1-1.034-.71m3.066-1.23a.627.627 0 1 1 1.034.711.627.627 0 0 1-1.034-.71m3.068-1.23a.62.62 0 0 1 .561-.268l.346.137a.624.624 0 0 1-.745 1.003.626.626 0 0 1-.162-.872m3.022 2.074a.627.627 0 1 1 1.034.71.627.627 0 0 1-1.034-.71m21.248 7.909a.627.627 0 1 1 1.034.71.627.627 0 0 1-1.034-.71m3.023 2.073a.626.626 0 1 1 1.033.708.626.626 0 0 1-1.033-.708m3.031-.585.76.3a.63.63 0 0 1-.562-.073.6.6 0 0 1-.198-.227m-9.165 3.046a.627.627 0 1 1 1.034.71.627.627 0 0 1-1.034-.71m3.067-1.23a.627.627 0 1 1 1.034.71.627.627 0 0 1-1.034-.71m-.044 3.304a.627.627 0 1 1 1.034.71.627.627 0 0 1-1.034-.71m3.067-1.23a.626.626 0 1 1 1.033.708.626.626 0 0 1-1.033-.709m3.066-1.23a.627.627 0 1 1 1.034.71.627.627 0 0 1-1.034-.71m3.067-1.23a.6.6 0 0 1 .161-.16l.967.382a.626.626 0 1 1-1.128-.222m-.044 3.303a.627.627 0 1 1 1.034.711.627.627 0 0 1-1.034-.71m-47.699-22.357a.623.623 0 0 1-.868-.343zm-3.864.319a.626.626 0 1 1 1.033.708.626.626 0 0 1-1.033-.708m-.044 3.303a.626.626 0 1 1 1.033.709.626.626 0 0 1-1.033-.709m-.044 3.304a.626.626 0 1 1 1.033.709.626.626 0 0 1-1.033-.709m3.066-1.23a.627.627 0 1 1 1.034.71.627.627 0 0 1-1.034-.71m-.044 3.304a.627.627 0 1 1 1.034.711.627.627 0 0 1-1.034-.71m3.067-1.23a.627.627 0 1 1 1.034.71.627.627 0 0 1-1.034-.71m-.043 3.304a.626.626 0 1 1 1.033.708.626.626 0 0 1-1.033-.708m3.066-1.23a.627.627 0 1 1 1.034.71.627.627 0 0 1-1.034-.71m-.044 3.304a.627.627 0 1 1 1.034.71.627.627 0 0 1-1.034-.71m3.067-1.23a.627.627 0 1 1 1.034.71.627.627 0 0 1-1.034-.71m3.067-1.23a.627.627 0 1 1 1.034.71.627.627 0 0 1-1.034-.71m3.067-1.23a.626.626 0 1 1 1.033.707.626.626 0 0 1-1.033-.707m-.044 3.304a.626.626 0 1 1 1.033.707.626.626 0 0 1-1.033-.707m3.066-1.23a.627.627 0 1 1 1.034.71.627.627 0 0 1-1.034-.71m-.044 3.303a.627.627 0 1 1 1.034.71.627.627 0 0 1-1.034-.71m3.023 2.074a.627.627 0 1 1 1.034.71.627.627 0 0 1-1.034-.71m3.186 2.945a.627.627 0 1 1 .707-1.034.627.627 0 0 1-.707 1.034m2.928-1.364a8 8 0 0 1-1.246-.366 7.72 7.72 0 0 1-4.016-3.612.625.625 0 1 1-.492-1.144 7.758 7.758 0 1 1 14.572.386c-1.301 3.298-4.61 5.2-7.972 4.87a.63.63 0 0 1-.708 0 .6.6 0 0 1-.138-.134m2.999 1.336a.626.626 0 1 1 1.033.709.626.626 0 0 1-1.033-.709m-.044 3.305a.626.626 0 1 1 1.033.708.626.626 0 0 1-1.033-.709m3.066-1.23a.627.627 0 1 1 1.034.71.627.627 0 0 1-1.034-.71m-.044 3.303a.627.627 0 1 1 1.034.71.627.627 0 0 1-1.034-.71m3.067-1.23a.627.627 0 1 1 1.034.71.627.627 0 0 1-1.034-.71m-.044 3.304a.627.627 0 1 1 1.034.71.627.627 0 0 1-1.034-.71m3.067-1.23a.627.627 0 1 1 1.034.71.627.627 0 0 1-1.034-.71m3.067-1.23a.626.626 0 1 1 1.033.708.626.626 0 0 1-1.033-.708m3.067-1.23a.626.626 0 1 1 1.033.708.626.626 0 0 1-1.033-.709m-.044 3.304a.626.626 0 1 1 1.033.708.626.626 0 0 1-1.033-.708m3.066-1.23a.627.627 0 1 1 1.034.71.627.627 0 0 1-1.034-.71m-.044 3.303a.627.627 0 1 1 1.034.71.627.627 0 0 1-1.034-.71m3.067-1.23a.627.627 0 1 1 1.034.71.627.627 0 0 1-1.034-.71m7.11-4.943a.623.623 0 0 1-1.037-.409zM291.63 52.178a.626.626 0 1 1 1.033.708.626.626 0 0 1-1.033-.709m.827 3.142a.626.626 0 1 1-.708 1.033.626.626 0 0 1 .708-1.033m-2.904 2.1a.627.627 0 1 1-1.034-.71.627.627 0 0 1 1.034.71m-.206 2.434a.627.627 0 1 1-.71 1.034.627.627 0 0 1 .71-1.034m-2.905 2.101a.626.626 0 1 1-1.033-.708.626.626 0 0 1 1.033.708m1.989 1.365a.627.627 0 1 1 1.034.71.627.627 0 0 1-1.034-.71m3.067-1.23a.627.627 0 1 1 1.034.71.627.627 0 0 1-1.034-.71m-.044 3.304a.627.627 0 1 1 1.034.71.627.627 0 0 1-1.034-.71m3.067-1.23a.626.626 0 1 1 1.033.708.626.626 0 0 1-1.033-.709m-.044 3.304a.626.626 0 1 1 1.033.708.626.626 0 0 1-1.033-.708m3.066-1.23a.627.627 0 1 1 1.034.71.627.627 0 0 1-1.034-.71m-.044 3.303a.627.627 0 1 1 1.034.71.627.627 0 0 1-1.034-.71m3.068-1.23a.626.626 0 1 1 1.033.708.626.626 0 0 1-1.033-.708m-.044 3.304a.626.626 0 1 1 1.033.708.626.626 0 0 1-1.033-.708m3.066-1.23a.627.627 0 1 1 1.034.71.627.627 0 0 1-1.034-.71m3.067-1.23a.627.627 0 1 1 1.034.71.627.627 0 0 1-1.034-.71m3.067-1.23a.627.627 0 1 1 1.034.71.627.627 0 0 1-1.034-.71m-.044 3.304a.627.627 0 1 1 1.034.71.627.627 0 0 1-1.034-.71m3.067-1.23a.626.626 0 1 1 1.033.707.626.626 0 0 1-1.033-.708m-.044 3.303a.626.626 0 1 1 1.033.709.626.626 0 0 1-1.033-.709m3.066-1.23a.627.627 0 1 1 1.034.71.627.627 0 0 1-1.034-.71m-.043 3.304a.626.626 0 1 1 1.033.708.626.626 0 0 1-1.033-.708m3.066-1.23a.627.627 0 1 1 1.034.71.627.627 0 0 1-1.034-.71m-.044 3.304a.627.627 0 1 1 1.034.71.627.627 0 0 1-1.034-.71m3.067-1.23a.627.627 0 1 1 1.034.71.627.627 0 0 1-1.034-.71m3.023 2.074a.627.627 0 1 1 1.034.71.627.627 0 0 1-1.034-.71m-.044 3.304a.627.627 0 1 1 1.034.71.627.627 0 0 1-1.034-.71m3.067-1.23a.626.626 0 1 1 1.033.708.626.626 0 0 1-1.033-.708m-.044 3.303a.626.626 0 1 1 1.033.709.626.626 0 0 1-1.033-.709m3.066-1.23a.627.627 0 1 1 1.034.71.627.627 0 0 1-1.034-.71m-.044 3.304a.627.627 0 1 1 1.034.71.627.627 0 0 1-1.034-.71m3.067-1.23a.627.627 0 1 1 1.034.71.627.627 0 0 1-1.034-.71m3.067-1.23a.627.627 0 1 1 1.034.71.627.627 0 0 1-1.034-.71m3.067-1.23a.626.626 0 1 1 1.033.708.626.626 0 0 1-1.033-.708m-.044 3.304a.626.626 0 1 1 1.033.708.626.626 0 0 1-1.033-.708m3.067-1.23a.626.626 0 1 1 1.033.707.626.626 0 0 1-1.033-.708m-.044 3.303a.626.626 0 1 1 1.033.708.626.626 0 0 1-1.033-.707m4.1-.52a.626.626 0 1 1-1.033-.709.626.626 0 0 1 1.033.709m2.033-1.94a.627.627 0 1 1 1.034.71.627.627 0 0 1-1.034-.71m3.067-1.23a.627.627 0 1 1 1.034.71.627.627 0 0 1-1.034-.71m4.145-3.825a.627.627 0 1 1-1.034-.71.627.627 0 0 1 1.034.71M282.298 65.78a.626.626 0 1 1 1.033.708.626.626 0 0 1-1.033-.708m3.022 2.074a.627.627 0 1 1 1.034.71.627.627 0 0 1-1.034-.71m3.067-1.23a.627.627 0 1 1 1.034.71.627.627 0 0 1-1.034-.71m-.044 3.304a.627.627 0 1 1 1.034.71.627.627 0 0 1-1.034-.71m3.067-1.23a.627.627 0 1 1 1.034.71.627.627 0 0 1-1.034-.71m-.044 3.304a.627.627 0 1 1 1.034.71.627.627 0 0 1-1.034-.71m3.067-1.23a.626.626 0 1 1 1.033.708.626.626 0 0 1-1.033-.708m-.044 3.303a.626.626 0 1 1 1.033.709.626.626 0 0 1-1.033-.709m3.067-1.23a.626.626 0 1 1 1.033.708.626.626 0 0 1-1.033-.708m-.044 3.305a.627.627 0 1 1 1.034.71.627.627 0 0 1-1.034-.71m3.067-1.231a.626.626 0 1 1 1.033.708.626.626 0 0 1-1.033-.708m3.066-1.23a.627.627 0 1 1 1.034.71.627.627 0 0 1-1.034-.71m3.067-1.23a.627.627 0 1 1 1.034.71.627.627 0 0 1-1.034-.71m-.044 3.304a.627.627 0 1 1 1.034.71.627.627 0 0 1-1.034-.71m3.067-1.23a.627.627 0 1 1 1.034.71.627.627 0 0 1-1.034-.71m-.044 3.304a.627.627 0 1 1 1.034.71.627.627 0 0 1-1.034-.71m3.067-1.23a.626.626 0 1 1 1.033.708.626.626 0 0 1-1.033-.709m-.044 3.304a.626.626 0 1 1 1.033.708.626.626 0 0 1-1.033-.708m3.067-1.23a.626.626 0 1 1 1.033.707.626.626 0 0 1-1.033-.708m-.044 3.303a.626.626 0 1 1 1.033.708.626.626 0 0 1-1.033-.708m3.066-1.23a.627.627 0 1 1 1.034.71.627.627 0 0 1-1.034-.71m-.044 3.304a.627.627 0 1 1 1.034.71.627.627 0 0 1-1.034-.71m3.067-1.23a.627.627 0 1 1 1.034.71.627.627 0 0 1-1.034-.71m-.044 3.304a.627.627 0 1 1 1.034.71.627.627 0 0 1-1.034-.71m3.067-1.23a.627.627 0 1 1 1.034.71.627.627 0 0 1-1.034-.71m-.044 3.303a.627.627 0 1 1 1.034.71.627.627 0 0 1-1.034-.71m3.067-1.23a.626.626 0 1 1 1.033.708.626.626 0 0 1-1.033-.708m-.044 3.305a.626.626 0 1 1 1.033.707.626.626 0 0 1-1.033-.707m3.067-1.23a.626.626 0 1 1 1.033.708.626.626 0 0 1-1.033-.709m3.066-1.231a.627.627 0 1 1 1.034.71.627.627 0 0 1-1.034-.71m3.067-1.23a.627.627 0 1 1 1.034.71.627.627 0 0 1-1.034-.71m-.044 3.304a.627.627 0 1 1 1.034.71.627.627 0 0 1-1.034-.71m3.067-1.23a.627.627 0 1 1 1.034.71.627.627 0 0 1-1.034-.71m-.044 3.304a.627.627 0 1 1 1.034.71.627.627 0 0 1-1.034-.71m3.023 2.074a.627.627 0 1 1 1.034.71.627.627 0 0 1-1.034-.71m3.067-1.23a.626.626 0 1 1 1.033.707.626.626 0 0 1-1.033-.708m4.144-3.826a.626.626 0 1 1-1.033-.707.626.626 0 0 1 1.033.707m2.033-1.94a.627.627 0 1 1 1.034.711.627.627 0 0 1-1.034-.71m3.067-1.23a.627.627 0 1 1 1.034.711.627.627 0 0 1-1.034-.71m4.144-3.824a.626.626 0 1 1-1.033-.708.626.626 0 0 1 1.033.708m-73.366-32.988a.6.6 0 0 1-.273-.102l-.012-.01zm-6.582 15.575a.626.626 0 1 1 .708-1.033.626.626 0 0 1-.708 1.033m2.773 7.81a.626.626 0 1 1 1.033.709.626.626 0 0 1-1.033-.709m3.066-1.23a.627.627 0 1 1 1.034.71.627.627 0 0 1-1.034-.71m-.044 3.304a.627.627 0 1 1 1.034.71.627.627 0 0 1-1.034-.71m3.067-1.23a.627.627 0 1 1 1.034.71.627.627 0 0 1-1.034-.71m-.043 3.304a.626.626 0 1 1 1.033.708.626.626 0 0 1-1.033-.708m3.066-1.23a.627.627 0 1 1 1.034.71.627.627 0 0 1-1.034-.71m-.044 3.304a.627.627 0 1 1 1.034.71.627.627 0 0 1-1.034-.71m3.067-1.23a.627.627 0 1 1 1.034.71.627.627 0 0 1-1.034-.71m-.044 3.304a.627.627 0 1 1 1.034.71.627.627 0 0 1-1.034-.71m3.067-1.23a.627.627 0 1 1 1.034.71.627.627 0 0 1-1.034-.71m3.067-1.23a.626.626 0 1 1 1.033.707.626.626 0 0 1-1.033-.708m3.066-1.23a.627.627 0 1 1 1.034.709.627.627 0 0 1-1.034-.71m-.044 3.303a.627.627 0 1 1 1.034.71.627.627 0 0 1-1.034-.71m3.067-1.23a.627.627 0 1 1 1.034.71.627.627 0 0 1-1.034-.71m-.044 3.304a.627.627 0 1 1 1.034.71.627.627 0 0 1-1.034-.71m3.067-1.23a.627.627 0 1 1 1.034.71.627.627 0 0 1-1.034-.71m-.044 3.304a.627.627 0 1 1 1.034.71.627.627 0 0 1-1.034-.71m3.067-1.23a.626.626 0 1 1 1.033.708.626.626 0 0 1-1.033-.709m-.044 3.303a.626.626 0 1 1 1.033.708.626.626 0 0 1-1.033-.707m3.067-1.23a.626.626 0 1 1 1.033.708.626.626 0 0 1-1.033-.708m-.044 3.305a.626.626 0 1 1 1.033.708.626.626 0 0 1-1.033-.709m3.066-1.231a.627.627 0 1 1 1.034.71.627.627 0 0 1-1.034-.71m10.103 6.93a.627.627 0 1 1-1.034-.71.627.627 0 0 1 1.034.71m2.033-1.938a.626.626 0 1 1 1.033.708.626.626 0 0 1-1.033-.708m3.066-1.23a.627.627 0 1 1 1.034.71.627.627 0 0 1-1.034-.71m-.044 3.303a.627.627 0 1 1 1.034.71.627.627 0 0 1-1.034-.71m3.067-1.23a.627.627 0 1 1 1.034.71.627.627 0 0 1-1.034-.71m-.044 3.304a.627.627 0 1 1 1.034.71.627.627 0 0 1-1.034-.71m3.023 2.074a.627.627 0 1 1 1.034.71.627.627 0 0 1-1.034-.71m3.067-1.23a.627.627 0 1 1 1.034.71.627.627 0 0 1-1.034-.71m3.067-1.23a.626.626 0 1 1 1.033.707.626.626 0 0 1-1.033-.708m4.1-.522a.626.626 0 1 1-1.033-.708.626.626 0 0 1 1.033.708m3.111-4.534a.627.627 0 1 1-1.034-.71.627.627 0 0 1 1.034.71m2.033-1.939a.627.627 0 1 1 1.034.71.627.627 0 0 1-1.034-.71m3.067-1.23a.626.626 0 1 1 1.033.707.626.626 0 0 1-1.033-.707m4.144-3.825a.626.626 0 1 1-1.033-.708.626.626 0 0 1 1.033.708m-75.996-32.893a.627.627 0 1 1-.71 1.033.627.627 0 0 1 .71-1.033m-3.067 1.23a.626.626 0 1 1-.708 1.033.626.626 0 0 1 .708-1.033m-.044 3.304a.626.626 0 1 1-.708 1.033.626.626 0 0 1 .708-1.033m-3.982 4.696a.626.626 0 1 1 1.033.709.626.626 0 0 1-1.033-.709m.783 6.446a.626.626 0 1 1-.708 1.034.626.626 0 0 1 .708-1.034m-3.938 1.393a.627.627 0 1 1 1.034.71.627.627 0 0 1-1.034-.71m-.044 3.304a.627.627 0 1 1 1.034.71.627.627 0 0 1-1.034-.71m.118 4.175a.627.627 0 1 1 .71-1.034.627.627 0 0 1-.71 1.034m3.023 2.074a.627.627 0 1 1 .71-1.034.627.627 0 0 1-.71 1.034m2.905-2.102a.626.626 0 1 1 1.033.709.626.626 0 0 1-1.033-.709m.99 4.014a.627.627 0 1 1-1.034-.71.627.627 0 0 1 1.034.71m2.195-1.068a.628.628 0 1 1 .71-1.035.628.628 0 0 1-.71 1.035m3.023 2.073a.626.626 0 1 1 .708-1.033.626.626 0 0 1-.708 1.033m3.022 2.074a.627.627 0 1 1 .71-1.033.627.627 0 0 1-.71 1.033m3.895 1.912a.627.627 0 1 1-1.034-.71.627.627 0 0 1 1.034.71m2.195-1.068a.627.627 0 1 1 .71-1.034.627.627 0 0 1-.71 1.034m2.905-2.102a.626.626 0 1 1 1.033.708.626.626 0 0 1-1.033-.708m.118 4.176a.627.627 0 1 1 .71-1.034.627.627 0 0 1-.71 1.034m2.904-2.102a.627.627 0 1 1 1.034.71.627.627 0 0 1-1.034-.71m.99 4.014a.626.626 0 1 1-1.033-.708.626.626 0 0 1 1.033.708m2.033-1.94a.627.627 0 1 1 1.034.71.627.627 0 0 1-1.034-.71m.99 4.013a.627.627 0 1 1-1.034-.71.627.627 0 0 1 1.034.71m2.196-1.068a.627.627 0 1 1 .707-1.034.627.627 0 0 1-.707 1.034m3.022 2.074a.627.627 0 1 1 .71-1.034.627.627 0 0 1-.71 1.034m3.894 1.912a.626.626 0 1 1-1.033-.708.626.626 0 0 1 1.033.708m2.196-1.068a.626.626 0 1 1 .708-1.034.626.626 0 0 1-.708 1.034m2.86 1.202a.627.627 0 1 1 1.034.71.627.627 0 0 1-1.034-.71m9.275 3.789a.626.626 0 1 1 .708-1.033.626.626 0 0 1-.708 1.033m3.023 2.074a.627.627 0 1 1 .71-1.034.627.627 0 0 1-.71 1.034m6.917 3.985a.627.627 0 1 1-1.034-.709.627.627 0 0 1 1.034.709m2.195-1.068a.627.627 0 1 1 .71-1.033.627.627 0 0 1-.71 1.033m2.905-2.102a.626.626 0 1 1 1.033.708.626.626 0 0 1-1.033-.708m4.012 6.088a.627.627 0 1 1-1.033-.71.627.627 0 0 1 1.033.71m.044-3.304a.627.627 0 1 1-1.033-.71.627.627 0 0 1 1.033.71m3.067-1.23a.628.628 0 1 1-1.034-.711.628.628 0 0 1 1.034.711m.044-3.305a.627.627 0 1 1-1.034-.71.627.627 0 0 1 1.034.71m3.067-1.23a.627.627 0 1 1-1.034-.71.627.627 0 0 1 1.034.71m.044-3.304a.627.627 0 1 1-1.034-.71.627.627 0 0 1 1.034.71m2.195-1.068a.627.627 0 1 1 .71-1.034.627.627 0 0 1-.71 1.034m3.938-1.392a.626.626 0 1 1-1.033-.708.626.626 0 0 1 1.033.708m3.111-4.535a.627.627 0 1 1-1.034-.71.627.627 0 0 1 1.034.71m3.067-1.23a.627.627 0 1 1-1.034-.71.627.627 0 0 1 1.034.71m.044-3.304a.627.627 0 0 1-1.126-.497l1.15.454q-.011.022-.024.043"/><path fill="#000" d="m286.02 49.003-.286-.112.012.01a.6.6 0 0 0 .273.102zm-3.547 3.561a.627.627 0 1 0 1.035.71.627.627 0 0 0-1.035-.71m3.23-.358a.627.627 0 1 0 .709-1.033.627.627 0 0 0-.709 1.033m-3.111 4.534a.627.627 0 1 0 .71-1.035.627.627 0 0 0-.71 1.035m7.049-5.927a.63.63 0 0 0 .109-.338l-1.092-.431q-.027.028-.051.06a.627.627 0 0 0 1.034.71m-3.111 4.534a.627.627 0 1 0-1.034-.71.627.627 0 0 0 1.034.71m-3.982 4.696a.627.627 0 1 0 .709-1.034.627.627 0 0 0-.709 1.034m-2.402 3.5a.627.627 0 1 0-.709 1.034.627.627 0 0 0 .709-1.034m.206-2.432a.627.627 0 1 0-1.034-.71.627.627 0 0 0 1.034.71m-4.026 8a.627.627 0 1 0 .71-1.034.627.627 0 0 0-.71 1.034m3.067-1.23a.628.628 0 1 0 .71-1.035.628.628 0 0 0-.71 1.035m12.399-14.832a.628.628 0 1 0 .71-1.036.628.628 0 0 0-.71 1.035m-2.401 3.501a.628.628 0 1 0-.71 1.035.628.628 0 0 0 .71-1.035m.206-2.433a.627.627 0 1 0-1.034-.71.627.627 0 0 0 1.034.71m2.151 2.237a.628.628 0 1 0 .71-1.036.628.628 0 0 0-.71 1.036m-5.468 4.73a.628.628 0 1 0-.71 1.035.628.628 0 0 0 .71-1.035m.206-2.433a.627.627 0 1 0-1.034-.709.627.627 0 0 0 1.034.71m2.152 2.236a.627.627 0 1 0 .709-1.034.627.627 0 0 0-.709 1.034m-6.178 5.764a.628.628 0 1 0 .71-1.036.628.628 0 0 0-.71 1.036m.916-3.466a.627.627 0 1 0-1.034-.71.627.627 0 0 0 1.034.71m-3.155 7.839a.627.627 0 1 0-1.035-.71.627.627 0 0 0 1.035.71m-3.111 4.533a.627.627 0 1 0-1.034-.71.627.627 0 0 0 1.034.71m.044-3.304a.627.627 0 1 0-1.035-.71.627.627 0 0 0 1.035.71m17.661-17.131a.626.626 0 1 0 .709-1.033.626.626 0 0 0-.709 1.033m3.066-1.23c.196.134.439.14.636.04l-.869-.342a.63.63 0 0 0 .233.302m-6.177 5.764a.628.628 0 1 0 .71-1.035.628.628 0 0 0-.71 1.035m-3.11 4.534a.628.628 0 1 0 .71-1.036.628.628 0 0 0-.71 1.036m-3.111 4.535a.627.627 0 1 0 .709-1.033.627.627 0 0 0-.709 1.033m.915-3.466a.627.627 0 1 0-1.034-.71.627.627 0 0 0 1.034.71m-4.026 8a.628.628 0 1 0 .71-1.035.628.628 0 0 0-.71 1.035m.915-3.467a.627.627 0 1 0-1.034-.709.627.627 0 0 0 1.034.71m-3.317 6.966a.627.627 0 1 0-.709 1.034.627.627 0 0 0 .709-1.034m.207-2.432a.627.627 0 1 0-1.034-.71.627.627 0 0 0 1.034.71m17.661-17.131a.626.626 0 1 0 .709-1.033.626.626 0 0 0-.709 1.033m-3.111 4.534a.628.628 0 1 0 .71-1.035.628.628 0 0 0-.71 1.035m.916-3.466a.627.627 0 1 0-1.036-.708.627.627 0 0 0 1.036.708m-4.027 8.001a.627.627 0 1 0 .71-1.035.627.627 0 0 0-.71 1.035m.916-3.467a.627.627 0 1 0-1.034-.71.627.627 0 0 0 1.034.71m-4.026 8.001a.627.627 0 1 0 .709-1.034.627.627 0 0 0-.709 1.033m.915-3.466a.627.627 0 1 0-1.034-.709.627.627 0 0 0 1.034.71m-4.026 8a.627.627 0 1 0 .709-1.034.627.627 0 0 0-.709 1.034m.916-3.466a.627.627 0 1 0-1.034-.71.627.627 0 0 0 1.034.71m-3.317 6.966a.628.628 0 1 0-.71 1.035.628.628 0 0 0 .71-1.035m.206-2.433a.627.627 0 1 0-1.034-.709.627.627 0 0 0 1.034.71m17.661-17.132a.627.627 0 1 0 .709-1.033.627.627 0 0 0-.709 1.033m.915-3.466a.62.62 0 0 0 .074-.556l-.884-.35a.6.6 0 0 0-.224.197.627.627 0 0 0 1.034.71m-4.026 8a.628.628 0 1 0 .71-1.035.628.628 0 0 0-.71 1.035m.915-3.466a.627.627 0 1 0-1.035-.71.627.627 0 0 0 1.035.71m-4.026 8.001a.628.628 0 1 0 .71-1.036.628.628 0 0 0-.71 1.035m.916-3.466a.627.627 0 1 0-1.035-.71.627.627 0 0 0 1.035.71m-4.027 8a.628.628 0 1 0 .71-1.035.628.628 0 0 0-.71 1.035m.916-3.466a.627.627 0 1 0-1.035-.71.627.627 0 0 0 1.035.71m-6.384 8.197a.627.627 0 1 0-.709 1.033.627.627 0 0 0 .709-1.033m2.358-.196a.627.627 0 1 0 .709-1.034.627.627 0 0 0-.709 1.034m.916-3.468a.628.628 0 1 0-1.036-.708.628.628 0 0 0 1.036.709m14.549-12.596a.628.628 0 1 0 .71-1.036.628.628 0 0 0-.71 1.036m.916-3.467a.627.627 0 1 0-1.035-.71.627.627 0 0 0 1.035.71m-4.026 8.002a.627.627 0 1 0 .709-1.034.627.627 0 0 0-.709 1.033m.915-3.466a.627.627 0 1 0-1.035-.71.627.627 0 0 0 1.035.71m-4.026 8a.628.628 0 1 0 .71-1.035.628.628 0 0 0-.71 1.035m.915-3.466a.627.627 0 1 0-1.035-.71.627.627 0 0 0 1.035.71m-4.026 8a.627.627 0 1 0 .71-1.035.627.627 0 0 0-.71 1.035m.916-3.467a.627.627 0 1 0-1.034-.709.627.627 0 0 0 1.034.71m-6.384 8.197a.628.628 0 1 0-.71 1.035.628.628 0 0 0 .71-1.035m2.357-.197a.628.628 0 1 0 .71-1.035.628.628 0 0 0-.71 1.035m.916-3.466a.627.627 0 1 0-1.034-.71.627.627 0 0 0 1.034.71m17.661-17.131a.625.625 0 0 0 .814-.095l-1.086-.428c-.001.202.093.4.272.523m-3.11 4.535a.627.627 0 1 0 .709-1.034.627.627 0 0 0-.709 1.034m.915-3.467a.627.627 0 1 0-1.034-.71.627.627 0 0 0 1.034.71m-4.027 8.001a.628.628 0 1 0 .71-1.036.628.628 0 0 0-.71 1.035m.916-3.466a.627.627 0 1 0-1.034-.71.627.627 0 0 0 1.034.71m-4.026 8.001a.626.626 0 1 0 .709-1.033.626.626 0 0 0-.709 1.033m.915-3.467a.627.627 0 1 0-1.034-.709.627.627 0 0 0 1.034.71m-4.026 8a.628.628 0 1 0 .71-1.035.628.628 0 0 0-.71 1.035m.916-3.466a.627.627 0 1 0-1.034-.71.627.627 0 0 0 1.034.71m-6.384 8.197a.628.628 0 1 0-.71 1.035.628.628 0 0 0 .71-1.035m2.357-.196a.628.628 0 1 0 .71-1.036.628.628 0 0 0-.71 1.035m.916-3.466a.627.627 0 1 0-1.034-.71.627.627 0 0 0 1.034.71m17.661-17.131a.625.625 0 0 0 .746-1.003l-.346-.136a.624.624 0 0 0-.4 1.14zm-3.111 4.534a.626.626 0 1 0 .709-1.033.626.626 0 0 0-.709 1.033m.916-3.467a.627.627 0 1 0-1.034-.71.627.627 0 0 0 1.034.71m-4.027 8.002a.628.628 0 1 0 .71-1.036.628.628 0 0 0-.71 1.036m.916-3.467a.627.627 0 1 0-1.035-.71.627.627 0 0 0 1.035.71m-4.026 8a.628.628 0 1 0 .71-1.035.628.628 0 0 0-.71 1.035m.915-3.465a.627.627 0 1 0-1.035-.71.627.627 0 0 0 1.035.71m-4.026 8a.626.626 0 1 0 .709-1.033.626.626 0 0 0-.709 1.033m.915-3.466a.627.627 0 1 0-1.035-.71.627.627 0 0 0 1.035.71m-6.384 8.196a.627.627 0 1 0-.709 1.034.627.627 0 0 0 .709-1.034m3.23-.358a.627.627 0 1 0-1.034-.71.627.627 0 0 0 1.034.71m.044-3.304a.627.627 0 1 0-1.034-.71.627.627 0 0 0 1.034.71m17.661-17.131a.628.628 0 1 0 .71-1.036.628.628 0 0 0-.71 1.036m-3.111 4.534a.627.627 0 1 0 .709-1.033.627.627 0 0 0-.709 1.033m.915-3.466a.627.627 0 1 0-1.035-.71.627.627 0 0 0 1.035.71m-4.026 8a.628.628 0 1 0 .71-1.036.628.628 0 0 0-.71 1.036m.916-3.466a.627.627 0 1 0-1.035-.71.627.627 0 0 0 1.035.71m-4.027 8a.628.628 0 1 0 .71-1.035.628.628 0 0 0-.71 1.035m.916-3.466a.627.627 0 1 0-1.034-.709.627.627 0 0 0 1.034.71m-4.026 8a.628.628 0 1 0 .71-1.036.628.628 0 0 0-.71 1.036m.915-3.467a.627.627 0 1 0-1.034-.71.627.627 0 0 0 1.034.71m-3.155 7.838a.627.627 0 1 0-1.034-.709.627.627 0 0 0 1.034.71m.044-3.304a.627.627 0 1 0-1.034-.71.627.627 0 0 0 1.034.71m14.551-12.597a.627.627 0 1 0 .71-1.035.627.627 0 0 0-.71 1.034m.915-3.466a.627.627 0 1 0-1.034-.709.627.627 0 0 0 1.034.71m-4.026 8a.628.628 0 1 0 .71-1.036.628.628 0 0 0-.71 1.036m.915-3.466a.626.626 0 1 0-1.032-.71.626.626 0 0 0 1.032.71m-4.026 8.001a.628.628 0 1 0 .71-1.036.628.628 0 0 0-.71 1.036m.916-3.467a.627.627 0 1 0-1.034-.71.627.627 0 0 0 1.034.71m-4.027 8a.628.628 0 1 0 .71-1.035.628.628 0 0 0-.71 1.035m.916-3.465a.627.627 0 1 0-1.035-.71.627.627 0 0 0 1.035.71m-3.317 6.966a.627.627 0 1 0-.71 1.035.627.627 0 0 0 .71-1.035m.206-2.433a.627.627 0 1 0-1.035-.71.627.627 0 0 0 1.035.71m14.748-17.009a.625.625 0 1 0 .492 1.144 8 8 0 0 1-.492-1.143m-.197 4.412a.627.627 0 1 0 .709-1.034.627.627 0 0 0-.709 1.034m-3.111 4.534a.627.627 0 1 0 .709-1.033.627.627 0 0 0-.709 1.033m.915-3.466a.627.627 0 1 0-1.035-.71.627.627 0 0 0 1.035.71m-4.026 8a.628.628 0 1 0 .71-1.036.628.628 0 0 0-.71 1.036m.916-3.466a.627.627 0 1 0-1.034-.709.627.627 0 0 0 1.034.709m-4.027 8a.627.627 0 1 0 .71-1.034.627.627 0 0 0-.71 1.034m.916-3.466a.628.628 0 1 0-1.036-.709.628.628 0 0 0 1.036.709m-3.317 6.967a.627.627 0 1 0-.71 1.035.627.627 0 0 0 .71-1.035m.206-2.433a.627.627 0 1 0-1.034-.71.627.627 0 0 0 1.034.71m15.26-13.63a.628.628 0 1 0-.71 1.035.628.628 0 0 0 .71-1.035m-3.821 5.568a.628.628 0 1 0 .71-1.036.628.628 0 0 0-.71 1.036m.916-3.467a.627.627 0 1 0-1.034-.71.627.627 0 0 0 1.034.71m-4.026 8.001a.627.627 0 1 0 .709-1.033.627.627 0 0 0-.709 1.033m.916-3.466a.627.627 0 1 0-1.036-.71.627.627 0 0 0 1.036.71m-6.384 8.197a.628.628 0 1 0-.71 1.035.628.628 0 0 0 .71-1.035m2.357-.197a.628.628 0 1 0 .71-1.035.628.628 0 0 0-.71 1.035m.915-3.466a.627.627 0 1 0-1.034-.71.627.627 0 0 0 1.034.71m12.312-8.224a.627.627 0 1 0-1.035-.71.627.627 0 0 0 1.035.71m-.12-3.143a8 8 0 0 1-.846-.133q.057.076.138.134c.22.15.501.14.708-.001m-2.991 7.677a.627.627 0 1 0-1.035-.71.627.627 0 0 0 1.035.71m.044-3.304a.627.627 0 1 0-1.035-.71.627.627 0 0 0 1.035.71m-4.026 8a.627.627 0 1 0 .709-1.034.627.627 0 0 0-.709 1.033m.915-3.465a.627.627 0 1 0-1.035-.71.627.627 0 0 0 1.035.71m-6.384 8.196a.626.626 0 1 0-.709 1.033.626.626 0 0 0 .709-1.032m2.358-.197a.626.626 0 1 0 .709-1.033.626.626 0 0 0-.709 1.033m.916-3.466a.627.627 0 1 0-1.035-.71.627.627 0 0 0 1.035.71m17.661-17.132a.626.626 0 0 0 .974-.44l-1.125-.444-.011.013a.627.627 0 0 0 .162.871m-2.402 3.501a.628.628 0 1 0-.71 1.035.628.628 0 0 0 .71-1.035m-3.82 5.568a.628.628 0 1 0 .71-1.035.628.628 0 0 0-.71 1.035m.916-3.466a.627.627 0 1 0-1.035-.71.627.627 0 0 0 1.035.71m-4.027 8.001a.627.627 0 1 0 .71-1.035.627.627 0 0 0-.71 1.034m.916-3.466a.627.627 0 1 0-1.035-.71.627.627 0 0 0 1.035.71m-4.027 8.001a.628.628 0 1 0 .71-1.035.628.628 0 0 0-.71 1.035m.916-3.466a.627.627 0 1 0-1.034-.71.627.627 0 0 0 1.034.71m-6.384 8.196a.626.626 0 1 0-.709 1.033.626.626 0 0 0 .709-1.033m3.229-.359a.627.627 0 1 0-1.034-.71.627.627 0 0 0 1.034.71m.044-3.303a.627.627 0 1 0-1.034-.71.627.627 0 0 0 1.034.71M337.31 70.94a.628.628 0 1 0 .71-1.035.628.628 0 0 0-.71 1.036m-3.111 4.533a.628.628 0 1 0 .71-1.035.628.628 0 0 0-.71 1.035m.916-3.465a.627.627 0 1 0-1.034-.71.627.627 0 0 0 1.034.71m-4.026 8a.628.628 0 1 0 .71-1.035.628.628 0 0 0-.71 1.035m.915-3.466a.627.627 0 1 0-1.034-.71.627.627 0 0 0 1.034.71m-4.026 8a.628.628 0 1 0 .71-1.035.628.628 0 0 0-.71 1.035m.915-3.466a.627.627 0 1 0-1.034-.71.627.627 0 0 0 1.034.71m-4.026 8.001a.628.628 0 1 0 .71-1.036.628.628 0 0 0-.71 1.035m.916-3.466a.627.627 0 1 0-1.034-.71.627.627 0 0 0 1.034.71m-3.155 7.839a.627.627 0 1 0-1.035-.71.627.627 0 0 0 1.035.71m.044-3.305a.627.627 0 1 0-1.034-.71.627.627 0 0 0 1.034.71m17.661-17.131a.628.628 0 1 0 .71-1.035.628.628 0 0 0-.71 1.035m-3.11 4.534a.627.627 0 1 0 .709-1.033.627.627 0 0 0-.709 1.033m.915-3.466a.627.627 0 1 0-1.034-.71.627.627 0 0 0 1.034.71m-4.027 8.001a.628.628 0 1 0 .71-1.035.628.628 0 0 0-.71 1.035m.916-3.466a.627.627 0 1 0-1.035-.71.627.627 0 0 0 1.035.71m-4.026 8a.628.628 0 1 0 .71-1.035.628.628 0 0 0-.71 1.035m.915-3.467a.627.627 0 1 0-1.035-.709.627.627 0 0 0 1.035.71m-4.025 8a.627.627 0 1 0 .709-1.033.627.627 0 0 0-.709 1.033m.915-3.466a.627.627 0 1 0-1.035-.71.627.627 0 0 0 1.035.71m-3.317 6.967a.628.628 0 1 0-.71 1.035.628.628 0 0 0 .71-1.035m.206-2.432a.627.627 0 1 0-1.035-.71.627.627 0 0 0 1.035.71m17.661-17.132a.626.626 0 1 0 .709-1.033.626.626 0 0 0-.709 1.033m.606-3.231-.76-.3a.6.6 0 0 0 .198.227.63.63 0 0 0 .562.073m-3.717 7.766a.628.628 0 1 0 .71-1.036.628.628 0 0 0-.71 1.035m.916-3.466a.627.627 0 1 0-1.034-.709.627.627 0 0 0 1.034.71m-4.027 7.999a.627.627 0 1 0 .71-1.034.627.627 0 0 0-.71 1.034m.916-3.466a.627.627 0 1 0-1.035-.709.627.627 0 0 0 1.035.71m-4.026 7.999a.626.626 0 1 0 .71-1.031.626.626 0 0 0-.71 1.032m.915-3.467a.627.627 0 1 0-1.035-.71.627.627 0 0 0 1.035.71m-6.383 8.197a.628.628 0 1 0-.71 1.036.628.628 0 0 0 .71-1.036m2.357-.196a.628.628 0 1 0 .71-1.035.628.628 0 0 0-.71 1.035m.916-3.466a.627.627 0 1 0-1.036-.709.627.627 0 0 0 1.036.709m-3.318 6.967a.627.627 0 1 0-.709 1.033.627.627 0 0 0 .709-1.033m20.772-21.666a.627.627 0 1 0 1.034.71.627.627 0 0 0-1.034-.71m-2.904 2.102a.626.626 0 1 0 .709-1.033.626.626 0 0 0-.709 1.033m.915-3.466a.62.62 0 0 0 .094-.487l-.966-.382a.627.627 0 1 0 .872.869m-4.026 8a.628.628 0 1 0 .71-1.035.628.628 0 0 0-.71 1.035m.916-3.466a.627.627 0 1 0-1.036-.709.627.627 0 0 0 1.036.709m-4.027 8a.628.628 0 1 0 .71-1.035.628.628 0 0 0-.71 1.035m.916-3.466a.627.627 0 1 0-1.034-.71.627.627 0 0 0 1.034.71m-4.026 8a.626.626 0 1 0 .709-1.032.626.626 0 0 0-.709 1.032m.915-3.466a.627.627 0 1 0-1.034-.71.627.627 0 0 0 1.034.71m-6.384 8.198a.627.627 0 1 0-.71 1.035.627.627 0 0 0 .71-1.035m2.358-.197a.627.627 0 1 0 .709-1.034.627.627 0 0 0-.709 1.034m.915-3.467a.627.627 0 1 0-1.035-.71.627.627 0 0 0 1.035.71m17.455-14.698a.627.627 0 1 0 1.034.71.627.627 0 0 0-1.034-.71m-2.195 1.068a.628.628 0 1 0-.71 1.035.628.628 0 0 0 .71-1.035m-3.82 5.568a.627.627 0 1 0 .709-1.033.627.627 0 0 0-.709 1.033m.915-3.466a.627.627 0 1 0-1.034-.71.627.627 0 0 0 1.034.71m-4.026 8a.628.628 0 1 0 .71-1.035.628.628 0 0 0-.71 1.035m.916-3.465a.627.627 0 1 0-1.035-.71.627.627 0 0 0 1.035.71m-4.027 7.999a.628.628 0 1 0 .71-1.035.628.628 0 0 0-.71 1.035m.916-3.466a.627.627 0 1 0-1.035-.71.627.627 0 0 0 1.035.71m-4.026 8.001a.628.628 0 1 0 .71-1.036.628.628 0 0 0-.71 1.036m.915-3.466a.627.627 0 1 0-1.035-.71.627.627 0 0 0 1.035.71m-3.273 3.662a.628.628 0 1 0-.71 1.035.628.628 0 0 0 .71-1.035m20.934-20.794c.243.167.56.137.77-.05l-1.037-.409c.017.179.107.35.267.46m-2.402 3.5a.627.627 0 1 0-.709 1.033.627.627 0 0 0 .709-1.033m-6.177 5.764a.626.626 0 1 0-.709 1.034.626.626 0 0 0 .709-1.033m2.358-.197a.626.626 0 1 0 .71-1.032.626.626 0 0 0-.71 1.032m.915-3.466a.627.627 0 1 0-1.035-.71.627.627 0 0 0 1.035.71m-3.317 6.966a.627.627 0 1 0-.71 1.035.627.627 0 0 0 .71-1.035m-3.82 5.569a.628.628 0 1 0 .71-1.036.628.628 0 0 0-.71 1.036m.916-3.467a.627.627 0 1 0-1.034-.71.627.627 0 0 0 1.034.71m-6.384 8.197a.628.628 0 1 0-.71 1.035.628.628 0 0 0 .71-1.035m2.357-.196a.628.628 0 1 0 .71-1.035.628.628 0 0 0-.71 1.035m.916-3.467a.627.627 0 1 0-1.034-.71.627.627 0 0 0 1.034.71m15.304-16.934a.628.628 0 1 0-.71 1.035.628.628 0 0 0 .71-1.035m2.194-1.068a.627.627 0 0 0 1.034.71.62.62 0 0 0-.026-.74l-.59-.233a.62.62 0 0 0-.418.263m-2.239 4.372a.627.627 0 1 0-.709 1.033.627.627 0 0 0 .709-1.033m-6.177 5.764a.628.628 0 1 0-.71 1.035.628.628 0 0 0 .71-1.035m2.358-.196a.627.627 0 1 0 .709-1.034.627.627 0 0 0-.709 1.034m.915-3.466a.627.627 0 1 0-1.034-.71.627.627 0 0 0 1.034.71m-3.317 6.966a.628.628 0 1 0-.71 1.035.628.628 0 0 0 .71-1.035m-3.82 5.568a.628.628 0 1 0 .71-1.035.628.628 0 0 0-.71 1.035m.915-3.466a.627.627 0 1 0-1.035-.71.627.627 0 0 0 1.035.71m-6.383 8.196a.626.626 0 1 0-.709 1.033.626.626 0 0 0 .709-1.033m3.229-.358a.628.628 0 1 0-1.035-.71.628.628 0 0 0 1.035.71m.044-3.304a.627.627 0 1 0-1.035-.71.627.627 0 0 0 1.035.71m15.303-16.934a.627.627 0 1 0-.709 1.033.627.627 0 0 0 .709-1.034m3.067-1.23a.628.628 0 1 0-.71 1.035.628.628 0 0 0 .71-1.035m-3.111 4.534a.626.626 0 1 0-.709 1.033.626.626 0 0 0 .709-1.033m-6.177 5.765a.628.628 0 1 0-.71 1.035.628.628 0 0 0 .71-1.035m2.358-.197a.627.627 0 1 0 .709-1.033.627.627 0 0 0-.709 1.033m.915-3.466a.627.627 0 1 0-1.035-.71.627.627 0 0 0 1.035.71m-6.384 8.197a.628.628 0 1 0-.71 1.035.628.628 0 0 0 .71-1.035m3.067-1.23a.627.627 0 1 0-.71 1.035.627.627 0 0 0 .71-1.035m-3.111 4.534a.628.628 0 1 0-.71 1.035.628.628 0 0 0 .71-1.035m-3.111 4.534a.627.627 0 1 0-.709 1.033.627.627 0 0 0 .709-1.033m.207-2.432a.627.627 0 1 0-1.035-.71.627.627 0 0 0 1.035.71m15.303-16.935a.627.627 0 1 0-.709 1.034.627.627 0 0 0 .709-1.034m3.067-1.23a.628.628 0 1 0-.71 1.035.628.628 0 0 0 .71-1.035m-3.11 4.534a.627.627 0 1 0-.71 1.034.627.627 0 0 0 .71-1.034m-6.178 5.764a.628.628 0 1 0-.71 1.036.628.628 0 0 0 .71-1.036m3.229-.358a.627.627 0 1 0-1.034-.71.627.627 0 0 0 1.034.71m.044-3.303a.627.627 0 1 0-1.034-.71.627.627 0 0 0 1.034.71m-6.384 8.196a.628.628 0 1 0-.71 1.035.628.628 0 0 0 .71-1.035m3.067-1.23a.628.628 0 1 0-.71 1.035.628.628 0 0 0 .71-1.035m-6.178 5.764a.627.627 0 1 0-.709 1.033.627.627 0 0 0 .709-1.033m3.067-1.23a.628.628 0 1 0-.71 1.036.628.628 0 0 0 .71-1.036m-3.111 4.534a.627.627 0 1 0-.709 1.033.627.627 0 0 0 .709-1.033m15.51-19.367a.628.628 0 1 0-.71 1.035.628.628 0 0 0 .71-1.035m3.067-1.23a.628.628 0 1 0-.71 1.035.628.628 0 0 0 .71-1.035m-.92-2.929a.625.625 0 0 0 1.126.497l.024-.043zm-5.258 8.692a.627.627 0 1 0-.709 1.034.627.627 0 0 0 .709-1.033"/><path fill="#5474f6" d="M325.795 72.556c3.361.33 6.671-1.572 7.972-4.87a7.758 7.758 0 0 0-14.434-5.693 7.71 7.71 0 0 0 .354 6.452 7.72 7.72 0 0 0 4.016 3.612 8 8 0 0 0 1.246.366q.423.09.846.132zm161.661 127.99.135.04.097.029 3.076.933h.005l.055-.013zm-26.574.92 2.169-7.099H440.68a5.713 5.713 0 0 1-5.706-5.707v-10.997a5.716 5.716 0 0 1 5.706-5.711h29.142l8.179-27.839c2.798-9.524 1.697-19.555-3.1-28.245a36.9 36.9 0 0 0-8.812-10.64.41.41 0 0 1-.363.231h-14.911a.407.407 0 0 1-.394-.512l12.948-49.183-9.049-2.718-14.33 52.113a.406.406 0 0 1-.392.299h-11.759a.84.84 0 0 0-.839.835v83.21c0 6.597 5.368 11.963 11.967 11.963z"/><path fill="#fff" d="m463.362 193.348.161.05 6.056-20.615H440.68a4.886 4.886 0 0 0-4.879 4.88v10.997a4.89 4.89 0 0 0 4.879 4.88h22.624z"/><path fill="#000" d="M513.414 94.61c-10.513-19.046-27.829-32.803-48.758-38.739l-.439-.124.04-.155a.407.407 0 0 0-.277-.493l-9.825-2.952a.407.407 0 0 0-.509.282l-.082.296-26.621-7.55-67.951-19.292a64.25 64.25 0 0 0-34.945-.047 64 64 0 0 0-5.624 1.873l-.005-.002-19.315-7.617a3 3 0 0 0-.236-.085 2 2 0 0 0-.167-.053 4.7 4.7 0 0 0-.806-.183 5 5 0 0 0-1.104-.037q-.196.011-.391.04c-.017 0-.029.005-.045.009q-.182.031-.359.07a5 5 0 0 0-.378.101 4 4 0 0 0-.436.155q-.067.023-.135.053-.054.023-.11.053a5.2 5.2 0 0 0-1.014.61c-.028.021-.053.037-.077.062a3 3 0 0 0-.212.179 5 5 0 0 0-.546.558 5 5 0 0 0-.252.326l-.09.13a5.5 5.5 0 0 0-.521.998L272.958 71.93c-.029.07-.053.135-.073.204a.06.06 0 0 0-.013.032q-.007.014-.008.02l-1.67 4.233a5.303 5.303 0 0 0 2.982 6.871l3.063 1.206.004.001a64.8 64.8 0 0 0 1.127 15.624c1.899 9.653 6.037 18.864 11.968 26.638 6.238 8.177 14.519 14.821 23.947 19.216l4.434 2.066a33 33 0 0 0 1.65 7.241c.004.021.012.037.02.057.978 2.677 2.326 3.512 3.638 4.017a6 6 0 0 0 3.291.297l.028-.008a6 6 0 0 0 4.473-3.748c.533-1.384.093-3.592-.216-4.781l-.013-.049c-.435-1.731-.867-3.87-.545-7.413q.052-.03.106-.065.139-.074.272-.167.153-.1.294-.204l.195-.155a7 7 0 0 0 .387-.342 8 8 0 0 0 .355-.375 6 6 0 0 0 1.148-2l.021-.049a.3.3 0 0 0 .016-.057c.065-.289.134-.578.199-.863l.029-.106c2.411-10.097 6.492-18.284 8.138-21.339.464-.868.749-1.348.754-1.356.012-.017.02-.041.028-.062a6 6 0 0 0-1.792-6.793l5.657 2.232a58 58 0 0 0-2.891 7.73l-20.79 70.514a28.11 28.11 0 0 0 10.313 30.593l36.272 26.663-20.154 67.789-23.734 12.753c-.375.2-.232.766.191.766l60.042-.045 18.142-.016h.199c.9-.004 1.63-.733 1.625-1.638l11.808-44.23 25.27 18.578-.012.016-1.662 27.139c-.024.424.534.603.754.241l12.17-19.702.016-.02 29.013-46.959a1.5 1.5 0 0 0 .228-.697 1.62 1.62 0 0 0-.761-1.548l-47.994-34.3 6.928-23.297h18.809l-3.49 11.421a6.69 6.69 0 0 0 1.934 6.948l-.003.009-1.254 4.109c-1.125 3.67.949 7.572 4.623 8.696 2.582.791 5.278 0 7.042-1.816a6.9 6.9 0 0 0 .713 4.468 6.9 6.9 0 0 0 4.114 3.393 6.93 6.93 0 0 0 5.303-.509 6.9 6.9 0 0 0 3.087-3.304c.127.705.367 1.398.713 2.049a6.9 6.9 0 0 0 4.114 3.389 6.9 6.9 0 0 0 2.032.306c2.982 0 5.748-1.931 6.664-4.929l9.205-30.108a.4.4 0 0 0-.269-.51l-14.393-4.345h-.005l-3.075-.933-.098-.028-.135-.041 3.369.989 14.873 4.369 14.51-49.392c6.132-20.873 3.719-42.856-6.793-61.902zm-25.648 145.747a6.12 6.12 0 0 1-3.633-2.994 6.1 6.1 0 0 1-.457-4.66c.004-.008.004-.016.008-.024v-.005l3.582-11.712a.407.407 0 1 0-.78-.238l-3.57 11.674q-.008.018-.014.041l-.672 2.207a6.1 6.1 0 0 1-2.998 3.633 6.1 6.1 0 0 1-4.684.453 6.12 6.12 0 0 1-3.634-2.994 6.13 6.13 0 0 1-.448-4.688l.672-2.208a.2.2 0 0 0 .009-.047l3.479-11.376a.407.407 0 1 0-.779-.239l-3.492 11.421c-.004.013-.001.026-.004.039q-.004.018-.011.035v.004c-1.026 3.193-4.44 4.989-7.657 4.008a6.16 6.16 0 0 1-4.086-7.682l1.165-3.808a6.74 6.74 0 0 0 3.798 1.18c2.876 0 5.543-1.864 6.425-4.754l1.251-4.096a.625.625 0 0 0 1.178-.052.626.626 0 0 0-.948-.701l1.376-4.509a.625.625 0 1 0 1.102-.573c.993.107 2.827.195 5.168-.178a.617.617 0 0 0 .896-.162 23 23 0 0 0 2.788-.748.407.407 0 1 0-.26-.772c-5.177 1.742-9.205.953-9.245.946a.4.4 0 0 0-.098-.009l-.467.02a.41.41 0 0 0-.373.288l-3.148 10.309a5.906 5.906 0 0 1-7.365 3.919 5.86 5.86 0 0 1-3.485-2.871 5.86 5.86 0 0 1-.434-4.494l3.633-11.893c.011-.021.015-.044.021-.068l2.388-7.817 23.907 7.361 1.026.31 1.303.393a.62.62 0 0 0 .612.185l2.874.867a.63.63 0 0 0 .659.199l2.833.856a.615.615 0 0 0 .693.209l2.801.846a.62.62 0 0 0 .723.218l2.771.837a.6.6 0 0 0 .327.247l-1.242 4.061a.626.626 0 0 0-.366 1.197l-1.242 4.061a.626.626 0 0 0-.366 1.198l-5.83 19.068a6.16 6.16 0 0 1-7.682 4.082zm-48.799-38.89c-6.598 0-11.967-5.367-11.967-11.963v-83.21c0-.461.377-.835.84-.835h11.758a.41.41 0 0 0 .393-.3l14.329-52.113 9.049 2.719-12.948 49.183a.407.407 0 0 0 .394.511h14.911a.4.4 0 0 0 .363-.231 36.9 36.9 0 0 1 8.813 10.64c4.797 8.69 5.897 18.721 3.099 28.245l-8.178 27.84H440.68a5.716 5.716 0 0 0-5.706 5.71v10.998a5.713 5.713 0 0 0 5.706 5.706h22.371l-2.169 7.1zm1.713-7.927a4.887 4.887 0 0 1-4.879-4.879v-10.998a4.885 4.885 0 0 1 4.879-4.879h28.899l-6.056 20.614-.161-.05-.058.192zm24.692-88.896h-14.028l1.669-6.34a36.9 36.9 0 0 1 12.359 6.34m-123.025 8.191a5.18 5.18 0 0 1-.106 3.357 32 32 0 0 0-.753 1.352c-1.658 3.083-5.78 11.348-8.216 21.535l-.024.114a26 26 0 0 0-.196.843l-.02.049c-.016.065-.041.126-.065.187a5.17 5.17 0 0 1-2.493 2.757 5.18 5.18 0 0 1-4.203.216 5.1 5.1 0 0 1-2.07-1.47v-.001l15.035-32.262.024.012a5.16 5.16 0 0 1 3.088 3.311zm-15.176 46.014c-.008 0-.021.005-.029.005a5.15 5.15 0 0 1-2.822-.261c-.491-.189-1.012-.431-1.521-.883a.625.625 0 0 0 .113-1.225.626.626 0 0 0-.774.431q-.006.024-.009.048c-.349-.479-.681-1.1-.982-1.927-.005-.004-.005-.012-.009-.02a31.4 31.4 0 0 1-1.551-6.572l1.237.576 1.346-2.889a.626.626 0 0 0 .494-1.061l1.162-2.493q.199.204.419.391a.627.627 0 1 0 1.028.706c.226.124.459.238.703.332.536.205 1.095.33 1.658.377a.626.626 0 0 0 1.227.152.6.6 0 0 0 .021-.183 6.2 6.2 0 0 0 1.315-.313c-.204 2.665.017 4.532.329 6.041q-.035-.016-.072-.028a.626.626 0 1 0 .297 1.016l.048.193.012.057c.174.669.295 1.297.366 1.869a.626.626 0 0 0 .07 1.238c-.011.47-.073.871-.191 1.178a5.19 5.19 0 0 1-3.886 3.246zm-49.884-75.21-2.814-1.108a4.485 4.485 0 0 1-2.522-5.812l.729-1.853q.013.082.037.163-.007.005.004.016.043.188.098.37c.033.107.065.212.106.314q.018.061.049.123.023.067.053.134.001.006.008.012.03.073.065.147c.057.114.114.232.179.346.065.11.135.224.204.33a5 5 0 0 0 1.059 1.165 4 4 0 0 0 .256.195q.056.042.11.078a4 4 0 0 0 .363.224q.14.084.293.154c.122.062.249.115.379.168l1.731.684 46.059 18.166 25.302 9.979.004.004a55 55 0 0 0-1.845 3.572l-17.364-6.847h-.004zm17.315-62.29q.276-.185.57-.334.102-.05.204-.094a4.5 4.5 0 0 1 1.78-.374 4.5 4.5 0 0 1 1.641.313l18.488 7.291h.004l59.566 23.494q.305.12.586.285h.004a5 5 0 0 1 .843.631 4.5 4.5 0 0 1 .64.758v.004q.184.276.326.57a4.47 4.47 0 0 1 .118 3.556l-.733 1.853-.318.803v.004l-.627 1.596-.013.037-5.384 13.645v.004l-4.716 11.953a.6.6 0 0 0-.161.16.6.6 0 0 0-.086.191l-.088.058a58 58 0 0 0-1.757 1.25.626.626 0 0 0-1.136-.27.627.627 0 0 0 .257.924 59 59 0 0 0-5.471 4.756.628.628 0 0 0-.964.085.626.626 0 0 0 .078.8 59 59 0 0 0-8.803 11.607v.004l-5.639-2.224.02-.023a.628.628 0 0 0-1.034-.71.64.64 0 0 0-.104.292l-7.93-3.128a.625.625 0 0 0-.788-.311l-2.451-.967a.627.627 0 1 0-.862-.878.63.63 0 0 0-.09.503l-7.418-2.925v-.004l-.465-.184a.625.625 0 0 0-1.046-.413l-2.52-.993a.62.62 0 0 0 .437-.265.627.627 0 0 0-1.033-.71.625.625 0 0 0 .037.754l-8.026-3.166a.625.625 0 0 0-1.124-.505q-.015.025-.028.051l-11.058-4.361a.625.625 0 1 0-1.146-.453l-7.986-3.15a.62.62 0 0 0-.643-.253l-2.492-.983a.6.6 0 0 0 .117-.125.628.628 0 0 0-1.034-.71.63.63 0 0 0-.103.433l-7.254-2.862-.622-.245a.624.624 0 0 0-.986-.392q-.121-.047-.237-.104a1 1 0 0 1-.098-.049 4.7 4.7 0 0 1-.737-.472c-.02-.016-.04-.029-.057-.049a4 4 0 0 1-.24-.208 4.2 4.2 0 0 1-.68-.845.6.6 0 0 0-.189-.309c-.033-.06-.069-.119-.096-.182l-.062-.13a2 2 0 0 1-.052-.13 1 1 0 0 1-.033-.086q-.048-.13-.09-.265a4.5 4.5 0 0 1-.195-1.3c0-.046.005-.092.006-.139a.625.625 0 1 0 .214-1.227c.03-.092.058-.185.093-.275v-.004l2.56-6.492a.627.627 0 1 0 .793-.964.62.62 0 0 0-.369-.108l2.688-6.815a.6.6 0 0 0 .126.119.628.628 0 0 0 .71-1.034.63.63 0 0 0-.435-.103l2.712-6.874a.628.628 0 1 0 .878-.862.62.62 0 0 0-.502-.09l8.428-21.366.016-.04.611-1.552.004-.009.322-.81.729-1.85a7 7 0 0 1 .13-.305 4.5 4.5 0 0 1 .526-.835c.268-.342.59-.64.949-.892zM402.609 136.94l-15.836 53.26-4.11-3.022 15.213-51.602a2.46 2.46 0 0 1 2.582-1.756c.29.025 1.161.102 1.817 1.067.656.966.407 1.809.334 2.053m-33.925-50.128 4.415-11.195 13.052 3.705a58.6 58.6 0 0 0-17.467 7.49"/><path fill="#fff" d="m495.448 236.275 5.83-19.069a.627.627 0 0 1 .366-1.197l1.241-4.061a.627.627 0 0 1 .367-1.198l1.241-4.061a.63.63 0 0 1-.327-.246l-2.77-.837a.61.61 0 0 1-.723-.219l-2.802-.845a.62.62 0 0 1-.693-.21l-2.833-.855a.63.63 0 0 1-.658-.199l-2.874-.868a.61.61 0 0 1-.613-.185l-1.302-.393-1.026-.309-23.907-7.362-2.388 7.817c-.007.024-.011.047-.021.068l-3.633 11.893a5.86 5.86 0 0 0 .433 4.494 5.86 5.86 0 0 0 3.485 2.871 5.906 5.906 0 0 0 7.365-3.919l3.149-10.309c.05-.165.2-.281.372-.288l.467-.02a.4.4 0 0 1 .099.009c.04.007 4.067.796 9.244-.946a.407.407 0 1 1 .26.773c-.977.329-1.911.571-2.787.747a.625.625 0 0 1-.708.26.6.6 0 0 1-.189-.098c-2.341.374-4.174.286-5.167.178.098.151.134.34.077.525a.63.63 0 0 1-.783.416.62.62 0 0 1-.396-.368l-1.377 4.51a.626.626 0 1 1-.23.752l-1.251 4.097c-.882 2.889-3.549 4.753-6.424 4.753a6.73 6.73 0 0 1-3.798-1.18l-1.165 3.808a6.16 6.16 0 0 0 4.085 7.682c3.218.981 6.631-.815 7.658-4.008v-.004l.011-.035c.002-.013 0-.026.003-.039l3.493-11.421a.407.407 0 1 1 .779.239l-3.479 11.376q-.001.024-.009.047l-.672 2.208a6.12 6.12 0 0 0 .448 4.688 6.12 6.12 0 0 0 3.633 2.994 6.12 6.12 0 0 0 4.684-.452 6.1 6.1 0 0 0 2.998-3.634l.672-2.207q.007-.023.015-.041l3.57-11.674a.407.407 0 1 1 .779.238l-3.581 11.712v.005l-.008.024a6.1 6.1 0 0 0 .456 4.66 6.12 6.12 0 0 0 3.633 2.994 6.16 6.16 0 0 0 7.682-4.081zm-17.387-24.604a.628.628 0 1 1-.369 1.2.628.628 0 0 1 .369-1.2m.166 3.581a.627.627 0 1 1 1.199.367.627.627 0 0 1-1.199-.367m7.138-8.662a.626.626 0 1 1 .363-1.198.626.626 0 0 1-.363 1.198m2.68 5.915a.628.628 0 1 1-1.2-.369.628.628 0 0 1 1.2.369m2.14-2.876a.627.627 0 1 1-.364 1.199.627.627 0 0 1 .364-1.199m.166 3.581a.628.628 0 1 1 1.2.369.628.628 0 0 1-1.2-.369m3.34-2.509a.627.627 0 1 1-.367 1.199.627.627 0 0 1 .367-1.199m.166 3.581a.627.627 0 1 1 1.2.368.627.627 0 0 1-1.2-.368m3.34-2.509a.627.627 0 1 1-.367 1.199.627.627 0 0 1 .367-1.199m-8.038 7.478a.626.626 0 1 1 .366-1.198.626.626 0 0 1-.366 1.198m-3.505-1.072a.627.627 0 1 1 .367-1.199.627.627 0 0 1-.367 1.199m-6.374.04a.625.625 0 0 1 1.119.349q-.557-.166-1.119-.349m3.57 1.002a.63.63 0 0 1 .614-.148.63.63 0 0 1 .399.375 47 47 0 0 1-1.013-.227m3.047-10.248a.627.627 0 1 1 1.2.368.627.627 0 0 1-1.2-.368m-.825 4.842a.627.627 0 1 1-.368 1.2.627.627 0 0 1 .368-1.2m2.723 1.488a.626.626 0 1 1 1.198.366.626.626 0 0 1-1.198-.366m3.505 1.072a.628.628 0 1 1 1.2.369.628.628 0 0 1-1.2-.369m1.365 3.948a.627.627 0 1 1 .368-1.2.627.627 0 0 1-.368 1.2m2.557-2.093a.628.628 0 1 1 .369-1.2.628.628 0 0 1-.369 1.2m-7.301-13.733a.627.627 0 1 1 .367-1.199.627.627 0 0 1-.367 1.199m-3.382 6.936a.627.627 0 1 1-1.199-.367.627.627 0 0 1 1.199.367m-2.973 1.31a.628.628 0 1 1-.367 1.2.628.628 0 0 1 .367-1.2m.166 3.581a.628.628 0 1 1 1.2.369.628.628 0 0 1-1.2-.369m-5.279.605c.209.064.36.229.417.424a42 42 0 0 1-.909-.369.63.63 0 0 1 .492-.055m19.35 3.568a.63.63 0 0 1 .734-.301.62.62 0 0 1 .335.253q-.507.028-1.069.048m2.508-1.978a.628.628 0 1 1 1.2.369.628.628 0 0 1-1.2-.369m-.532-2.382a.627.627 0 1 1 .366-1.2.627.627 0 0 1-.366 1.2m3.339-2.509a.627.627 0 1 1-1.2-.368.627.627 0 0 1 1.2.368m.409-5.625a.628.628 0 0 1 1.2.366.628.628 0 0 1-1.2-.366m-1.774 1.677a.626.626 0 1 1-.366 1.2.626.626 0 0 1 .366-1.2m-1.731-2.749a.627.627 0 1 1 1.199.364.627.627 0 0 1-1.199-.364m-1.774 1.677a.626.626 0 1 1-.366 1.198.626.626 0 0 1 .366-1.198m-1.732-2.749a.627.627 0 1 1 1.2.365.627.627 0 0 1-1.2-.365m-1.774 1.676a.628.628 0 1 1-.369 1.2.628.628 0 0 1 .369-1.2m-1.731-2.748a.627.627 0 1 1 1.199.364.627.627 0 0 1-1.199-.364m-1.775 1.676a.627.627 0 1 1-.366 1.2.627.627 0 0 1 .366-1.2m-6.844 1.438a.626.626 0 1 1 1.198.366.626.626 0 0 1-1.198-.366m-1.774 1.677a.628.628 0 1 1-.369 1.2.628.628 0 0 1 .369-1.2m-4.289-.656a.628.628 0 1 1 1.2.369.628.628 0 0 1-1.2-.369m-2.557 2.093a.628.628 0 1 1 1.2.369.628.628 0 0 1-1.2-.369m.949 3.165a.627.627 0 1 1 1.2.368.627.627 0 0 1-1.2-.368"/><path fill="#000" d="M499.51 218.886a.627.627 0 1 0-1.199-.367.627.627 0 0 0 1.199.367m-2.972 1.311a.626.626 0 0 0-.734.3q.56-.019 1.069-.048a.62.62 0 0 0-.335-.252m4.164-7.352a.627.627 0 1 0-.367 1.199.627.627 0 0 0 .367-1.199m-2.557 2.093a.626.626 0 1 0-.366 1.2.626.626 0 0 0 .366-1.2m3.798-6.153a.626.626 0 1 0 .368-1.198.626.626 0 0 0-.368 1.198m-5.938 9.029a.628.628 0 1 0-1.201-.365.628.628 0 0 0 1.201.365m-2.973 1.311a.626.626 0 1 0-.368 1.198.626.626 0 0 0 .368-1.198m3.382-6.936a.627.627 0 1 0 1.199.367.627.627 0 0 0-1.199-.367m2.024-4.475a.628.628 0 0 0 .366-1.2.627.627 0 0 0-.366 1.2m.532 2.382a.627.627 0 1 0 1.2.366.627.627 0 0 0-1.2-.366m-9.027 8.739a.628.628 0 0 0-1.2-.366.627.627 0 0 0 1.2.366m4.33-3.77a.626.626 0 1 0 .368-1.197.626.626 0 0 0-.368 1.197m-1.774 1.677a.628.628 0 1 0-1.2-.366.628.628 0 0 0 1.2.366m.409-5.625a.628.628 0 0 0 1.2.366.628.628 0 0 0-1.2-.366m2.024-4.476a.626.626 0 1 0 .368-1.198.626.626 0 0 0-.368 1.198m.533 2.383a.628.628 0 1 0 1.2.366.628.628 0 0 0-1.2-.366m-9.028 8.739a.626.626 0 1 0-1.198-.368.626.626 0 0 0 1.198.368m4.331-3.77a.627.627 0 1 0 .365-1.2.627.627 0 0 0-.365 1.2m-1.774 1.677a.628.628 0 1 0-1.201-.365.628.628 0 0 0 1.201.365m.409-5.625a.626.626 0 1 0 1.198.368.626.626 0 0 0-1.198-.368m2.024-4.476a.627.627 0 1 0 .367-1.199.627.627 0 0 0-.367 1.199m.533 2.383a.626.626 0 1 0 1.198.368.626.626 0 0 0-1.198-.368m-8.496 11.122a.63.63 0 0 0-.614.147q.51.121 1.013.227a.62.62 0 0 0-.399-.374m.825-4.842a.626.626 0 1 0 1.197.366.626.626 0 0 0-1.197-.366m1.859-8.058a.627.627 0 1 0-1.2-.366.627.627 0 0 0 1.2.366m.948 3.165a.626.626 0 1 0-1.198-.366.626.626 0 0 0 1.198.366m-.25 2.799a.627.627 0 1 0 1.2.367.627.627 0 0 0-1.2-.367m1.858-8.057a.628.628 0 1 0-1.2-.366.628.628 0 0 0 1.2.366m-.25 2.799a.628.628 0 1 0 1.2.366.628.628 0 0 0-1.2-.366m-6.306 10.227a.626.626 0 1 0 .368-1.197.626.626 0 0 0-.368 1.197m-2.19.895a.625.625 0 0 0-.678.217q.563.184 1.119.349a.625.625 0 0 0-.441-.566m.826-4.843a.627.627 0 1 0 1.199.367.627.627 0 0 0-1.199-.367m2.024-4.475a.628.628 0 1 0 .366-1.2.628.628 0 0 0-.366 1.2m.532 2.382a.628.628 0 1 0 1.2.366.628.628 0 0 0-1.2-.366m-4.697 4.969a.626.626 0 1 0 .368-1.198.626.626 0 0 0-.368 1.198m-1.773 1.318a.626.626 0 0 0-.909-.369q.456.192.909.369m3.381-6.576a.628.628 0 1 0 .366-1.2.628.628 0 0 0-.366 1.2m-2.973 1.31a.627.627 0 1 0 1.2.366.627.627 0 0 0-1.2-.366m-2.14 2.877a.627.627 0 1 0 .365-1.2.627.627 0 0 0-.365 1.2m1.607-5.259a.627.627 0 1 0 .367-1.199.627.627 0 0 0-.367 1.199m-2.556 2.093a.628.628 0 1 0 .366-1.2.628.628 0 0 0-.366 1.2"/><path fill="#fff" d="m415.537 24.26.46.18a32 32 0 0 1 3.523 1.698c1.654.909 3.845 1.634 5.752 1.634.672 0 1.311-.09 1.877-.293 1.011-.367 1.719-1.055 2.102-2.041.489-1.25.428-2.403-.183-3.336-.884-1.352-2.917-2.191-5.576-2.301-3.866-.151-6.208-.676-7.662-1.027q-.14-.037-.269-.069l-.13-.032-.391-.098h-.008l-.065.444a15 15 0 0 0-.09 3.535q.055.644.171 1.312l.041.228h.004l.216.081q.111.043.228.086"/><path fill="#5474f6" d="m407.672 10.2 9.572 2.713.395.11.423.122 23.441 6.64 3.271.924 3.576 1.01.403.118.51.143q-.008-.287-.021-.567-.013-.211-.032-.42-.015-.207-.041-.415a15 15 0 0 0-.285-1.718 14 14 0 0 0-.281-1.051 5 5 0 0 0-.127-.4 7 7 0 0 0-.134-.403 16.7 16.7 0 0 0-2.33-4.305c-2.729-3.654-6.777-6.106-11.392-6.9-4.595-.798-9.218.139-13.006 2.64l-.134.09-.041-.009-12.871-2.248a2.006 2.006 0 0 0-2.285 1.442 2 2 0 0 0-.077.55c0 .891.602 1.686 1.466 1.934"/><path fill="#000" d="m407.448 10.983 9.36 2.651a15.2 15.2 0 0 0-1.479 3.605q-.013.046-.02.09l-.02.08c-.102.392-.188.779-.249 1.158v.008l.391.098.13.032q.13.031.269.07c1.454.35 3.796.875 7.662 1.026 2.66.11 4.692.949 5.576 2.301.611.933.672 2.086.183 3.336-.383.986-1.091 1.674-2.102 2.04-.566.204-1.205.294-1.877.294-1.906 0-4.098-.725-5.751-1.633a32 32 0 0 0-3.524-1.699l-.46-.18q-.117-.042-.228-.085l-.216-.081c1.291 6.782 6.945 12.146 14.126 13.396q1.57.27 3.112.27c6.928 0 13.131-4 15.648-10.037l13.218 8.35a.8.8 0 0 0 .647.098.8.8 0 0 0 .509-.408l2.937-5.633a.82.82 0 0 0 .037-.668.8.8 0 0 0-.473-.472l-15.742-5.927q.014-.14.016-.28a1 1 0 0 0 .13.012c.18 0 .359-.062.505-.172a.81.81 0 0 0 .314-.655 7 7 0 0 0-.02-.424l16.182 2.558a1 1 0 0 0 .127.012.815.815 0 0 0 .814-.758l.469-6.333a.816.816 0 0 0-.852-.872l-17.608.819a17.3 17.3 0 0 0-2.525-4.757c-2.855-3.821-7.083-6.383-11.906-7.214-4.745-.827-9.519.122-13.458 2.672l-12.594-2.2a3 3 0 0 0-.492-.04 2.814 2.814 0 0 0-2.717 2.065 3 3 0 0 0-.106.77c0 1.254.847 2.37 2.057 2.717m-1.165-3.267a2.005 2.005 0 0 1 2.285-1.442l12.871 2.248.041.009.134-.09c3.788-2.501 8.411-3.438 13.006-2.64 4.614.795 8.663 3.247 11.392 6.9a16.7 16.7 0 0 1 2.33 4.306q.074.2.134.403.072.2.127.4c.11.345.199.696.281 1.05.126.566.224 1.14.285 1.719q.026.208.041.415.019.207.032.42.013.28.02.566l-.509-.143-.403-.118-3.576-1.01-3.271-.924-23.441-6.64-.423-.122-.395-.11-9.572-2.713a2.03 2.03 0 0 1-1.467-1.934q0-.276.078-.55"/></g><defs><clipPath id="a"><path fill="#fff" d="M0 0h524v329H0z"/></clipPath></defs></svg>