<svg width="19" height="19" viewBox="0 0 19 19" fill="none" xmlns="http://www.w3.org/2000/svg">
<g clip-path="url(#clip0_13349_52874)">
<path d="M18.0809 11.3981C16.8551 16.3148 11.8753 19.3071 6.95798 18.081C2.04271 16.8552 -0.949536 11.8751 0.276845 6.95865C1.50208 2.04137 6.48188 -0.951163 11.3977 0.274644C16.3147 1.50045 19.3067 6.48112 18.0809 11.3981Z" fill="#F7931A"/>
<path d="M13.2261 7.87059C13.4088 6.64937 12.4789 5.99288 11.2075 5.55492L11.62 3.90063L10.613 3.64967L10.2115 5.26037C9.94674 5.19441 9.67484 5.13217 9.40467 5.07051L9.80907 3.4492L8.80267 3.19824L8.38996 4.85196C8.17084 4.80206 7.95573 4.75273 7.74694 4.70082L7.74808 4.69565L6.35937 4.34891L6.0915 5.42443C6.0915 5.42443 6.83862 5.59565 6.82285 5.60626C7.23069 5.70808 7.3044 5.97796 7.29206 6.19192L6.82228 8.07652C6.85038 8.08369 6.88681 8.09401 6.92696 8.11007C6.8934 8.10176 6.85755 8.09258 6.82056 8.08369L6.16205 10.7237C6.11215 10.8476 5.98566 11.0335 5.70058 10.9629C5.71062 10.9776 4.96865 10.7802 4.96865 10.7802L4.46875 11.9329L5.77916 12.2596C6.02295 12.3207 6.26186 12.3846 6.49704 12.4449L6.08031 14.1181L7.08614 14.369L7.49885 12.7136C7.77361 12.7882 8.04034 12.857 8.30133 12.9218L7.89005 14.5695L8.89703 14.8205L9.31376 13.1504C11.0309 13.4753 12.3221 13.3443 12.8656 11.7912C13.3035 10.5408 12.8438 9.81943 11.9403 9.34907C12.5983 9.19735 13.0939 8.76456 13.2261 7.87059ZM10.9253 11.0969C10.6141 12.3473 8.50869 11.6713 7.8261 11.5018L8.37906 9.28512C9.06165 9.45548 11.2506 9.79276 10.9253 11.0969ZM11.2368 7.85252C10.9529 8.98999 9.20047 8.41208 8.63202 8.2704L9.13336 6.25989C9.7018 6.40157 11.5325 6.66601 11.2368 7.85252Z" fill="white"/>
</g>
<defs>
<clipPath id="clip0_13349_52874">
<rect width="18.3556" height="18.3556" fill="white"/>
</clipPath>
</defs>
</svg>
