<svg width="170" height="28" viewBox="0 0 170 28" fill="none" xmlns="http://www.w3.org/2000/svg">
<path d="M158.98 23.0685H153.105V1.20312H158.98V11.7442C159.436 9.06812 160.905 6.62048 164.266 6.62048C167.269 6.62048 169.096 8.48068 169.096 11.7768V23.0685H163.222V14.0612C163.222 12.1031 162.863 11.0588 161.101 11.0588C159.404 11.0588 158.98 11.6789 158.98 14.2897V23.0685Z" fill="white"/>
<path d="M146.451 23.396C142.273 23.396 140.739 21.0137 140.739 17.8808V11.3865H138.455V6.94811H140.739V5.12054L146.614 2.50977V6.94811H150.53V11.3865H146.614V17.0322C146.614 17.8808 147.038 18.305 147.789 18.305C148.506 18.305 149.355 17.7829 149.877 16.967L151.476 21.3727C150.791 22.1559 149.061 23.396 146.451 23.396Z" fill="white"/>
<path d="M130.346 23.3954C124.798 23.3954 121.73 19.9034 121.73 15.0082C121.73 10.113 124.863 6.62109 129.791 6.62109C135.307 6.62109 137.689 10.3088 137.689 14.1923C137.689 14.9756 137.624 16.1831 137.526 16.5747H127.181C127.54 18.1412 128.813 18.696 130.444 18.696C132.043 18.696 133.218 18.2391 133.838 16.8358L137.396 20.2298C136.155 21.8289 134.034 23.3954 130.346 23.3954ZM129.824 10.9941C128.225 10.9941 127.214 11.8426 127.083 13.5396H132.435C132.337 11.9079 131.586 10.9941 129.824 10.9941Z" fill="white"/>
<path d="M120.687 23.0669H114.812V17.4863H120.687V23.0669Z" fill="white"/>
<path d="M102.826 23.069H96.9512V6.94741H102.826V11.7448C103.282 9.06867 104.751 6.62109 108.112 6.62109C111.115 6.62109 112.942 8.48123 112.942 11.7774V23.069H107.068V14.0618C107.068 12.1037 106.709 11.0594 104.947 11.0594C103.25 11.0594 102.826 11.6794 102.826 14.2903V23.069Z" fill="white"/>
<path d="M86.5066 23.069H80.6328V6.94741H86.5066V12.3974C86.9966 9.62349 88.5305 6.62109 91.8265 6.62109C94.6332 6.62109 95.6771 8.38336 95.6771 11.0594C95.6771 13.0175 95.0245 14.6819 94.5674 15.4977H89.183C89.7704 14.8124 90.4229 13.5723 90.4229 12.5933C90.4229 11.6794 90.0315 11.0594 89.085 11.0594C87.7471 11.0594 86.5066 12.3321 86.5066 14.943V23.069Z" fill="white"/>
<path d="M70.1058 23.3954C64.9497 23.3954 61.7188 19.8056 61.7188 15.0082C61.7188 10.2109 64.9497 6.62109 70.1058 6.62109C75.5231 6.62109 78.754 10.2109 78.754 15.0082C78.754 19.8056 75.5231 23.3954 70.1058 23.3954ZM70.2367 18.696C71.7377 18.696 72.7822 17.8148 72.7822 15.0082C72.7822 12.2016 71.7377 11.3205 70.2367 11.3205C68.7351 11.3205 67.6912 12.2016 67.6912 15.0082C67.6912 17.8148 68.7351 18.696 70.2367 18.696Z" fill="white"/>
<path d="M53.8833 23.3954C48.7269 23.3954 45.4961 19.8056 45.4961 15.0082C45.4961 10.2109 48.7269 6.62109 53.8833 6.62109C57.4731 6.62109 60.2797 8.48123 61.4219 10.9615L56.8531 13.9639C56.3961 12.2995 55.515 11.4836 54.1443 11.4836C52.6105 11.4836 51.4683 12.5606 51.4683 15.0082C51.4683 17.4559 52.6105 18.5328 54.1443 18.5328C55.5476 18.5328 56.3961 17.7169 56.8531 16.0525L61.4219 19.0549C60.2797 21.5352 57.4731 23.3954 53.8833 23.3954Z" fill="white"/>
<path d="M43.5462 5.47828H37.6719V1.20312H43.5462V5.47828ZM43.5462 23.0685H37.6719V6.94686H43.5462V23.0685Z" fill="white"/>
<path d="M25.0285 23.069H19.1543V6.94741H25.0285V11.7448C25.4854 9.06867 26.954 6.62109 30.3154 6.62109C33.3178 6.62109 35.1454 8.48123 35.1454 11.7774V23.069H29.2711V14.0618C29.2711 12.1037 28.9121 11.0594 27.1498 11.0594C25.4528 11.0594 25.0285 11.6794 25.0285 14.2903V23.069Z" fill="white"/>
<path d="M5.37293 23.3972C2.37052 23.3972 0.542969 21.537 0.542969 18.2409V6.94922H6.41724V15.9565C6.41724 17.9146 6.77622 18.9589 8.53848 18.9589C10.2355 18.9589 10.6597 18.3388 10.6597 15.728V6.94922H16.534V23.0708H10.6597V18.2736C10.2029 20.9496 8.73429 23.3972 5.37293 23.3972Z" fill="white"/>
</svg>
