<svg width="51" height="64" viewBox="0 0 51 64" fill="none" xmlns="http://www.w3.org/2000/svg">
<g clip-path="url(#clip0_11343_531)">
<path fill-rule="evenodd" clip-rule="evenodd" d="M9.03154 59.6862L15.1195 56.8432C15.6127 56.6127 16.2006 56.8267 16.4306 57.322L19.2699 63.4228C19.642 64.2227 20.7913 64.1719 21.0929 63.3423L27.2568 46.356C27.444 45.8419 27.1798 45.2738 26.6657 45.0873L15.1162 40.8708C14.6043 40.6833 14.0373 40.948 13.8513 41.4632L7.68735 58.4495C7.38571 59.2791 8.2345 60.058 9.03154 59.6851H9.03264L9.03154 59.6862Z" fill="white"/>
<path d="M17.8555 56.6891H17.8544L17.5758 56.9671H17.5769L17.8555 56.6891ZM20.2224 61.7462L17.8951 56.7453L17.5384 56.9119L19.8657 61.9128L20.2224 61.7462ZM20 61.754C20.0352 61.6613 20.1739 61.6425 20.2224 61.7484L19.8635 61.9128C19.9681 62.1412 20.2862 62.1147 20.3688 61.893L20 61.754ZM25.4527 46.7259L19.9989 61.7562L20.3688 61.8907L25.8226 46.8605L25.4527 46.7259ZM25.2248 46.2361C25.4219 46.3078 25.5243 46.5262 25.4527 46.7259L25.8237 46.8594C25.9679 46.4567 25.7632 46.0121 25.3602 45.8643L25.2248 46.235V46.2361ZM15.4852 42.676L25.2259 46.2361L25.3613 45.8654L15.6206 42.3053L15.4852 42.676ZM14.9975 42.9043C15.0702 42.7058 15.2871 42.6043 15.4852 42.676L15.6206 42.3053C15.2177 42.1586 14.774 42.3671 14.6276 42.7697L14.9975 42.9043ZM9.5415 57.9379L14.9975 42.9043L14.6276 42.7697L9.1716 57.8033L9.5415 57.9379ZM9.37747 57.7879C9.47875 57.7404 9.57563 57.8408 9.5415 57.9368L9.1694 57.8055C9.09014 58.0295 9.31802 58.2523 9.54371 58.1464L9.37637 57.789L9.37747 57.7879ZM14.457 55.4159L9.37857 57.789L9.54481 58.1464L14.6232 55.7734L14.457 55.4159ZM15.5348 55.1766C15.1605 55.1766 14.7961 55.2582 14.457 55.4159L14.6232 55.7745C14.9106 55.641 15.2188 55.5726 15.5348 55.5726V55.1777V55.1766ZM15.6779 55.181C15.6305 55.1777 15.5832 55.1766 15.5348 55.1766V55.5715C15.5744 55.5715 15.6129 55.5726 15.6537 55.5748L15.6779 55.181ZM17.894 56.7442C17.4712 55.8363 16.6258 55.2317 15.6768 55.181L15.6559 55.5748C16.4474 55.6178 17.1707 56.1231 17.5373 56.9108L17.894 56.7442ZM17.7167 56.8292L17.8951 56.7453L17.8808 56.7133L17.8566 56.6891L17.7167 56.8292ZM20.0429 61.8301L20.2224 61.7484V61.7473L20.044 61.8312L20.0429 61.8301ZM20.1849 61.8223L20.3699 61.8919V61.8896L20.1849 61.8223ZM9.35655 57.8706L9.1716 57.8033V57.8044L9.35765 57.8706H9.35655ZM14.5407 55.5947L14.4581 55.4159L14.5418 55.5947H14.5407ZM15.6658 55.3773L15.6537 55.5748H15.6548L15.6658 55.3773ZM17.7156 56.8281L17.5373 56.9119L17.5516 56.9439L17.5758 56.9682L17.7156 56.8281Z" fill="#1F1F1F"/>
<path fill-rule="evenodd" clip-rule="evenodd" d="M31.8024 63.426L34.6416 57.3208C34.8728 56.8255 35.4585 56.6103 35.9528 56.842L42.0385 59.6828C42.8356 60.0546 43.6844 59.2746 43.3827 58.4461L37.2089 41.4631C37.0217 40.949 36.4559 40.6842 35.944 40.8718L24.3967 45.0949C23.8848 45.2825 23.6206 45.8506 23.8077 46.3636L29.9815 63.3477C30.2832 64.1773 31.4325 64.2259 31.8046 63.4271L31.8024 63.426Z" fill="white"/>
<path d="M36.4801 55.494H36.479L36.7587 55.7742H36.7598L36.4801 55.494ZM41.6907 57.7821L36.7025 55.4532L36.5363 55.8118L41.5244 58.1407L41.6907 57.7821ZM41.5277 57.9344C41.4903 57.8351 41.5927 57.7347 41.6929 57.7832L41.5222 58.1395C41.7457 58.2466 41.9813 58.0237 41.8954 57.7953L41.5266 57.9344H41.5277ZM36.064 42.9074L41.5266 57.9332L41.8965 57.7976L36.4339 42.7717L36.064 42.9074ZM35.5763 42.6779C35.7734 42.6062 35.9913 42.7077 36.064 42.9063L36.4339 42.7717C36.2875 42.369 35.8438 42.1605 35.4409 42.3072L35.5763 42.6779ZM25.8356 46.2369L35.5763 42.6779L35.4409 42.3072L25.7002 45.8662L25.8356 46.2369ZM25.6088 46.7267C25.5372 46.5282 25.6385 46.3097 25.8367 46.238L25.7013 45.8673C25.2995 46.0141 25.0914 46.4587 25.2378 46.8624L25.6077 46.7278L25.6088 46.7267ZM31.0725 61.7581L25.6088 46.7267L25.2389 46.8624L30.7026 61.8938L31.0725 61.7581ZM30.8502 61.7482C30.8942 61.6544 31.0373 61.6544 31.0736 61.7603L30.7015 61.8894C30.783 62.1266 31.1045 62.1354 31.2079 61.9148L30.8513 61.7471L30.8502 61.7482ZM33.2182 56.6557L30.8502 61.7482L31.2068 61.9148L33.5749 56.8223L33.2182 56.6557ZM33.8897 55.7764C33.6024 56.0181 33.3767 56.3148 33.2182 56.6557L33.576 56.8223C33.7103 56.5322 33.9007 56.2828 34.144 56.0787L33.8908 55.7764H33.8897ZM33.9998 55.6893C33.9657 55.7158 33.9272 55.7445 33.8908 55.7764L34.144 56.0787C34.1738 56.0534 34.2046 56.0302 34.2398 56.0026L33.9998 55.6893ZM36.7014 55.4554C35.7954 55.0329 34.7605 55.1167 34.0009 55.6882L34.2376 56.0037C34.8706 55.5271 35.7502 55.4477 36.5352 55.814L36.7014 55.4554ZM36.6199 55.633L36.7036 55.4543L36.5781 55.3958L36.4801 55.494L36.6199 55.633ZM41.6081 57.9619L41.6929 57.7843L41.6092 57.963L41.6081 57.9619ZM41.7116 57.8648L41.5266 57.9321V57.9344L41.7116 57.8648ZM30.8876 61.8254L31.0736 61.7603V61.757L30.8887 61.8243L30.8876 61.8254ZM34.1198 55.846L34.0009 55.6882V55.6893L34.1209 55.846H34.1198ZM36.6188 55.6341L36.5352 55.8129L36.6607 55.8713L36.7587 55.7731L36.6188 55.6341Z" fill="#1F1F1F"/>
<path fill-rule="evenodd" clip-rule="evenodd" d="M28.5031 1.27191L30.1302 2.21517C31.0439 2.74361 32.0799 3.02272 33.1345 3.02272H35.0137C37.1605 3.02272 39.1432 4.17117 40.2166 6.03562L41.1567 7.66728C41.6829 8.58295 42.4426 9.34417 43.3552 9.87262L44.9823 10.8159C46.8406 11.8926 47.9867 13.8817 47.9867 16.0341V17.9184C47.9867 18.9764 48.2641 20.0156 48.7925 20.9313L49.7327 22.563C50.8061 24.4274 50.8061 26.7232 49.7327 28.5876L48.7925 30.2193C48.2663 31.135 47.9867 32.1742 47.9867 33.2322V35.1165C47.9867 37.27 46.8417 39.258 44.9823 40.3347L43.3552 41.278C42.4415 41.8064 41.6829 42.5676 41.1567 43.4833L40.2166 45.115C39.1432 46.9794 37.1605 48.1279 35.0137 48.1279H33.1345C32.0799 48.1279 31.0439 48.4059 30.1302 48.9354L28.5031 49.8787C26.6447 50.9554 24.3549 50.9554 22.4966 49.8787L20.8695 48.9354C19.9557 48.407 18.9198 48.1279 17.8651 48.1279H15.9859C13.8391 48.1279 11.8564 46.9794 10.7831 45.115L9.8429 43.4833C9.31668 42.5676 8.55706 41.8064 7.64442 41.278L6.0173 40.3347C4.15899 39.258 3.01296 37.2689 3.01296 35.1165V33.2322C3.01296 32.1742 2.73553 31.135 2.20711 30.2193L1.26694 28.5876C0.193571 26.7232 0.193571 24.4274 1.26694 22.563L2.20711 20.9313C2.73333 20.0156 3.01296 18.9764 3.01296 17.9184V16.0341C3.01296 13.8806 4.15789 11.8926 6.0173 10.8159L7.64442 9.87262C8.55816 9.34417 9.31668 8.58295 9.8429 7.66728L10.7831 6.03562C11.8564 4.17117 13.8391 3.02272 15.9859 3.02272H17.8651C18.9198 3.02272 19.9557 2.74471 20.8695 2.21517L22.4966 1.27191C24.3549 0.19517 26.6447 0.19517 28.5031 1.27191Z" fill="#1F1F1F"/>
<path d="M22.729 1.67448C24.4442 0.681578 26.5568 0.681578 28.272 1.67448L28.7366 0.869125C26.734 -0.290359 24.268 -0.290359 22.2655 0.869125L22.7301 1.67448H22.729ZM21.1019 2.61773L22.729 1.67448L22.2644 0.869125L20.6373 1.81238L21.1019 2.61773ZM17.8652 3.48817C19.0014 3.48817 20.1177 3.18809 21.1019 2.61773L20.6373 1.81238C19.7951 2.3011 18.8384 2.55816 17.8652 2.55816V3.48817ZM15.9871 3.48817H17.8663V2.55816H15.9871V3.48817ZM11.1861 6.26828C12.1769 4.54726 14.0066 3.48817 15.9871 3.48817V2.55816C13.6741 2.55816 11.5384 3.79597 10.3825 5.80383L11.1861 6.26828ZM10.246 7.89995L11.1861 6.26828L10.3825 5.80272L9.4423 7.43439L10.246 7.89884V7.89995ZM7.87683 10.2763C8.86103 9.70702 9.67789 8.88733 10.246 7.89995L9.4423 7.43549C8.95681 8.28056 8.25664 8.98331 7.41336 9.46983L7.87683 10.2752V10.2763ZM6.25081 11.2184L7.87793 10.2752L7.41336 9.46983L5.78623 10.4131L6.25081 11.2184ZM3.47876 16.0351C3.47876 14.0482 4.53562 12.2124 6.25081 11.2195L5.78623 10.4142C3.78371 11.5737 2.55071 13.7161 2.55071 16.0351H3.47876ZM3.47876 17.9194V16.0351H2.55071V17.9194H3.47876ZM2.61126 21.164C3.17822 20.1777 3.47876 19.0579 3.47876 17.9183H2.55071C2.55071 18.8946 2.2931 19.8533 1.80761 20.6995L2.61126 21.164ZM1.67109 22.7967L2.61126 21.1651L1.80761 20.7006L0.867442 22.3323L1.67109 22.7978V22.7967ZM1.67109 28.357C0.68029 26.6359 0.68029 24.5177 1.67109 22.7967L0.867442 22.3323C-0.288496 24.3401 -0.288496 26.8136 0.867442 28.8225L1.67109 28.3581V28.357ZM2.61126 29.9886L1.67109 28.357L0.867442 28.8214L1.80761 30.4531L2.61126 29.9886ZM3.47876 33.2343C3.47876 32.0947 3.18042 30.976 2.61126 29.9886L1.80761 30.4542C2.2953 31.2992 2.55071 32.2579 2.55071 33.2343H3.47876ZM3.47876 35.1186V33.2343H2.55071V35.1186H3.47876ZM6.25081 39.9341C4.53562 38.9401 3.47876 37.1055 3.47876 35.1186H2.55071C2.55071 37.4376 3.78481 39.58 5.78623 40.7395L6.25081 39.9341ZM7.87793 40.8774L6.25081 39.9341L5.78623 40.7395L7.41336 41.6828L7.87793 40.8774ZM10.246 43.2526C9.679 42.2653 8.86103 41.4456 7.87683 40.8763L7.41336 41.6816C8.25554 42.1693 8.95571 42.8709 9.4423 43.716L10.246 43.2515V43.2526ZM11.1861 44.8843L10.246 43.2526L9.4423 43.7171L10.3825 45.3488L11.1861 44.8843ZM15.9871 47.6655C14.0066 47.6655 12.1769 46.6053 11.1861 44.8854L10.3825 45.3499C11.5384 47.3577 13.6741 48.5955 15.9871 48.5955V47.6655ZM17.8652 47.6655H15.986V48.5955H17.8652V47.6655ZM21.1019 48.5349C20.1188 47.9656 19.0025 47.6644 17.8652 47.6644V48.5944C18.8384 48.5944 19.794 48.8526 20.6373 49.3402L21.1008 48.5349H21.1019ZM22.729 49.4781L21.1019 48.5349L20.6373 49.3402L22.2644 50.2835L22.729 49.4781ZM28.2709 49.4781C26.5557 50.471 24.4431 50.471 22.7279 49.4781L22.2633 50.2835C24.2658 51.4429 26.7318 51.4429 28.7344 50.2835L28.2698 49.4781H28.2709ZM29.898 48.5349L28.2709 49.4781L28.7355 50.2835L30.3626 49.3402L29.898 48.5349ZM33.1346 47.6655C31.9985 47.6655 30.8822 47.9656 29.898 48.536L30.3626 49.3413C31.2048 48.8526 32.1614 48.5955 33.1346 48.5955V47.6655ZM35.0128 47.6655H33.1335V48.5955H35.0128V47.6655ZM39.8138 44.8843C38.8229 46.6053 36.9933 47.6644 35.0128 47.6644V48.5944C37.3257 48.5944 39.4615 47.3566 40.6174 45.3488L39.8138 44.8843ZM40.7539 43.2526L39.8138 44.8843L40.6174 45.3488L41.5576 43.7171L40.7539 43.2526ZM43.123 40.8774C42.1388 41.4467 41.322 42.2664 40.7539 43.2537L41.5576 43.7182C42.0431 42.8731 42.7432 42.1704 43.5865 41.6839L43.123 40.8785V40.8774ZM44.7491 39.9341L43.1219 40.8774L43.5865 41.6828L45.2136 40.7395L44.7491 39.9341ZM47.5211 35.1186C47.5211 37.1055 46.4643 38.9412 44.7491 39.9341L45.2136 40.7395C47.2162 39.58 48.4492 37.4376 48.4492 35.1186H47.5211ZM47.5211 33.2343V35.1186H48.4492V33.2343H47.5211ZM48.3886 29.9886C47.8217 30.9749 47.5211 32.0947 47.5211 33.2343H48.4492C48.4492 32.2579 48.7068 31.2992 49.1923 30.4531L48.3886 29.9886ZM49.3288 28.357L48.3886 29.9886L49.1923 30.4531L50.1324 28.8214L49.3288 28.357ZM49.3288 22.7967C50.3196 24.5177 50.3196 26.6359 49.3288 28.357L50.1324 28.8214C51.2884 26.8136 51.2884 24.3401 50.1324 22.3312L49.3288 22.7956V22.7967ZM48.3897 21.1651L49.3299 22.7967L50.1335 22.3323L49.1934 20.7006L48.3897 21.1651ZM47.5211 17.9194C47.5211 19.059 47.8195 20.1777 48.3886 21.1651L49.1923 20.6995C48.7046 19.8544 48.4492 18.8957 48.4492 17.9194H47.5211ZM47.5211 16.0351V17.9194H48.4492V16.0351H47.5211ZM44.7491 11.2184C46.4643 12.2124 47.5211 14.0471 47.5211 16.034H48.4492C48.4492 13.715 47.2151 11.5726 45.2136 10.4131L44.7491 11.2184ZM43.123 10.2752L44.7502 11.2184L45.2147 10.4131L43.5876 9.46983L43.123 10.2752ZM40.7539 7.89995C41.3209 8.88733 42.1388 9.70702 43.123 10.2763L43.5865 9.47093C42.7443 8.98331 42.0442 8.28166 41.5576 7.43659L40.7539 7.90105V7.89995ZM39.8138 6.26828L40.7539 7.89995L41.5576 7.43549L40.6174 5.80383L39.8138 6.26939V6.26828ZM35.0128 3.48817C36.9933 3.48817 38.8229 4.54836 39.8138 6.26828L40.6174 5.80383C39.4615 3.79597 37.3257 2.55816 35.0128 2.55816V3.48817ZM33.1346 3.48817H35.0139V2.55816H33.1346V3.48817ZM29.898 2.61773C30.8811 3.18699 31.9974 3.48817 33.1346 3.48817V2.55816C32.1614 2.55816 31.2059 2.3 30.3626 1.81238L29.8991 2.61773H29.898ZM28.2709 1.67448L29.898 2.61773L30.3626 1.81238L28.7355 0.869125L28.2709 1.67448Z" fill="white"/>
<path d="M14.2259 25.6243C13.9364 25.9464 13.5037 26.1086 12.9257 26.1086H11.1973C11.0322 26.1086 10.899 25.9751 10.899 25.8085V22.6037C10.899 22.4382 11.0322 22.3036 11.1973 22.3036H12.9257C13.5191 22.3036 13.9562 22.4713 14.238 22.8033C14.5198 23.1354 14.6596 23.6054 14.6596 24.2133C14.6596 24.8211 14.5154 25.301 14.2259 25.6232V25.6243ZM15.4787 22.4735C15.2442 22.0079 14.915 21.6593 14.489 21.4232C14.0641 21.1882 13.562 21.0713 12.9841 21.0713H10.6788C10.1603 21.0713 9.73975 21.4927 9.73975 22.0123V31.0113C9.73975 31.1084 9.76286 31.1889 9.8091 31.2529C9.85534 31.3169 9.92249 31.3478 10.0095 31.3478H10.6293C10.7151 31.3478 10.7845 31.3158 10.8351 31.2529C10.8858 31.1889 10.9111 31.1084 10.9111 31.0113V27.6266C10.9111 27.4689 11.0388 27.3409 11.1962 27.3409H12.9841C13.5631 27.3409 14.0641 27.2228 14.489 26.989C14.9139 26.754 15.2453 26.4076 15.4787 25.9453C15.7132 25.4853 15.8299 24.9072 15.8299 24.2122C15.8299 23.5171 15.7121 22.9379 15.4787 22.4724V22.4735Z" fill="white"/>
<path d="M11.197 22.3224C11.0429 22.3224 10.9174 22.4482 10.9174 22.6037V25.8086C10.9174 25.9641 11.0429 26.0899 11.197 26.0899H12.9254C13.4946 26.0899 13.9272 25.9299 14.2123 25.6111C14.4964 25.2923 14.6417 24.8223 14.6417 24.2133C14.6417 23.6044 14.5019 23.1432 14.2245 22.8156C13.9481 22.4879 13.5111 22.3224 12.9276 22.3224H11.1981H11.197ZM12.9254 26.1252H11.197C11.022 26.1252 10.8799 25.9818 10.8799 25.8064V22.6015C10.8799 22.4261 11.0231 22.2827 11.197 22.2827H12.9254C13.521 22.2827 13.968 22.4526 14.252 22.7891C14.5349 23.1234 14.6791 23.6022 14.6791 24.2111C14.6791 24.8201 14.5316 25.3077 14.241 25.6343C13.9492 25.9597 13.5067 26.1252 12.9265 26.1252H12.9254ZM10.6829 21.089C10.1721 21.089 9.75923 21.5038 9.75923 22.0113V31.0103C9.75923 31.1051 9.78015 31.1802 9.82639 31.2419C9.87042 31.3004 9.92987 31.3302 10.0102 31.3302H10.63C10.7104 31.3302 10.7732 31.3004 10.8205 31.2419C10.8689 31.1802 10.8921 31.1052 10.8921 31.0114V27.6267C10.8921 27.4579 11.0297 27.3222 11.1959 27.3222H12.9838C13.5562 27.3222 14.0593 27.2042 14.4799 26.9714C14.9004 26.7386 15.2307 26.3911 15.463 25.9366C15.6953 25.482 15.8119 24.9017 15.8119 24.2122C15.8119 23.5227 15.6942 22.9402 15.463 22.4802C15.2307 22.0201 14.9015 21.6693 14.4799 21.4387C14.0593 21.206 13.5562 21.0879 12.9838 21.0879H10.6818L10.6829 21.089ZM10.6289 31.3677H10.0091C9.91666 31.3677 9.8451 31.3324 9.79446 31.2651C9.74492 31.1978 9.7207 31.114 9.7207 31.0125V22.0135C9.7207 21.484 10.1501 21.0537 10.6785 21.0537H12.9838C13.5628 21.0537 14.0714 21.1729 14.4986 21.4078C14.9257 21.6428 15.2615 21.9992 15.496 22.4658C15.7305 22.9314 15.8494 23.5194 15.8494 24.2133C15.8494 24.9073 15.7305 25.4942 15.496 25.9542C15.2615 26.4154 14.9257 26.7684 14.4986 27.0056C14.0714 27.2406 13.5628 27.3597 12.9838 27.3597H11.1959C11.0495 27.3597 10.9295 27.48 10.9295 27.6267V31.0114C10.9295 31.1129 10.9031 31.1989 10.8491 31.2651C10.7941 31.3335 10.7214 31.3677 10.6289 31.3677Z" fill="white"/>
<path d="M28.696 27.7514H31.4978C31.5869 27.7514 31.653 27.6643 31.6255 27.5771L30.2251 22.959C30.1866 22.8322 30.0083 22.8322 29.9686 22.959L28.5672 27.5771C28.5408 27.6632 28.6057 27.7514 28.6949 27.7514H28.696ZM26.6406 31.3501C26.5779 31.3501 26.5228 31.3203 26.4766 31.2619C26.4303 31.2045 26.4072 31.135 26.4072 31.0556C26.4072 31.007 26.4116 30.953 26.4182 30.8956L29.3235 21.3936C29.3543 21.2965 29.3984 21.217 29.4523 21.1586C29.5073 21.1001 29.5888 21.0703 29.6978 21.0703H30.4948C30.6038 21.0703 30.6864 21.0979 30.7414 21.1586C30.7965 21.217 30.8383 21.2954 30.8703 21.3936L33.7634 30.8956C33.7777 30.953 33.7865 31.0081 33.7865 31.0556C33.7865 31.135 33.7634 31.2023 33.7172 31.2619C33.6709 31.3203 33.6159 31.3501 33.5531 31.3501H32.9553C32.8618 31.3501 32.7924 31.3203 32.7495 31.2619C32.7065 31.2045 32.6779 31.1493 32.6614 31.1019L32.0889 29.2485C32.046 29.1106 31.9183 29.0157 31.7741 29.0157H28.4164C28.2721 29.0157 28.1444 29.1095 28.1015 29.2485L27.529 31.1019C27.5213 31.1504 27.4949 31.2045 27.4476 31.2619C27.4013 31.3203 27.3298 31.3501 27.2373 31.3501H26.6373H26.6406Z" fill="white"/>
<path d="M30.0951 22.8852C30.0555 22.8852 30.0027 22.9061 29.9839 22.9668L28.5825 27.5849C28.5715 27.6202 28.5781 27.6566 28.6001 27.6864C28.621 27.7162 28.6563 27.7327 28.6926 27.7327H31.4944C31.5318 27.7327 31.5648 27.7151 31.5869 27.6864C31.61 27.6566 31.6144 27.6191 31.6045 27.5849L30.2041 22.9668C30.1854 22.9061 30.1337 22.8852 30.0929 22.8852H30.0951ZM31.4955 27.7702H28.6937C28.6442 27.7702 28.6001 27.7471 28.5715 27.7085C28.5429 27.6698 28.5341 27.6202 28.5484 27.5739L29.9498 22.9558C29.9696 22.8907 30.0269 22.8477 30.0951 22.8477C30.1634 22.8477 30.2206 22.8907 30.2405 22.9558L31.6408 27.5739C31.6551 27.6202 31.6463 27.6698 31.6166 27.7085C31.5869 27.7471 31.5428 27.7702 31.4944 27.7702H31.4955ZM28.4174 28.9959H31.7751C31.9281 28.9959 32.0613 29.0952 32.1076 29.2419L32.68 31.0953C32.6944 31.1417 32.723 31.1946 32.7637 31.2509C32.8033 31.3061 32.865 31.3314 32.9531 31.3314H33.5508C33.6081 31.3314 33.6576 31.305 33.7006 31.2498C33.7446 31.1946 33.7655 31.1318 33.7655 31.0556C33.7655 31.0093 33.7578 30.9563 33.7424 30.899L30.8493 21.398C30.8184 21.3032 30.7777 21.227 30.7249 21.1708C30.6742 21.1178 30.5972 21.0891 30.4926 21.0891H29.6955C29.5898 21.0891 29.5139 21.1156 29.4632 21.1708C29.4104 21.2281 29.3674 21.3054 29.3377 21.398L26.4325 30.9001C26.4259 30.9563 26.4215 31.0093 26.4215 31.0556C26.4215 31.1306 26.4424 31.1946 26.4864 31.2498C26.5304 31.305 26.5789 31.3314 26.6361 31.3314H27.2339C27.322 31.3314 27.3858 31.305 27.4299 31.2498C27.4739 31.1946 27.5003 31.1439 27.508 31.0976L28.0816 29.2408C28.1267 29.0941 28.26 28.9948 28.4141 28.9948H28.4185L28.4174 28.9959ZM33.5508 31.3678H32.9531C32.8529 31.3678 32.7802 31.3358 32.7329 31.2719C32.6888 31.2112 32.658 31.156 32.6426 31.1064L32.0701 29.253C32.0305 29.1217 31.9105 29.0334 31.774 29.0334H28.4163C28.2787 29.0334 28.1598 29.1217 28.1201 29.253L27.5477 31.1064C27.54 31.156 27.5102 31.2134 27.4618 31.2741C27.4112 31.337 27.3363 31.3689 27.2361 31.3689H26.6383C26.5701 31.3689 26.5095 31.337 26.46 31.273C26.4105 31.2112 26.3862 31.1395 26.3862 31.0567C26.3862 31.0104 26.3906 30.9552 26.3972 30.8935L29.3025 21.3881C29.3333 21.2888 29.3785 21.2072 29.4357 21.1465C29.493 21.0847 29.5799 21.0527 29.6944 21.0527H30.4915C30.606 21.0527 30.694 21.0847 30.7513 21.1465C30.8074 21.2072 30.8515 21.2888 30.8845 21.3881L33.7776 30.8901C33.7941 30.9519 33.8019 31.006 33.8019 31.0556C33.8019 31.1384 33.7765 31.2123 33.7281 31.2741C33.6774 31.337 33.6169 31.3689 33.5497 31.3689H33.5475L33.5508 31.3678Z" fill="white"/>
<path d="M20.6892 30.9991L18.1373 26.6205C17.8984 26.2112 17.9039 25.7015 18.1516 25.2977L20.6639 21.197C20.9204 20.78 21.5248 20.78 21.7813 21.197L24.2979 25.3054C24.5434 25.707 24.5511 26.2101 24.3188 26.6172L21.8253 30.9936C21.5743 31.4327 20.9457 31.436 20.6903 30.9991H20.6892Z" fill="white"/>
<path d="M20.7054 30.9894C20.821 31.1868 21.0269 31.306 21.2548 31.306H21.2592C21.4904 31.306 21.6951 31.1846 21.8085 30.9838L24.302 26.6074C24.531 26.2047 24.5233 25.7105 24.2822 25.3144L21.7656 21.206C21.6478 21.0151 21.4452 20.9015 21.2228 20.9015C21.0005 20.9015 20.7979 21.0151 20.6801 21.206L18.1679 25.3067C17.9224 25.706 17.9169 26.2058 18.1536 26.6107L20.7054 30.9894ZM21.2548 31.3446C21.0126 31.3446 20.7946 31.2199 20.6735 31.0103L18.1216 26.6316C17.8794 26.2146 17.8838 25.7005 18.1359 25.289L20.6482 21.1884C20.7726 20.9865 20.9873 20.8662 21.2228 20.8662C21.4584 20.8662 21.6731 20.9865 21.7975 21.1884L24.3142 25.2967C24.563 25.7038 24.5718 26.2124 24.3351 26.6272L21.8416 31.0037C21.7205 31.2166 21.5025 31.3435 21.2592 31.3446H21.2548Z" fill="white"/>
<path d="M21.0653 29.2818L19.2279 26.1299C19.1894 26.0648 19.1905 25.9831 19.2301 25.9169L21.0466 22.9515C21.127 22.8202 21.3174 22.8202 21.3978 22.9515L23.2154 25.918C23.255 25.982 23.255 26.0626 23.2198 26.1277L21.4253 29.2785C21.3472 29.4164 21.149 29.4175 21.0697 29.2796H21.0675L21.0653 29.2818Z" fill="#1F1F1F"/>
<path d="M40.6955 25.6243C40.406 25.9464 39.9733 26.1086 39.3953 26.1086H37.6669C37.5018 26.1086 37.3686 25.9751 37.3686 25.8085V22.6037C37.3686 22.4382 37.5018 22.3036 37.6669 22.3036H39.3953C39.9887 22.3036 40.4258 22.4713 40.7076 22.8033C40.9894 23.1354 41.1292 23.6054 41.1292 24.2133C41.1292 24.8211 40.985 25.301 40.6955 25.6232V25.6243ZM41.9494 22.4735C41.7149 22.0079 41.3857 21.6593 40.9597 21.4232C40.5348 21.1882 40.0328 21.0713 39.4548 21.0713H37.1495C36.631 21.0713 36.2104 21.4927 36.2104 22.0123V31.0113C36.2104 31.1084 36.2336 31.1889 36.2798 31.2529C36.326 31.3169 36.3932 31.3478 36.4802 31.3478H37.1C37.1858 31.3478 37.2552 31.3158 37.3058 31.2529C37.3565 31.1889 37.3818 31.1084 37.3818 31.0113V27.6266C37.3818 27.4689 37.5095 27.3409 37.6669 27.3409H39.4548C40.0339 27.3409 40.5348 27.2228 40.9597 26.989C41.3846 26.754 41.716 26.4076 41.9494 25.9453C42.1839 25.4853 42.3006 24.9072 42.3006 24.2122C42.3006 23.5171 42.1828 22.9379 41.9494 22.4724V22.4735Z" fill="white"/>
<path d="M37.6682 22.3224C37.5141 22.3224 37.3886 22.4482 37.3886 22.6037V25.8086C37.3886 25.9641 37.5141 26.0899 37.6682 26.0899H39.3966C39.9658 26.0899 40.3995 25.9299 40.6835 25.6111C40.9676 25.2923 41.1129 24.8223 41.1129 24.2133C41.1129 23.6044 40.9731 23.1432 40.6957 22.8156C40.4193 22.4879 39.9823 22.3224 39.3988 22.3224H37.6693H37.6682ZM39.3966 26.1252H37.6682C37.4932 26.1252 37.3511 25.9818 37.3511 25.8064V22.6015C37.3511 22.4261 37.4943 22.2827 37.6682 22.2827H39.3966C39.9922 22.2827 40.4391 22.4526 40.7232 22.7891C41.0061 23.1234 41.1503 23.601 41.1503 24.2111C41.1503 24.8212 41.0028 25.3088 40.7122 25.6343C40.4204 25.9597 39.979 26.1252 39.3977 26.1252H39.3966ZM37.153 21.089C36.6422 21.089 36.2293 21.5038 36.2293 22.0113V31.0103C36.2293 31.1051 36.2502 31.1802 36.2965 31.2419C36.3405 31.3004 36.4 31.3302 36.4803 31.3302H37.1001C37.1805 31.3302 37.2432 31.3004 37.2906 31.2419C37.339 31.1813 37.3621 31.104 37.3621 31.0114V27.6267C37.3621 27.4579 37.4987 27.3222 37.666 27.3222H39.4538C40.0263 27.3222 40.5294 27.2042 40.95 26.9714C41.3705 26.7386 41.7008 26.3911 41.9331 25.9366C42.1653 25.482 42.282 24.9017 42.282 24.2122C42.282 23.5227 42.1642 22.9402 41.9331 22.4802C41.7008 22.0201 41.3716 21.6693 40.95 21.4387C40.5294 21.206 40.0263 21.0879 39.4538 21.0879H37.1519L37.153 21.089ZM37.1001 31.3677H36.4803C36.3879 31.3677 36.3163 31.3324 36.2657 31.2651C36.2161 31.1978 36.1919 31.114 36.1919 31.0125V22.0135C36.1919 21.484 36.6212 21.0537 37.1497 21.0537H39.4549C40.034 21.0537 40.5426 21.1729 40.9698 21.4078C41.3969 21.6428 41.7327 21.9992 41.9672 22.4658C42.2017 22.9314 42.3206 23.5194 42.3206 24.2133C42.3206 24.9073 42.2017 25.4942 41.9672 25.9542C41.7327 26.4154 41.3969 26.7684 40.9698 27.0056C40.5426 27.2406 40.034 27.3597 39.4549 27.3597H37.6671C37.5207 27.3597 37.4007 27.48 37.4007 27.6267V31.0114C37.4007 31.1129 37.3743 31.1989 37.3203 31.2651C37.2653 31.3335 37.1926 31.3677 37.1001 31.3677Z" fill="white"/>
</g>
<defs>
<clipPath id="clip0_11343_531">
<rect width="51" height="64" fill="white"/>
</clipPath>
</defs>
</svg>
