<svg width="719" height="431" viewBox="0 0 719 431" fill="none" xmlns="http://www.w3.org/2000/svg">
<g clip-path="url(#clip0_10869_16601)">
<path d="M35.7549 120.957L61.2672 120.774C61.4247 121.809 61.6595 122.817 61.9613 123.798L36.7806 129.175C36.4445 129.247 36.2469 129.596 36.3586 129.922L39.2587 138.369C39.3675 138.686 39.7237 138.842 40.0307 138.707L63.897 128.229C68.1103 135.472 76.482 140.173 85.8466 139.66C96.883 139.054 105.76 131.399 107.793 121.611C107.862 121.292 107.919 120.968 107.97 120.644C106.115 121.021 103.727 121.708 100.765 122.921C96.3607 124.716 89.2954 125.465 88.0612 120.732C86.8649 116.169 90.8983 114.101 96.4277 114.527C102.47 114.992 105.971 114.514 108.016 114.264C106.37 102.952 95.7519 94.57 83.4121 95.2463C71.448 95.9026 62.0318 104.842 61.1029 115.8L36.5384 110.919C36.2016 110.852 35.8821 111.095 35.8557 111.437L35.1794 120.343C35.1542 120.677 35.4193 120.962 35.7544 120.96L35.7549 120.957Z" fill="black"/>
<path d="M96.4292 114.525C90.8999 114.1 86.8664 116.168 88.0628 120.731C89.2975 125.464 96.3628 124.715 100.766 122.919C103.728 121.707 106.116 121.02 107.971 120.643C108.207 119.185 108.291 117.683 108.207 116.156C108.177 115.613 108.125 115.077 108.056 114.547C108.045 114.45 108.029 114.359 108.018 114.262C105.973 114.512 102.471 114.991 96.4292 114.525V114.525Z" fill="white"/>
<path d="M621.529 30C618.568 30 615.648 30.1489 612.767 30.441C612.698 30.4238 612.635 30.4181 612.567 30.4295L611.713 30.5555C609.755 30.7731 607.819 31.0652 605.901 31.4146L452.505 54.076C452.224 54.1218 452.018 54.3623 452.018 54.6429V56.3038L360.485 69.825L360.353 68.9946C359.935 66.406 358.532 64.1382 356.407 62.6034C354.277 61.0686 351.682 60.4558 349.094 60.8738C345.045 61.5267 341.975 64.5849 341.105 68.3475C339.221 64.6422 335.091 62.3972 330.779 63.0959C328.191 63.5197 325.923 64.917 324.388 67.0475C323.609 68.1241 323.071 69.321 322.779 70.581C322.08 69.1893 321.055 67.981 319.76 67.0475C317.636 65.5184 315.042 64.9056 312.459 65.3237C307.917 66.0624 304.607 69.8307 304.263 74.2233C303.439 73.3013 302.437 72.5396 301.297 71.9783C298.949 70.8209 296.292 70.6497 293.812 71.4858C291.332 72.3277 289.333 74.0858 288.177 76.4339C287.174 78.4612 286.905 80.7234 287.398 82.8996L237.041 90.3446L237.035 90.3331L237.001 90.3503L225.507 92.0455C225.117 89.5027 223.68 87.1833 221.441 85.6943C217.879 83.3291 213.091 83.7586 209.809 86.7366L208.681 87.756C208.303 87.4296 207.902 87.1375 207.484 86.8798C204.117 84.8181 199.827 85.1445 196.803 87.6873L193.717 90.293C190.132 93.3226 187.228 96.3979 184.737 99.9314L121.059 109.341L120.899 109.335C116.684 109.335 113.248 112.554 113.248 116.511C113.248 120.399 116.569 123.578 120.687 123.681C120.727 123.698 120.773 123.71 120.819 123.715L150.576 128.114L98.6841 150.792L98.7013 150.838L50.452 175.309C29.543 185.91 15.3631 206.137 12.5226 229.406C9.67629 252.68 18.5759 275.719 36.3179 291.045C49.0832 302.069 65.5195 308.111 82.2765 308.111C84.6073 308.111 86.9497 307.991 89.2862 307.756C108.403 305.814 126.093 295.97 137.816 280.742C137.994 280.513 138.171 280.278 138.343 280.043L139.38 278.611L194.221 318.053L24.1482 317.927C22.8826 317.927 21.8517 318.952 21.8517 320.218V430.426C21.8517 431.022 22.6535 431.223 22.9341 430.696L41.0026 397.004V397.084H238.41C253.042 397.084 266.769 392.44 278.097 383.649C288.423 375.637 296.022 364.75 300.077 352.162C304.137 339.575 304.321 326.294 300.615 313.763C296.549 300.019 288.119 288.233 276.236 279.688L219.207 238.672L300.14 214.109C313.684 210.003 328.603 215.369 336.426 227.166L448.515 396.237C448.94 396.878 449.657 397.262 450.425 397.262H565.091C565.687 397.262 565.881 396.552 565.36 396.3L533.1 380.792L402.297 183.494C398.483 177.744 394.205 172.412 389.498 167.544L452.019 176.776V178.431C452.019 178.717 452.225 178.958 452.505 178.998L608.375 202.014L612.155 202.576C612.184 202.581 612.212 202.581 612.241 202.581C612.315 202.581 612.395 202.564 612.464 202.536C615.442 202.851 618.466 203.011 621.53 203.011C669.229 203.011 708.035 164.205 708.035 116.506C708.035 68.8062 669.229 30.0006 621.53 30.0006L621.529 30ZM88.6334 243.231C86.8466 245.407 84.6188 246.06 83.0382 246.22C81.406 246.386 78.9892 246.174 76.7443 244.233C73.961 241.827 73.6689 238.918 73.9152 236.902C74.1614 234.892 75.1407 232.137 78.4223 230.471L109.233 214.854L88.6334 243.231ZM349.283 62.0536C349.752 61.9734 350.216 61.939 350.68 61.939C352.478 61.939 354.225 62.5003 355.708 63.5712C357.575 64.917 358.807 66.91 359.173 69.1836L359.305 70.0025L359.397 70.5638L359.488 71.1307L359.986 74.1832C360.353 76.4568 359.815 78.7361 358.463 80.6031C357.117 82.4701 355.124 83.7013 352.851 84.0736C348.16 84.8295 343.722 81.6282 342.96 76.9379L342.943 76.8405L342.926 76.726L342.428 73.6506L342.336 73.0894L342.244 72.5224L342.153 71.944C342.136 71.8294 342.118 71.7092 342.101 71.5946C341.551 67.0303 344.707 62.7924 349.283 62.0536ZM312.642 66.469C313.112 66.3889 313.581 66.3545 314.045 66.3545C315.843 66.3545 317.59 66.9157 319.079 67.9867C320.952 69.3382 322.189 71.3369 322.555 73.6162L322.584 73.8052L323.202 77.6079L323.294 78.1749L323.363 78.6101C323.368 78.6559 323.374 78.696 323.38 78.7418C323.403 78.8736 323.42 79.0053 323.431 79.1313C323.649 81.233 323.088 83.3176 321.845 85.0472C320.494 86.9199 318.495 88.1512 316.216 88.5177C313.936 88.8899 311.651 88.3516 309.778 87.0001C309.263 86.6278 308.799 86.2097 308.387 85.7459C308.175 85.5111 307.974 85.2648 307.791 85.0071C307.682 84.8519 307.574 84.6921 307.476 84.5318C307.31 84.2683 307.161 83.9877 307.03 83.7071C306.692 82.9969 306.445 82.2352 306.314 81.4392C306.308 81.4163 306.308 81.3934 306.302 81.3705L306.285 81.2674L306.193 80.7004L306.102 80.1398L305.752 77.975L305.495 76.3772C305.466 76.1939 305.443 76.0049 305.42 75.8217C304.991 71.3318 308.129 67.2027 312.642 66.4696V66.469ZM289.213 76.9436C290.232 74.8762 292.002 73.3299 294.184 72.5854C296.372 71.8466 298.714 71.9955 300.787 73.0206C302.253 73.7422 303.462 74.8418 304.304 76.2048C304.321 76.3251 304.338 76.4396 304.355 76.5599L304.962 80.3053L288.549 82.7335C288.091 80.7863 288.32 78.7647 289.213 76.9436ZM225.616 93.1909L227.969 92.8415C227.122 93.2023 226.314 93.6834 225.587 94.2904C225.621 93.9239 225.627 93.5574 225.616 93.1909ZM170.861 129.946L152.563 127.249L121.185 122.61C121.099 122.564 121.002 122.541 120.899 122.541C117.314 122.541 114.393 119.833 114.393 116.511C114.393 113.189 117.314 110.48 120.899 110.48L121.099 110.486C121.122 110.486 121.151 110.486 121.179 110.48L183.861 101.22C181.518 104.776 179.531 108.82 177.635 113.722C177.406 114.317 177.091 115.36 176.759 116.671C176.261 118.618 175.723 121.173 175.345 123.773L170.861 129.946ZM231.978 141.417C231.887 141.595 231.795 141.772 231.703 141.955C229.75 145.781 228.067 149.749 226.669 153.815C226.44 154.474 226.223 155.138 226.011 155.808C225.616 157.057 224.94 158.168 224.052 159.073L219.717 155.929L189.267 133.829L187.262 132.374L176.404 124.487C176.817 121.446 177.469 118.297 178.076 116.097C178.294 115.301 178.512 114.631 178.701 114.133C180.711 108.922 182.836 104.695 185.395 100.996C185.539 100.778 185.693 100.56 185.848 100.348C186.003 100.131 186.157 99.9131 186.323 99.6955C188.614 96.6087 191.254 93.8655 194.455 91.1681L197.542 88.5624C200.188 86.3346 203.939 86.054 206.889 87.8579C207.244 88.0756 207.582 88.3218 207.902 88.5967C207.903 88.5967 207.903 88.5979 207.904 88.5984L205.345 91.0753C203.551 92.8123 201.827 94.6323 200.181 96.5193C198.385 98.5782 196.682 100.717 195.086 102.925C194.947 103.121 194.948 103.373 195.067 103.565C195.104 103.626 195.153 103.681 195.215 103.726C195.316 103.799 195.434 103.834 195.549 103.834C195.688 103.834 195.817 103.77 195.924 103.673C195.954 103.646 195.99 103.629 196.014 103.596C196.383 103.085 196.758 102.578 197.139 102.074C198.926 99.7104 200.841 97.4334 202.86 95.2577C203.866 94.1736 204.896 93.1135 205.953 92.0844C206.017 92.0226 206.079 91.959 206.142 91.8977L206.144 91.896L209.172 88.9655C209.242 88.8979 209.284 88.8149 209.312 88.7279L209.318 88.7221L210.578 87.5825C213.476 84.9538 217.679 84.5701 220.812 86.649C222.776 87.9547 224.03 89.9935 224.374 92.2156C224.408 92.4046 224.431 92.5935 224.443 92.7825C224.466 92.9715 224.471 93.1605 224.471 93.3552C224.489 94.0654 224.403 94.7755 224.225 95.4856L221.471 98.1544C219.128 100.417 216.903 102.817 214.813 105.338C212.98 107.551 211.255 109.861 209.639 112.247C209.441 112.54 209.238 112.829 209.043 113.124C208.954 113.259 208.929 113.414 208.958 113.558C208.965 113.59 208.984 113.618 208.996 113.649C209.01 113.686 209.02 113.726 209.042 113.76C209.059 113.786 209.087 113.804 209.109 113.827C209.139 113.859 209.165 113.895 209.203 113.921C209.235 113.941 209.269 113.953 209.303 113.968C209.372 113.996 209.445 114.016 209.518 114.016C209.657 114.016 209.793 113.965 209.9 113.87C209.935 113.838 209.967 113.802 209.994 113.761C211.602 111.325 213.335 108.977 215.171 106.72C217.284 104.12 219.537 101.646 221.919 99.3192C222.036 99.2053 222.149 99.0873 222.267 98.9739L225.01 96.3166C225.05 96.2994 225.084 96.2817 225.119 96.2479L226.023 95.4232C226.264 95.2056 226.522 94.9994 226.785 94.8104C227.782 94.0946 228.91 93.6135 230.078 93.373C232.197 92.9377 234.459 93.2813 236.366 94.4611C239.43 96.5228 240.724 100.348 239.573 103.842C239.573 103.842 239.573 103.843 239.573 103.844C238.863 104.267 238.211 104.781 237.635 105.386L234.731 108.445C232.557 110.734 230.501 113.144 228.578 115.657C226.656 118.171 224.867 120.787 223.223 123.491C223.057 123.76 223.143 124.109 223.412 124.275C223.42 124.281 223.429 124.282 223.437 124.287C223.524 124.334 223.616 124.359 223.709 124.359C223.899 124.359 224.083 124.263 224.192 124.093C224.193 124.09 224.195 124.089 224.197 124.086C225.821 121.418 227.589 118.835 229.488 116.353C231.387 113.872 233.416 111.494 235.562 109.234L238.465 106.176C238.632 106 238.818 105.846 238.999 105.688C239.246 105.473 239.505 105.275 239.772 105.089C239.899 104.999 240.025 104.908 240.158 104.827H240.164C240.187 104.821 240.215 104.815 240.238 104.804C241.16 104.437 242.134 104.248 243.113 104.237C244.659 104.208 246.2 104.615 247.54 105.434C249.705 106.763 251.114 108.967 251.406 111.487C251.686 113.938 250.873 116.338 249.172 118.102C249.121 118.159 249.069 118.211 249.018 118.262C242.306 124.888 236.647 132.545 232.261 140.884C232.163 141.061 232.072 141.239 231.98 141.416L231.978 141.417ZM331.169 135.788V155.488L260.974 145.123L257.171 144.561L233.456 141.062C237.728 133.033 243.197 125.651 249.663 119.237C249.715 119.185 249.766 119.134 249.818 119.082C251.879 117.049 252.87 114.232 252.538 111.362C252.211 108.487 250.602 105.973 248.14 104.461C246.473 103.442 244.532 102.984 242.619 103.11C242.035 103.15 241.456 103.242 240.889 103.391C241.222 101.97 241.21 100.527 240.889 99.1583C240.637 98.0473 240.173 96.9878 239.526 96.0371C238.868 95.0578 238.014 94.1931 236.984 93.5001C235.741 92.7327 234.366 92.2688 232.969 92.1085H232.929L232.998 92.097L237.516 91.427L287.713 84.0106L288.303 83.9247L288.875 83.8388L305.145 81.4392L305.163 81.5595C305.443 83.2947 306.171 84.8525 307.213 86.1353C307.373 86.3415 307.545 86.5419 307.734 86.7309C307.894 86.9084 308.072 87.0802 308.249 87.2349V87.2406C310.013 88.8384 312.344 89.7891 314.83 89.7891C315.345 89.7891 315.872 89.749 316.399 89.6631C320.413 89.0159 323.46 86.0036 324.359 82.2868C325.041 83.6836 326.06 84.8925 327.354 85.826C328.511 86.6564 329.811 87.2119 331.169 87.4697V135.788ZM331.741 86.3586C331.547 86.33 331.358 86.2957 331.169 86.2498C330.057 86.015 328.998 85.5454 328.047 84.8582C326.238 83.5524 325.041 81.6167 324.68 79.4062L324.542 78.57L324.451 78.0031L324.359 77.4361L323.832 74.166C323.071 69.4699 326.272 65.0316 330.968 64.2699C331.438 64.1955 331.902 64.1611 332.365 64.1611C334.164 64.1611 335.91 64.7223 337.394 65.7933C339.261 67.1391 340.492 69.1321 340.864 71.4056L340.91 71.7034C340.916 71.7149 340.916 71.7263 340.916 71.7378C340.933 71.8695 340.95 72.0012 340.973 72.133L341.065 72.6942L341.156 73.2612L341.248 73.8281L341.752 76.9608L341.758 76.9894C342.296 81.422 339.226 85.534 334.782 86.2556L334.29 86.3357C333.631 86.4445 332.967 86.4675 332.314 86.4216C332.125 86.4102 331.93 86.3873 331.741 86.3586ZM452.018 175.618L388.18 166.192L332.314 157.939V87.6128C332.514 87.63 332.721 87.6357 332.927 87.6357C333.442 87.6357 333.963 87.5957 334.479 87.5098L334.971 87.4296C338.929 86.7939 341.929 83.7987 342.771 80.1106C344.444 83.3005 347.788 85.3793 351.465 85.3793C351.986 85.3793 352.513 85.3335 353.04 85.2476C358.383 84.3829 362.031 79.3317 361.16 73.9885L360.668 70.9532L452.018 57.4606V175.618ZM453.163 177.938V55.1412L594.876 34.2036C560.177 45.4627 535.024 78.1004 535.024 116.505C535.024 154.91 560.331 187.748 595.197 198.91L453.163 177.938ZM621.529 201.865C618.586 201.865 615.682 201.716 612.813 201.424C612.624 201.401 612.429 201.384 612.24 201.361C612.051 201.344 611.856 201.321 611.667 201.298C610.619 201.178 609.583 201.04 608.546 200.88C567.616 194.609 536.169 159.159 536.169 116.505C536.169 74.7101 566.356 39.8388 606.078 32.5485C608.019 32.1934 609.978 31.9013 611.96 31.678C612 31.6723 612.034 31.6722 612.074 31.6665C612.269 31.6436 612.458 31.6264 612.653 31.6035C612.847 31.5864 613.036 31.5634 613.225 31.5463C615.957 31.2828 618.729 31.1454 621.529 31.1454C668.599 31.1454 706.889 69.4356 706.889 116.505C706.889 163.575 668.599 201.865 621.529 201.865Z" fill="black"/>
<path d="M304.962 80.3053L304.355 76.5599C304.337 76.4396 304.32 76.3251 304.303 76.2048C303.461 74.8418 302.253 73.7422 300.787 73.0206C298.714 71.9955 296.371 71.8466 294.184 72.5854C292.002 73.3299 290.232 74.8762 289.213 76.9436C288.319 78.7647 288.09 80.7863 288.548 82.7335L304.962 80.3053Z" fill="white"/>
<path d="M535.023 116.505C535.023 78.0998 560.175 45.4626 594.875 34.2035L453.162 55.1411V177.938L595.195 198.91C560.33 187.748 535.023 155.03 535.023 116.505Z" fill="white"/>
<path d="M621.53 31.1455C618.729 31.1455 615.957 31.2829 613.226 31.5464C613.037 31.5636 612.848 31.5865 612.653 31.6037C612.458 31.6266 612.269 31.6437 612.075 31.6666C612.034 31.6724 612 31.6724 611.96 31.6781C609.978 31.9015 608.02 32.1935 606.078 32.5486C566.356 39.839 536.17 74.7102 536.17 116.505C536.17 159.159 567.616 194.609 608.547 200.88C609.583 201.04 610.62 201.178 611.668 201.298C611.857 201.321 612.052 201.344 612.241 201.361C612.43 201.384 612.624 201.401 612.813 201.424C615.682 201.716 618.586 201.865 621.53 201.865C668.599 201.865 706.889 163.569 706.889 116.505C706.889 69.4414 668.599 31.1455 621.53 31.1455ZM621.53 193.343C618.592 193.343 615.688 193.177 612.836 192.851C612.642 192.834 612.453 192.811 612.264 192.782C612.069 192.765 611.88 192.742 611.691 192.713C573.956 187.868 544.709 155.546 544.709 116.517C544.709 77.4877 574.145 44.9646 612.052 40.2799C612.241 40.2513 612.435 40.2284 612.63 40.2112C612.819 40.1883 613.008 40.1654 613.203 40.1425C615.94 39.8504 618.718 39.6958 621.53 39.6958C663.892 39.6958 698.351 74.1604 698.351 116.517C698.351 158.873 663.892 193.343 621.53 193.343Z" fill="white"/>
<path d="M621.529 40.8411C618.717 40.8411 615.934 40.9957 613.202 41.2935C613.007 41.3164 612.818 41.3393 612.629 41.3622C612.435 41.3851 612.246 41.408 612.051 41.4309C574.78 46.1098 545.854 77.9973 545.854 116.517C545.854 155.036 574.597 186.723 611.69 191.562C611.879 191.585 612.074 191.608 612.263 191.637C612.452 191.66 612.647 191.677 612.836 191.705C615.688 192.032 618.591 192.198 621.529 192.198C663.255 192.198 697.205 158.249 697.205 116.517C697.205 74.7845 663.255 40.8411 621.529 40.8411ZM675.889 116.992C675.837 117.061 675.78 117.141 675.717 117.221C673.077 120.669 663.152 132.449 646.252 139.207C642.02 140.908 637.582 142.173 633.057 142.964C631.677 143.21 630.251 143.416 628.814 143.571C626.46 143.834 624.009 143.966 621.529 143.966C620.659 143.966 619.782 143.949 618.929 143.914C616.942 143.84 614.943 143.674 612.956 143.41C612.767 143.393 612.572 143.364 612.383 143.342C612.188 143.313 611.994 143.284 611.805 143.256C611.203 143.17 610.602 143.072 610.006 142.969C605.482 142.179 601.044 140.913 596.812 139.212C579.952 132.466 569.993 120.674 567.347 117.215C567.284 117.141 567.221 117.061 567.169 116.986L567.083 116.866C566.929 116.671 566.923 116.396 567.066 116.19C567.106 116.139 567.146 116.081 567.198 116.018L567.335 115.829C569.993 112.365 579.952 100.567 596.812 93.8208C601.107 92.1028 605.551 90.8428 610.024 90.0697C610.659 89.9552 611.295 89.8521 611.937 89.7662C612.126 89.7318 612.32 89.7089 612.509 89.686C612.698 89.6574 612.893 89.6287 613.082 89.6058C615.041 89.3596 617.016 89.1992 618.981 89.1305C619.817 89.0961 620.676 89.0789 621.529 89.0789C624.009 89.0789 626.46 89.2107 628.814 89.4684C630.326 89.6344 631.706 89.8292 633.04 90.0697C637.484 90.8371 641.928 92.097 646.252 93.8208C663.158 100.59 673.083 112.37 675.717 115.818L675.866 116.018C675.918 116.081 675.958 116.139 675.998 116.19C676.141 116.396 676.135 116.671 675.981 116.872L675.889 116.992Z" fill="#5474F6"/>
<path d="M621.526 39.6957C618.714 39.6957 615.937 39.8503 613.199 40.1424C613.004 40.1653 612.815 40.1882 612.626 40.2111C612.432 40.2283 612.237 40.2512 612.048 40.2798C574.141 44.9644 544.705 77.3674 544.705 116.517C544.705 155.666 573.952 187.868 611.687 192.713C611.876 192.742 612.065 192.765 612.26 192.782C612.449 192.811 612.638 192.834 612.833 192.851C615.685 193.177 618.588 193.343 621.526 193.343C663.888 193.343 698.347 158.879 698.347 116.517C698.347 74.1546 663.888 39.6957 621.526 39.6957ZM621.526 192.198C618.588 192.198 615.685 192.032 612.833 191.705C612.644 191.677 612.449 191.66 612.26 191.637C612.071 191.608 611.876 191.585 611.687 191.562C574.594 186.723 545.85 154.916 545.85 116.517C545.85 78.1176 574.777 46.1098 612.048 41.4309C612.243 41.408 612.432 41.3851 612.626 41.3622C612.815 41.3393 613.004 41.3164 613.199 41.2935C615.931 40.9957 618.714 40.8411 621.526 40.8411C663.252 40.8411 697.202 74.7903 697.202 116.517C697.202 158.243 663.252 192.198 621.526 192.198Z" fill="black"/>
<path d="M177.637 113.722C179.533 108.82 181.52 104.776 183.862 101.22L121.181 110.48C121.152 110.486 121.124 110.486 121.101 110.486L120.9 110.48C117.315 110.48 114.395 113.189 114.395 116.511C114.395 119.832 117.315 122.541 120.9 122.541C121.003 122.541 121.101 122.564 121.187 122.61L152.564 127.249L170.862 129.946L175.346 123.773C175.724 121.173 176.262 118.618 176.761 116.671C177.093 115.36 177.408 114.317 177.637 113.722Z" fill="white"/>
<path d="M227.968 92.8416L225.615 93.1909C225.626 93.5574 225.62 93.9239 225.586 94.2905C226.313 93.6834 227.121 93.2023 227.968 92.8416Z" fill="white"/>
<path d="M324.358 82.2867C323.459 86.0035 320.412 89.0158 316.398 89.663C315.871 89.7489 315.344 89.7889 314.828 89.7889C312.343 89.7889 310.012 88.8383 308.248 87.2405V87.2347C308.071 87.0801 307.893 86.9083 307.733 86.7308C307.544 86.5418 307.372 86.3413 307.212 86.1352C306.169 84.8523 305.442 83.2946 305.161 81.5594L305.144 81.4391L288.874 83.8387L288.301 83.9246L287.711 84.0105L237.515 91.4268L232.996 92.0969L232.928 92.1083H232.968C234.365 92.2687 235.74 92.7326 236.982 93.5C238.013 94.1929 238.867 95.0577 239.525 96.037C240.172 96.9877 240.636 98.0472 240.888 99.1582C241.209 100.527 241.22 101.97 240.888 103.39C241.455 103.241 242.034 103.15 242.618 103.11C244.53 102.984 246.472 103.442 248.138 104.461C250.601 105.973 252.21 108.487 252.537 111.362C252.869 114.231 251.878 117.049 249.816 119.082C249.765 119.134 249.713 119.185 249.662 119.237C243.196 125.651 237.727 133.033 233.455 141.062L257.17 144.561L260.972 145.122L331.167 155.488V87.4695C329.81 87.2118 328.51 86.6563 327.353 85.8259C326.059 84.8924 325.04 83.684 324.358 82.2867Z" fill="white"/>
<path d="M361.161 73.9885C362.031 79.3317 358.383 84.3828 353.04 85.2476C352.513 85.3335 351.986 85.3793 351.465 85.3793C347.789 85.3793 344.444 83.3005 342.772 80.1106C341.93 83.7987 338.929 86.7939 334.972 87.4296L334.479 87.5097C333.964 87.5956 333.443 87.6357 332.927 87.6357C332.721 87.6357 332.515 87.63 332.314 87.6128V157.939L388.181 166.192L452.019 175.618V57.4606L360.668 70.9532L361.161 73.9885Z" fill="white"/>
<path d="M334.29 86.3358L334.783 86.2556C339.227 85.534 342.296 81.4221 341.758 76.9894L341.752 76.9608L341.248 73.8282L341.157 73.2612L341.065 72.6942L340.973 72.133C340.951 72.0013 340.933 71.8696 340.916 71.7378C340.916 71.7264 340.916 71.7149 340.91 71.7035L340.865 71.4057C340.492 69.1321 339.261 67.1391 337.394 65.7933C335.911 64.7224 334.164 64.1611 332.366 64.1611C331.902 64.1611 331.438 64.1955 330.969 64.2699C326.272 65.0316 323.071 69.47 323.833 74.1661L324.36 77.4361L324.451 78.0031L324.543 78.5701L324.68 79.4062C325.041 81.6168 326.238 83.5525 328.048 84.8582C328.998 85.5455 330.058 86.0151 331.169 86.2499C331.358 86.2957 331.547 86.33 331.742 86.3587C331.931 86.3873 332.125 86.4102 332.314 86.4217C332.967 86.4675 333.632 86.4446 334.29 86.3358Z" fill="white"/>
<path d="M342.151 71.9441L342.242 72.5226L342.334 73.0895L342.426 73.6508L342.924 76.7261L342.941 76.8407L342.958 76.938C343.72 81.6284 348.158 84.8297 352.849 84.0738C355.122 83.7015 357.115 82.4702 358.461 80.6032C359.813 78.7363 360.351 76.457 359.984 74.1834L359.486 71.1309L359.395 70.564L359.303 70.0027L359.171 69.1838C358.805 66.9102 357.573 64.9172 355.706 63.5714C354.223 62.5005 352.476 61.9392 350.678 61.9392C350.214 61.9392 349.75 61.9736 349.281 62.0538C344.705 62.7925 341.549 67.0304 342.099 71.5948C342.116 71.7093 342.134 71.8296 342.151 71.9441Z" fill="white"/>
<path d="M305.493 76.3766L305.75 77.9744L306.1 80.1392L306.191 80.6998L306.283 81.2668L306.3 81.3699C306.306 81.3928 306.306 81.4157 306.312 81.4386C306.443 82.2347 306.69 82.9963 307.027 83.7065C307.159 83.9871 307.308 84.2677 307.474 84.5311C307.571 84.6915 307.68 84.8518 307.789 85.0065C307.972 85.2642 308.173 85.5104 308.385 85.7452C308.797 86.2091 309.261 86.6272 309.776 86.9994C311.649 88.351 313.934 88.8893 316.213 88.5171C318.493 88.1506 320.491 86.9193 321.843 85.0466C323.086 83.317 323.647 81.2324 323.429 79.1307C323.418 79.0047 323.401 78.8729 323.378 78.7412C323.372 78.6954 323.366 78.6553 323.361 78.6095L323.292 78.1743L323.2 77.6073L322.582 73.8046L322.553 73.6156C322.187 71.3363 320.95 69.3376 319.077 67.9861C317.588 66.9151 315.841 66.3539 314.043 66.3539C313.579 66.3539 313.109 66.3883 312.64 66.4684C308.127 67.2015 304.989 71.3306 305.418 75.8205C305.441 76.0038 305.464 76.1927 305.493 76.376V76.3766Z" fill="white"/>
<path d="M249.17 118.103C250.87 116.339 251.684 113.939 251.403 111.488C251.111 108.968 249.702 106.764 247.537 105.435C246.197 104.616 244.657 104.209 243.11 104.238C242.131 104.25 241.158 104.439 240.236 104.805C240.213 104.816 240.184 104.822 240.161 104.828C240.159 104.828 240.158 104.828 240.156 104.828C240.022 104.908 239.896 105 239.769 105.089C239.502 105.276 239.243 105.473 238.996 105.689C238.815 105.847 238.63 106.001 238.462 106.177L235.559 109.234C233.412 111.494 231.383 113.873 229.485 116.354C227.586 118.835 225.819 121.418 224.196 124.085C224.193 124.088 224.19 124.09 224.189 124.094C224.08 124.265 223.896 124.36 223.706 124.36C223.613 124.36 223.52 124.335 223.434 124.288C223.426 124.283 223.417 124.282 223.409 124.277C223.138 124.113 223.052 123.761 223.217 123.49C224.862 120.788 226.652 118.172 228.575 115.659C230.498 113.146 232.553 110.736 234.728 108.446L237.631 105.388C238.208 104.782 238.86 104.268 239.569 103.845L239.57 103.843C240.721 100.35 239.427 96.5245 236.363 94.4628C234.456 93.283 232.194 92.9394 230.075 93.3747C228.907 93.6152 227.778 94.0963 226.782 94.8121C226.518 95.0011 226.261 95.2073 226.02 95.4249L225.115 96.2496C225.083 96.2817 225.045 96.3028 225.008 96.3194L222.26 98.9785C222.144 99.0907 222.031 99.2075 221.915 99.3209C219.533 101.648 217.28 104.122 215.167 106.721C213.333 108.978 211.601 111.326 209.993 113.761C209.965 113.803 209.933 113.84 209.897 113.872C209.79 113.967 209.654 114.017 209.515 114.017C209.442 114.017 209.369 113.998 209.299 113.969C209.265 113.956 209.231 113.944 209.2 113.923C209.161 113.898 209.135 113.862 209.106 113.83C209.084 113.806 209.056 113.788 209.039 113.763C209.016 113.729 209.007 113.689 208.992 113.651C208.98 113.62 208.961 113.592 208.955 113.56C208.925 113.417 208.95 113.261 209.037 113.129C209.232 112.833 209.436 112.543 209.635 112.249C211.252 109.863 212.976 107.553 214.809 105.341C216.899 102.818 219.122 100.416 221.464 98.1544L224.221 95.4856C224.398 94.776 224.484 94.0665 224.467 93.3569C224.467 93.1622 224.461 92.9732 224.438 92.7842C224.427 92.5952 224.404 92.4062 224.37 92.2173C224.026 89.9952 222.772 87.9564 220.808 86.6507C217.675 84.5718 213.471 84.9555 210.574 87.5842L209.314 88.7238L209.307 88.7296C209.279 88.8166 209.238 88.8991 209.168 88.9672L206.14 91.8977L206.138 91.8994C206.074 91.9607 206.013 92.0243 205.949 92.0861C204.892 93.1158 203.861 94.1753 202.855 95.2594C200.837 97.4351 198.922 99.7115 197.135 102.076C196.754 102.58 196.379 103.087 196.01 103.598C195.986 103.632 195.949 103.648 195.92 103.675C195.813 103.771 195.685 103.835 195.545 103.835C195.429 103.835 195.312 103.8 195.211 103.727C195.15 103.683 195.101 103.628 195.063 103.567C194.942 103.376 194.941 103.122 195.082 102.928C196.676 100.72 198.38 98.5804 200.177 96.521C201.823 94.634 203.547 92.8134 205.341 91.077L207.9 88.6001L207.898 88.5984C207.578 88.3235 207.24 88.0773 206.885 87.8596C203.935 86.0557 200.184 86.3363 197.538 88.5641L194.452 91.1698C191.25 93.8672 188.61 96.6104 186.319 99.6972C186.153 99.9148 185.999 100.132 185.844 100.35C185.689 100.562 185.535 100.78 185.392 100.997C182.832 104.697 180.707 108.923 178.697 114.135C178.508 114.633 178.29 115.303 178.073 116.099C177.466 118.298 176.813 121.448 176.4 124.489L187.259 132.376L189.263 133.83L219.713 155.93L224.048 159.074C224.936 158.17 225.612 157.059 226.007 155.81C226.219 155.14 226.437 154.476 226.666 153.817C228.063 149.751 229.747 145.782 231.7 141.957C231.791 141.773 231.883 141.596 231.974 141.419C232.066 141.241 232.158 141.064 232.255 140.886C236.642 132.548 242.3 124.891 249.012 118.265C249.064 118.213 249.115 118.162 249.167 118.105L249.17 118.103Z" fill="white"/>
<path d="M612.496 95.7164C612.679 95.4644 612.874 95.2124 613.069 94.9604C614.346 93.3111 615.783 91.7705 617.364 90.356C615.932 90.4419 614.501 90.5793 613.08 90.7683C612.891 90.7855 612.702 90.8141 612.508 90.8427C612.319 90.8657 612.124 90.8943 611.929 90.9229C611.357 91.0031 610.784 91.1005 610.217 91.1978C605.824 91.9595 601.455 93.1965 597.234 94.8802C580.643 101.523 570.856 113.12 568.25 116.511V116.517C570.856 119.918 580.649 131.515 597.234 138.153C601.392 139.819 605.756 141.062 610.2 141.841C610.732 141.933 611.271 142.019 611.809 142.099C611.998 142.127 612.193 142.156 612.382 142.185C612.576 142.213 612.765 142.236 612.954 142.259C614.403 142.454 615.858 142.591 617.318 142.683C615.715 141.245 614.26 139.67 612.966 137.987C612.771 137.735 612.576 137.483 612.393 137.225C612.198 136.956 612.009 136.692 611.82 136.418C607.852 130.628 605.681 123.738 605.681 116.545C605.681 109.283 607.886 102.342 611.918 96.5296C612.101 96.2547 612.296 95.9855 612.496 95.7164Z" fill="white"/>
<path d="M675.996 116.19C675.956 116.139 675.916 116.081 675.864 116.018L675.715 115.818C673.081 112.37 663.156 100.59 646.25 93.8208C641.927 92.097 637.482 90.837 633.038 90.0696C631.704 89.8291 630.324 89.6344 628.812 89.4683C626.458 89.2106 624.007 89.0789 621.527 89.0789C620.674 89.0789 619.815 89.0961 618.979 89.1304C617.014 89.1991 615.039 89.3595 613.08 89.6057C612.891 89.6286 612.696 89.6573 612.507 89.6859C612.318 89.7088 612.124 89.7317 611.935 89.7661C611.293 89.852 610.658 89.9551 610.022 90.0696C605.549 90.8428 601.105 92.1027 596.81 93.8208C579.95 100.567 569.991 112.365 567.333 115.829L567.196 116.018C567.144 116.081 567.104 116.139 567.064 116.19C566.921 116.396 566.927 116.671 567.081 116.866L567.167 116.986C567.219 117.061 567.282 117.141 567.345 117.215C569.991 120.674 579.95 132.466 596.81 139.212C601.042 140.913 605.48 142.179 610.005 142.969C610.6 143.072 611.202 143.17 611.803 143.256C611.992 143.284 612.187 143.313 612.381 143.341C612.57 143.364 612.765 143.393 612.954 143.41C614.941 143.674 616.94 143.84 618.927 143.914C619.781 143.949 620.657 143.966 621.527 143.966C624.007 143.966 626.458 143.834 628.812 143.571C630.249 143.416 631.675 143.21 633.055 142.963C637.58 142.173 642.018 140.908 646.25 139.207C663.15 132.449 673.075 120.669 675.715 117.221C675.778 117.141 675.836 117.061 675.887 116.992L675.979 116.872C676.133 116.671 676.139 116.396 675.996 116.19ZM611.82 136.418C612.009 136.692 612.198 136.956 612.393 137.225C612.576 137.483 612.771 137.735 612.965 137.987C614.26 139.671 615.714 141.245 617.318 142.683C615.858 142.591 614.403 142.454 612.954 142.259C612.765 142.236 612.576 142.213 612.381 142.185C612.192 142.156 611.998 142.127 611.809 142.099C611.27 142.019 610.732 141.933 610.199 141.841C605.755 141.062 601.391 139.819 597.234 138.153C580.648 131.515 570.855 119.918 568.25 116.517V116.511C570.855 113.12 580.643 101.523 597.234 94.8802C601.454 93.1965 605.824 91.9595 610.217 91.1978C610.784 91.1005 611.356 91.0031 611.929 90.9229C612.124 90.8943 612.318 90.8657 612.507 90.8428C612.702 90.8141 612.891 90.7855 613.08 90.7683C614.5 90.5793 615.932 90.4419 617.364 90.356C615.783 91.7705 614.346 93.3111 613.069 94.9604C612.874 95.2124 612.679 95.4644 612.496 95.7164C612.295 95.9855 612.101 96.2547 611.917 96.5296C607.886 102.342 605.681 109.283 605.681 116.545C605.681 123.738 607.851 130.628 611.82 136.418Z" fill="black"/>
</g>
<defs>
<clipPath id="clip0_10869_16601">
<rect width="719" height="431" rx="20" fill="white"/>
</clipPath>
</defs>
</svg>
