<svg width="413" height="232" viewBox="0 0 413 232" fill="none" xmlns="http://www.w3.org/2000/svg">
<g clip-path="url(#clip0_10923_58884)">
<path d="M132.166 138.343L101.633 141.718C101.626 141.725 101.621 141.734 101.615 141.741C101.191 142.195 100.505 142.249 100.013 141.897L95.6668 142.377C95.6692 142.679 95.5635 142.982 95.3402 143.221C94.8793 143.714 94.1054 143.741 93.612 143.28C93.4228 143.103 93.3029 142.88 93.2528 142.644L89.1193 143.101C89.4976 143.567 89.488 144.25 89.0669 144.702C88.606 145.195 87.8321 145.222 87.3386 144.761C86.9056 144.357 86.8325 143.711 87.1328 143.225C85.2528 143.167 83.4491 142.513 81.9545 141.317C80.1325 139.858 78.9883 137.776 78.7308 135.455L78.6657 134.87C78.6474 134.893 78.6323 134.92 78.6116 134.941C78.1508 135.434 77.3768 135.461 76.8834 135.001C76.39 134.54 76.3629 133.766 76.8238 133.272C77.2624 132.803 77.9823 132.761 78.4765 133.156L77.9815 128.68C77.9648 128.665 77.9458 128.656 77.9299 128.641C77.4666 128.208 77.4205 127.503 77.7972 127.009L76.2533 113.036L74.0181 115.427C74.4654 115.192 75.0288 115.247 75.4197 115.612C75.9132 116.073 75.9402 116.846 75.4793 117.34C75.0185 117.833 74.2446 117.86 73.7511 117.399C73.3602 117.034 73.2672 116.475 73.4714 116.012L68.1508 121.706L68.2684 121.932C68.6419 122.367 70.3646 124.464 72.1738 128.049C72.568 127.942 73.0058 128.033 73.326 128.332C73.8202 128.793 73.8465 129.567 73.3856 130.061C73.3252 130.125 73.2593 130.181 73.1893 130.229C74.262 132.697 75.2823 135.672 75.9792 139.142C76.0006 139.251 75.9982 139.359 75.9776 139.461C76.44 139.14 77.0789 139.172 77.5071 139.573C78.0006 140.034 78.0276 140.807 77.5667 141.301C77.1059 141.794 76.3319 141.821 75.8385 141.361C75.8067 141.33 75.7821 141.296 75.7543 141.264C75.7201 140.832 75.67 140.401 75.6097 139.972C75.5326 140.018 75.4507 140.059 75.3578 140.077C75.3053 140.088 75.2521 140.093 75.2004 140.093C74.8294 140.093 74.498 139.833 74.4225 139.455C72.3232 129.007 67.067 122.969 67.0145 122.909C66.9708 122.861 66.9343 122.807 66.9041 122.75L66.483 121.942C66.3272 121.643 66.3765 121.278 66.6069 121.032L80.9628 105.668C83.0613 103.422 84.1595 100.493 84.0554 97.4211C83.9513 94.3492 82.6561 91.5014 80.4106 89.4021C78.1651 87.3035 75.2656 86.2094 72.1635 86.3087C69.0916 86.4128 66.2438 87.708 64.1445 89.9535L36.6055 119.435L72.3383 152.668L73.5135 153.773C73.2656 153.322 73.3157 152.748 73.686 152.351C74.1468 151.858 74.9207 151.831 75.4142 152.292C75.9084 152.753 75.9347 153.527 75.4738 154.02C75.1019 154.418 74.5274 154.507 74.0594 154.285L78.7833 158.726C78.4861 158.266 78.5226 157.649 78.9136 157.23C79.3744 156.737 80.1484 156.71 80.6418 157.171C81.1353 157.632 81.1615 158.406 80.7014 158.9C80.3089 159.32 79.6915 159.398 79.2115 159.129L84.1007 163.726C83.7105 163.259 83.7153 162.567 84.1412 162.111C84.6021 161.618 85.376 161.591 85.8694 162.052C86.3637 162.513 86.3899 163.287 85.929 163.781C85.5008 164.239 84.8055 164.289 84.3128 163.925L97.0764 175.926L100.784 171.955C100.438 171.49 100.46 170.831 100.87 170.392C101.28 169.952 101.935 169.886 102.423 170.199L108.105 164.114C107.759 163.65 107.781 162.99 108.191 162.552C108.601 162.113 109.257 162.045 109.745 162.359L115.426 156.274C115.079 155.809 115.102 155.15 115.512 154.711C115.517 154.707 115.522 154.703 115.526 154.699C115.694 155.104 115.831 155.445 115.94 155.724L132.17 138.342L132.166 138.343ZM72.7038 123.759C72.2104 123.298 72.1842 122.524 72.645 122.03C73.1059 121.537 73.8798 121.51 74.3733 121.972C74.8675 122.433 74.8937 123.206 74.4329 123.7C73.972 124.193 73.1981 124.22 72.7046 123.759L72.7038 123.759ZM112.069 151.502C111.608 151.995 110.834 152.022 110.341 151.561C109.847 151.099 109.82 150.326 110.281 149.832C110.742 149.339 111.516 149.312 112.009 149.773C112.503 150.234 112.53 151.008 112.069 151.501V151.502ZM105.736 151.254C106.229 151.715 106.256 152.489 105.795 152.982C105.334 153.476 104.56 153.503 104.066 153.042C103.572 152.581 103.546 151.807 104.007 151.314C104.468 150.82 105.242 150.793 105.735 151.254H105.736ZM98.4153 159.095C98.9095 159.556 98.9357 160.33 98.4749 160.823C98.014 161.317 97.2401 161.344 96.7466 160.883C96.2532 160.422 96.2262 159.648 96.687 159.155C97.1479 158.661 97.9218 158.634 98.4153 159.096V159.095ZM90.4725 162.362C89.9783 161.902 89.9521 161.128 90.4129 160.634C90.8738 160.141 91.6477 160.114 92.1412 160.575C92.6346 161.036 92.6616 161.81 92.2008 162.304C91.7399 162.797 90.966 162.824 90.4725 162.363V162.362ZM95.6398 165.515C96.1006 165.021 96.8746 164.994 97.368 165.455C97.8622 165.916 97.8885 166.69 97.4276 167.183C96.9667 167.677 96.1928 167.704 95.6994 167.242C95.2059 166.781 95.1797 166.007 95.6398 165.514V165.515ZM97.7335 152.793C98.1944 152.3 98.9683 152.273 99.4617 152.734C99.956 153.195 99.9822 153.969 99.5213 154.463C99.0605 154.956 98.2866 154.983 97.7931 154.522C97.2997 154.061 97.2727 153.287 97.7335 152.793ZM102.96 157.673C103.421 157.18 104.195 157.153 104.689 157.615C105.182 158.076 105.208 158.849 104.747 159.343C104.287 159.836 103.513 159.863 103.019 159.403C102.525 158.942 102.499 158.168 102.96 157.674L102.96 157.673ZM106.782 144.893C107.276 145.354 107.302 146.128 106.841 146.621C106.38 147.115 105.606 147.142 105.113 146.68C104.619 146.219 104.592 145.445 105.053 144.952C105.514 144.459 106.288 144.432 106.782 144.892L106.782 144.893ZM100.508 146.374C101.002 146.834 101.029 147.608 100.568 148.102C100.107 148.595 99.333 148.622 98.8396 148.161C98.3461 147.7 98.3191 146.926 98.78 146.432C99.2409 145.939 100.015 145.913 100.508 146.374ZM94.2349 147.854C94.7284 148.315 94.7546 149.089 94.2937 149.582C93.8328 150.076 93.0589 150.103 92.5655 149.641C92.0712 149.18 92.045 148.406 92.5059 147.913C92.9667 147.419 93.7407 147.392 94.2341 147.853L94.2349 147.854ZM76.4599 145.933C76.9541 146.394 76.9803 147.168 76.5195 147.662C76.1293 148.08 75.5159 148.158 75.0368 147.894C75.2839 147.141 75.4674 146.377 75.5922 145.605C75.9021 145.597 76.2151 145.705 76.4599 145.933ZM81.0057 144.513C81.4666 144.019 82.2405 143.992 82.734 144.453C83.2274 144.914 83.2536 145.688 82.7928 146.181C82.3319 146.675 81.558 146.702 81.0645 146.24C80.5703 145.779 80.5441 145.005 81.0049 144.512L81.0057 144.513ZM79.9585 150.873C80.4193 150.38 81.1933 150.353 81.6867 150.814C82.1802 151.275 82.2064 152.049 81.7455 152.542C81.2846 153.035 80.5107 153.062 80.0173 152.601C79.523 152.14 79.4968 151.366 79.9577 150.873L79.9585 150.873ZM86.2326 149.393C86.6934 148.9 87.4674 148.873 87.9608 149.333C88.4542 149.794 88.4813 150.568 88.0204 151.062C87.5595 151.555 86.7856 151.582 86.2922 151.12C85.7987 150.659 85.7717 149.886 86.2326 149.392V149.393ZM85.1853 155.754C85.6462 155.26 86.4201 155.233 86.9135 155.695C87.4078 156.156 87.434 156.93 86.9731 157.423C86.5123 157.917 85.7383 157.944 85.2449 157.483C84.7514 157.022 84.7252 156.247 85.1853 155.754ZM91.4594 154.273C91.9203 153.78 92.6942 153.753 93.1876 154.215C93.6811 154.676 93.7081 155.449 93.2472 155.943C92.7864 156.436 92.0125 156.463 91.519 156.002C91.0248 155.542 90.9985 154.768 91.4594 154.274V154.273ZM89.4253 168.723C88.931 168.262 88.9048 167.488 89.3656 166.995C89.8265 166.501 90.6005 166.474 91.0939 166.935C91.5873 167.396 91.6143 168.17 91.1535 168.664C90.6926 169.157 89.9187 169.185 89.4253 168.723ZM96.3811 173.544C95.9203 174.037 95.1463 174.064 94.6529 173.603C94.1587 173.142 94.1324 172.368 94.5933 171.874C95.0541 171.381 95.8281 171.354 96.3215 171.815C96.815 172.276 96.8412 173.05 96.3803 173.543L96.3811 173.544ZM103.702 165.704C103.241 166.197 102.467 166.224 101.973 165.762C101.48 165.301 101.453 164.528 101.914 164.034C102.375 163.541 103.149 163.514 103.642 163.975C104.136 164.435 104.163 165.21 103.702 165.704ZM111.022 157.863C110.561 158.356 109.788 158.383 109.294 157.922C108.801 157.461 108.774 156.687 109.234 156.194C109.695 155.701 110.469 155.674 110.963 156.135C111.456 156.597 111.483 157.369 111.022 157.863Z" fill="white"/>
<path d="M74.3699 121.972C73.8765 121.511 73.1025 121.537 72.6417 122.03C72.1808 122.524 72.207 123.298 72.7005 123.759C73.1947 124.219 73.9678 124.193 74.4287 123.699C74.8896 123.206 74.8634 122.432 74.3691 121.971L74.3699 121.972Z" fill="black"/>
<path d="M75.0352 147.895C75.5143 148.159 76.1277 148.08 76.5179 147.662C76.9787 147.169 76.9525 146.395 76.4583 145.934C76.2135 145.706 75.9005 145.598 75.5906 145.606C75.4658 146.377 75.2815 147.141 75.0352 147.895Z" fill="black"/>
<path d="M81.745 152.541C82.2059 152.048 82.1797 151.274 81.6862 150.813C81.192 150.352 80.4189 150.379 79.958 150.873C79.4971 151.366 79.5234 152.14 80.0176 152.601C80.511 153.062 81.285 153.036 81.7458 152.542L81.745 152.541Z" fill="black"/>
<path d="M82.788 146.182C83.2489 145.689 83.2226 144.915 82.7292 144.454C82.235 143.993 81.4618 144.019 81.001 144.513C80.5401 145.007 80.5663 145.781 81.0606 146.242C81.554 146.703 82.3279 146.676 82.7888 146.183L82.788 146.182Z" fill="black"/>
<path d="M92.5049 147.913C92.044 148.406 92.0702 149.18 92.5645 149.641C93.0579 150.102 93.8318 150.076 94.2927 149.582C94.7536 149.089 94.7273 148.315 94.2339 147.854C93.7397 147.393 92.9665 147.42 92.5057 147.914L92.5049 147.913Z" fill="black"/>
<path d="M98.8376 148.161C99.3318 148.622 100.105 148.595 100.566 148.102C101.027 147.609 101 146.835 100.506 146.374C100.013 145.913 99.2389 145.939 98.778 146.433C98.3172 146.927 98.3442 147.701 98.8376 148.162V148.161Z" fill="black"/>
<path d="M86.9682 157.422C87.4291 156.929 87.4028 156.155 86.9086 155.694C86.4152 155.233 85.6412 155.26 85.1804 155.753C84.7195 156.246 84.7465 157.02 85.24 157.481C85.7342 157.942 86.5073 157.917 86.9682 157.422Z" fill="black"/>
<path d="M88.019 151.063C88.4798 150.569 88.4528 149.796 87.9594 149.335C87.4659 148.874 86.692 148.9 86.2311 149.394C85.7703 149.888 85.7973 150.662 86.2907 151.123C86.7842 151.583 87.5581 151.557 88.019 151.064V151.063Z" fill="black"/>
<path d="M104.005 151.314C103.544 151.807 103.57 152.581 104.064 153.042C104.558 153.503 105.332 153.477 105.793 152.983C106.254 152.488 106.227 151.715 105.734 151.254C105.24 150.794 104.467 150.82 104.006 151.314H104.005Z" fill="black"/>
<path d="M105.111 146.68C105.604 147.141 106.378 147.115 106.839 146.622C107.3 146.128 107.273 145.354 106.78 144.893C106.286 144.432 105.513 144.459 105.052 144.953C104.591 145.446 104.617 146.22 105.111 146.681L105.111 146.68Z" fill="black"/>
<path d="M96.6843 159.154C96.2234 159.648 96.2504 160.422 96.7439 160.882C97.2381 161.343 98.0113 161.317 98.4721 160.823C98.933 160.329 98.9067 159.555 98.4125 159.095C97.9191 158.634 97.1451 158.66 96.6843 159.153V159.154Z" fill="black"/>
<path d="M99.519 154.463C99.9798 153.97 99.9536 153.196 99.4594 152.735C98.9659 152.274 98.192 152.301 97.7311 152.794C97.2703 153.287 97.2973 154.061 97.7907 154.522C98.285 154.983 99.0581 154.957 99.519 154.463V154.463Z" fill="black"/>
<path d="M92.1394 160.575C91.6451 160.114 90.872 160.14 90.4111 160.634C89.9503 161.127 89.9765 161.901 90.4707 162.362C90.9641 162.823 91.7381 162.797 92.199 162.302C92.6598 161.808 92.6328 161.036 92.1394 160.575Z" fill="black"/>
<path d="M93.2458 155.942C93.7067 155.448 93.6797 154.675 93.1862 154.214C92.692 153.753 91.9189 153.779 91.458 154.272C90.9971 154.766 91.0234 155.54 91.5176 156.001C92.011 156.462 92.785 156.436 93.2458 155.942Z" fill="black"/>
<path d="M110.278 149.833C109.817 150.326 109.844 151.1 110.338 151.561C110.831 152.022 111.605 151.996 112.066 151.502C112.527 151.009 112.5 150.235 112.006 149.774C111.513 149.313 110.739 149.34 110.278 149.834V149.833Z" fill="black"/>
<path d="M104.745 159.342C105.206 158.849 105.18 158.075 104.686 157.614C104.192 157.153 103.419 157.179 102.958 157.673C102.497 158.166 102.523 158.94 103.018 159.401C103.511 159.862 104.285 159.836 104.746 159.342L104.745 159.342Z" fill="black"/>
<path d="M91.0925 166.934C90.5982 166.473 89.8251 166.5 89.3642 166.994C88.9034 167.488 88.9296 168.261 89.4238 168.722C89.9173 169.183 90.6912 169.157 91.1521 168.663C91.6129 168.17 91.5859 167.396 91.0925 166.935V166.934Z" fill="black"/>
<path d="M97.4252 167.184C97.8861 166.691 97.8599 165.917 97.3656 165.456C96.8722 164.995 96.0983 165.021 95.6374 165.515C95.1765 166.009 95.2036 166.783 95.697 167.244C96.1912 167.704 96.9644 167.678 97.4252 167.185V167.184Z" fill="black"/>
<path d="M110.963 156.134C110.47 155.673 109.696 155.699 109.235 156.192C108.774 156.686 108.801 157.46 109.295 157.921C109.789 158.382 110.562 158.355 111.023 157.861C111.484 157.367 111.457 156.594 110.963 156.134Z" fill="black"/>
<path d="M103.639 163.975C103.146 163.514 102.372 163.541 101.911 164.035C101.45 164.529 101.477 165.302 101.97 165.763C102.464 166.224 103.238 166.198 103.699 165.704C104.16 165.211 104.133 164.437 103.639 163.976V163.975Z" fill="black"/>
<path d="M96.319 171.815C95.8248 171.354 95.0517 171.381 94.5908 171.875C94.1299 172.369 94.1562 173.142 94.6504 173.603C95.1438 174.064 95.9178 174.038 96.3786 173.544C96.8395 173.051 96.8133 172.277 96.3198 171.816L96.319 171.815Z" fill="black"/>
<path d="M173.819 52.3968C172.628 46.7496 167.349 42.7695 161.47 43.3201C158.41 43.6126 155.647 45.0786 153.69 47.4488C151.733 49.8191 150.816 52.81 151.108 55.8707L151.72 62.2783L174.521 59.7587L173.819 52.3968Z" fill="white"/>
<path d="M282.465 120.134C282.463 118.628 282.698 117.117 283.205 115.654C284.394 112.224 286.846 109.463 290.111 107.879C292.865 106.542 295.921 106.178 298.864 106.809C297.897 105.798 297.083 104.63 296.455 103.335C294.87 100.07 294.652 96.3824 295.84 92.9538C297.029 89.5251 299.481 86.7631 302.746 85.1787C306.011 83.5935 309.698 83.3749 313.127 84.5644L332.478 91.2644L328.092 51.5801C327.689 47.9266 324.584 45.2146 320.99 45.2146C320.729 45.2146 320.466 45.2289 320.199 45.2583L252.552 52.7338L252.889 56.265C253.234 59.8772 252.151 63.4084 249.841 66.207C247.53 69.0055 244.267 70.7369 240.654 71.0818C240.214 71.1247 239.775 71.1446 239.338 71.1446C236.192 71.1446 233.169 70.0631 230.712 68.0337C229.423 66.969 228.372 65.6952 227.567 64.2848C226.713 70.3666 221.791 75.317 215.416 75.9256C214.979 75.9677 214.545 75.9876 214.115 75.9876C208.263 75.9876 203.129 72.203 201.278 66.7862C199.605 71.6881 195.198 75.4227 189.716 75.9455C189.276 75.9884 188.837 76.0083 188.4 76.0083C185.254 76.0083 182.231 74.9268 179.774 72.8974C176.976 70.5876 175.244 67.3242 174.899 63.7111L174.673 61.3401L80.4834 71.7493C76.5637 72.1831 73.7278 75.7238 74.1609 79.6435L74.7425 84.9069C77.2558 85.3304 79.5887 86.4627 81.4926 88.2426C84.0488 90.6312 85.522 93.8715 85.6412 97.3677C85.7603 100.864 84.5097 104.198 82.1211 106.753L77.6825 111.504L80.3102 135.28C80.7433 139.198 84.2705 142.044 88.2045 141.602L282.466 120.134H282.465Z" fill="#5474F6"/>
<path d="M551.006 143.07C531.765 145.332 473.047 132.239 420.111 113.896L373.683 97.8071C373.591 97.6887 373.478 97.5862 373.325 97.5338C373.23 97.502 373.135 97.4941 373.041 97.498C373.029 97.4901 373.024 97.4765 373.011 97.4686L341.134 77.1986C338.485 75.5116 335.386 74.8513 332.311 75.2788L329.673 51.4061C329.417 49.0851 328.272 47.0032 326.45 45.5443C324.628 44.0855 322.346 43.4244 320.026 43.6778L252.402 51.151L251.643 43.2059C250.931 35.7478 244.276 30.2588 236.826 30.9723C231.337 31.4967 226.924 35.2409 225.256 40.1514C224.452 37.8114 223.032 35.7248 221.075 34.1094C218.277 31.7987 214.749 30.7149 211.133 31.0613C207.52 31.4062 204.258 33.1368 201.946 35.9361C200.395 37.8146 199.412 40.0267 199.028 42.3691C196.485 37.7772 191.386 34.8706 185.845 35.4014C182.232 35.7462 178.969 37.4776 176.659 40.2762C174.877 42.4335 173.835 45.0271 173.605 47.7573C171.04 43.7366 166.373 41.2488 161.32 41.7382C154.13 42.424 148.84 48.8316 149.526 56.021L150.141 62.4525L80.3093 70.1696C75.5195 70.6996 72.0519 75.0277 72.5811 79.8175L73.1254 84.7424C72.7877 84.7265 72.4484 84.713 72.1067 84.7217C68.6105 84.8401 65.3694 86.3141 62.9808 88.8703L34.6401 119.209C34.5709 119.283 34.5233 119.368 34.4875 119.457L-102.89 266.595C-118.479 283.29 -144.741 284.19 -161.435 268.603L-220 331.328C-195.511 354.192 -164.331 365.505 -133.209 365.505C-99.1583 365.505 -65.1807 351.951 -40.1645 325.16L97.4534 177.765C97.5409 177.723 97.6219 177.668 97.6887 177.596L134.589 138.075L168.835 134.291C173.269 163.348 196.133 313.007 201.013 341.123L285.565 326.453C281.058 300.471 259.62 160.315 254.206 124.857L282.56 121.723C282.739 123.202 283.149 124.657 283.818 126.036C285.155 128.789 287.327 130.965 290.032 132.292C288.647 132.488 287.285 132.902 285.99 133.53C282.725 135.115 280.273 137.876 279.084 141.306C276.63 148.384 280.393 156.139 287.474 158.593L345.512 178.705C345.536 178.713 345.56 178.712 345.584 178.717L345.53 178.875L392.013 194.982C409.536 201.054 493.271 229.048 547.025 229.048C551.961 229.048 556.643 228.812 561 228.302L551.006 143.07ZM280.587 141.825C281.636 138.797 283.802 136.358 286.685 134.959C289.565 133.561 292.817 133.368 295.843 134.412L295.847 134.414C295.847 134.414 295.851 134.416 295.852 134.416L318.433 142.242C318.519 142.271 318.607 142.285 318.693 142.285C319.022 142.285 319.33 142.079 319.444 141.75C319.588 141.337 319.367 140.884 318.953 140.74L296.375 132.916C296.375 132.916 296.373 132.915 296.372 132.915H296.37L292.114 131.44C289.086 130.391 286.648 128.225 285.248 125.342C283.849 122.459 283.657 119.202 284.706 116.174C285.755 113.146 287.921 110.708 290.804 109.308C293.689 107.91 296.943 107.717 299.971 108.766L304.229 110.241C304.25 110.248 304.272 110.244 304.294 110.249L326.247 117.856C326.333 117.885 326.421 117.899 326.507 117.899C326.836 117.899 327.144 117.693 327.258 117.364C327.402 116.95 327.181 116.498 326.767 116.354L304.753 108.726C304.736 108.72 304.718 108.723 304.701 108.718C301.696 107.663 299.275 105.508 297.883 102.641C296.484 99.7571 296.292 96.5008 297.341 93.4726C298.39 90.4444 300.556 88.0066 303.439 86.6073C306.323 85.2073 309.579 85.0157 312.606 86.0646L335.409 93.9605C335.823 94.1035 336.276 93.8842 336.42 93.4694C336.456 93.3662 336.469 93.2596 336.462 93.1563C336.442 92.8472 336.24 92.566 335.929 92.4579L334.14 91.8381L332.485 76.8569C335.2 76.4675 337.938 77.046 340.28 78.5374L370.974 98.055L372.258 98.1949L345.279 176.94L287.995 157.089C281.743 154.922 278.42 148.075 280.587 141.824V141.825ZM115.935 155.726C115.826 155.448 115.689 155.106 115.521 154.701C115.517 154.706 115.511 154.709 115.507 154.713C115.097 155.152 115.074 155.812 115.421 156.276L109.739 162.361C109.252 162.048 108.596 162.115 108.186 162.554C107.776 162.992 107.754 163.652 108.1 164.117L102.418 170.202C101.931 169.888 101.275 169.955 100.865 170.394C100.455 170.833 100.432 171.492 100.779 171.957L97.0713 175.928L84.3077 163.928C84.8004 164.292 85.4956 164.241 85.9239 163.783C86.3848 163.29 86.3586 162.516 85.8643 162.055C85.3709 161.594 84.5969 161.62 84.1361 162.114C83.7102 162.57 83.7054 163.262 84.0955 163.728L79.2064 159.131C79.6864 159.4 80.3038 159.322 80.6963 158.902C81.1571 158.408 81.1301 157.634 80.6367 157.174C80.1424 156.713 79.3693 156.739 78.9084 157.232C78.5175 157.65 78.481 158.268 78.7781 158.729L74.0543 154.288C74.5223 154.508 75.0968 154.42 75.4686 154.022C75.9295 153.529 75.9033 152.755 75.409 152.294C74.9156 151.833 74.1417 151.859 73.6808 152.354C73.3105 152.75 73.2605 153.325 73.5084 153.775L72.3332 152.67L36.6003 119.436L64.1393 89.9549C66.2387 87.7094 69.0865 86.4142 72.1584 86.3102C75.2605 86.2108 78.1599 87.305 80.4055 89.4035C82.651 91.5028 83.9462 94.3506 84.0503 97.4225C84.1552 100.494 83.0562 103.423 80.9577 105.67L66.6018 121.033C66.3714 121.279 66.3213 121.644 66.4778 121.944L66.899 122.752C66.9292 122.808 66.9657 122.863 67.0094 122.911C67.0619 122.97 72.3189 129.008 74.4174 139.457C74.4937 139.834 74.825 140.095 75.1953 140.095C75.247 140.095 75.3002 140.09 75.3526 140.079C75.4456 140.06 75.5274 140.02 75.6045 139.973C75.6649 140.403 75.7142 140.834 75.7491 141.265C75.7769 141.298 75.8016 141.332 75.8334 141.362C76.3268 141.823 77.1007 141.797 77.5616 141.302C78.0225 140.808 77.9954 140.035 77.502 139.574C77.0737 139.174 76.4349 139.143 75.9724 139.463C75.9939 139.36 75.9962 139.252 75.974 139.143C75.2771 135.673 74.2569 132.698 73.1842 130.23C73.2541 130.182 73.3201 130.126 73.3805 130.062C73.8413 129.569 73.8151 128.795 73.3209 128.334C73.0006 128.034 72.5628 127.944 72.1687 128.05C70.3594 124.466 68.6367 122.37 68.2633 121.933L68.1457 121.708L73.4663 116.014C73.2621 116.476 73.355 117.035 73.746 117.4C74.2394 117.861 75.0133 117.835 75.4742 117.341C75.9351 116.848 75.9081 116.074 75.4146 115.613C75.0245 115.248 74.4611 115.194 74.013 115.429L76.2481 113.037L77.792 127.011C77.4154 127.504 77.4615 128.21 77.9247 128.642C77.9406 128.657 77.9597 128.668 77.9764 128.681L78.4714 133.157C77.9772 132.763 77.2581 132.804 76.8187 133.274C76.3578 133.767 76.3848 134.541 76.8782 135.002C77.3717 135.463 78.1456 135.437 78.6065 134.942C78.6272 134.92 78.6415 134.895 78.6605 134.872L78.7257 135.457C78.9823 137.778 80.1274 139.859 81.9494 141.318C83.4432 142.515 85.2477 143.169 87.1277 143.227C86.8274 143.712 86.8997 144.358 87.3335 144.763C87.827 145.224 88.6009 145.197 89.0617 144.703C89.4829 144.252 89.4924 143.569 89.1142 143.102L93.2477 142.645C93.2977 142.881 93.4177 143.104 93.6068 143.282C94.1011 143.743 94.8742 143.716 95.3351 143.222C95.5576 142.984 95.664 142.68 95.6616 142.378L100.008 141.898C100.5 142.25 101.186 142.196 101.61 141.743C101.616 141.735 101.621 141.727 101.627 141.719L132.161 138.345L115.932 155.727L115.935 155.726ZM88.2036 141.603C84.2704 142.045 80.7424 139.199 80.3093 135.281L77.6816 111.504L82.1202 106.754C84.5087 104.198 85.7586 100.865 85.6402 97.3685C85.5218 93.8723 84.0479 90.6311 81.4917 88.2434C79.5878 86.4635 77.2549 85.332 74.7416 84.9077L74.1599 79.6443C73.7269 75.7246 76.5628 72.1839 80.4825 71.75L174.672 61.3409L174.898 63.7119C175.243 67.3249 176.975 70.5875 179.773 72.8982C182.231 74.9276 185.253 76.009 188.399 76.009C188.836 76.009 189.276 75.9892 189.715 75.9463C195.197 75.4234 199.604 71.6888 201.277 66.787C203.128 72.2037 208.262 75.9884 214.114 75.9884C214.544 75.9884 214.979 75.9685 215.415 75.9264C221.79 75.3177 226.712 70.3674 227.566 64.2856C228.371 65.696 229.422 66.9698 230.711 68.0345C233.169 70.0639 236.191 71.1453 239.337 71.1453C239.774 71.1453 240.214 71.1255 240.653 71.0826C244.266 70.7377 247.528 69.0071 249.84 66.2077C252.15 63.41 253.233 59.878 252.888 56.2658L252.551 52.7346L320.199 45.2591C320.465 45.2297 320.728 45.2154 320.989 45.2154C324.583 45.2154 327.688 47.9273 328.091 51.5809L332.477 91.2652L313.126 84.5652C309.697 83.3765 306.01 83.5942 302.745 85.1794C299.48 86.7639 297.028 89.5259 295.84 92.9545C294.652 96.3832 294.869 100.071 296.454 103.336C297.082 104.631 297.896 105.798 298.863 106.81C295.92 106.179 292.864 106.543 290.11 107.879C286.845 109.464 284.393 112.225 283.204 115.654C282.697 117.119 282.462 118.629 282.464 120.134L88.2028 141.603H88.2036ZM151.108 55.8701C150.816 52.8093 151.733 49.8192 153.69 47.4482C155.647 45.0771 158.41 43.6119 161.47 43.3195C167.349 42.7688 172.628 46.7498 173.819 52.3961L174.521 59.758L151.719 62.2777L151.108 55.8701ZM175.192 50.0688C174.887 46.8777 175.842 43.7605 177.884 41.2885C179.923 38.8173 182.805 37.2885 185.995 36.9834C186.381 36.9469 186.764 36.9294 187.144 36.9294C193.25 36.9294 198.487 41.5873 199.08 47.7867L200.368 61.2797C200.997 67.8661 196.15 73.7357 189.565 74.3642C186.371 74.6726 183.258 73.7127 180.785 71.6722C178.314 69.6324 176.785 66.7512 176.48 63.561L175.192 50.0688ZM200.478 45.7279C200.174 42.5376 201.13 39.4204 203.171 36.9484C205.211 34.4773 208.092 32.9485 211.282 32.6433C211.671 32.606 212.059 32.5885 212.445 32.5885C215.223 32.5885 217.892 33.5436 220.062 35.3354C222.533 37.3751 224.062 40.2563 224.367 43.4466L226.068 61.259C226.696 67.8446 221.849 73.715 215.265 74.3444C208.688 74.9657 202.809 70.1251 202.179 63.5403L201.95 61.1398C201.95 61.1398 201.95 61.1327 201.95 61.1295L200.661 47.6365C200.661 47.6365 200.661 47.6349 200.661 47.6341L200.479 45.7287L200.478 45.7279ZM238.123 32.4995C244.23 32.4995 249.466 37.1574 250.059 43.3568L251.306 56.416C251.61 59.6063 250.654 62.7235 248.613 65.1954C246.573 67.6666 243.693 69.1954 240.502 69.5005C237.307 69.8096 234.194 68.849 231.722 66.8085C229.252 64.7695 227.724 61.8899 227.418 58.702L226.17 45.6341C225.544 39.0501 230.39 33.1829 236.974 32.5543C237.36 32.5178 237.743 32.5003 238.123 32.5003L238.123 32.4995Z" fill="black"/>
<path d="M287.992 157.092L345.277 176.943L372.255 98.1979L370.971 98.0581L340.278 78.5404C337.936 77.049 335.197 76.4705 332.482 76.8599L334.137 91.8411L335.927 92.4609C336.237 92.5682 336.439 92.8503 336.46 93.1594C336.467 93.2627 336.453 93.3683 336.418 93.4724C336.273 93.8872 335.82 94.1065 335.407 93.9635L312.604 86.0676C309.576 85.0188 306.321 85.2102 303.437 86.6103C300.554 88.0096 298.388 90.4474 297.339 93.4756C296.289 96.5046 296.481 99.7601 297.881 102.644C299.273 105.511 301.693 107.666 304.698 108.721C304.716 108.726 304.733 108.722 304.751 108.729L326.764 116.357C327.179 116.501 327.399 116.953 327.255 117.367C327.141 117.696 326.833 117.902 326.504 117.902C326.419 117.902 326.33 117.888 326.245 117.858L304.292 110.252C304.27 110.246 304.248 110.251 304.226 110.244L299.969 108.769C296.94 107.72 293.686 107.913 290.802 109.311C287.919 110.711 285.753 113.149 284.704 116.177C283.654 119.206 283.847 122.462 285.246 125.345C286.646 128.228 289.084 130.394 292.112 131.443L296.368 132.918H296.369C296.369 132.918 296.371 132.919 296.373 132.919L318.95 140.743C319.365 140.887 319.585 141.34 319.441 141.753C319.327 142.082 319.019 142.288 318.69 142.288C318.605 142.288 318.516 142.274 318.431 142.245L295.85 134.419C295.85 134.419 295.847 134.418 295.845 134.417L295.84 134.415C292.814 133.371 289.563 133.564 286.683 134.962C283.8 136.361 281.634 138.8 280.585 141.828C278.417 148.079 281.741 154.927 287.992 157.094V157.092Z" fill="white"/>
<path d="M226.171 45.6344L227.418 58.7023C227.724 61.8902 229.252 64.7698 231.723 66.8087C234.194 68.8484 237.306 69.8091 240.503 69.5008C243.693 69.1957 246.574 67.6669 248.613 65.1957C250.654 62.7245 251.61 59.6065 251.306 56.4162L250.059 43.3571C249.467 37.1577 244.23 32.4998 238.124 32.4998C237.743 32.4998 237.361 32.5172 236.975 32.5538C230.392 33.1831 225.546 39.0496 226.172 45.6336L226.171 45.6344Z" fill="white"/>
<path d="M201.949 61.1303C201.949 61.1303 201.949 61.1375 201.949 61.1407L202.178 63.5411C202.808 70.1259 208.686 74.9666 215.264 74.3452C221.848 73.7159 226.695 67.8455 226.067 61.2599L224.366 43.4475C224.061 40.2572 222.532 37.376 220.061 35.3363C217.891 33.5445 215.222 32.5894 212.444 32.5894C212.058 32.5894 211.67 32.6068 211.281 32.6442C208.091 32.9493 205.21 34.4781 203.17 36.9493C201.129 39.4205 200.174 42.5385 200.477 45.7288L200.659 47.6342V47.6366L201.948 61.1295L201.949 61.1303Z" fill="white"/>
<path d="M176.48 63.5608C176.785 66.7511 178.314 69.6323 180.785 71.672C183.257 73.7117 186.371 74.6716 189.566 74.3641C196.15 73.7355 200.997 67.8659 200.369 61.2795L199.08 47.7865C198.488 41.5871 193.251 36.9292 187.144 36.9292C186.764 36.9292 186.382 36.9467 185.995 36.9832C182.805 37.2883 179.924 38.8171 177.884 41.2883C175.844 43.7595 174.888 46.8775 175.192 50.0686L176.48 63.5608Z" fill="white"/>
<path d="M148.306 115.46C144.13 115.907 141.325 113.753 140.929 110.054C140.541 106.435 142.924 103.887 147.539 103.031L153.378 101.963L153.332 101.526C153.046 98.8609 151.34 97.9573 148.875 98.2213C146.011 98.5278 144.548 99.8913 144.769 101.959L140.633 102.402C140.177 98.1465 143.379 94.9878 148.709 94.4173C153.999 93.8511 157.566 96.3657 158.15 101.815L159.427 113.746L155.171 114.202L154.502 111.337C153.884 113.455 151.368 115.132 148.306 115.46ZM149.505 111.63C152.488 111.311 154.206 109.317 153.882 106.294L153.771 105.26L149.709 106.017C146.716 106.619 145.669 107.736 145.839 109.327C146.031 111.117 147.318 111.864 149.505 111.63ZM164.373 122.429L161.295 93.6736L165.789 93.1925L166.427 96.1414C167.377 93.7466 169.822 92.1574 172.805 91.8381C178.334 91.2464 182.423 94.8718 183.083 101.037C183.738 107.162 180.874 111.974 175.027 112.6C172.084 112.915 169.415 112.034 167.969 110.177L169.225 121.91L164.373 122.429ZM167.239 102.974C167.618 106.514 170.065 108.706 173.406 108.348C176.826 107.982 178.591 105.299 178.216 101.799C177.841 98.2988 175.545 96.0103 172.124 96.3764C168.783 96.734 166.86 99.434 167.239 102.974ZM196.073 110.347C190.226 110.973 185.674 107.156 185.023 101.07C184.363 94.9055 187.924 90.2198 193.691 89.6026C199.578 88.9725 203.738 92.5098 204.394 98.6348L204.551 100.106L189.76 101.73C190.488 105.152 192.505 106.706 195.727 106.361C198.391 106.076 200.031 104.855 200.387 102.926L204.882 102.445C204.506 106.829 201.203 109.798 196.073 110.347ZM194.157 93.5756C191.293 93.8821 189.709 95.6205 189.547 98.6148L199.411 97.559C199.121 94.8545 197.06 93.2648 194.157 93.5756Z" fill="white"/>
<path d="M210.68 108.743C208.93 108.931 207.305 107.656 207.122 105.946C206.935 104.196 208.253 102.607 210.003 102.419C211.753 102.232 213.378 103.506 213.565 105.256C213.748 106.967 212.43 108.556 210.68 108.743ZM225.787 107.166C219.941 107.792 215.389 103.975 214.737 97.8897C214.078 91.725 217.639 87.0393 223.406 86.422C229.293 85.792 233.453 89.3293 234.108 95.4543L234.266 96.9259L219.474 98.5493C220.203 101.971 222.22 103.525 225.441 103.181C228.106 102.895 229.745 101.674 230.102 99.745L234.596 99.264C234.221 103.649 230.918 106.617 225.787 107.166ZM223.872 90.395C221.008 90.7015 219.424 92.44 219.262 95.4343L229.125 94.3785C228.836 91.674 226.775 90.0843 223.872 90.395ZM244.774 104.611L239.921 105.131L238.253 89.5396L234.474 89.9441L234.04 85.8872L237.818 85.4828L237.163 79.3578L242.015 78.8384L242.671 84.9634L246.489 84.5548L246.923 88.6116L243.105 89.0203L244.774 104.611ZM255.665 103.445L250.813 103.965L247.646 74.3738L252.538 73.8502L253.874 86.3389C254.903 84.2978 257.078 82.8179 259.902 82.5157C264.754 81.9963 267.627 84.7863 268.172 89.8773L269.466 101.968L264.614 102.488L263.443 91.55C263.09 88.2489 261.289 86.8325 258.823 87.0965C255.761 87.4243 254.201 89.7636 254.516 92.7068L255.665 103.445Z" fill="white" fill-opacity="0.5"/>
</g>
<defs>
<clipPath id="clip0_10923_58884">
<rect width="413" height="232" fill="white"/>
</clipPath>
</defs>
</svg>
